<svg width="72" height="72" viewBox="0 0 72 72" fill="none" xmlns="http://www.w3.org/2000/svg">
<path d="M36 60.9999H17.0127C16.6049 60.9999 16.2743 60.6693 16.2743 60.2615V48.3327H11.7384C11.3306 48.3327 11 48.0021 11 47.5943V33.8713C11 29.9911 14.1547 26.8345 18.0324 26.8345H34.9803C38.858 26.8345 42.0127 29.9911 42.0127 33.8713V47.5943C42.0127 48.0021 41.6821 48.3327 41.2743 48.3327H36.7384V60.2615C36.7384 60.6693 36.4078 60.9999 36 60.9999ZM17.7511 59.5231H35.2616V47.5943C35.2616 47.1865 35.5922 46.8559 36 46.8559H40.5359V33.8713C40.5359 30.8055 38.0437 28.3113 34.9803 28.3113H18.0324C14.969 28.3113 12.4768 30.8055 12.4768 33.8713V46.8559H17.0127C17.4205 46.8559 17.7511 47.1865 17.7511 47.5943V59.5231Z" fill="white"/>
<path d="M26.507 25.1306C22.6099 25.1306 19.4395 21.9611 19.4395 18.0653C19.4395 14.1695 22.6099 11 26.507 11C30.404 11 33.5745 14.1695 33.5745 18.0653C33.5745 21.9611 30.404 25.1306 26.507 25.1306ZM26.507 12.4768C23.4243 12.4768 20.9162 14.9838 20.9162 18.0653C20.9162 21.1468 23.4243 23.6538 26.507 23.6538C29.5897 23.6538 32.0977 21.1468 32.0977 18.0653C32.0977 14.9838 29.5897 12.4768 26.507 12.4768Z" fill="white"/>
<path d="M26.506 60.9824C26.0982 60.9824 25.7676 60.6519 25.7676 60.244V48.6449C25.7676 48.2371 26.0982 47.9065 26.506 47.9065C26.9138 47.9065 27.2444 48.2371 27.2444 48.6449V60.244C27.2444 60.6519 26.9138 60.9824 26.506 60.9824Z" fill="white"/>
<path d="M60.2614 25.1261C59.8535 25.1261 59.523 24.7955 59.523 24.3877V20.9067H57.0968C56.689 20.9067 56.3584 20.5761 56.3584 20.1683C56.3584 19.7605 56.689 19.4299 57.0968 19.4299H60.2614C60.6692 19.4299 60.9997 19.7605 60.9997 20.1683V24.3877C60.9997 24.7955 60.6692 25.1261 60.2614 25.1261Z" fill="white"/>
<path d="M60.2614 35.6747H57.0968C56.689 35.6747 56.3584 35.3441 56.3584 34.9363C56.3584 34.5285 56.689 34.1979 57.0968 34.1979H59.523V30.7169C59.523 30.3091 59.8535 29.9785 60.2614 29.9785C60.6692 29.9785 60.9997 30.3091 60.9997 30.7169V34.9363C60.9997 35.3441 60.6692 35.6747 60.2614 35.6747Z" fill="white"/>
<path d="M45.4943 25.1261C45.0865 25.1261 44.7559 24.7955 44.7559 24.3877V20.1683C44.7559 19.7605 45.0865 19.4299 45.4943 19.4299H48.6588C49.0666 19.4299 49.3972 19.7605 49.3972 20.1683C49.3972 20.5761 49.0666 20.9067 48.6588 20.9067H46.2327V24.3877C46.2327 24.7955 45.9021 25.1261 45.4943 25.1261Z" fill="white"/>
<path d="M48.6588 35.6747H45.4943C45.0865 35.6747 44.7559 35.3441 44.7559 34.9363V30.7169C44.7559 30.3091 45.0865 29.9785 45.4943 29.9785C45.9021 29.9785 46.2327 30.3091 46.2327 30.7169V34.1979H48.6588C49.0666 34.1979 49.3972 34.5285 49.3972 34.9363C49.3972 35.3441 49.0666 35.6747 48.6588 35.6747Z" fill="white"/>
<path d="M52.878 31.4553C52.4702 31.4553 52.1396 31.1247 52.1396 30.7169V24.3878C52.1396 23.98 52.4702 23.6494 52.878 23.6494C53.2859 23.6494 53.6164 23.98 53.6164 24.3878V30.7169C53.6164 31.1247 53.2859 31.4553 52.878 31.4553Z" fill="white"/>
<path d="M56.0411 28.2908H49.712C49.3042 28.2908 48.9736 27.9602 48.9736 27.5524C48.9736 27.1446 49.3042 26.814 49.712 26.814H56.0411C56.4489 26.814 56.7795 27.1446 56.7795 27.5524C56.7795 27.9602 56.4489 28.2908 56.0411 28.2908Z" fill="white"/>
</svg>
