<svg width="72" height="72" viewBox="0 0 72 72" fill="none" xmlns="http://www.w3.org/2000/svg">
<path d="M33.582 31.7836C33.1201 31.7836 32.7468 31.4102 32.7468 30.9484V29.8752C31.0238 29.4919 29.7285 27.956 29.7285 26.1186C29.7285 25.6567 30.1018 25.2834 30.5637 25.2834C31.0255 25.2834 31.3988 25.6567 31.3988 26.1186C31.3988 27.3221 32.3785 28.3017 33.582 28.3017C34.7863 28.3017 35.7659 27.3221 35.7659 26.1186C35.7659 24.9143 34.7863 23.9346 33.582 23.9346C31.4573 23.9346 29.7285 22.2058 29.7285 20.0811C29.7285 18.2437 31.0238 16.707 32.7468 16.3237V15.2505C32.7468 14.7895 33.1201 14.4153 33.582 14.4153C34.0438 14.4153 34.4171 14.7895 34.4171 15.2505V16.3237C36.1409 16.707 37.4363 18.2437 37.4363 20.0811C37.4363 20.5421 37.063 20.9163 36.6011 20.9163C36.1393 20.9163 35.7659 20.5421 35.7659 20.0811C35.7659 18.8768 34.7863 17.8972 33.582 17.8972C32.3785 17.8972 31.3988 18.8768 31.3988 20.0811C31.3988 21.2846 32.3785 22.2643 33.582 22.2643C35.7075 22.2643 37.4363 23.9931 37.4363 26.1186C37.4363 27.956 36.1409 29.4919 34.4171 29.8752V30.9484C34.4171 31.4102 34.0438 31.7836 33.582 31.7836ZM47.141 48.6908C44.2471 51.8912 39.9577 53.5707 34.4171 53.7277V59.6048C34.4171 60.0658 34.0438 60.44 33.582 60.44C33.1201 60.44 32.7468 60.0658 32.7468 59.6048V53.7286C27.2063 53.5715 22.9168 51.892 20.0229 48.6908C15.3635 43.5403 16.0175 36.4371 16.0475 36.1373C16.0943 35.678 16.4985 35.3431 16.962 35.389C26.4412 36.3378 30.7674 41.4858 32.7468 45.9606V34.1563C27.0167 33.7262 22.4825 28.9381 22.4825 23.0994C22.4825 16.9793 27.4618 12 33.582 12C39.7021 12 44.6814 16.9793 44.6814 23.0994C44.6814 28.9381 40.1473 33.727 34.4171 34.1563V45.9606C36.3965 41.4849 40.7235 36.3369 50.2019 35.389C50.6721 35.3431 51.0705 35.678 51.1164 36.1365C51.1465 36.4363 51.8004 43.5394 47.141 48.6908ZM33.582 32.5285C38.7818 32.5285 43.0111 28.2992 43.0111 23.0994C43.0111 17.8997 38.7818 13.6703 33.582 13.6703C28.3822 13.6703 24.1529 17.8997 24.1529 23.0994C24.1529 28.2992 28.3822 32.5285 33.582 32.5285ZM32.7 52.0749C32.4269 49.0215 30.547 38.8758 17.6769 37.1537C17.6653 39.0972 17.9943 43.9679 21.2715 47.5809C23.8355 50.4087 27.6773 51.9187 32.7 52.0749ZM45.8924 47.5817C49.1696 43.9679 49.4978 39.0972 49.487 37.1546C36.5811 38.8784 34.7262 49.0232 34.4614 52.0741C39.485 51.9187 43.3284 50.4087 45.8924 47.5817ZM47.6396 39.0972C47.3832 38.713 46.8662 38.6086 46.4812 38.8658C43.9181 40.5746 36.612 48.6799 36.3021 49.024C35.9939 49.3665 36.0215 49.8951 36.3639 50.2033C36.5234 50.3469 36.7239 50.4179 36.9227 50.4179C37.1507 50.4179 37.3787 50.3244 37.5432 50.1415C37.6175 50.058 45.0171 41.8491 47.4082 40.2556C47.7924 40 47.896 39.4813 47.6396 39.0972ZM20.6827 38.8667C20.2969 38.6086 19.7791 38.7138 19.5243 39.098C19.2679 39.4813 19.3715 40 19.7557 40.2564C22.1451 41.8491 29.5464 50.0588 29.6207 50.1415C29.7853 50.3252 30.0133 50.4179 30.2413 50.4179C30.4401 50.4179 30.6405 50.3469 30.8 50.2033C31.1424 49.8951 31.17 49.3673 30.8618 49.024C30.552 48.6799 23.2459 40.5754 20.6827 38.8667Z" fill="white"/>
</svg>
