<svg width="72" height="72" viewBox="0 0 72 72" fill="none" xmlns="http://www.w3.org/2000/svg">
<path d="M14.5 64.3327H50.5072L57 57.8399V7.66602H14.5V64.3327ZM50.6958 62.391V58.0276H55.0592L50.6958 62.391ZM15.7396 8.9056H55.7604V56.788H49.4554V63.0931H15.7396V8.9056Z" fill="#171717"/>
<path d="M50.6072 52.8057H20.9219V54.0452H50.6072V52.8057Z" fill="#171717"/>
<path d="M50.6072 49.498H20.9219V50.7376H50.6072V49.498Z" fill="#171717"/>
<path d="M50.6072 46.1895H20.9219V47.429H50.6072V46.1895Z" fill="#171717"/>
<path d="M50.6072 42.8828H20.9219V44.1224H50.6072V42.8828Z" fill="#171717"/>
<path d="M50.6072 36.2666H20.9219V37.5062H50.6072V36.2666Z" fill="#171717"/>
<path d="M50.6072 39.5742H20.9219V40.8138H50.6072V39.5742Z" fill="#171717"/>
<path d="M50.6072 32.959H20.9219V34.1986H50.6072V32.959Z" fill="#171717"/>
<path d="M32.9148 29.6504H20.9219V30.89H32.9148V29.6504Z" fill="#171717"/>
<path d="M32.9148 26.3438H20.9219V27.5833H32.9148V26.3438Z" fill="#171717"/>
<path d="M32.9148 23.0352H20.9219V24.2747H32.9148V23.0352Z" fill="#171717"/>
<path d="M32.9148 19.7266H20.9219V20.9661H32.9148V19.7266Z" fill="#171717"/>
<path d="M32.9148 16.4199H20.9219V17.6595H32.9148V16.4199Z" fill="#171717"/>
<path d="M36.0772 30.9646H48.9113C49.794 30.9646 50.5156 30.243 50.5156 29.3602V18.8202C50.5156 17.9374 49.794 17.2158 48.9113 17.2158H36.0772C35.1944 17.2158 34.4728 17.9374 34.4728 18.8202V29.3602C34.4737 30.243 35.1953 30.9646 36.0772 30.9646ZM35.7132 18.8202C35.7132 18.6227 35.8806 18.4554 36.078 18.4554H48.9122C49.1096 18.4554 49.2769 18.6227 49.2769 18.8202V29.3602C49.2769 29.5576 49.1096 29.725 48.9122 29.725H36.0772C35.8797 29.725 35.7124 29.5576 35.7124 29.3602L35.7132 18.8202Z" fill="#171717"/>
<path d="M40.5039 21.1543V27.0264L45.5897 24.0903L40.5039 21.1543Z" fill="#171717"/>
</svg>
