<svg width="27" height="27" viewBox="0 0 27 27" fill="none" xmlns="http://www.w3.org/2000/svg">
<g clip-path="url(#clip0_2892_1750)">
<path d="M13.4135 0C6.00547 0 0 6.00547 0 13.4135C0 19.7038 4.33094 24.9823 10.1733 26.432V17.5126H7.40745V13.4135H10.1733V11.6472C10.1733 7.08177 12.2395 4.96566 16.7218 4.96566C17.5716 4.96566 19.038 5.13253 19.6378 5.29885V9.01438C19.3213 8.98112 18.7713 8.96448 18.0883 8.96448C15.8891 8.96448 15.0392 9.79773 15.0392 11.9637V13.4135H19.4205L18.6678 17.5126H15.0392V26.7287C21.681 25.9266 26.8275 20.2715 26.8275 13.4135C26.8269 6.00547 20.8214 0 13.4135 0Z" fill="white"/>
</g>
<defs>
<clipPath id="clip0_2892_1750">
<rect width="26.8269" height="26.8269" rx="4" fill="white"/>
</clipPath>
</defs>
</svg>
