<svg width="27" height="27" viewBox="0 0 27 27" fill="none" xmlns="http://www.w3.org/2000/svg">
<path d="M24.8411 0H1.98058C0.885498 0 0 0.86454 0 1.93342V24.8883C0 25.9571 0.885498 26.8269 1.98058 26.8269H24.8411C25.9362 26.8269 26.8269 25.9571 26.8269 24.8935V1.93342C26.8269 0.86454 25.9362 0 24.8411 0ZM7.959 22.8605H3.97688V10.0549H7.959V22.8605ZM5.96794 8.31006C4.68947 8.31006 3.65726 7.27785 3.65726 6.00462C3.65726 4.73139 4.68947 3.69918 5.96794 3.69918C7.24117 3.69918 8.27338 4.73139 8.27338 6.00462C8.27338 7.27261 7.24117 8.31006 5.96794 8.31006ZM22.8605 22.8605H18.8836V16.6358C18.8836 15.153 18.8574 13.2406 16.814 13.2406C14.7443 13.2406 14.4299 14.8596 14.4299 16.531V22.8605H10.4583V10.0549H14.2728V11.8049H14.3252C14.8544 10.7989 16.1538 9.73524 18.0872 9.73524C22.1165 9.73524 22.8605 12.3865 22.8605 15.8342V22.8605Z" fill="white"/>
</svg>
