<svg width="72" height="72" viewBox="0 0 72 72" fill="none" xmlns="http://www.w3.org/2000/svg">
<path d="M35.0437 11.7243C35.1168 12.1309 34.8477 12.52 34.441 12.5961C28.651 13.6551 27.3053 19.4004 27.2935 19.459C27.2145 19.8071 26.9073 20.0441 26.5621 20.0441C26.5094 20.0441 26.4538 20.0382 26.3982 20.0265C25.9945 19.9358 25.74 19.5351 25.8307 19.1314C25.8921 18.8564 27.4164 12.3562 34.172 11.122C34.5816 11.0547 34.9676 11.3176 35.0437 11.7243ZM36.6265 10.8554H36.5358C36.1233 10.8554 35.7868 11.1918 35.7868 11.6043C35.7868 12.0168 36.1233 12.3532 36.5358 12.3532H36.6265C37.039 12.3532 37.3755 12.0168 37.3755 11.6043C37.3755 11.1918 37.0419 10.8554 36.6265 10.8554ZM64.9999 49.2886V58.8221C64.9999 59.7465 64.248 60.4983 63.3206 60.4983H59.6752L60.2486 62.4993H62.0303C62.4429 62.4993 62.7793 62.8357 62.7793 63.2482C62.7793 63.6607 62.4429 63.9971 62.0303 63.9971H51.4129C51.0003 63.9971 50.6639 63.6607 50.6639 63.2482C50.6639 62.8357 51.0003 62.4993 51.4129 62.4993H52.8084L53.3848 60.4983H49.5785C48.6539 60.4983 47.8991 59.7465 47.8991 58.8221V49.2886C47.8991 48.3642 48.651 47.6095 49.5785 47.6095H55.6756V42.9815C55.6756 42.5398 55.3157 42.18 54.874 42.18L36.8079 42.1829V47.6124H42.829C43.7536 47.6124 44.5084 48.3642 44.5084 49.2916V58.825C44.5084 59.7494 43.7565 60.5012 42.829 60.5012H39.1778L39.7512 62.5022H41.5329C41.9454 62.5022 42.2819 62.8386 42.2819 63.2511C42.2819 63.6636 41.9454 64 41.5329 64H30.9125C30.4999 64 30.1635 63.6636 30.1635 63.2511C30.1635 62.8386 30.4999 62.5022 30.9125 62.5022H32.308L32.8844 60.5012H29.0839C28.1594 60.5012 27.4075 59.7494 27.4075 58.825V49.2886C27.4075 48.3641 28.1594 47.6094 29.0839 47.6094H35.3069V42.1799L16.1346 42.1828C15.6928 42.1828 15.333 42.5427 15.333 42.9844V47.6123H21.4213C22.3458 47.6123 23.1007 48.3641 23.1007 49.2915V58.8249C23.1007 59.7494 22.3488 60.5012 21.4213 60.5012H17.7759L18.3493 62.5021H20.1311C20.5436 62.5021 20.88 62.8386 20.88 63.251C20.88 63.6635 20.5436 63.9999 20.1311 63.9999L17.7144 63.997H9.50788C9.09536 63.997 8.7589 63.6606 8.7589 63.2481C8.7589 62.8356 9.09536 62.4992 9.50788 62.4992H10.9093L11.4856 60.4982H7.67935C6.75482 60.4982 6 59.7464 6 58.822V49.2886C6 48.3641 6.7519 47.6094 7.67935 47.6094H13.835V42.9815C13.835 41.7148 14.8678 40.6821 16.1346 40.6821L35.3099 40.6851V36.9845L21.6411 37.0956C21.565 37.0986 21.4919 37.0986 21.4187 37.0986C18.9494 37.0986 16.6147 36.1537 14.8301 34.4248C12.9869 32.6403 11.9629 30.2474 11.9365 27.6818C11.9131 25.1192 12.8961 22.7087 14.7042 20.8891C16.5035 19.0812 18.8968 18.0866 21.445 18.0866H21.4889L22.3958 18.0925C22.6972 18.0925 22.9634 17.8994 23.0629 17.6098C23.8645 15.2695 27.1793 7.65774 36.4568 8.01196C45.673 8.36886 48.2502 15.4073 48.8209 17.5544C48.8941 17.8294 49.1398 18.0312 49.4295 18.0575L51.2083 18.1307C56.1469 18.3325 60.0904 22.3636 60.187 27.3046C60.2367 29.8234 59.2976 32.2075 57.5392 34.0154C55.7809 35.8233 53.4199 36.8325 50.8979 36.853L36.8082 36.973V40.6852H54.8742C56.141 40.6852 57.1738 41.715 57.1738 42.9846V47.6125H63.3236C64.2452 47.6125 64.9999 48.3642 64.9999 49.2886ZM50.8802 35.3607C53.0013 35.3432 54.9821 34.4978 56.4595 32.9795C57.9369 31.4612 58.7269 29.4573 58.6831 27.3423C58.6012 23.1912 55.2893 19.8069 51.1409 19.6339L49.3269 19.5579C48.379 19.476 47.6066 18.8295 47.3696 17.949C46.7231 15.5151 44.3621 9.82197 36.3956 9.51492C28.4086 9.21068 25.3947 15.4183 24.4764 18.101C24.1722 18.9961 23.3325 19.5959 22.3904 19.5959L21.4775 19.59H21.4395C19.295 19.59 17.2792 20.4267 15.7637 21.9507C14.2394 23.4807 13.4115 25.5138 13.4319 27.6727C13.4524 29.8346 14.3155 31.8531 15.869 33.3538C17.4196 34.8545 19.4705 35.6619 21.618 35.6034L50.8802 35.3607ZM14.5107 60.4981L13.045 60.5039L12.4686 62.4991H16.7957L16.2222 60.5039L14.5107 60.4981ZM21.6026 58.8218V57.4352H7.49791V58.8218C7.49791 58.9213 7.57984 59.0003 7.67931 59.0003H21.4215C21.521 59.0003 21.6026 58.9213 21.6026 58.8218ZM21.4212 49.1094H7.67902C7.57955 49.1094 7.49763 49.1913 7.49763 49.2908V55.9402H21.5993V49.2908C21.6023 49.1884 21.5207 49.1094 21.4212 49.1094ZM35.9094 60.4979L34.4437 60.5037L33.8673 62.4988H38.1944L37.6209 60.5037L35.9094 60.4979ZM43.0072 58.8216V57.435H28.9055V58.8216C28.9055 58.9211 28.9874 59.0001 29.0839 59.0001H42.8291C42.9286 59.0001 43.0072 58.9211 43.0072 58.8216ZM42.8287 49.1092H29.0835C28.984 49.1092 28.905 49.1911 28.905 49.2906V55.9399H43.0067V49.2906C43.0067 49.1882 42.9282 49.1092 42.8287 49.1092ZM49.3968 49.2877V55.937H63.4986V49.2877C63.4986 49.1882 63.4166 49.1063 63.3172 49.1063L49.578 49.1092C49.4785 49.1092 49.3968 49.1882 49.3968 49.2877ZM56.4068 60.4979L54.9411 60.5037L54.3647 62.4988H58.6918L58.1183 60.5037L56.4068 60.4979ZM63.5016 58.8216V57.435H49.3969V58.8216C49.3969 58.9211 49.4788 59 49.5783 59H63.3235C63.4201 59 63.5016 58.9211 63.5016 58.8216Z" fill="white"/>
</svg>
