<svg width="72" height="72" viewBox="0 0 72 72" fill="none" xmlns="http://www.w3.org/2000/svg">
<path d="M57.4823 31.889C57.0611 31.889 56.6425 31.7003 56.3423 31.3301C51.1669 24.9527 43.7106 21.2954 35.8863 21.2954C28.1846 21.2954 20.8076 24.8574 15.6461 31.0672C15.0856 31.7431 14.1254 31.7972 13.5014 31.1873C12.8794 30.5779 12.8292 29.536 13.3912 28.8601C19.1276 21.9584 27.3264 18 35.8863 18C44.5821 18 52.869 22.0651 58.6212 29.1524C59.1756 29.8355 59.1146 30.8764 58.4855 31.4781C58.197 31.7534 57.8389 31.889 57.4823 31.889Z" fill="currentColor"/>
<path d="M51.1009 39.6815C50.65 39.6815 50.2043 39.4649 49.9045 39.0499C46.5291 34.3754 41.4583 31.6945 35.9924 31.6945C30.5358 31.6945 25.4701 34.3682 22.0947 39.0298C21.5762 39.7449 20.6222 39.8696 19.9623 39.3077C19.3034 38.7452 19.1886 37.7095 19.7066 36.9939C23.662 31.5321 29.5982 28.3991 35.9924 28.3991C42.398 28.3991 48.3398 31.5404 52.2947 37.0171C52.8116 37.7332 52.6964 38.7689 52.0359 39.3304C51.7588 39.567 51.4283 39.6815 51.1009 39.6815Z" fill="currentColor"/>
<path d="M28.6339 46.7229L33.2687 52.5666C34.7842 54.4778 37.2651 54.4778 38.7806 52.5666L43.2638 46.9141C44.6118 45.2149 44.5826 44.1178 43.3832 42.6052C43.3832 42.6052 41.18 39.3278 36.289 39.3278C30.9231 39.3278 28.6667 42.6052 28.6667 42.6052C27.5482 44.0152 27.2859 45.0236 28.6339 46.7229Z" fill="currentColor"/>
</svg>
