<svg width="72" height="72" viewBox="0 0 72 72" fill="none" xmlns="http://www.w3.org/2000/svg">
<path d="M12.596 41.2553C13.4764 41.2553 14.1918 41.9707 14.1918 42.8511V48.7021C14.1918 54.2844 18.7157 58.8085 24.2983 58.8085H30.1494C31.0297 58.8085 31.7451 59.5239 31.7451 60.4042C31.7451 61.2846 31.0297 62 30.1494 62H24.2983C16.9554 62 11.0007 56.0453 11.0007 48.7025V42.8515C11.0007 41.9711 11.7157 41.2553 12.596 41.2553ZM59.4042 41.2553C60.2846 41.2553 61 41.9707 61 42.8511V48.7021C61 56.0449 55.0452 61.9996 47.7024 61.9996H41.8513C40.971 61.9996 40.2556 61.2842 40.2556 60.4038C40.2556 59.5235 40.971 58.8081 41.8513 58.8081H47.7024C53.2848 58.8081 57.8089 54.2842 57.8089 48.7017V42.8506C57.8089 41.9703 58.5239 41.2553 59.4042 41.2553ZM36.0001 20.5107C45.1065 20.5107 52.4896 27.8938 52.4896 37C52.4896 46.1063 45.1065 53.4893 36.0001 53.4893C26.8938 53.4893 19.5107 46.1063 19.5107 37C19.5107 27.8938 26.8938 20.5107 36.0001 20.5107ZM36.0001 23.7022C28.6572 23.7022 22.7025 29.6569 22.7025 36.9997C22.7025 44.3425 28.6573 50.2972 36.0001 50.2972C43.343 50.2972 49.2977 44.3425 49.2977 36.9997C49.2977 29.6569 43.343 23.7022 36.0001 23.7022ZM34.2342 29.1037C34.9735 27.6862 37.0267 27.6862 37.766 29.1037C38.8113 31.3058 40.2368 33.1621 42.3564 34.4334L43.7208 35.2552C44.9309 36.0956 44.9309 37.9041 43.7208 38.7445L42.3564 39.5663C40.3379 40.7763 38.774 42.6008 37.8326 44.7497C37.1092 46.2736 34.8671 46.3826 34.1677 44.7497C33.2555 42.67 31.7608 40.8907 29.8326 39.6833L28.4071 38.8243C27.0268 37.9999 27.0268 36.0025 28.4071 35.1754L29.8326 34.3164C31.8592 33.0477 33.2236 31.2366 34.2342 29.1037ZM36.0001 32.5877C34.8671 34.359 33.3539 35.8696 31.5614 36.9999C33.3539 38.1302 34.8672 39.6408 36.0001 41.4148C37.1331 39.6408 38.6464 38.1302 40.4389 36.9999C38.6464 35.8696 37.1331 34.359 36.0001 32.5877ZM30.1491 12.0004C31.0294 12.0004 31.7448 12.7158 31.7448 13.5962C31.7448 14.4765 31.0294 15.1919 30.1491 15.1919H24.298C18.7156 15.1919 14.1915 19.7158 14.1915 25.2983V31.1494C14.1915 32.0297 13.4761 32.7451 12.5958 32.7451C11.7154 32.7451 11 32.0297 11 31.1494V25.2983C11 17.9555 16.9547 12.0008 24.2976 12.0008L30.1491 12.0004ZM47.702 12.0004C55.0449 12.0004 60.9996 17.9551 60.9996 25.2979V31.1489C60.9996 32.0293 60.2842 32.7447 59.4038 32.7447C58.5235 32.7447 57.8081 32.0293 57.8081 31.1489V25.2979C57.8081 19.7156 53.2842 15.1915 47.7016 15.1915H41.8505C40.9702 15.1915 40.2547 14.4761 40.2547 13.5958C40.2547 12.7154 40.9702 12 41.8505 12L47.702 12.0004Z" fill="white"/>
</svg>
