<svg width="72" height="72" viewBox="0 0 72 72" fill="none" xmlns="http://www.w3.org/2000/svg">
<path d="M38.5767 57.7889L53.8957 46.4493C54.4674 46.0267 54.9021 45.5204 55.19 44.9544C55.4758 44.3883 55.6248 43.7385 55.6248 43.0309V20.9819C55.6248 19.9634 55.2826 19.0286 54.6888 18.2991C54.093 17.5636 53.2455 17.0294 52.247 16.8101L36.9281 13.4496C36.6161 13.3798 36.3101 13.3479 35.994 13.3479C35.678 13.3479 35.3721 13.3818 35.06 13.4496L19.7411 16.8101C18.7406 17.0294 17.8952 17.5656 17.2993 18.2991C16.7075 19.0286 16.3633 19.9634 16.3633 20.9819V43.0309C16.3633 43.7405 16.5122 44.3883 16.7981 44.9544C17.0839 45.5204 17.5207 46.0267 18.0924 46.4493L33.4114 57.7889C34.1924 58.3669 35.0942 58.6559 35.994 58.6559C36.8938 58.6559 37.7957 58.3669 38.5767 57.7889ZM29.1056 27.0276V25.0962C29.1056 23.2186 29.8806 21.5144 31.1287 20.2786C32.3767 19.0428 34.0978 18.2754 35.994 18.2754C37.7413 18.2754 39.3436 18.9291 40.5615 20.0015C41.7914 21.0838 42.6308 22.5967 42.8341 24.2949C42.9106 24.9367 42.4477 25.5187 41.7975 25.5945C41.1493 25.6703 40.5615 25.2118 40.485 24.568C40.3521 23.4538 39.8006 22.4612 38.9894 21.7476C38.1902 21.044 37.1395 20.6175 35.9941 20.6175C34.752 20.6175 33.6208 21.1218 32.8015 21.933C31.9822 22.7442 31.473 23.8624 31.473 25.0942V26.94H41.8618C43.5246 26.94 45.0363 27.6137 46.1334 28.698C47.2284 29.7823 47.9088 31.2792 47.9088 32.9256V40.8867C47.9088 42.5332 47.2284 44.0301 46.1334 45.1144C45.0363 46.1987 43.5266 46.8724 41.8618 46.8724H30.128C28.4652 46.8724 26.9535 46.1987 25.8564 45.1144C24.7614 44.0301 24.081 42.5332 24.081 40.8867V32.9256C24.081 31.2792 24.7614 29.7823 25.8564 28.698C26.722 27.8409 27.8493 27.2409 29.1054 27.0257L29.1056 27.0276ZM41.8598 29.286H30.1244C29.1139 29.286 28.196 29.6966 27.5277 30.3563C26.8613 31.0181 26.4447 31.927 26.4447 32.9276V40.8887C26.4447 41.8893 26.8593 42.7982 27.5277 43.46C28.194 44.1198 29.1139 44.5324 30.1244 44.5324H41.8583C42.8688 44.5324 43.7867 44.1218 44.455 43.46C45.1213 42.8002 45.538 41.8894 45.538 40.8887V32.9276C45.538 31.927 45.1234 31.0181 44.455 30.3563C43.7887 29.6966 42.8688 29.286 41.8583 29.286H41.8598ZM55.3107 48.3269L39.9918 59.6665C38.7901 60.5555 37.395 61 35.996 61C34.597 61 33.2 60.5555 32.0003 59.6665L16.6813 48.3269C15.8198 47.6891 15.1514 46.9018 14.6945 45.9989C14.2376 45.094 14 44.0953 14 43.031V20.982C14 19.4213 14.5375 17.9762 15.4634 16.8341C16.3854 15.696 17.6918 14.8668 19.2377 14.528L34.5567 11.1674C35.064 11.0558 35.537 11 36 11C36.463 11 36.936 11.0558 37.4433 11.1674L52.7623 14.528C54.3062 14.8668 55.6126 15.696 56.5366 16.8341C57.4606 17.9762 58 19.4193 58 20.982V43.031C58 44.0933 57.7625 45.094 57.3055 45.9989C56.8486 46.9018 56.1802 47.6911 55.3187 48.3269H55.3107Z" fill="white"/>
</svg>
