<svg width="72" height="72" viewBox="0 0 72 72" fill="none" xmlns="http://www.w3.org/2000/svg">
<path d="M38.1996 21.2C37.6996 21.1 37.0996 21.5 37.0996 22C36.9996 22.5 37.3996 23.1 37.8996 23.1C43.5996 24 47.9996 29.1 47.9996 35C47.9996 41.6 42.5996 47 35.9996 47C29.3996 47 23.9996 41.6 23.9996 35C23.9996 29.1 28.3996 24 34.1996 23.1C34.6996 23 35.0996 22.5 34.9996 22C34.8996 21.5 34.3996 21.1 33.8996 21.2C27.0996 22.2 22.0996 28.2 22.0996 35C22.0996 42.7 28.3996 49 36.0996 49C43.7996 49 50.0996 42.7 50.0996 35C49.9996 28.2 44.8996 22.2 38.1996 21.2Z" fill="white"/>
<path d="M63 46C62.2 46 61.5 46.3 61 46.8L53.2 36.5L61 24.3C61.5 24.8 62.2 25 62.9 25C64.6 25 65.9 23.7 65.9 22C65.9 20.3 64.6 19 62.9 19C61.5 19 60.3 20 60 21.4L44.4 19.6L37.6 11.5C38.5 10.9 39 10 39 9C39 7.3 37.7 6 36 6C34.3 6 33 7.3 33 9C33 10 33.5 10.9 34.3 11.5L27.5 19.6L11.9 21.4C11.6 20 10.4 19 9 19C7.3 19 6 20.3 6 22C6 23.7 7.3 25 9 25C9.7 25 10.4 24.7 10.9 24.3L18.7 36.5L11 46.8C10.5 46.3 9.8 46 9 46C7.3 46 6 47.3 6 49C6 50.7 7.3 52 9 52C10.4 52 11.6 51 11.9 49.6L27.4 51.4L34.3 60.5C33.5 61 33 62 33 63C33 64.7 34.3 66 36 66C37.7 66 39 64.7 39 63C39 62 38.5 61 37.6 60.5L44.5 51.4L60 49.6C60.4 51 61.6 52 63 52C64.7 52 66 50.7 66 49C66 47.3 64.7 46 63 46ZM63 21C63.6 21 64 21.4 64 22C64 22.6 63.6 23 63 23C62.4 23 62 22.6 62 22C62 21.4 62.4 21 63 21ZM36 8C36.6 8 37 8.4 37 9C37 9.6 36.6 10 36 10C35.4 10 35 9.6 35 9C35 8.4 35.4 8 36 8ZM9 23C8.4 23 8 22.6 8 22C8 21.4 8.4 21 9 21C9.6 21 10 21.4 10 22C10 22.6 9.6 23 9 23ZM9 50C8.4 50 8 49.6 8 49C8 48.4 8.4 48 9 48C9.6 48 10 48.4 10 49C10 49.6 9.6 50 9 50ZM36 64C35.4 64 35 63.6 35 63C35 62.4 35.4 62 36 62C36.6 62 37 62.4 37 63C37 63.6 36.6 64 36 64ZM43.9 49.5C43.6 49.5 43.4 49.7 43.2 49.9L36 59.4L28.8 49.9C28.6 49.7 28.4 49.5 28.1 49.5L12.8 47.7L20.8 37.1C21.1 36.8 21.1 36.3 20.8 36L12.7 23.3L28.1 21.5C28.4 21.5 28.6 21.3 28.7 21.2L35.9 12.6L43.1 21.2C43.3 21.4 43.5 21.5 43.7 21.5L59.1 23.3L51.2 36C51 36.4 51 36.8 51.2 37.1L59.2 47.7L43.9 49.5ZM63 50C62.4 50 62 49.6 62 49C62 48.4 62.4 48 63 48C63.6 48 64 48.4 64 49C64 49.6 63.6 50 63 50Z" fill="white"/>
<path d="M26.8004 30.9999C26.4004 31.0999 26.1004 31.3999 26.0004 31.6999C25.9004 31.9999 26.0004 32.4999 26.3004 32.6999L30.8004 36.2999L29.0004 41.5999C28.9004 41.9999 29.0004 42.3999 29.3004 42.6999C29.6004 42.9999 30.0004 42.9999 30.4004 42.7999L36.0004 39.9999L41.6004 42.7999C41.7004 42.9999 41.8004 42.9999 42.0004 42.9999C42.2004 42.9999 42.5004 42.8999 42.7004 42.7999C43.0004 42.4999 43.1004 42.0999 43.0004 41.6999L41.2004 36.3999L45.7004 32.7999C46.0004 32.5999 46.1004 32.0999 46.0004 31.7999C45.9004 31.4999 45.6004 31.0999 45.2004 31.0999L39.7004 30.1999L36.9004 25.5999C36.5004 24.9999 35.5004 24.9999 35.2004 25.5999L32.4004 30.1999L26.8004 30.9999ZM33.9004 31.4999L36.0004 27.8999L38.1004 31.4999C38.3004 31.7999 38.5004 31.8999 38.8004 31.9999L42.6004 32.5999L39.3004 35.1999C39.0004 35.4999 38.8004 35.8999 39.0004 36.2999L40.2004 39.9999L36.4004 38.0999C36.3004 37.9999 36.2004 37.9999 36.0004 37.9999C35.8004 37.9999 35.7004 37.9999 35.6004 38.0999L31.7004 39.9999L32.9004 36.2999C33.0004 35.8999 32.9004 35.4999 32.6004 35.1999L29.3004 32.5999L33.1004 31.9999C33.5004 31.8999 33.7004 31.7999 33.9004 31.4999Z" fill="white"/>
</svg>
