<svg width="58" height="36" viewBox="0 0 58 36" fill="none" xmlns="http://www.w3.org/2000/svg">
<path d="M57.555 0.141109C57.278 -0.0308911 56.934 -0.0468906 56.643 0.102109C56.512 0.168109 43.313 6.82211 29 6.82211C14.704 6.82211 1.488 0.16811 1.356 0.10011C1.067 -0.0458905 0.721 -0.0318905 0.445 0.140109C0.168 0.313109 0 0.619109 0 0.947109V35.0521C0 35.3661 0.154 35.6601 0.412 35.8371C0.569 35.9451 0.751 36.0001 0.936 36.0001C1.054 36.0001 1.173 35.9771 1.286 35.9321C1.418 35.8761 14.648 30.5421 29.001 30.5421C43.339 30.5421 56.584 35.8771 56.716 35.9321C57.004 36.0461 57.332 36.0151 57.589 35.8381C57.846 35.6611 58 35.3671 58 35.0531V0.947109C58 0.619109 57.832 0.313109 57.555 0.141109ZM11.174 30.9301L22.949 19.3991L30.385 28.6741C29.924 28.6621 29.464 28.6481 29 28.6481C22.47 28.6471 16.178 29.7261 11.174 30.9301ZM34.039 28.8561L38.643 23.0271L46.809 30.9261C43.114 30.0371 38.718 29.2241 34.039 28.8561ZM56.129 33.6881C54.949 33.2621 53.004 32.5991 50.519 31.8931L39.198 20.9441C39.008 20.7591 38.757 20.6691 38.489 20.6821C38.227 20.7011 37.985 20.8281 37.821 21.0361L32.288 28.0411L23.758 17.4031C23.593 17.1971 23.35 17.0701 23.088 17.0541C22.831 17.0411 22.57 17.1341 22.381 17.3181L7.504 31.8881C5.008 32.5961 3.055 33.2611 1.871 33.6891V2.44011C5.661 4.16911 16.791 8.71511 29 8.71511C41.209 8.71511 52.339 4.16811 56.129 2.44011V33.6881Z" fill="white"/>
<path d="M37.2592 19.5719C39.7502 19.5719 41.7772 17.5189 41.7772 14.9959C41.7772 12.4739 39.7502 10.4209 37.2592 10.4209C34.7682 10.4209 32.7402 12.4739 32.7402 14.9959C32.7412 17.5199 34.7682 19.5719 37.2592 19.5719ZM37.2592 12.3149C38.7182 12.3149 39.9052 13.5179 39.9052 14.9959C39.9052 16.4749 38.7182 17.6779 37.2592 17.6779C35.7992 17.6779 34.6122 16.4749 34.6122 14.9959C34.6122 13.5189 35.7992 12.3149 37.2592 12.3149Z" fill="white"/>
<path d="M27.3283 11.3679C27.3283 10.8449 26.9093 10.4209 26.3923 10.4209H16.8383C16.3213 10.4209 15.9023 10.8449 15.9023 11.3679C15.9023 11.8919 16.3213 12.3149 16.8383 12.3149H26.3923C26.9093 12.3149 27.3283 11.8929 27.3283 11.3679Z" fill="white"/>
<path d="M19.4863 14.9963C19.4863 15.5203 19.9053 15.9443 20.4223 15.9443H29.9753C30.4923 15.9443 30.9113 15.5203 30.9113 14.9963C30.9113 14.4743 30.4923 14.0493 29.9753 14.0493H20.4223C19.9053 14.0493 19.4863 14.4743 19.4863 14.9963Z" fill="white"/>
</svg>
