<svg width="58" height="60" viewBox="0 0 58 60" fill="none" xmlns="http://www.w3.org/2000/svg">
<path d="M49.0541 58.2889L56.2931 51.0179L55.3532 50.0662L47.0636 56.2922L49.0541 58.2889ZM12.2219 45.2093L12.1425 45.2492H12.1398C11.0145 45.8341 9.63778 45.6161 8.74551 44.7095L6.07135 42.0245C5.16851 41.1287 4.95141 39.7462 5.53652 38.6164L5.75892 38.1698C6.27787 37.2048 6.28581 36.0431 5.7801 35.0701C5.57094 34.6394 5.36971 34.2035 5.18967 33.7648C5.00963 33.3261 4.84018 32.8769 4.68661 32.4223C4.5198 31.9118 4.2365 31.4466 3.85785 31.0665C3.47393 30.6916 3.0053 30.4098 2.49166 30.2503L2.02037 30.0961C0.807699 29.7133 -0.01306 28.5808 0.000157326 27.3021V23.5059C-0.00249033 22.8865 0.190791 22.283 0.550877 21.7779C0.916257 21.2781 1.42993 20.906 2.02037 20.7172L2.49166 20.563C3.00266 20.4008 3.47129 20.1217 3.85785 19.7469C4.23647 19.3641 4.51977 18.8988 4.68396 18.3858C4.83753 17.9312 5.00698 17.4846 5.18703 17.0432C5.36707 16.6019 5.56829 16.1686 5.77746 15.7379C6.28317 14.7649 6.27787 13.6059 5.75892 12.6408L5.53652 12.1969V12.1942C4.94873 11.0644 5.16849 9.68202 6.07135 8.78613L8.74552 6.09848C9.18238 5.65718 9.74637 5.36742 10.358 5.27174C10.9669 5.17338 11.5918 5.27174 12.1398 5.55885L12.5847 5.78482C13.5484 6.30055 14.7028 6.30853 15.6719 5.80608C16.1008 5.59075 16.5324 5.39403 16.9719 5.21326C17.4088 5.02983 17.8563 4.86235 18.309 4.71082C18.8174 4.54334 19.2807 4.25623 19.6594 3.87605C20.038 3.49057 20.316 3.02004 20.4775 2.50432L20.631 2.02846C21.0176 0.816249 22.1429 -0.00790513 23.4138 5.73825e-05H27.1947C28.4629 -0.00791806 29.5882 0.816181 29.9721 2.02846L30.1257 2.50432C30.2872 3.01739 30.5652 3.48792 30.9385 3.87339C31.3225 4.25354 31.7858 4.538 32.2942 4.70816C32.7469 4.86235 33.1944 5.02983 33.6313 5.2106C34.0681 5.39137 34.5024 5.5881 34.9313 5.80343H34.934C35.903 6.30587 37.0548 6.29789 38.0185 5.78216L38.4607 5.5562V5.55354C39.5886 4.97134 40.9628 5.18933 41.855 6.0932L44.5318 8.78085C45.4347 9.67939 45.6518 11.0592 45.0693 12.1916L44.8416 12.6356C44.3306 13.6006 44.3227 14.7596 44.8231 15.7326C45.0349 16.1633 45.2335 16.5966 45.4135 17.0379C45.5936 17.4793 45.763 17.9259 45.9166 18.3805C46.2475 19.4225 47.0683 20.2361 48.1115 20.5577L48.5855 20.7119C49.7928 21.0947 50.6136 22.2272 50.6057 23.5006V27.2968C50.6136 28.5729 49.7955 29.7054 48.5855 30.0909L48.1115 30.245C47.0683 30.5641 46.2502 31.3776 45.9166 32.417C45.763 32.8716 45.5962 33.3208 45.4135 33.7595C45.2308 34.1981 45.0375 34.6342 44.8231 35.0648C44.3227 36.0405 44.3306 37.1995 44.8416 38.1645L44.9078 38.2948L44.9105 38.2975C45.1382 38.223 45.3764 38.1832 45.6174 38.1832C46.2105 38.1832 46.7797 38.4198 47.2007 38.8424L48.8026 40.4588C48.8502 40.5066 48.8899 40.5598 48.9217 40.6209L52.2128 45.9272C52.3584 46.1584 52.4458 46.4216 52.4749 46.6928L54.6196 48.8408L54.977 48.5723L54.9744 48.5749C55.255 48.349 55.6628 48.3702 55.917 48.6254L57.7915 50.5155C58.0695 50.792 58.0695 51.2413 57.7915 51.5178L49.5548 59.7906C49.2794 60.0698 48.8319 60.0698 48.5539 59.7906L45.4853 56.7096L45.4879 56.7122C45.4641 56.6883 45.4402 56.6617 45.4191 56.6325C45.3079 56.4836 45.2602 56.2949 45.2867 56.1088C45.3132 55.9227 45.4138 55.7552 45.562 55.6435L45.7765 55.484L44.8234 54.5217C44.7413 54.5217 44.6592 54.5163 44.5798 54.503L39.5174 53.7055C38.7337 53.5859 38.1273 52.9558 38.0373 52.1663L37.619 48.6572L37.0365 48.0723C35.8794 49.9465 34.2961 51.5177 32.4189 52.6581C28.8339 54.8221 24.4682 55.2395 20.5416 53.7933C16.6151 52.3445 13.5568 49.1863 12.2229 45.2067L12.2219 45.2093ZM53.4782 49.7047L51.9319 48.1523L46.2023 53.9051L46.9146 54.6202L53.4782 49.7047ZM45.0238 41.0222L46.4324 42.4365C46.7078 42.7129 46.7078 43.1622 46.4324 43.4387C46.157 43.7152 45.7096 43.7152 45.4342 43.4387L44.0283 42.0271L42.9639 40.9611C42.6409 40.6368 42.1166 40.6368 41.7936 40.9611C41.4706 41.2854 41.4706 41.8118 41.7936 42.1361L44.2639 44.6138C44.3989 44.7467 44.4757 44.9275 44.4757 45.1162C44.4783 45.3076 44.4016 45.4884 44.2692 45.6213C44.1368 45.7569 43.9541 45.8313 43.7661 45.8313C43.5781 45.8287 43.3981 45.7516 43.2657 45.6187L40.7981 43.1357L40.5545 42.8911L39.7364 42.0723C39.4133 41.748 38.8891 41.7454 38.566 42.0697C38.243 42.3967 38.243 42.9204 38.566 43.2474L42.0954 46.7911C42.2304 46.924 42.3072 47.1048 42.3072 47.2935C42.3072 47.4849 42.2331 47.6657 42.1007 47.7986C41.9683 47.9342 41.7856 48.0086 41.5976 48.0086C41.4096 48.006 41.2296 47.9289 41.0972 47.7933L37.5652 44.247L33.1383 39.7967L33.1357 39.7994C32.9795 39.6452 32.7703 39.5575 32.5505 39.5548V39.5575C32.3308 39.5575 32.1189 39.6425 31.9627 39.7994C31.8092 39.9562 31.7218 40.1663 31.7244 40.3869C31.7244 40.6076 31.8092 40.8176 31.9627 40.9744L41.2189 50.2681H41.2215C41.4916 50.5446 41.489 50.9912 41.2163 51.265C40.9409 51.5388 40.4987 51.5415 40.2207 51.2703L39.2305 50.2734L39.437 51.9988C39.4423 52.0759 39.4767 52.1476 39.5297 52.2061C39.5826 52.262 39.6541 52.2992 39.7335 52.3098L44.796 53.1073V53.1047C44.8516 53.1153 44.9098 53.1127 44.9654 53.0967C45.0184 53.0754 45.0634 53.0435 45.1004 53.0037L50.9651 47.1179H50.9677C51.026 47.0594 51.0604 46.9824 51.071 46.9026C51.0816 46.8202 51.0604 46.7378 51.0154 46.6713L47.7481 41.405L46.1939 39.8444C46.0403 39.6876 45.8312 39.6025 45.6114 39.6025C45.2778 39.6025 44.976 39.8046 44.8489 40.1156C44.7191 40.424 44.7906 40.7802 45.0236 41.0195L45.0238 41.0222ZM43.7609 39.1692L43.5808 38.8104V38.813C42.8686 37.4439 42.8607 35.817 43.557 34.4426C43.7503 34.0491 43.933 33.6397 44.1077 33.2223C44.2798 32.8049 44.4334 32.3928 44.579 31.9702V31.9676C45.053 30.5028 46.2073 29.3597 47.6715 28.9024L48.1428 28.7482C48.773 28.5515 49.1992 27.964 49.1887 27.302V23.5032C49.1993 22.8412 48.773 22.2537 48.1428 22.057L47.6715 21.9055C46.2073 21.4482 45.0529 20.3051 44.579 18.8403C44.436 18.4149 44.2798 17.9976 44.1077 17.5855C43.9356 17.1681 43.7503 16.7587 43.557 16.3626C42.8607 14.9882 42.8686 13.3612 43.5808 11.9974L43.8085 11.5508C44.121 10.966 44.0071 10.2429 43.5279 9.78559L40.8537 7.10059C40.3983 6.62207 39.6781 6.5051 39.0956 6.82145L38.6508 7.04741H38.6535C37.2925 7.76254 35.6722 7.77316 34.3059 7.07134C33.9114 6.87727 33.5063 6.69384 33.088 6.51839C32.6776 6.34825 32.2618 6.1914 31.8382 6.04519L31.8356 6.04785C30.3767 5.56933 29.2408 4.41029 28.7828 2.94016L28.6319 2.46696C28.4386 1.83425 27.8508 1.40624 27.1915 1.41686H23.4106C22.7514 1.40622 22.1636 1.83423 21.9703 2.46696L21.8167 2.94016C21.3587 4.41029 20.2228 5.56935 18.7613 6.04785C18.3403 6.19141 17.9246 6.34825 17.5143 6.52105C17.1039 6.69119 16.6961 6.87728 16.2963 7.074L16.2989 7.07134C14.9301 7.77313 13.307 7.76252 11.9461 7.04742L11.5066 6.82145C11.2207 6.67258 10.8976 6.61675 10.5773 6.66194C10.2622 6.71777 9.97094 6.8693 9.7485 7.10058L7.06905 9.78558C6.83871 10.0115 6.68779 10.304 6.63483 10.6204C6.58982 10.9394 6.64277 11.2664 6.79104 11.5508L7.01345 11.9974H7.01609C7.73098 13.3612 7.74155 14.9908 7.04257 16.3626C6.84929 16.756 6.66395 17.1654 6.4892 17.5855C6.3171 18.0028 6.16353 18.4149 6.02056 18.8403C5.78227 19.5607 5.37982 20.2147 4.84496 20.7517C4.30219 21.2807 3.64558 21.6768 2.92541 21.9054L2.45147 22.057C1.82397 22.2537 1.39768 22.8412 1.40825 23.5032V27.2994C1.39766 27.9613 1.82394 28.5515 2.45411 28.7482L2.92805 28.9024C3.64822 29.1337 4.30482 29.5298 4.84496 30.0588C5.3798 30.5958 5.78224 31.2498 6.02056 31.9702C6.16353 32.3929 6.31975 32.8103 6.49184 33.2223C6.6613 33.6344 6.84928 34.049 7.04256 34.4425V34.4452C7.73623 35.8196 7.72566 37.4466 7.01609 38.813L6.79368 39.2596H6.79104C6.64277 39.5441 6.58981 39.8684 6.63482 40.1874C6.68513 40.5038 6.83869 40.7962 7.06905 41.0195L9.74585 43.7072V43.7099C9.96825 43.9411 10.2595 44.0927 10.5773 44.1432C10.895 44.191 11.218 44.1352 11.504 43.9863L11.8376 43.8162C11.173 40.8175 11.5172 37.6832 12.8146 34.8995C10.4475 31.7705 9.33286 27.868 9.68762 23.9576C10.0424 20.0443 11.8402 16.4075 14.7288 13.7601C17.6148 11.1123 21.3851 9.64218 25.2986 9.64218C29.2092 9.64218 32.9795 11.1123 35.8683 13.7601C38.7572 16.4079 40.5548 20.0446 40.9096 23.9576C41.2643 27.8681 40.147 31.7703 37.7826 34.8995C38.5928 36.6275 39.0376 38.507 39.0879 40.4158C39.1065 40.4131 39.1277 40.4131 39.1488 40.4158C39.5539 40.4158 39.9485 40.5248 40.2979 40.7295C40.5389 40.1154 41.0366 39.6395 41.6562 39.4242C42.2784 39.2115 42.9615 39.2806 43.5281 39.6182C43.589 39.4614 43.6658 39.3125 43.7611 39.1743L43.7609 39.1692ZM37.6791 40.961V40.7935C37.6738 36.7474 35.7065 32.959 32.4022 30.6383C29.1005 28.3202 24.8799 27.7645 21.0936 29.1469C17.3075 30.532 14.4294 33.6822 13.3863 37.5899C12.3404 41.4951 13.2565 45.6688 15.8433 48.7714C18.4301 51.8738 22.362 53.5168 26.3758 53.1711C30.3897 52.8255 33.9856 50.5366 36.0082 47.0381L30.9643 41.9765C30.546 41.5538 30.313 40.9823 30.3156 40.3868C30.3156 39.7913 30.5486 39.2197 30.9696 38.7971C31.3906 38.3744 31.9598 38.1404 32.5529 38.1404V38.1457C33.146 38.1431 33.7152 38.377 34.1362 38.7971L37.0937 41.7692C37.2075 41.5087 37.3664 41.2694 37.5676 41.0674C37.6047 41.0302 37.6444 40.9956 37.6815 40.9637L37.6791 40.961ZM25.2982 33.8601C26.577 33.8601 27.8056 34.3705 28.7084 35.277C29.6139 36.1862 30.1223 37.417 30.1196 38.7037C30.1143 40.2855 29.3439 41.7689 28.0518 42.6781V44.9696C28.0518 46.4929 26.8206 47.7291 25.3008 47.7291C23.7837 47.7291 22.5525 46.4929 22.5525 44.9696V42.6807C21.97 42.274 21.4828 41.7423 21.1254 41.1255C20.2596 39.6288 20.2596 37.7812 21.1201 36.2818C21.9805 34.7825 23.5746 33.8601 25.2982 33.8601ZM27.7103 36.2819C27.0166 35.5854 26.0581 35.2239 25.0811 35.2877C24.1015 35.3515 23.1986 35.8353 22.6002 36.6142C22.0018 37.3931 21.7662 38.3927 21.9515 39.3577C22.1395 40.3227 22.7326 41.1627 23.5772 41.6599C23.8128 41.7795 23.9611 42.0214 23.9611 42.2873V44.967C23.9611 45.5093 24.2868 45.9984 24.7872 46.2058C25.2876 46.4131 25.8621 46.2988 26.2434 45.9134C26.4949 45.6635 26.6353 45.3232 26.6379 44.967V42.2873C26.6379 42.0347 26.773 41.7981 26.9954 41.6732C27.9168 41.1442 28.5416 40.2137 28.682 39.1557C28.8223 38.0976 28.4622 37.0343 27.7103 36.2819ZM13.561 33.5225C14.0773 32.6797 14.6836 31.8955 15.3668 31.183V23.9576C15.3985 20.4166 17.297 17.1573 20.3577 15.3948C23.4184 13.6323 27.1778 13.6323 30.2388 15.3948C33.2995 17.1573 35.1979 20.4166 35.2271 23.9576V31.183C35.9128 31.8955 36.5191 32.6797 37.0381 33.5225C39.0186 30.6434 39.8791 27.1343 39.4607 23.6626C39.0397 20.188 37.3664 16.9872 34.7584 14.6663C32.1504 12.3482 28.7852 11.0667 25.3009 11.0667C21.8139 11.0667 18.449 12.3481 15.8408 14.6663C13.2327 16.9871 11.5594 20.1878 11.1384 23.6626C10.7201 27.1345 11.5805 30.6437 13.561 33.5225ZM16.7832 29.9017C17.1777 29.588 17.5908 29.2982 18.0197 29.0298V23.9575C18.0197 19.9194 21.279 16.647 25.3007 16.647C29.3199 16.647 32.5818 19.9195 32.5818 23.9575V29.0298C33.008 29.2983 33.4211 29.588 33.8182 29.9017V23.9548C33.8182 19.2308 30.0055 15.4029 25.3009 15.4029C20.5962 15.4029 16.7835 19.231 16.7835 23.9548L16.7832 29.9017ZM19.4309 28.2614H19.4283C23.1456 26.5069 27.4481 26.5069 31.1652 28.2614V23.9574C31.1308 20.7301 28.5148 18.1302 25.2979 18.1302C22.081 18.1302 19.4651 20.7301 19.428 23.9574L19.4309 28.2614Z" fill="white"/>
</svg>
