<svg width="72" height="72" viewBox="0 0 72 72" fill="none" xmlns="http://www.w3.org/2000/svg">
<path fill-rule="evenodd" clip-rule="evenodd" d="M39.5627 32.4373C36.3986 29.2732 30.9629 31.5253 30.9629 35.9998C30.9629 40.4743 36.3984 42.7265 39.5627 39.5624C41.5294 37.5957 41.5294 34.4037 39.5627 32.4373ZM45.3752 11H59.6914C60.4137 11 60.9997 11.5859 60.9997 12.3082V26.6223H58.381V13.6184H45.375L45.3752 11ZM61 45.3752V59.6914C61 60.4137 60.4141 60.9997 59.6918 60.9997H45.3755V58.381H58.3816V45.375L61 45.3752ZM26.6248 61H12.3108C11.5884 61 11.0025 60.4141 11.0025 59.6918L11.0004 45.3755H13.619V58.3816H26.6251L26.6248 61ZM11 26.6248V12.3108C11 11.5884 11.5859 11.0025 12.3082 11.0025H26.6223V13.6212L13.6184 13.619V26.6251L11 26.6248ZM26.1301 27.9927C28.9171 26.1156 32.2753 24.8733 35.9997 24.8733C43.3744 24.8733 49.9794 29.9338 52.8578 35.9997C49.9793 42.068 43.3739 47.1261 35.9997 47.1261C28.6256 47.1261 22.02 42.0657 19.1416 35.9997C20.5138 33.1062 22.945 30.1408 26.1301 27.9927ZM35.9997 29.1284C42.098 29.1284 45.1766 36.5369 40.8577 40.8581C36.5388 45.1771 29.1281 42.1003 29.1281 36.0001C29.1281 32.2053 32.2068 29.1284 35.9997 29.1284Z" fill="white"/>
</svg>
