<svg width="24" height="24" viewBox="0 0 24 24" fill="none" xmlns="http://www.w3.org/2000/svg">
<g clip-path="url(#clip0_2292_9964)">
<path d="M23.1428 11.8971C23.1444 11.6592 23.0965 11.4235 23.002 11.2051C22.9076 10.9867 22.7687 10.7903 22.5942 10.6285L12 0.857117L1.40567 10.6285C1.23119 10.7903 1.09232 10.9867 0.997872 11.2051C0.903428 11.4235 0.855485 11.6592 0.857095 11.8971V21.4285C0.857095 21.8832 1.03771 22.3192 1.3592 22.6407C1.68069 22.9622 2.11672 23.1428 2.57138 23.1428H21.4285C21.8832 23.1428 22.3192 22.9622 22.6407 22.6407C22.9622 22.3192 23.1428 21.8832 23.1428 21.4285V11.8971Z" stroke="white" stroke-width="2" stroke-linecap="round" stroke-linejoin="round"/>
</g>
<defs>
<clipPath id="clip0_2292_9964">
<rect width="24" height="24" fill="white"/>
</clipPath>
</defs>
</svg>
