<svg width="72" height="72" viewBox="0 0 72 72" fill="none" xmlns="http://www.w3.org/2000/svg">
<g clip-path="url(#clip0_2680_3269)">
<path d="M13.2061 28C8.67367 28 5 31.5806 5 35.9983C5 40.4159 8.67367 43.9966 13.2061 43.9966C17.7386 43.9966 21.4123 40.4159 21.4123 35.9983C21.4123 31.5806 17.7409 28 13.2061 28ZM14.0195 41.4146C10.5957 41.4146 7.81944 38.7087 7.81944 35.3716C7.81944 32.0346 10.598 29.3286 14.0217 29.3286C17.4455 29.3286 20.2218 32.0346 20.2218 35.3716C20.2218 38.7087 17.4455 41.4146 14.0217 41.4146H14.0195Z" fill="white"/>
<path d="M31.552 33.4434H24.1592V43.0028H26.9423V34.5417H30.9658C32.0268 34.5417 32.613 35.4186 32.613 36.1294V43.0028H35.396V36.1205C35.396 35.8725 35.3915 33.4456 31.552 33.4456V33.4434Z" fill="white"/>
<path d="M53.1688 33.4434H50.3857V43.0028H53.1688V33.4434Z" fill="white"/>
<path d="M47.6349 33.4434L43.8726 40.4917L40.1103 33.4434H36.9092L42.0142 43.0338H43.9748L49.0798 33.4434H47.6349Z" fill="white"/>
<path d="M61.0323 34.5417H64.556V33.4434H60.4461C56.6066 33.4434 56.6021 35.8703 56.6021 36.1183V43.0006H59.3851V38.4146H64.1448V37.3163H59.3851V36.125C59.3851 35.4141 59.9736 34.5373 61.0345 34.5373L61.0323 34.5417Z" fill="white"/>
</g>
<path d="M65.5949 32.627H65.3625V31.3117H65.9558C66.1107 31.3117 66.2351 31.3496 66.3289 31.4253C66.4267 31.501 66.4757 31.5967 66.4757 31.7123C66.4757 31.8279 66.4267 31.9235 66.3289 31.9992C66.2351 32.071 66.1107 32.1069 65.9558 32.1069H65.5766V31.9096H65.9558C66.0414 31.9096 66.1087 31.8916 66.1576 31.8558C66.2106 31.8159 66.2371 31.7681 66.2371 31.7123C66.2371 31.6525 66.2106 31.6047 66.1576 31.5688C66.1087 31.5289 66.0414 31.509 65.9558 31.509H65.5949V32.627ZM66.6041 32.627H66.3105L65.7907 32.077H66.072L66.6041 32.627ZM65.8885 33.3325C65.6439 33.3325 65.4196 33.2727 65.2157 33.1531C65.0159 33.0335 64.8549 32.8741 64.7325 32.6748C64.6143 32.4716 64.5552 32.2464 64.5552 31.9992C64.5552 31.7521 64.6143 31.5289 64.7325 31.3296C64.8549 31.1264 65.0159 30.9649 65.2157 30.8454C65.4196 30.7258 65.6439 30.666 65.8885 30.666C66.1372 30.666 66.3615 30.7258 66.5613 30.8454C66.7611 30.9649 66.9201 31.1264 67.0384 31.3296C67.1607 31.5289 67.2219 31.7521 67.2219 31.9992C67.2219 32.2464 67.1607 32.4716 67.0384 32.6748C66.9201 32.8741 66.7611 33.0335 66.5613 33.1531C66.3615 33.2727 66.1372 33.3325 65.8885 33.3325ZM65.8885 33.0276C66.0802 33.0276 66.2514 32.9837 66.4023 32.896C66.5572 32.8084 66.6775 32.6868 66.7631 32.5313C66.8528 32.3759 66.8977 32.1985 66.8977 31.9992C66.8977 31.796 66.8528 31.6186 66.7631 31.4672C66.6775 31.3117 66.5572 31.1901 66.4023 31.1025C66.2514 31.0148 66.0802 30.9709 65.8885 30.9709C65.6969 30.9709 65.5236 31.0148 65.3686 31.1025C65.2178 31.1901 65.0975 31.3117 65.0078 31.4672C64.9221 31.6186 64.8793 31.796 64.8793 31.9992C64.8793 32.1985 64.9221 32.3759 65.0078 32.5313C65.0975 32.6868 65.2178 32.8084 65.3686 32.896C65.5236 32.9837 65.6969 33.0276 65.8885 33.0276Z" fill="white"/>
<defs>
<clipPath id="clip0_2680_3269">
<rect width="59.5558" height="15.9988" fill="white" transform="translate(5 28)"/>
</clipPath>
</defs>
</svg>
