<svg width="72" height="72" viewBox="0 0 72 72" fill="none" xmlns="http://www.w3.org/2000/svg">
<path d="M62.7838 35.415C62.2888 34.848 50.6609 21.6001 36.0001 21.6001C21.3392 21.6001 9.7113 34.848 9.2163 35.415C9.07687 35.578 9.00024 35.7855 9.00024 36C9.00024 36.2145 9.07687 36.4219 9.2163 36.585C9.7113 37.152 21.3392 50.3998 36.0001 50.3998C50.6609 50.3998 62.2888 37.152 62.7838 36.585C62.9233 36.4219 62.9999 36.2145 62.9999 36C62.9999 35.7855 62.9233 35.578 62.7838 35.415ZM53.0999 36C53.0981 38.7141 52.4502 41.3888 51.2099 43.8029C49.4709 44.8747 47.6468 45.8018 45.756 46.5749C47.2133 45.2267 48.3761 43.5917 49.1714 41.7727C49.9666 39.9536 50.3772 37.9898 50.3772 36.0045C50.3772 34.0192 49.9666 32.0553 49.1714 30.2363C48.3761 28.4172 47.2133 26.7822 45.756 25.4341C47.6276 26.2112 49.4335 27.1382 51.1559 28.206C52.4113 30.6137 53.0776 33.2848 53.0999 36ZM20.7812 43.7939C19.5444 41.3804 18.8994 38.7074 18.8994 35.9955C18.8994 33.2836 19.5444 30.6105 20.7812 28.197C22.5202 27.1252 24.3443 26.1981 26.2352 25.4251C24.7778 26.7732 23.615 28.4082 22.8197 30.2273C22.0245 32.0463 21.614 34.0102 21.614 35.9955C21.614 37.9808 22.0245 39.9446 22.8197 41.7637C23.615 43.5827 24.7778 45.2177 26.2352 46.5659C24.3453 45.7908 22.5213 44.8637 20.7812 43.7939ZM23.4002 36C23.4002 33.5079 24.1391 31.0719 25.5236 28.9998C26.9081 26.9278 28.876 25.3128 31.1783 24.3592C33.4806 23.4055 36.014 23.156 38.4582 23.6422C40.9023 24.1284 43.1474 25.3284 44.9095 27.0905C46.6717 28.8526 47.8717 31.0977 48.3578 33.5419C48.844 35.986 48.5945 38.5194 47.6408 40.8217C46.6872 43.1241 45.0722 45.0919 43.0002 46.4764C40.9281 47.8609 38.4921 48.5999 36.0001 48.5999C32.6584 48.5999 29.4535 47.2724 27.0906 44.9094C24.7277 42.5465 23.4002 39.3417 23.4002 36ZM11.1243 36C13.2517 33.7845 15.5807 31.7718 18.0812 29.988C16.7743 33.8864 16.7743 38.1046 18.0812 42.0029C15.5837 40.2187 13.2549 38.2093 11.1243 36ZM53.9189 42.0119C55.2258 38.1136 55.2258 33.8954 53.9189 29.997C56.4165 31.7812 58.7452 33.7906 60.8758 36C58.7484 38.2155 56.4194 40.2281 53.9189 42.0119Z" fill="currentColor"/>
<path d="M43.443 37.3949C42.7952 37.6628 42.101 37.8004 41.4 37.7999C39.9678 37.7999 38.5943 37.231 37.5816 36.2183C36.5689 35.2056 36 33.8321 36 32.4C35.9977 31.6928 36.1357 30.9921 36.406 30.3387C36.6764 29.6852 37.0737 29.0918 37.575 28.593C37.6947 28.4729 37.778 28.3214 37.8154 28.156C37.8527 27.9906 37.8426 27.8181 37.7862 27.6582C37.7298 27.4983 37.6293 27.3576 37.4964 27.2523C37.3635 27.147 37.2036 27.0814 37.035 27.063C36.6914 27.0238 36.3459 27.0028 36 27C34.3265 26.9993 32.6859 27.4652 31.2625 28.3454C29.8391 29.2256 28.6893 30.4852 27.9424 31.9828C27.1954 33.4804 26.8807 35.1566 27.0338 36.8232C27.1869 38.4897 27.8016 40.0805 28.809 41.417C29.8163 42.7534 31.1763 43.7826 32.7362 44.3887C34.2961 44.9949 35.9941 45.1541 37.6395 44.8485C39.285 44.5429 40.8126 43.7845 42.0508 42.6587C43.289 41.5328 44.1887 40.0839 44.6489 38.4749C44.6953 38.3125 44.695 38.1404 44.6481 37.9782C44.6012 37.816 44.5097 37.6702 44.3839 37.5575C44.2581 37.4449 44.1032 37.3699 43.9368 37.3411C43.7704 37.3124 43.5993 37.331 43.443 37.3949ZM36 43.1999C34.1651 43.205 32.3974 42.5093 31.0581 41.2549C29.7188 40.0005 28.909 38.2821 28.7941 36.4508C28.6793 34.6194 29.2679 32.8132 30.4399 31.4013C31.6119 29.9894 33.2788 29.0782 35.1 28.854C34.4966 29.9375 34.1864 31.1598 34.2 32.4C34.2 34.3095 34.9586 36.1408 36.3088 37.4911C37.6591 38.8413 39.4904 39.5999 41.4 39.5999C41.7008 39.6021 42.0015 39.584 42.3 39.5459C41.6695 40.66 40.7534 41.5859 39.6461 42.2282C38.5387 42.8704 37.2801 43.2059 36 43.1999Z" fill="currentColor"/>
<path d="M36 53.9997C29.646 53.9997 23.1211 51.8397 16.6051 47.5647C16.4064 47.4342 16.2674 47.2303 16.2185 46.9976C16.1696 46.7649 16.2147 46.5222 16.3441 46.3227C16.4088 46.2231 16.4926 46.1372 16.5906 46.0701C16.6886 46.003 16.799 45.9559 16.9153 45.9317C17.0316 45.9074 17.1515 45.9064 17.2682 45.9287C17.3849 45.9511 17.496 45.9963 17.5951 46.0617C23.8051 50.1387 29.997 52.1997 36 52.1997C42.0029 52.1997 48.1949 50.1387 54.4048 46.0617C54.5035 45.9944 54.6145 45.9474 54.7315 45.9234C54.8485 45.8994 54.9692 45.8989 55.0863 45.922C55.2035 45.9451 55.315 45.9913 55.4141 46.0579C55.5133 46.1245 55.5982 46.2102 55.6639 46.31C55.7296 46.4097 55.7748 46.5215 55.7968 46.6389C55.8188 46.7563 55.8173 46.8769 55.7923 46.9937C55.7672 47.1105 55.7192 47.2211 55.6509 47.3192C55.5827 47.4172 55.4956 47.5007 55.3948 47.5647C48.8879 51.8307 42.3539 53.9997 36 53.9997Z" fill="currentColor"/>
<path d="M17.1001 26.1002C16.9504 26.1009 16.8028 26.0642 16.6708 25.9935C16.5388 25.9228 16.4265 25.8203 16.3441 25.6952C16.2147 25.4957 16.1696 25.2531 16.2185 25.0203C16.2674 24.7876 16.4064 24.5837 16.6051 24.4532C23.1121 20.1692 29.646 18.0002 36 18.0002C42.3539 18.0002 48.8789 20.1602 55.3948 24.4352C55.4956 24.4992 55.5827 24.5827 55.6509 24.6807C55.7192 24.7788 55.7672 24.8894 55.7923 25.0062C55.8173 25.123 55.8188 25.2436 55.7968 25.361C55.7748 25.4784 55.7296 25.5902 55.6639 25.69C55.5982 25.7897 55.5133 25.8754 55.4141 25.942C55.315 26.0086 55.2035 26.0548 55.0863 26.0779C54.9692 26.101 54.8485 26.1005 54.7315 26.0765C54.6145 26.0526 54.5035 26.0055 54.4048 25.9382C48.1949 21.8612 42.0029 19.8002 36 19.8002C29.997 19.8002 23.8051 21.8612 17.5951 25.9382C17.4497 26.0398 17.2775 26.0961 17.1001 26.1002Z" fill="currentColor"/>
</svg>
