<svg width="72" height="72" viewBox="0 0 72 72" fill="none" xmlns="http://www.w3.org/2000/svg">
<g clip-path="url(#clip0_2437_3960)">
<path d="M13.2061 28C8.67367 28 5 31.5806 5 35.9983C5 40.4159 8.67367 43.9966 13.2061 43.9966C17.7386 43.9966 21.4123 40.4159 21.4123 35.9983C21.4123 31.5806 17.7409 28 13.2061 28ZM14.0195 41.4146C10.5957 41.4146 7.81944 38.7087 7.81944 35.3716C7.81944 32.0346 10.598 29.3286 14.0217 29.3286C17.4455 29.3286 20.2218 32.0346 20.2218 35.3716C20.2218 38.7087 17.4455 41.4146 14.0217 41.4146H14.0195Z" fill="white"/>
<path d="M31.5529 33.4429H24.1602V43.0023H26.9432V34.5412H30.9668C32.0278 34.5412 32.6139 35.4181 32.6139 36.1289V43.0023H35.397V36.12C35.397 35.872 35.3925 33.4451 31.5529 33.4451V33.4429Z" fill="white"/>
<path d="M53.1698 33.4429H50.3867V43.0023H53.1698V33.4429Z" fill="white"/>
<path d="M47.6358 33.4429L43.8736 40.4912L40.1113 33.4429H36.9102L42.0151 43.0333H43.9758L49.0808 33.4429H47.6358Z" fill="white"/>
<path d="M61.0318 34.5412H64.5555V33.4429H60.4456C56.6061 33.4429 56.6016 35.8698 56.6016 36.1178V43.0001H59.3846V38.4141H64.1443V37.3158H59.3846V36.1245C59.3846 35.4137 59.9731 34.5368 61.0341 34.5368L61.0318 34.5412Z" fill="white"/>
</g>
<path d="M65.5944 32.6275H65.362V31.3122H65.9553C66.1102 31.3122 66.2346 31.3501 66.3284 31.4258C66.4263 31.5015 66.4752 31.5972 66.4752 31.7128C66.4752 31.8283 66.4263 31.924 66.3284 31.9997C66.2346 32.0715 66.1102 32.1074 65.9553 32.1074H65.5761V31.9101H65.9553C66.0409 31.9101 66.1082 31.8921 66.1571 31.8562C66.2101 31.8164 66.2367 31.7686 66.2367 31.7128C66.2367 31.653 66.2101 31.6051 66.1571 31.5693C66.1082 31.5294 66.0409 31.5095 65.9553 31.5095H65.5944V32.6275ZM66.6036 32.6275H66.31L65.7902 32.0775H66.0715L66.6036 32.6275ZM65.888 33.333C65.6434 33.333 65.4191 33.2732 65.2152 33.1536C65.0154 33.034 64.8544 32.8746 64.7321 32.6753C64.6138 32.472 64.5547 32.2469 64.5547 31.9997C64.5547 31.7526 64.6138 31.5294 64.7321 31.3301C64.8544 31.1269 65.0154 30.9654 65.2152 30.8459C65.4191 30.7263 65.6434 30.6665 65.888 30.6665C66.1368 30.6665 66.361 30.7263 66.5608 30.8459C66.7606 30.9654 66.9196 31.1269 67.0379 31.3301C67.1602 31.5294 67.2214 31.7526 67.2214 31.9997C67.2214 32.2469 67.1602 32.472 67.0379 32.6753C66.9196 32.8746 66.7606 33.034 66.5608 33.1536C66.361 33.2732 66.1368 33.333 65.888 33.333ZM65.888 33.0281C66.0797 33.0281 66.2509 32.9842 66.4018 32.8965C66.5567 32.8088 66.677 32.6873 66.7626 32.5318C66.8524 32.3764 66.8972 32.199 66.8972 31.9997C66.8972 31.7965 66.8524 31.6191 66.7626 31.4676C66.677 31.3122 66.5567 31.1906 66.4018 31.1029C66.2509 31.0153 66.0797 30.9714 65.888 30.9714C65.6964 30.9714 65.5231 31.0153 65.3681 31.1029C65.2173 31.1906 65.097 31.3122 65.0073 31.4676C64.9217 31.6191 64.8788 31.7965 64.8788 31.9997C64.8788 32.199 64.9217 32.3764 65.0073 32.5318C65.097 32.6873 65.2173 32.8088 65.3681 32.8965C65.5231 32.9842 65.6964 33.0281 65.888 33.0281Z" fill="white"/>
<defs>
<clipPath id="clip0_2437_3960">
<rect width="59.5558" height="15.9988" fill="white" transform="translate(5 28)"/>
</clipPath>
</defs>
</svg>
