<svg width="51" height="52" viewBox="0 0 51 52" fill="none" xmlns="http://www.w3.org/2000/svg">
<path d="M3.68506 0.300293C5.18245 0.300503 6.44569 1.2889 6.89404 2.646H34.6646C36.4097 2.646 38.1016 2.99318 39.6958 3.68799H39.6948C41.2308 4.35381 42.6159 5.29757 43.7935 6.50537C44.9842 7.7129 45.9125 9.11527 46.563 10.6831H46.562C47.2407 12.3078 47.5728 14.0285 47.5728 15.8022V25.5659C47.5728 26.1816 47.1111 26.6665 46.5151 26.6665H36.5044C35.9804 32.8099 31.7946 38.0553 25.9526 39.7954L25.3491 39.9604C25.2908 39.9751 25.193 39.9966 25.1001 39.9966C24.9951 39.9966 24.9041 39.9748 24.8521 39.9644L24.8384 39.9614C23.2222 39.5599 21.6889 38.8805 20.3071 37.9526C18.953 37.0522 17.7656 35.9313 16.7593 34.6323L16.7583 34.6313C15.7655 33.3321 14.9786 31.8793 14.4536 30.3286C14.0447 29.15 13.7882 27.9262 13.6821 26.6802H4.7417V35.3843C4.7417 41.4631 9.57912 46.4077 15.522 46.4077H43.2974C43.7378 45.0368 45.0078 44.0349 46.5151 44.0347C48.3903 44.0347 49.8998 45.5844 49.8999 47.4673C49.8999 49.3511 48.3759 50.8999 46.5151 50.8999C45.0077 50.8997 43.7377 49.898 43.2974 48.5269H15.522C13.8859 48.5269 12.2973 48.2215 10.7915 47.6108L10.4917 47.4849C8.95527 46.8188 7.56984 45.8748 6.39209 44.6665V44.6655C5.20205 43.4583 4.27379 42.0569 3.62354 40.4897V40.4888C2.94522 38.8645 2.61377 37.1438 2.61377 35.3706V25.6069C2.61377 25.025 3.08237 24.5337 3.68506 24.5337H13.6255V16.7104C13.6256 16.1611 14.042 15.7092 14.5845 15.6528H14.5854C18.539 15.2511 22.0945 13.7394 24.3481 11.52C24.7625 11.1065 25.424 11.1066 25.8384 11.52L26.0532 11.7261C28.3144 13.8329 31.7711 15.2637 35.6011 15.6528H35.6021C36.1446 15.7091 36.5609 16.1611 36.561 16.7104V24.52H45.4448V15.8159C45.4448 9.73708 40.6074 4.79248 34.6646 4.79248H6.90186C6.45834 6.16387 5.18095 7.16531 3.68506 7.16553C1.80994 7.16553 0.300392 5.61582 0.300293 3.73291C0.300293 1.84992 1.80988 0.300293 3.68506 0.300293ZM46.5151 46.1675C45.8361 46.1678 45.2604 46.7443 45.2603 47.4673C45.2603 48.1921 45.8242 48.7678 46.5151 48.7681C47.2029 48.7681 47.7583 48.1957 47.7583 47.4673C47.7582 46.7407 47.191 46.1675 46.5151 46.1675ZM25.1118 13.7124C23.9518 14.6914 22.5989 15.5212 21.0513 16.186V16.187C19.3859 16.8969 17.6195 17.3891 15.7544 17.6479V25.3628C15.7544 25.3934 15.7561 25.424 15.7563 25.4546C15.7633 25.5043 15.7681 25.5551 15.7681 25.6069C15.7681 25.6448 15.7651 25.6822 15.7612 25.7192C15.9128 31.4297 19.6942 36.3325 25.1011 37.811C30.4682 36.3402 34.2861 31.4131 34.4399 25.7202C34.4351 25.6787 34.4321 25.6363 34.4321 25.5933C34.4321 25.5379 34.4376 25.4835 34.4458 25.4302V17.647C32.5823 17.3778 30.8045 16.8976 29.1743 16.186V16.1851C27.6283 15.5207 26.2626 14.6923 25.1118 13.7124ZM25.0728 17.6987C26.0604 17.6987 27.0039 18.0979 27.6958 18.8062C28.3871 19.5138 28.769 20.458 28.769 21.4575V23.1909H29.4429C30.0251 23.191 30.5141 23.6619 30.5142 24.2642V30.7153C30.4958 31.3017 30.0335 31.7787 29.4429 31.7788H20.7573C20.1751 31.7787 19.686 31.3079 19.686 30.7056V24.2642C19.6861 23.6823 20.1548 23.191 20.7573 23.1909H21.3774V21.4575C21.3774 19.3844 23.0358 17.6989 25.0728 17.6987ZM21.8149 29.646H28.3716V25.3374H21.8149V29.646ZM25.0864 19.8315C24.233 19.8316 23.52 20.5564 23.52 21.4575V23.1909H26.6538V21.4575C26.6538 21.0216 26.4816 20.6071 26.1821 20.2954C25.8891 19.9904 25.4948 19.8315 25.0864 19.8315ZM3.68506 2.43213C3.00578 2.43213 2.4292 3.00969 2.4292 3.73291C2.4293 4.45776 2.99399 5.03271 3.68506 5.03271C4.37255 5.03245 4.92715 4.46108 4.92725 3.73291C4.92725 3.00641 4.36077 2.4324 3.68506 2.43213Z" fill="white" stroke="white" stroke-width="0.6"/>
</svg>
