<svg width="38" height="44" viewBox="0 0 38 44" fill="none" xmlns="http://www.w3.org/2000/svg">
<path d="M14.3 19.8H34.1C34.9752 19.8 35.8146 19.4523 36.4335 18.8335C37.0523 18.2146 37.4 17.3752 37.4 16.5V6.6C37.4 5.72479 37.0523 4.88542 36.4335 4.26655C35.8146 3.64768 34.9752 3.3 34.1 3.3H23.683C23.499 3.29969 23.3179 3.25321 23.1565 3.16481C22.9951 3.07641 22.8584 2.94891 22.759 2.794L21.923 1.507C21.6235 1.04431 21.213 0.663989 20.7288 0.400749C20.2446 0.137509 19.7021 -0.000265742 19.151 3.84807e-07H14.3C13.4248 3.84807e-07 12.5854 0.347678 11.9665 0.966548C11.3477 1.58542 11 2.42479 11 3.3V8.8H2.2V1.1C2.2 0.808262 2.08411 0.528473 1.87782 0.322183C1.67153 0.115893 1.39174 3.84807e-07 1.1 3.84807e-07C0.808262 3.84807e-07 0.528473 0.115893 0.322183 0.322183C0.115893 0.528473 0 0.808262 0 1.1V34.1C0 34.3917 0.115893 34.6715 0.322183 34.8778C0.528473 35.0841 0.808262 35.2 1.1 35.2H11V40.7C11 41.5752 11.3477 42.4146 11.9665 43.0335C12.5854 43.6523 13.4248 44 14.3 44H34.1C34.9752 44 35.8146 43.6523 36.4335 43.0335C37.0523 42.4146 37.4 41.5752 37.4 40.7V30.8C37.4 29.9248 37.0523 29.0854 36.4335 28.4665C35.8146 27.8477 34.9752 27.5 34.1 27.5H23.683C23.499 27.4997 23.3179 27.4532 23.1565 27.3648C22.9951 27.2764 22.8584 27.1489 22.759 26.994L21.923 25.707C21.6235 25.2443 21.213 24.864 20.7288 24.6007C20.2446 24.3375 19.7021 24.1997 19.151 24.2H14.3C13.4248 24.2 12.5854 24.5477 11.9665 25.1665C11.3477 25.7854 11 26.6248 11 27.5V33H2.2V11H11V16.5C11 17.3752 11.3477 18.2146 11.9665 18.8335C12.5854 19.4523 13.4248 19.8 14.3 19.8ZM13.2 27.5C13.2 27.2083 13.3159 26.9285 13.5222 26.7222C13.7285 26.5159 14.0083 26.4 14.3 26.4H19.151C19.3351 26.4003 19.5161 26.4468 19.6775 26.5352C19.8389 26.6236 19.9756 26.7511 20.075 26.906L20.9 28.193C21.2005 28.6573 21.6128 29.0386 22.0991 29.3019C22.5853 29.5652 23.13 29.7021 23.683 29.7H34.1C34.3917 29.7 34.6715 29.8159 34.8778 30.0222C35.0841 30.2285 35.2 30.5083 35.2 30.8V40.7C35.2 40.9917 35.0841 41.2715 34.8778 41.4778C34.6715 41.6841 34.3917 41.8 34.1 41.8H14.3C14.0083 41.8 13.7285 41.6841 13.5222 41.4778C13.3159 41.2715 13.2 40.9917 13.2 40.7V27.5ZM13.2 3.3C13.2 3.00826 13.3159 2.72847 13.5222 2.52218C13.7285 2.31589 14.0083 2.2 14.3 2.2H19.151C19.3351 2.20031 19.5161 2.24679 19.6775 2.33519C19.8389 2.4236 19.9756 2.55109 20.075 2.706L20.9 3.993C21.2005 4.45726 21.6128 4.83856 22.0991 5.10189C22.5853 5.36521 23.13 5.50211 23.683 5.5H34.1C34.3917 5.5 34.6715 5.61589 34.8778 5.82218C35.0841 6.02847 35.2 6.30826 35.2 6.6V16.5C35.2 16.7917 35.0841 17.0715 34.8778 17.2778C34.6715 17.4841 34.3917 17.6 34.1 17.6H14.3C14.0083 17.6 13.7285 17.4841 13.5222 17.2778C13.3159 17.0715 13.2 16.7917 13.2 16.5V3.3Z" fill="white"/>
</svg>
