<svg width="72" height="72" viewBox="0 0 72 72" fill="none" xmlns="http://www.w3.org/2000/svg">
<path d="M14 53.6V49.75C14 49.142 14.492 48.65 15.1 48.65C15.708 48.65 16.2 49.142 16.2 49.75V53.6L16.2021 53.7139C16.2623 54.8762 17.2227 55.8 18.4 55.8H22.25C22.858 55.8 23.35 56.292 23.35 56.9C23.35 57.508 22.858 58 22.25 58H18.4C16.0453 58 14.1246 56.1523 14.0064 53.8256L14 53.6ZM55.8 53.6V49.75C55.8 49.142 56.292 48.65 56.9 48.65C57.508 48.65 58 49.142 58 49.75V53.6L57.9936 53.8256C57.8797 56.0772 56.0771 57.8797 53.8256 57.9935L53.6 58H49.75C49.142 58 48.65 57.508 48.65 56.9C48.65 56.292 49.142 55.8 49.75 55.8H53.6L53.7139 55.7978C54.8375 55.7398 55.7399 54.8375 55.7979 53.7138L55.8 53.6ZM51.4 32.133C51.4 29.7246 49.8488 27.6192 47.6059 27.0069L47.3889 26.951C39.3946 25.1463 33.4326 25.0776 25.4103 26.7899L24.6261 26.9617C22.2586 27.4903 20.6 29.6559 20.6 32.1481V39.8524C20.6 42.3446 22.2586 44.5103 24.6261 45.0388L25.4103 45.2106C33.4326 46.9229 39.3946 46.8542 47.3889 45.0495L47.6059 44.9936C49.8488 44.3813 51.4 42.2759 51.4 39.8675V32.133ZM34.9 43.15V41.3883C32.7451 40.9522 31.0479 39.2549 30.6096 37.1H28.85C28.242 37.1 27.75 36.6081 27.75 36C27.75 35.392 28.242 34.9001 28.85 34.9001H30.6096C31.0478 32.7452 32.7451 31.0479 34.9 30.6096V28.8501C34.9 28.242 35.392 27.7501 36 27.7501C36.608 27.7501 37.1 28.2421 37.1 28.8501V30.6096C39.2549 31.0479 40.9521 32.7452 41.3904 34.9001H43.15L43.2617 34.9065C43.816 34.9624 44.25 35.4307 44.25 36.0001C44.25 36.5694 43.816 37.0377 43.2617 37.0936L43.15 37.1001H41.3904C40.9522 39.255 39.2549 40.9522 37.1 41.3884V43.15C37.1 43.7581 36.608 44.25 36 44.25C35.392 44.25 34.9 43.758 34.9 43.15ZM32.8891 37.1C33.2199 38.0367 33.9633 38.7801 34.9 39.111V37.1H32.8891ZM37.1 39.111C38.0367 38.7801 38.7801 38.0367 39.1109 37.1H37.1V39.111ZM37.1 34.9001H39.1109C38.7801 33.9634 38.0367 33.22 37.1 32.8891V34.9001ZM34.9 32.8891C33.9633 33.22 33.2199 33.9634 32.8891 34.9001H34.9V32.8891ZM14 22.25V18.4C14 15.9701 15.9701 14 18.4 14H22.25C22.858 14 23.35 14.492 23.35 15.1C23.35 15.708 22.858 16.2 22.25 16.2H18.4C17.184 16.2 16.2 17.184 16.2 18.4V22.25C16.2 22.858 15.708 23.35 15.1 23.35C14.5306 23.35 14.0623 22.916 14.0064 22.3617L14 22.25ZM55.8 22.25V18.4C55.8 17.2227 54.8762 16.2623 53.7139 16.2021L53.6 16.2H49.75C49.142 16.2 48.65 15.708 48.65 15.1C48.65 14.492 49.142 14 49.75 14H53.6L53.8256 14.0064C56.1523 14.1246 58 16.0453 58 18.4V22.25C58 22.858 57.508 23.35 56.9 23.35C56.292 23.35 55.8 22.858 55.8 22.25ZM53.6 39.867C53.6 43.2056 51.443 46.2244 48.1903 47.116L47.8723 47.1933C39.5706 49.0689 33.2885 49.1398 24.9593 47.363L24.1472 47.1869C20.7097 46.4177 18.4002 43.3068 18.4002 39.8521V32.1477C18.4002 28.693 20.7098 25.5818 24.1472 24.8129L24.9593 24.6367C33.289 22.86 39.5706 22.9309 47.8723 24.8065L48.1903 24.8838C51.443 25.7754 53.6 28.794 53.6 32.1328V39.867Z" fill="white"/>
</svg>
