<svg width="72" height="72" viewBox="0 0 72 72" fill="none" xmlns="http://www.w3.org/2000/svg">
<path d="M36 30.1333C34.8397 30.1333 33.7054 30.4774 32.7407 31.122C31.7759 31.7667 31.0239 32.6829 30.5799 33.7549C30.1359 34.8269 30.0197 36.0065 30.2461 37.1445C30.4724 38.2826 31.0312 39.3279 31.8516 40.1484C32.6721 40.9688 33.7175 41.5276 34.8555 41.7539C35.9935 41.9803 37.1731 41.8641 38.2451 41.4201C39.3171 40.9761 40.2333 40.2241 40.878 39.2593C41.5226 38.2946 41.8667 37.1603 41.8667 36C41.8647 34.4447 41.246 32.9536 40.1462 31.8538C39.0464 30.754 37.5553 30.1353 36 30.1333ZM36 40.2C35.1693 40.2 34.3573 39.9537 33.6666 39.4922C32.9759 39.0307 32.4376 38.3747 32.1197 37.6073C31.8018 36.8398 31.7186 35.9953 31.8807 35.1806C32.0428 34.3659 32.4428 33.6175 33.0302 33.0302C33.6175 32.4428 34.3659 32.0428 35.1806 31.8807C35.9953 31.7186 36.8398 31.8018 37.6073 32.1197C38.3747 32.4376 39.0307 32.9759 39.4922 33.6666C39.9537 34.3573 40.2 35.1693 40.2 36C40.1986 37.1135 39.7556 38.1809 38.9683 38.9683C38.1809 39.7556 37.1135 40.1986 36 40.2ZM46.6847 33.7173L44.6307 33.434C44.4535 32.8357 44.2139 32.2576 43.916 31.7093L45.1687 30.0567C45.2902 29.8962 45.3495 29.6972 45.3358 29.4964C45.3221 29.2955 45.2362 29.1065 45.094 28.964L43.0347 26.9047C42.8922 26.7625 42.7031 26.6766 42.5023 26.6628C42.3015 26.6491 42.1025 26.7085 41.942 26.83L40.2893 28.0827C39.7411 27.7845 39.163 27.5447 38.5647 27.3673L38.2813 25.314C38.2541 25.1145 38.1555 24.9316 38.0037 24.7992C37.852 24.6668 37.6574 24.5939 37.456 24.594H34.544C34.3427 24.5941 34.1482 24.667 33.9964 24.7994C33.8447 24.9317 33.746 25.1145 33.7187 25.314L33.4353 27.368C32.8371 27.5455 32.2591 27.785 31.7107 28.0827L30.058 26.83C29.8975 26.7085 29.6985 26.6491 29.4977 26.6628C29.2969 26.6766 29.1078 26.7625 28.9653 26.9047L26.906 28.964C26.7638 29.1065 26.6779 29.2955 26.6642 29.4964C26.6505 29.6972 26.7098 29.8962 26.8313 30.0567L28.084 31.7093C27.7862 32.2577 27.5466 32.8357 27.3693 33.434L25.3153 33.7173C25.1159 33.7447 24.9331 33.8434 24.8007 33.9951C24.6683 34.1468 24.5954 34.3413 24.5953 34.5427V37.4547C24.5952 37.6559 24.668 37.8504 24.8003 38.0022C24.9325 38.1539 25.1153 38.2526 25.3147 38.28L27.3693 38.5633C27.5465 39.1617 27.7861 39.7397 28.084 40.288L26.8313 41.9407C26.7098 42.1011 26.6505 42.3002 26.6642 42.501C26.6779 42.7018 26.7638 42.8909 26.906 43.0333L28.9653 45.0927C29.1078 45.2349 29.2969 45.3208 29.4977 45.3345C29.6985 45.3482 29.8975 45.2888 30.058 45.1673L31.7107 43.9147C32.2589 44.2128 32.837 44.4526 33.4353 44.63L33.7187 46.684C33.7461 46.8834 33.8448 47.0661 33.9965 47.1984C34.1482 47.3306 34.3427 47.4034 34.544 47.4033H37.456C37.6573 47.4034 37.8518 47.3306 38.0035 47.1984C38.1552 47.0661 38.2539 46.8834 38.2813 46.684L38.5647 44.63C39.1629 44.4523 39.7409 44.2126 40.2893 43.9147L41.942 45.1673C42.1025 45.2888 42.3015 45.3482 42.5023 45.3345C42.7031 45.3208 42.8922 45.2349 43.0347 45.0927L45.094 43.0333C45.2362 42.8909 45.3221 42.7018 45.3358 42.501C45.3495 42.3002 45.2902 42.1011 45.1687 41.9407L43.916 40.288C44.2139 39.7397 44.4535 39.1617 44.6307 38.5633L46.6847 38.28C46.8842 38.2528 47.0671 38.1541 47.1995 38.0024C47.3318 37.8506 47.4047 37.656 47.4047 37.4547V34.544C47.4047 34.3426 47.3318 34.148 47.1995 33.9963C47.0671 33.8445 46.8842 33.7459 46.6847 33.7187V33.7173ZM45.738 36.7333L43.8527 36.9927C43.6847 37.0157 43.5278 37.0895 43.4028 37.2041C43.2779 37.3187 43.1908 37.4687 43.1533 37.634C42.9707 38.4401 42.6519 39.2091 42.2107 39.908C42.1203 40.0513 42.0757 40.2188 42.083 40.388C42.0903 40.5573 42.149 40.7203 42.2513 40.8553L43.4 42.37L42.37 43.4L40.852 42.2493C40.7169 42.1472 40.5539 42.0885 40.3847 42.0813C40.2154 42.074 40.048 42.1184 39.9047 42.2087C39.2057 42.6497 38.4367 42.9684 37.6307 43.1513C37.4654 43.1888 37.3155 43.2757 37.2009 43.4005C37.0863 43.5254 37.0125 43.6822 36.9893 43.85L36.7293 45.736H35.2707L35.0107 43.8507C34.9875 43.6829 34.9138 43.5262 34.7994 43.4014C34.6849 43.2766 34.5351 43.1896 34.37 43.152C33.5637 42.9691 32.7944 42.6501 32.0953 42.2087C31.952 42.1184 31.7846 42.074 31.6153 42.0813C31.4461 42.0885 31.2831 42.1472 31.148 42.2493L29.63 43.4L28.6 42.37L29.7507 40.852C29.853 40.717 29.9118 40.554 29.919 40.3847C29.9263 40.2154 29.8817 40.048 29.7913 39.9047C29.3502 39.2057 29.0314 38.4367 28.8487 37.6307C28.8112 37.4653 28.7242 37.3153 28.5992 37.2007C28.4742 37.0862 28.3173 37.0124 28.1493 36.9893L26.262 36.7333V35.2707L28.1473 35.0107C28.3153 34.9876 28.4722 34.9138 28.5972 34.7993C28.7222 34.6847 28.8092 34.5347 28.8467 34.3693C29.0293 33.5632 29.3481 32.7942 29.7893 32.0953C29.8797 31.952 29.9243 31.7846 29.917 31.6153C29.9097 31.446 29.851 31.283 29.7487 31.148L28.6 29.63L29.63 28.6L31.148 29.7507C31.283 29.853 31.446 29.9118 31.6153 29.919C31.7846 29.9263 31.952 29.8817 32.0953 29.7913C32.7943 29.3503 33.5633 29.0316 34.3693 28.8487C34.5346 28.8112 34.6845 28.7243 34.7991 28.5995C34.9137 28.4746 34.9875 28.3178 35.0107 28.15L35.2707 26.264H36.7293L36.9893 28.1493C37.0124 28.3172 37.0861 28.474 37.2006 28.5989C37.315 28.7239 37.4648 28.811 37.63 28.8487C38.4363 29.0312 39.2056 29.35 39.9047 29.7913C40.048 29.8817 40.2154 29.9263 40.3847 29.919C40.554 29.9118 40.717 29.853 40.852 29.7507L42.37 28.6L43.4 29.63L42.2493 31.148C42.147 31.283 42.0882 31.446 42.081 31.6153C42.0737 31.7846 42.1183 31.952 42.2087 32.0953C42.6498 32.7943 42.9686 33.5633 43.1513 34.3693C43.1888 34.5347 43.2759 34.6847 43.4008 34.7993C43.5258 34.9138 43.6827 34.9876 43.8507 35.0107L45.736 35.27L45.738 36.7333ZM35.278 22.92C35.3511 23.0467 35.4563 23.1519 35.583 23.225C35.7097 23.2981 35.8534 23.3366 35.9997 23.3366C36.1459 23.3366 36.2896 23.2981 36.4163 23.225C36.543 23.1519 36.6482 23.0467 36.7213 22.92L41.378 14.8533C41.452 14.7265 41.4912 14.5825 41.4916 14.4357C41.492 14.2889 41.4536 14.1446 41.3803 14.0174C41.3071 13.8902 41.2015 13.7846 41.0743 13.7113C40.9471 13.638 40.8028 13.5996 40.656 13.6H39.0153V6.83333C39.0153 6.61232 38.9275 6.40036 38.7713 6.24408C38.615 6.0878 38.403 6 38.182 6H33.818C33.597 6 33.385 6.0878 33.2287 6.24408C33.0725 6.40036 32.9847 6.61232 32.9847 6.83333V13.6H31.344C31.1977 13.5999 31.0539 13.6384 30.9272 13.7115C30.8005 13.7846 30.6953 13.8898 30.6221 14.0165C30.5489 14.1432 30.5104 14.2869 30.5104 14.4333C30.5103 14.5796 30.5488 14.7233 30.622 14.85L35.278 22.92ZM33.818 15.2667C33.9275 15.2668 34.0359 15.2453 34.137 15.2034C34.2382 15.1616 34.3301 15.1002 34.4075 15.0228C34.4848 14.9454 34.5462 14.8535 34.5881 14.7523C34.6299 14.6512 34.6514 14.5428 34.6513 14.4333V7.66667H37.3487V14.4347C37.3486 14.5441 37.3701 14.6525 37.4119 14.7537C37.4538 14.8548 37.5152 14.9467 37.5926 15.0241C37.67 15.1015 37.7619 15.1629 37.863 15.2047C37.9641 15.2466 38.0725 15.2681 38.182 15.268H39.2127L36 20.8333L32.7873 15.2667H33.818ZM65.1667 32.9847H58.4V31.344C58.4001 31.1977 58.3616 31.0539 58.2885 30.9272C58.2154 30.8005 58.1102 30.6953 57.9835 30.6221C57.8568 30.5489 57.7131 30.5104 57.5667 30.5104C57.4204 30.5103 57.2767 30.5488 57.15 30.622L49.0833 35.278C48.9567 35.3512 48.8515 35.4565 48.7784 35.5832C48.7053 35.71 48.6668 35.8537 48.6668 36C48.6668 36.1463 48.7053 36.29 48.7784 36.4168C48.8515 36.5435 48.9567 36.6488 49.0833 36.722L57.15 41.378C57.2767 41.4511 57.4203 41.4896 57.5666 41.4896C57.7128 41.4897 57.8565 41.4512 57.9832 41.3781C58.1099 41.305 58.2151 41.1998 58.2882 41.0732C58.3614 40.9466 58.3999 40.8029 58.4 40.6567V39.0153H65.1667C65.3877 39.0153 65.5996 38.9275 65.7559 38.7713C65.9122 38.615 66 38.403 66 38.182V33.818C66 33.597 65.9122 33.385 65.7559 33.2287C65.5996 33.0725 65.3877 32.9847 65.1667 32.9847ZM64.3333 37.3487H57.5653C57.4559 37.3486 57.3475 37.3701 57.2463 37.4119C57.1452 37.4538 57.0533 37.5152 56.9759 37.5926C56.8985 37.67 56.8371 37.7619 56.7953 37.863C56.7534 37.9641 56.7319 38.0725 56.732 38.182V39.2133L51.1667 36L56.7333 32.7873V33.818C56.7333 34.039 56.8211 34.251 56.9774 34.4073C57.1337 34.5635 57.3457 34.6513 57.5667 34.6513H64.3333V37.3487ZM36.7213 49.082C36.6482 48.9553 36.543 48.8501 36.4163 48.777C36.2896 48.7039 36.1459 48.6654 35.9997 48.6654C35.8534 48.6654 35.7097 48.7039 35.583 48.777C35.4563 48.8501 35.3511 48.9553 35.278 49.082L30.622 57.1487C30.5485 57.2754 30.5097 57.4193 30.5096 57.5658C30.5094 57.7123 30.5479 57.8562 30.6211 57.9831C30.6943 58.11 30.7997 58.2154 30.9266 58.2886C31.0535 58.3618 31.1975 58.4002 31.344 58.4H32.9847V65.1667C32.9847 65.3877 33.0725 65.5996 33.2287 65.7559C33.385 65.9122 33.597 66 33.818 66H38.182C38.403 66 38.615 65.9122 38.7713 65.7559C38.9275 65.5996 39.0153 65.3877 39.0153 65.1667V58.4H40.656C40.8023 58.4001 40.9461 58.3616 41.0728 58.2885C41.1995 58.2154 41.3047 58.1102 41.3779 57.9835C41.4511 57.8568 41.4896 57.7131 41.4896 57.5667C41.4897 57.4204 41.4512 57.2767 41.378 57.15L36.7213 49.082ZM38.182 56.7333C38.0725 56.7332 37.9641 56.7547 37.863 56.7966C37.7619 56.8384 37.67 56.8998 37.5926 56.9772C37.5152 57.0546 37.4538 57.1465 37.4119 57.2477C37.3701 57.3488 37.3486 57.4572 37.3487 57.5667V64.3333H34.6513V57.5653C34.6513 57.3443 34.5635 57.1324 34.4073 56.9761C34.251 56.8198 34.039 56.732 33.818 56.732H32.7873L36 51.1667L39.2127 56.7333H38.182ZM22.9153 35.2793L14.8487 30.6233C14.7221 30.5506 14.5786 30.5123 14.4326 30.5125C14.2866 30.5126 14.1432 30.5511 14.0168 30.624C13.8903 30.697 13.7853 30.8019 13.7121 30.9283C13.639 31.0546 13.6003 31.198 13.6 31.344V32.9847H6.83333C6.61232 32.9847 6.40036 33.0725 6.24408 33.2287C6.0878 33.385 6 33.597 6 33.818V38.182C6 38.403 6.0878 38.615 6.24408 38.7713C6.40036 38.9275 6.61232 39.0153 6.83333 39.0153H13.6V40.6567C13.5999 40.803 13.6383 40.9468 13.7114 41.0735C13.7845 41.2003 13.8897 41.3055 14.0165 41.3787C14.1432 41.4518 14.287 41.4903 14.4333 41.4901C14.5797 41.49 14.7234 41.4513 14.85 41.378L22.9167 36.722C23.0433 36.6488 23.1485 36.5435 23.2216 36.4168C23.2947 36.29 23.3332 36.1463 23.3332 36C23.3332 35.8537 23.2947 35.71 23.2216 35.5832C23.1485 35.4565 23.0433 35.3512 22.9167 35.278L22.9153 35.2793ZM15.2667 39.2133V38.182C15.2668 38.0725 15.2453 37.9641 15.2034 37.863C15.1616 37.7619 15.1002 37.67 15.0228 37.5926C14.9454 37.5152 14.8535 37.4538 14.7523 37.4119C14.6512 37.3701 14.5428 37.3486 14.4333 37.3487H7.66667V34.6513H14.4347C14.6557 34.6513 14.8676 34.5635 15.0239 34.4073C15.1802 34.251 15.268 34.039 15.268 33.818V32.7873L20.8333 36L15.2667 39.2133Z" fill="white"/>
</svg>
