<svg width="72" height="72" viewBox="0 0 72 72" fill="none" xmlns="http://www.w3.org/2000/svg">
<path d="M64.4372 23.4035C63.9181 22.495 63.1394 21.7812 62.1011 21.5216L60.9979 21.1972C61.2575 20.3535 61.2575 19.445 60.933 18.6014C60.4788 17.4982 59.5703 16.6546 58.4671 16.3302L28.6811 7.18024C27.7077 6.85577 26.6046 6.98556 25.6961 7.43981C24.7875 7.95896 24.0737 8.73767 23.8142 9.71107L19.661 23.3386C19.0121 25.4152 20.1801 27.5567 22.2567 28.2056L35.2353 32.1641L31.4066 42.4821C31.0822 42.4172 30.7577 42.4172 30.3684 42.4172C27.2535 42.4172 24.5929 44.6236 24.0088 47.6086H16.0919V40.4055C16.0919 37.2257 14.1451 34.3705 11.2249 33.2024C10.2515 32.813 9.2132 32.9428 8.36959 33.5268C7.46109 34.046 7.00684 34.9545 7.00684 35.9928V61.95C7.00684 62.9883 7.52598 63.8968 8.36959 64.4809C8.88874 64.8053 9.47277 65 10.0568 65C10.4462 65 10.8355 64.9351 11.2249 64.8053C12.7174 64.2213 13.9504 63.183 14.794 61.95C15.6376 60.7171 16.0919 59.1596 16.0919 57.6022V50.2693H24.0088C24.5929 53.2543 27.2535 55.4607 30.3684 55.4607C33.9375 55.4607 36.8577 52.5405 36.8577 48.9714C36.8577 46.6353 35.6247 44.6236 33.8077 43.4555L37.7013 32.9428L48.8629 36.3821C49.2523 36.5119 49.6416 36.5768 50.031 36.5768C51.3937 36.5768 52.6916 35.863 53.4054 34.63L53.8597 33.8513L58.0777 35.1492C58.4671 35.279 58.8564 35.3438 59.2458 35.3438C60.933 35.3438 62.4904 34.2407 62.9447 32.6183L64.8266 26.3886C65.0213 25.3503 64.9564 24.312 64.4372 23.4035ZM13.4961 57.5373C13.4961 59.6788 12.1983 61.5607 10.2515 62.3394C10.0568 62.4043 9.92703 62.3394 9.79724 62.2745C9.73235 62.2096 9.60256 62.0798 9.60256 61.8851V35.9928C9.60256 35.7981 9.73235 35.6683 9.79724 35.6034C9.86213 35.6034 9.92703 35.5385 10.0568 35.5385C10.1217 35.5385 10.1866 35.5385 10.2515 35.5385C12.2632 36.3172 13.4961 38.1991 13.4961 40.3406V57.5373ZM34.2619 48.9714C34.2619 51.1129 32.5098 52.865 30.3684 52.865C28.2269 52.865 26.4748 51.1129 26.4748 48.9714C26.4748 46.8299 28.2269 45.0778 30.3684 45.0778C32.5098 45.0778 34.2619 46.8299 34.2619 48.9714ZM51.0693 33.3322C50.7448 33.8513 50.1608 34.1109 49.5767 33.9162L22.9705 25.7397C22.2567 25.545 21.8674 24.8312 22.1269 24.1173L26.345 10.4898C26.4099 10.1653 26.6694 9.90575 26.9939 9.71107C27.1886 9.58128 27.3833 9.58128 27.578 9.58128C27.7077 9.58128 27.8375 9.58128 27.9673 9.64618L57.7532 18.7961C58.1426 18.9259 58.4022 19.1855 58.5969 19.5748C58.7266 19.9642 58.7266 20.3535 58.532 20.678L51.0693 33.3322ZM62.2309 25.6099L60.349 31.8396C60.1543 32.5534 59.4405 32.9428 58.7266 32.6832L55.0926 31.58L59.7649 23.5982L61.3873 24.0524C61.7117 24.1822 61.9713 24.3769 62.166 24.7014C62.2958 24.8961 62.3607 25.2205 62.2309 25.6099Z" fill="white"/>
<path d="M38.026 16.1367L29.3303 13.4761C28.6165 13.2814 27.9027 13.6707 27.708 14.3197C27.5133 15.0335 27.9027 15.7473 28.5516 15.942L37.2473 18.6026C37.3771 18.6675 37.5069 18.6675 37.6366 18.6675C38.2207 18.6675 38.6749 18.3431 38.8696 17.759C39.0643 17.0452 38.6749 16.3314 38.026 16.1367Z" fill="white"/>
</svg>
