<svg width="72" height="72" viewBox="0 0 72 72" fill="none" xmlns="http://www.w3.org/2000/svg">
<path fill-rule="evenodd" clip-rule="evenodd" d="M50.8497 21.1503C59.0501 29.3508 59.0501 42.6473 50.8497 50.8497C42.6492 59.0501 29.3527 59.0501 21.1503 50.8497C12.9499 42.6492 12.9499 29.3527 21.1503 21.1503C29.3527 12.9499 42.6473 12.9499 50.8497 21.1503ZM44.007 31.836L48.6581 49.1891C52.7427 45.2686 54.6392 39.8834 54.2259 34.5739L44.007 31.836ZM46.3482 51.0712L43.6104 40.8521L30.9066 53.5578C36.1127 55.0651 41.8024 54.202 46.3482 51.0712ZM28.1186 52.4991L35.6016 45.0161L18.2467 40.365C19.5381 45.6415 23.1595 50.1305 28.1186 52.4991ZM17.7763 37.4263L27.9934 40.1641L23.3424 22.8111C19.2597 26.7315 17.363 32.1149 17.7763 37.4263ZM25.6523 20.9271L28.3901 31.1462L41.0958 18.4405C35.8878 16.9369 30.1981 17.7982 25.6523 20.9271ZM43.8819 19.501L36.3989 26.9841L53.7538 31.6351C52.4624 26.3586 48.841 21.8696 43.8819 19.501ZM42.7971 37.819L40.9761 31.0222L34.1793 29.2013L29.2018 34.1788L31.0228 40.9756L37.8196 42.7965L42.7971 37.819Z" fill="white"/>
</svg>
