<svg width="72" height="72" viewBox="0 0 72 72" fill="none" xmlns="http://www.w3.org/2000/svg">
<path d="M36.2148 63.4721C35.9707 63.4721 35.7388 63.3645 35.5797 63.1774L25.5353 51.3436C25.2343 50.9893 25.2746 50.4557 25.6254 50.1517C25.7771 50.0201 25.9705 49.9479 26.1704 49.9479H31.1926V33.0425C31.1926 32.5757 31.5674 32.1973 32.0297 32.1973H40.4C40.8623 32.1973 41.237 32.5757 41.237 33.0425V49.9479H46.2592C46.7215 49.9479 47.0963 50.3264 47.0962 50.7932C47.0962 50.9952 47.0245 51.1904 46.8943 51.3436L36.8499 63.1774C36.6909 63.3645 36.4589 63.4721 36.2148 63.4721ZM27.9899 51.6384L36.2148 61.3283L44.4397 51.6384H40.4C39.9378 51.6384 39.563 51.2599 39.563 50.7931V33.8878H32.8667V50.7931C32.8667 51.2599 32.4919 51.6384 32.0297 51.6384H27.9899Z" fill="white"/>
<path d="M40.4002 37.2687H32.0299C31.5677 37.2687 31.1929 36.8902 31.1929 36.4234C31.1929 35.9566 31.5677 35.5781 32.0299 35.5781H40.4002C40.8625 35.5781 41.2373 35.9566 41.2373 36.4234C41.2373 36.8902 40.8625 37.2687 40.4002 37.2687Z" fill="white"/>
<path d="M20.311 41.4946C20.0669 41.4946 19.835 41.3869 19.6759 41.1998L9.63153 29.3661C9.33051 29.0118 9.37079 28.4781 9.72161 28.1741C9.87332 28.0427 10.0667 27.9703 10.2666 27.9703H15.2888V11.065C15.2888 10.5982 15.6636 10.2197 16.1259 10.2197H24.4962C24.9584 10.2197 25.3332 10.5982 25.3332 11.065V27.9703H30.3554C30.8177 27.9703 31.1925 28.3489 31.1924 28.8157C31.1924 29.0176 31.1207 29.2129 30.9905 29.3661L20.9461 41.1998C20.7871 41.3869 20.5551 41.4946 20.311 41.4946ZM12.0861 29.6609L20.311 39.3508L28.5359 29.6609H24.4962C24.0339 29.6609 23.6592 29.2824 23.6592 28.8156V11.9103H16.9629V28.8156C16.9629 29.2824 16.5881 29.6609 16.1259 29.6609H12.0861Z" fill="white"/>
<path d="M24.4964 15.2921H16.1261C15.6638 15.2921 15.2891 14.9136 15.2891 14.4468C15.2891 13.98 15.6638 13.6016 16.1261 13.6016H24.4964C24.9587 13.6016 25.3335 13.98 25.3335 14.4468C25.3335 14.9136 24.9587 15.2921 24.4964 15.2921Z" fill="white"/>
<path d="M52.1186 41.4946C51.8745 41.4946 51.6426 41.3869 51.4835 41.1998L41.4391 29.3661C41.1381 29.0118 41.1784 28.4781 41.5292 28.1741C41.6809 28.0426 41.8743 27.9703 42.0742 27.9703H47.0964V11.065C47.0964 10.5982 47.4712 10.2197 47.9335 10.2197H56.3038C56.7661 10.2197 57.1409 10.5982 57.1409 11.065V27.9703H62.1631C62.6253 27.9703 63.0001 28.3489 63 28.8157C63 29.0176 62.9283 29.2129 62.7982 29.3661L52.7537 41.1998C52.5947 41.3869 52.3627 41.4946 52.1186 41.4946ZM43.8937 29.6609L52.1186 39.3508L60.3435 29.6609H56.3038C55.8416 29.6609 55.4668 29.2824 55.4668 28.8156V11.9103H48.7705V28.8156C48.7705 29.2824 48.3957 29.6609 47.9335 29.6609H43.8937Z" fill="white"/>
<path d="M56.3036 15.2921H47.9332C47.471 15.2921 47.0962 14.9136 47.0962 14.4468C47.0962 13.98 47.471 13.6016 47.9332 13.6016H56.3036C56.7658 13.6016 57.1406 13.98 57.1406 14.4468C57.1406 14.9136 56.7658 15.2921 56.3036 15.2921Z" fill="white"/>
<path d="M36.7382 19.5179C35.3513 19.5179 34.2271 18.3826 34.2271 16.9821C34.2271 15.5816 35.3513 14.4463 36.7382 14.4463H38.4122C38.8745 14.4463 39.2493 14.8248 39.2493 15.2916C39.2493 15.7584 38.8745 16.1368 38.4122 16.1368H36.7382C36.2759 16.1368 35.9011 16.5153 35.9011 16.9821C35.9011 17.4489 36.2759 17.8274 36.7382 17.8274C37.2004 17.8274 37.5752 18.2058 37.5752 18.6726C37.5752 19.1394 37.2004 19.5179 36.7382 19.5179Z" fill="white"/>
<path d="M36.7382 22.8987H35.0641C34.6018 22.8987 34.2271 22.5203 34.2271 22.0535C34.2271 21.5867 34.6018 21.2082 35.0641 21.2082H36.7382C37.2004 21.2082 37.5752 20.8297 37.5752 20.3629C37.5752 19.8962 37.2004 19.5177 36.7382 19.5177C36.2759 19.5177 35.9011 19.1392 35.9011 18.6724C35.9011 18.2056 36.2759 17.8271 36.7382 17.8271C38.125 17.8271 39.2493 18.9624 39.2493 20.3629C39.2493 21.7635 38.125 22.8987 36.7382 22.8987Z" fill="white"/>
<path d="M36.7379 16.1369C36.2757 16.1369 35.9009 15.7585 35.9009 15.2917V13.6011C35.9009 13.1343 36.2757 12.7559 36.7379 12.7559C37.2002 12.7559 37.5749 13.1343 37.5749 13.6011V15.2917C37.5749 15.7585 37.2002 16.1369 36.7379 16.1369Z" fill="white"/>
<path d="M36.7379 24.5891C36.2757 24.5891 35.9009 24.2106 35.9009 23.7438V22.0533C35.9009 21.5865 36.2757 21.208 36.7379 21.208C37.2002 21.208 37.5749 21.5865 37.5749 22.0533V23.7438C37.5749 24.2106 37.2002 24.5891 36.7379 24.5891Z" fill="white"/>
<path d="M36.3197 28.8161C31.0035 28.8161 26.6938 24.4641 26.6938 19.0956C26.6938 13.7271 31.0035 9.375 36.3197 9.375C41.6359 9.375 45.9456 13.7271 45.9456 19.0956C45.9399 24.4616 41.6335 28.8103 36.3197 28.8161ZM36.3197 11.0655C31.928 11.0655 28.3679 14.6607 28.3679 19.0956C28.3679 23.5305 31.928 27.1256 36.3197 27.1256C40.7114 27.1256 44.2716 23.5305 44.2716 19.0956C44.267 14.6627 40.7095 11.0702 36.3197 11.0655Z" fill="white"/>
</svg>
