<svg width="72" height="72" viewBox="0 0 72 72" fill="none" xmlns="http://www.w3.org/2000/svg">
<path d="M41.792 11.4391C42.025 11.4391 42.252 11.3358 42.4014 11.141C42.6583 10.8074 42.5896 10.335 42.255 10.0812C40.4387 8.72028 38.2728 8 35.9964 8C33.717 8 31.5542 8.72031 29.7378 10.0812C29.4033 10.3351 29.3345 10.8074 29.5915 11.141C29.8484 11.4716 30.3264 11.5365 30.6639 11.2856C32.2113 10.1254 34.0576 9.51139 35.9994 9.51139C37.9412 9.51139 39.7844 10.1254 41.3349 11.2856C41.4723 11.3889 41.6366 11.4391 41.7979 11.4391H41.792Z" fill="white"/>
<path d="M40.2717 13.4196C40.5047 13.4196 40.7317 13.3163 40.8841 13.1185C41.138 12.7849 41.0723 12.3126 40.7347 12.0617C39.3605 11.0373 37.7235 10.4971 35.9997 10.4971C34.276 10.4971 32.636 11.0373 31.2647 12.0617C30.9272 12.3126 30.8614 12.7879 31.1154 13.1185C31.3693 13.452 31.8503 13.517 32.1848 13.2661C33.2901 12.4425 34.6106 12.0055 35.9997 12.0055C37.3889 12.0055 38.7093 12.4395 39.8146 13.2661C39.9521 13.3694 40.1134 13.4196 40.2747 13.4196H40.2717Z" fill="white"/>
<path d="M39.2077 14.0661C37.3525 12.655 34.64 12.655 32.7849 14.0661C32.4503 14.32 32.3875 14.7953 32.6445 15.1259C32.9044 15.4565 33.3823 15.5185 33.7169 15.2646C35.0344 14.2639 36.9582 14.2639 38.2756 15.2646C38.416 15.3709 38.5773 15.4211 38.7416 15.4211C38.9717 15.4211 39.1987 15.3207 39.3481 15.1259C39.605 14.7953 39.5423 14.32 39.2077 14.0661Z" fill="white"/>
<path d="M35.9966 15.4746C34.4491 15.4746 33.1914 16.7174 33.1914 18.2466C33.1914 19.7758 34.4491 21.0186 35.9966 21.0186C37.5441 21.0186 38.8018 19.7758 38.8018 18.2466C38.8018 16.7175 37.5441 15.4746 35.9966 15.4746ZM35.9966 19.5071C35.2916 19.5071 34.7209 18.9433 34.7209 18.2465C34.7209 17.5528 35.2915 16.986 35.9966 16.986C36.7016 16.986 37.2722 17.5498 37.2722 18.2465C37.2722 18.9433 36.7016 19.5071 35.9966 19.5071Z" fill="white"/>
<path d="M35.9967 41.1875C32.2296 41.1875 29.1646 44.2163 29.1646 47.9389C29.1646 51.6614 32.2296 54.6902 35.9967 54.6902C39.7638 54.6902 42.8289 51.6614 42.8289 47.9389C42.8289 44.2163 39.7638 41.1875 35.9967 41.1875ZM35.9967 53.1786C33.0751 53.1786 30.6941 50.8288 30.6941 47.9387C30.6941 45.0487 33.0721 42.6988 35.9967 42.6988C38.9213 42.6988 41.2993 45.0487 41.2993 47.9387C41.2993 50.8288 38.9213 53.1786 35.9967 53.1786Z" fill="white"/>
<path d="M35.9967 45.6065C35.7637 45.6065 35.5426 45.6419 35.3305 45.7068C35.5426 45.8899 35.6741 46.1555 35.6741 46.4566C35.6741 47.0146 35.22 47.4633 34.6554 47.4633C34.3029 47.4633 33.9982 47.2891 33.8219 47.0323C33.7024 47.3157 33.6367 47.6168 33.6367 47.9385C33.6367 49.2286 34.6913 50.2707 35.9967 50.2707C37.3022 50.2707 38.3567 49.2286 38.3567 47.9385C38.3567 46.6485 37.3022 45.6065 35.9967 45.6065Z" fill="white"/>
<path d="M13 23.8729V27.1379C13 28.7291 14.3114 30.025 15.9217 30.025H16.3847V44.6226C16.3847 46.6182 17.8515 48.2773 19.7754 48.6168C20.1428 57.1603 27.2678 63.9997 36 63.9997C44.7322 63.9997 51.8568 57.1568 52.2246 48.6168C54.1485 48.2744 55.6153 46.6183 55.6153 44.6226V30.025H56.0783C57.6886 30.025 59 28.7291 59 27.1379V23.8729C59 23.4537 58.6594 23.1172 58.2352 23.1172H13.7653C13.3411 23.1172 13 23.4537 13 23.8729ZM35.9967 62.4944C27.874 62.4944 21.2656 55.9645 21.2656 47.9376C21.2656 39.911 27.8737 33.3807 35.9967 33.3807C44.1196 33.3807 50.7277 39.9107 50.7277 47.9376C50.7277 55.9642 44.1196 62.4944 35.9967 62.4944ZM54.0797 44.6252C54.0797 45.7884 53.288 46.7595 52.2096 47.0695C51.7495 38.6145 44.6634 31.8696 35.9941 31.8696C27.3247 31.8696 20.2383 38.6151 19.7787 47.0695C18.7033 46.7596 17.9086 45.7884 17.9086 44.6252V30.0306H54.0769V44.6252H54.0797ZM14.5295 24.6279H57.4676V27.1371C57.4676 27.8958 56.8432 28.5128 56.0755 28.5128H15.922C15.1542 28.5128 14.5298 27.8958 14.5298 27.1371L14.5295 24.6279Z" fill="white"/>
<path d="M41.5681 40.6204C41.0632 41.1193 41.0632 41.9311 41.5681 42.43C41.819 42.6809 42.1536 42.8049 42.4852 42.8049C42.8168 42.8049 43.1484 42.6809 43.4023 42.43C43.9072 41.9311 43.9072 41.1192 43.4023 40.6204C42.8975 40.1215 42.0729 40.1185 41.5681 40.6204Z" fill="white"/>
<path d="M41.5681 53.4436C41.0632 53.9425 41.0632 54.7544 41.5681 55.2532C41.819 55.5041 42.1536 55.6281 42.4852 55.6281C42.8168 55.6281 43.1484 55.5041 43.4023 55.2532C43.9072 54.7543 43.9072 53.9425 43.4023 53.4436C42.8975 52.9448 42.0729 52.9418 41.5681 53.4436Z" fill="white"/>
<path d="M29.5082 42.8049C29.8397 42.8049 30.1714 42.6809 30.4253 42.43C30.9301 41.9311 30.9301 41.1193 30.4253 40.6204C29.9204 40.1186 29.0959 40.1215 28.591 40.6204C28.0862 41.1193 28.0862 41.9311 28.591 42.43C28.842 42.6809 29.1766 42.8049 29.5082 42.8049Z" fill="white"/>
<path d="M45.174 46.6572C44.46 46.6572 43.8774 47.2329 43.8774 47.9384C43.8774 48.644 44.46 49.2196 45.174 49.2196C45.8879 49.2196 46.4705 48.6439 46.4705 47.9384C46.4705 47.2329 45.8879 46.6572 45.174 46.6572Z" fill="white"/>
<path d="M26.8195 46.6572C26.1055 46.6572 25.5229 47.2329 25.5229 47.9384C25.5229 48.644 26.1055 49.2196 26.8195 49.2196C27.5334 49.2196 28.116 48.6439 28.116 47.9384C28.116 47.2329 27.5334 46.6572 26.8195 46.6572Z" fill="white"/>
<path d="M35.9967 55.7256C35.2827 55.7256 34.7002 56.3012 34.7002 57.0068C34.7002 57.7123 35.2827 58.288 35.9967 58.288C36.7107 58.288 37.2932 57.7123 37.2932 57.0068C37.2932 56.3012 36.7107 55.7256 35.9967 55.7256Z" fill="white"/>
<path d="M35.9967 40.1483C36.7107 40.1483 37.2932 39.5727 37.2932 38.8671C37.2932 38.1616 36.7107 37.5859 35.9967 37.5859C35.2827 37.5859 34.7002 38.1616 34.7002 38.8671C34.7002 39.5727 35.2827 40.1483 35.9967 40.1483Z" fill="white"/>
</svg>
