<svg width="50" height="50" viewBox="0 0 50 50" fill="none" xmlns="http://www.w3.org/2000/svg">
<path d="M1.59604 29.2553C2.47637 29.2553 3.19181 29.9707 3.19181 30.8511V36.7021C3.19181 42.2844 7.71569 46.8085 13.2983 46.8085H19.1494C20.0297 46.8085 20.7451 47.5239 20.7451 48.4042C20.7451 49.2846 20.0297 50 19.1494 50H13.2983C5.95536 50 0.000681122 44.0453 0.000681122 36.7025V30.8515C0.000681122 29.9711 0.715706 29.2553 1.59604 29.2553ZM48.4042 29.2553C49.2846 29.2553 50 29.9707 50 30.8511V36.7021C50 44.0449 44.0452 49.9996 36.7024 49.9996H30.8513C29.971 49.9996 29.2556 49.2842 29.2556 48.4038C29.2556 47.5235 29.971 46.8081 30.8513 46.8081H36.7024C42.2848 46.8081 46.8089 42.2842 46.8089 36.7017V30.8506C46.8089 29.9703 47.5239 29.2553 48.4042 29.2553ZM25.0001 8.51073C34.1065 8.51073 41.4896 15.8938 41.4896 25C41.4896 34.1063 34.1065 41.4893 25.0001 41.4893C15.8938 41.4893 8.51072 34.1063 8.51072 25C8.51072 15.8938 15.8938 8.51073 25.0001 8.51073ZM25.0001 11.7022C17.6572 11.7022 11.7025 17.6569 11.7025 24.9997C11.7025 32.3425 17.6573 38.2972 25.0001 38.2972C32.343 38.2972 38.2977 32.3425 38.2977 24.9997C38.2977 17.6569 32.343 11.7022 25.0001 11.7022ZM23.2342 17.1037C23.9735 15.6862 26.0267 15.6862 26.766 17.1037C27.8113 19.3058 29.2368 21.1621 31.3564 22.4334L32.7208 23.2552C33.9309 24.0956 33.9309 25.9041 32.7208 26.7445L31.3564 27.5663C29.3379 28.7763 27.774 30.6008 26.8326 32.7497C26.1092 34.2736 23.8671 34.3826 23.1677 32.7497C22.2555 30.67 20.7608 28.8907 18.8326 27.6833L17.4071 26.8243C16.0268 25.9999 16.0268 24.0025 17.4071 23.1754L18.8326 22.3164C20.8592 21.0477 22.2236 19.2366 23.2342 17.1037ZM25.0001 20.5877C23.8671 22.359 22.3539 23.8696 20.5614 24.9999C22.3539 26.1302 23.8672 27.6408 25.0001 29.4148C26.1331 27.6408 27.6464 26.1302 29.4389 24.9999C27.6464 23.8696 26.1331 22.359 25.0001 20.5877ZM19.1491 0.000408411C20.0294 0.000408411 20.7448 0.715837 20.7448 1.59617C20.7448 2.47649 20.0294 3.19192 19.1491 3.19192H13.298C7.71562 3.19192 3.19153 7.71578 3.19153 13.2983V19.1494C3.19153 20.0297 2.4761 20.7451 1.59577 20.7451C0.715434 20.7451 0 20.0297 0 19.1494V13.2983C0 5.95546 5.95475 0.000816821 13.2976 0.000816821L19.1491 0.000408411ZM36.702 0.000408411C44.0449 0.000408411 49.9996 5.95512 49.9996 13.2979V19.1489C49.9996 20.0293 49.2842 20.7447 48.4038 20.7447C47.5235 20.7447 46.8081 20.0293 46.8081 19.1489V13.2979C46.8081 7.71557 42.2842 3.19151 36.7016 3.19151H30.8505C29.9702 3.19151 29.2547 2.47609 29.2547 1.59576C29.2547 0.715429 29.9702 0 30.8505 0L36.702 0.000408411Z" fill="white"/>
</svg>
