<svg width="72" height="72" viewBox="0 0 72 72" fill="none" xmlns="http://www.w3.org/2000/svg">
<path d="M52.5447 32.6041C54.027 30.9288 54.9356 28.7749 54.9356 26.3816C54.9356 21.2122 50.7276 17 45.5634 17C42.0249 17 38.9168 18.9625 37.3389 21.8823C36.9085 21.8344 36.4782 21.7865 36 21.7865C35.5696 21.7865 35.0915 21.8344 34.6611 21.8823C33.0832 18.9625 29.9751 17 26.4366 17C21.2723 17 17.0644 21.2122 17.0644 26.3816C17.0644 28.7749 17.973 30.9288 19.4553 32.6041C15.6778 34.2316 13 38.0129 13 42.3687V48.0168C13 48.6869 13.526 49.2135 14.1954 49.2135H22.5634V52.8034C22.5634 53.4735 23.0894 54 23.7588 54H48.2412C48.9106 54 49.4366 53.4735 49.4366 52.8034V49.2135H57.8046C58.474 49.2135 59 48.6869 59 48.0168V42.3687C59 37.9651 56.3701 34.1837 52.5447 32.6041ZM56.6091 46.8202H49.4366C49.2931 42.608 46.711 38.9702 42.9813 37.3907C43.4595 36.8642 43.8898 36.2898 44.2245 35.6675C44.6549 35.7154 45.0852 35.7633 45.5634 35.7633C47.3326 35.7633 49.0062 35.2367 50.3929 34.3752C53.9792 35.2846 56.6091 38.4916 56.6091 42.3208V46.8202ZM24.9543 51.6067V47.1552C24.9543 43.326 27.5842 40.0712 31.1705 39.2096C32.605 40.0712 34.2308 40.5977 36 40.5977C37.7692 40.5977 39.4428 40.0712 40.8295 39.2096C44.4158 40.119 47.0457 43.326 47.0457 47.1552V51.6067H24.9543ZM15.3909 42.3687C15.3909 38.5395 18.0208 35.2846 21.6071 34.423C23.0416 35.2846 24.6674 35.8111 26.4366 35.8111C26.8669 35.8111 27.3451 35.7633 27.7755 35.7154C28.1102 36.3376 28.5405 36.912 29.0187 37.4386C25.3368 39.0181 22.7069 42.6559 22.5634 46.868H15.3909V42.3687ZM19.4553 26.3816C19.4553 22.5045 22.6112 19.3933 26.4366 19.3933C28.8753 19.3933 31.027 20.6378 32.2703 22.5524C28.9709 23.9884 26.6279 27.2911 26.6279 31.1682C26.6279 31.934 26.7235 32.652 26.9148 33.37C26.7713 33.37 26.6279 33.37 26.4844 33.37C22.5634 33.37 19.4553 30.2109 19.4553 26.3816ZM45.5634 19.3454C49.4366 19.3454 52.5447 22.5045 52.5447 26.3338C52.5447 30.163 49.4366 33.37 45.5634 33.37C45.42 33.37 45.2765 33.37 45.1331 33.37C45.3243 32.652 45.42 31.934 45.42 31.1682C45.42 27.3389 43.0769 23.9884 39.7775 22.5524C40.973 20.6378 43.1247 19.3454 45.5634 19.3454ZM42.9813 31.1682C42.9813 35.0453 39.8254 38.1565 36 38.1565C32.1268 38.1565 29.0187 34.9974 29.0187 31.1682C29.0187 27.2911 32.1746 24.1798 36 24.1798C39.8732 24.132 42.9813 27.2911 42.9813 31.1682Z" fill="black"/>
</svg>
