<svg width="72" height="72" viewBox="0 0 72 72" fill="none" xmlns="http://www.w3.org/2000/svg">
<path d="M47.5356 20.8248H24.4644C22.4667 20.8248 20.8556 22.4324 20.8556 24.4257V47.4457C20.8556 49.439 22.4667 51.0466 24.4644 51.0466H47.5356C49.5333 51.0466 51.1444 49.439 51.1444 47.4457V24.4257C51.1444 22.4324 49.5333 20.8248 47.5356 20.8248ZM48.5667 47.4457C48.5667 48.0244 48.1156 48.4745 47.5356 48.4745H24.4644C23.8844 48.4745 23.4333 48.0244 23.4333 47.4457V24.4257C23.4333 23.847 23.8844 23.3969 24.4644 23.3969H47.5356C48.1156 23.3969 48.5667 23.847 48.5667 24.4257V47.4457ZM9.57778 60.4989V54.9047C9.57778 54.1973 8.99778 53.6186 8.28889 53.6186C7.58 53.6186 7 54.1973 7 54.9047V63.9712C7 64.0355 7 64.0355 7.06444 64.0998C7.06444 64.1641 7.12889 64.1641 7.12889 64.2284C7.12889 64.2927 7.19333 64.2927 7.19333 64.357C7.25778 64.4856 7.38667 64.6142 7.58 64.7428C7.58 64.7428 7.64444 64.8071 7.70889 64.8071C7.77333 64.8071 7.77333 64.8714 7.83778 64.8714C7.90222 64.8714 7.90222 64.8714 7.96667 64.9357C8.03111 64.9357 8.03111 64.9357 8.09556 65H17.0533C17.7622 65 18.3422 64.4213 18.3422 63.714C18.3422 63.0067 17.7622 62.4279 17.0533 62.4279H11.4467L19.6956 54.1973C19.9533 53.9401 20.0822 53.6186 20.0822 53.2971C20.0822 52.9756 19.9533 52.6541 19.6956 52.3969C19.18 51.8825 18.4067 51.8825 17.8911 52.3969L9.57778 60.4989ZM64.2267 7.1286C64.1622 7.1286 64.1622 7.1286 64.0978 7.0643C64.0333 7.0643 64.0333 7.0643 63.9689 7H55.0111C54.3022 7 53.7222 7.57871 53.7222 8.28603C53.7222 8.99335 54.3022 9.57206 55.0111 9.57206H60.6178L52.3689 17.8027C51.8533 18.3171 51.8533 19.0887 52.3689 19.6031C52.8844 20.1175 53.6578 20.1175 54.1733 19.6031L62.4222 11.3725V16.9667C62.4222 17.6741 63.0022 18.2528 63.7111 18.2528C64.42 18.2528 65 17.6741 65 16.9667V8.28603V8.02882C65 7.96452 65 7.96452 64.9356 7.90022C64.9356 7.83592 64.9356 7.83592 64.8711 7.77162C64.8711 7.70732 64.8067 7.70732 64.8067 7.64302C64.8067 7.64302 64.8067 7.57871 64.7422 7.57871C64.6778 7.45011 64.5489 7.32151 64.3556 7.1929L64.2911 7.1286H64.2267Z" fill="white"/>
</svg>
