<svg width="72" height="72" viewBox="0 0 72 72" fill="none" xmlns="http://www.w3.org/2000/svg">
<path d="M35.574 62.1548C26.9083 62.1548 19.8602 55.1198 19.8602 46.4702C19.8602 37.8207 26.9083 30.7857 35.574 30.7857C41.8942 30.7742 47.602 34.5569 50.0515 40.3694L51.75 39.6544C49.3929 34.0725 44.3206 30.1053 38.3355 29.1596V27.0952H40.1842V25.25H30.9408V27.0952H32.7895V29.1596C24.4242 30.4859 18 37.7515 18 46.4702C18 56.1347 25.88 64 35.5625 64C39.5834 64 43.4771 62.6276 46.5968 60.1019L45.4298 58.6719C42.6568 60.9208 39.1674 62.1548 35.574 62.1548ZM34.6497 27.0952H36.4984V28.9635C36.1864 28.952 35.886 28.9405 35.574 28.9405C35.2621 28.9405 34.9501 28.952 34.6497 28.9635V27.0952Z" fill="white"/>
<path d="M34.4564 45.9166L30.5 50.2124L31.6859 51.5L35.8836 46.9421C36.041 46.7712 36.125 46.5433 36.125 46.2926V39H34.4459V45.9166H34.4564Z" fill="white"/>
<path d="M44.5254 54.2438L42.5456 52.262L41.2524 53.5565L43.2322 55.5382C41.3096 57.1763 38.9292 58.1729 36.4115 58.3677V55.6642H34.5804V58.3791C32.0627 58.1844 29.6708 57.1878 27.7597 55.5382L29.7395 53.5565L28.4463 52.262L26.4665 54.2438C24.8071 52.3307 23.8114 49.9366 23.6169 47.4164H26.3291V45.5836H23.6169C23.8114 43.0634 24.8071 40.6693 26.455 38.7562L28.4349 40.738L29.7281 39.4435L27.7482 37.4618C29.6594 35.8122 32.0512 34.8156 34.569 34.6209V37.3358H36.4V34.6209C38.9177 34.8156 41.3096 35.8122 43.2208 37.4503L41.2409 39.4321L42.5341 40.7265L44.514 38.7448C44.9946 39.3061 45.418 39.9018 45.7843 40.5432L47.3636 39.6268C43.5755 33.0515 35.1755 30.7948 28.6065 34.598C22.0376 38.4011 19.806 46.7978 23.594 53.3732C27.382 59.9485 35.782 62.2052 42.351 58.402C44.4338 57.1992 46.1734 55.458 47.375 53.3732L45.7957 52.4567C45.4295 53.0868 44.9946 53.6939 44.5254 54.2438Z" fill="white"/>
<path d="M28.9293 17.0872H31.7434V23.375H33.6195V16.1889C33.6195 15.6949 33.1974 15.2906 32.6815 15.2906H31.1923L35.4956 11.1699L39.7989 15.2906H38.3098C37.7938 15.2906 37.3717 15.6949 37.3717 16.1889V23.375H39.2478V17.0872H42.062C42.5779 17.0872 43 16.6829 43 16.1889C43 15.9531 42.9062 15.7173 42.7303 15.5489L36.164 9.26106C35.8005 8.91298 35.2025 8.91298 34.839 9.26106L28.2726 15.5489C27.9091 15.897 27.9091 16.4696 28.2726 16.8177C28.4368 16.9973 28.683 17.0872 28.9293 17.0872Z" fill="white"/>
<path d="M41.75 21.8071V28.373H43.5976V21.8071C43.5976 21.2912 44.0133 20.8691 44.5214 20.8691H55.6068C56.1149 20.8691 56.5306 20.447 56.5306 19.9311V18.4421L60.7685 22.7451L56.5306 27.0481V25.5591C56.5306 25.0432 56.1149 24.6211 55.6068 24.6211H48.2165C47.7084 24.6211 47.2927 25.0432 47.2927 25.5591V32.125H49.1403V26.4971H54.683V29.311C54.683 29.8269 55.0987 30.249 55.6068 30.249C55.8493 30.249 56.0918 30.1552 56.265 29.9793L62.7315 23.4134C63.0895 23.05 63.0895 22.452 62.7315 22.0885L56.265 15.5226C55.907 15.1591 55.3181 15.1591 54.9602 15.5226C54.7869 15.6985 54.6946 15.933 54.6946 16.1909V19.0049H44.5329C42.9971 18.9932 41.75 20.2594 41.75 21.8071Z" fill="white"/>
<path d="M23.7073 32.125V25.5625C23.7073 25.0469 23.2916 24.625 22.7835 24.625H15.3932C14.8851 24.625 14.4694 25.0469 14.4694 25.5625V27.0508L10.2315 22.75L14.4694 18.4492V19.9375C14.4694 20.4531 14.8851 20.875 15.3932 20.875H26.4786C26.9867 20.875 27.4024 21.2969 27.4024 21.8125V28.375H29.25V21.8125C29.25 20.2656 28.0029 19 26.4786 19H16.317V16.1875C16.317 15.6719 15.9013 15.25 15.3932 15.25C15.1507 15.25 14.9082 15.3438 14.735 15.5195L8.26848 22.082C7.91051 22.4453 7.91051 23.043 8.26848 23.4063L14.735 29.9688C15.093 30.332 15.6819 30.332 16.0398 29.9688C16.213 29.793 16.3054 29.5586 16.3054 29.3008V26.4883H21.8482V32.125H23.7073Z" fill="white"/>
<path d="M53.625 42.125H39.875V44H53.625V42.125Z" fill="white"/>
<path d="M57.375 42.125H55.5V44H57.375V42.125Z" fill="white"/>
<path d="M57.375 46.5H45.5V48.375H57.375V46.5Z" fill="white"/>
<path d="M63 46.5H59.25V48.375H63V46.5Z" fill="white"/>
<path d="M61.125 50.875H49.875V52.75H61.125V50.875Z" fill="white"/>
<path d="M54.875 55.875H48.625V57.75H54.875V55.875Z" fill="white"/>
</svg>
