<svg width="72" height="72" viewBox="0 0 72 72" fill="none" xmlns="http://www.w3.org/2000/svg">
<path d="M43.5476 58.7297C43.5476 59.2562 43.1343 59.6813 42.6223 59.6813H29.3839C28.8719 59.6813 28.4586 59.2562 28.4586 58.7297C28.4586 58.2031 28.8719 57.7781 29.3839 57.7781H42.6223C43.1343 57.7781 43.5476 58.2031 43.5476 58.7297ZM42.6223 54.5489H29.3839C28.8719 54.5489 28.4586 54.974 28.4586 55.5005C28.4586 56.0271 28.8719 56.4521 29.3839 56.4521H42.6223C43.1343 56.4521 43.5476 56.0271 43.5476 55.5005C43.5476 54.974 43.1343 54.5489 42.6223 54.5489ZM39.0073 61.0072C38.4953 61.0072 38.082 61.4323 38.082 61.9588C38.082 63.1388 37.1505 64.0968 36.0031 64.0968C34.8557 64.0968 33.9242 63.1388 33.9242 61.9588C33.9242 61.4323 33.5109 61.0072 32.9988 61.0072C32.4868 61.0072 32.0735 61.4323 32.0735 61.9588C32.0735 64.1856 33.8378 66 36.0031 66C38.1684 66 39.9327 64.1856 39.9327 61.9588C39.9327 61.4323 39.5193 61.0072 39.0073 61.0072ZM60 31.6721C60 32.1987 59.5867 32.6238 59.0747 32.6238H57.7854C57.4523 40.8457 52.8688 48.1414 45.6327 51.8083C45.5032 51.8717 45.3613 51.9034 45.2255 51.9034C44.8863 51.9034 44.5531 51.7068 44.3928 51.3705C44.1645 50.9011 44.3557 50.3301 44.8122 50.0954C51.4129 46.752 55.6016 40.1098 55.9347 32.6174H55.4535C54.9415 32.6174 54.5282 32.1924 54.5282 31.6658C54.5282 31.1392 54.9415 30.7142 55.4535 30.7142H55.9409C55.472 20.1513 47.1996 11.6439 36.9284 11.1617V11.6629C36.9284 12.1895 36.5151 12.6145 36.0031 12.6145C35.4911 12.6145 35.0778 12.1895 35.0778 11.6629V11.1617C30.2722 11.3901 25.8985 13.3695 22.5611 16.5034L25.2014 19.2187C28.0761 16.5796 31.8576 14.9745 36.0031 14.9745C44.9541 14.9745 52.2396 22.4669 52.2396 31.6721C52.2396 38.4286 48.2298 44.5506 42.1966 47.1137V52.2651C42.1966 52.7916 41.7833 53.2167 41.2713 53.2167C40.7593 53.2167 40.346 52.7916 40.346 52.2651V46.4602C40.346 46.0605 40.5866 45.7053 40.9505 45.5657C46.595 43.4404 50.3889 37.8513 50.3889 31.6658C50.3889 23.5073 43.9363 16.8714 36.0031 16.8714C32.3696 16.8714 29.0446 18.2671 26.5092 20.5637L33.5294 27.7832C34.2388 27.3011 35.0901 27.0219 35.9969 27.0219C38.4891 27.0219 40.5125 29.1091 40.5125 31.6658C40.5125 34.2225 38.483 36.3097 35.9969 36.3097C33.5109 36.3097 31.4813 34.2225 31.4813 31.6658C31.4813 30.7269 31.7527 29.8577 32.2216 29.1282L25.2014 21.9086C22.9683 24.516 21.6111 27.9291 21.6111 31.6721C21.6111 37.8576 25.405 43.4404 31.0495 45.572C31.4134 45.7116 31.654 46.0669 31.654 46.4666V52.2714C31.654 52.798 31.2407 53.223 30.7287 53.223C30.2167 53.223 29.8034 52.798 29.8034 52.2714V47.12C23.7702 44.557 19.7604 38.4349 19.7604 31.6785C19.7604 27.4153 21.3212 23.5263 23.8874 20.57L21.2471 17.8547C18.2059 21.2869 16.275 25.7785 16.0529 30.7269H16.5403C17.0523 30.7269 17.4656 31.1519 17.4656 31.6785C17.4656 32.2051 17.0523 32.6301 16.5403 32.6301H16.0591C16.3861 39.9702 20.4514 46.5427 26.8546 49.9368C27.3111 50.1778 27.49 50.7488 27.2556 51.2183C27.0212 51.6877 26.4598 51.8717 26.0095 51.6306C18.9893 47.9067 14.5416 40.6871 14.2146 32.6301H12.9253C12.4133 32.6301 12 32.2051 12 31.6785C12 31.1519 12.4133 30.7269 12.9253 30.7269H14.2023C14.4244 25.2583 16.5588 20.2909 19.9393 16.5098L16.7747 13.2553H15.4114C14.8994 13.2553 14.4861 12.8302 14.4861 12.3037C14.4861 11.923 14.702 11.5995 15.0166 11.4472L14.3072 10.7176H12.9438C12.4318 10.7176 12.0185 10.2926 12.0185 9.76602C12.0185 9.38538 12.2344 9.06183 12.549 8.90957L12.2899 8.64312C11.926 8.26882 11.926 7.66613 12.2899 7.29817C12.6539 6.92387 13.2399 6.92387 13.5977 7.29817L13.8568 7.56462C14.0049 7.24108 14.3195 7.01903 14.6896 7.01903C15.2016 7.01903 15.615 7.44409 15.615 7.97065V9.37269L16.3244 10.1023C16.4724 9.77871 16.787 9.55667 17.1572 9.55667C17.6692 9.55667 18.0825 9.98172 18.0825 10.5083V11.9103L21.2471 15.1648C24.9238 11.6946 29.754 9.49957 35.0716 9.26484V7.95161C35.0716 7.42505 35.4849 7 35.9969 7C36.5089 7 36.9222 7.42505 36.9222 7.95161V9.26484C48.2175 9.75333 57.3165 19.1109 57.7854 30.7205H59.0623C59.5743 30.7205 59.9877 31.1456 59.9877 31.6721H60ZM34.8927 29.1853L36.657 30.9997C37.021 31.374 37.021 31.9767 36.657 32.3446C36.4781 32.5286 36.2375 32.6238 36.0031 32.6238C35.7687 32.6238 35.5281 32.5286 35.3492 32.3446L33.5849 30.5302C33.4307 30.8791 33.3381 31.2661 33.3381 31.6721C33.3381 33.182 34.5349 34.4128 36.0031 34.4128C37.4713 34.4128 38.668 33.182 38.668 31.6721C38.668 30.1623 37.4713 28.9315 36.0031 28.9315C35.6083 28.9315 35.232 29.0267 34.8927 29.1853Z" fill="white"/>
</svg>
