<svg width="72" height="72" viewBox="0 0 72 72" fill="none" xmlns="http://www.w3.org/2000/svg">
<path d="M54.7791 33.8345C54.7528 33.6064 54.7132 33.3783 54.6605 33.1502C54.1171 30.8053 52.2792 28.9229 49.9373 28.2322C49.0975 25.3862 46.614 23.3399 43.6497 22.9737V18.5247H52.3354C52.7998 18.5247 53.1786 18.1553 53.1786 17.7024V12.6334C54.6771 12.2639 55.7938 10.9469 55.7938 9.37292C55.7938 7.51303 54.2425 6 52.3354 6C50.4283 6 48.877 7.51295 48.877 9.37292C48.877 10.947 49.9935 12.264 51.4922 12.6334V16.88H42.8065C42.3421 16.88 41.9633 17.2494 41.9633 17.7024V22.9448C39.9015 23.1407 38.0833 24.1494 36.8449 25.6367V12.6338C38.3435 12.2644 39.4602 10.9473 39.4602 9.37334C39.4602 7.51344 37.9089 6.00041 36.0018 6.00041C34.0946 6.00041 32.5433 7.51336 32.5433 9.37334C32.5433 10.9474 33.6599 12.2644 35.1586 12.6338V25.6367C33.9201 24.1494 32.102 23.1407 30.0402 22.9448V17.7024C30.0402 17.2494 29.6614 16.88 29.197 16.88H20.5113V12.6334C22.0099 12.2639 23.1266 10.9469 23.1266 9.37292C23.1266 7.51303 21.5753 6 19.6681 6C17.7611 6 16.2097 7.51295 16.2097 9.37292C16.2097 10.947 17.3263 12.264 18.825 12.6334V17.7024C18.825 18.1553 19.2037 18.5247 19.6681 18.5247H28.3538V22.9737C25.3895 23.3399 22.9061 25.3862 22.0662 28.2322C19.7211 28.9229 17.8865 30.8053 17.3397 33.1502C17.287 33.3783 17.2508 33.6064 17.2211 33.8345C14.1448 35.084 12.0303 37.7824 11.668 41.03C11.3254 44.1106 12.6594 47.0048 15.1494 48.7491C15.0605 49.2116 15.0144 49.687 15.0144 50.1657C15.0078 53.378 17.0663 56.3173 20.136 57.48C20.6663 57.6824 21.2163 57.8173 21.7763 57.9041C21.9179 61.8392 25.2347 65 29.3024 65C32.2173 65 34.7436 63.3746 35.9985 61.0103C37.2534 63.3778 39.7829 65 42.6945 65C46.7622 65 50.079 61.8391 50.2207 57.9041C50.7773 57.8173 51.3306 57.6824 51.8609 57.48C54.9306 56.3172 56.9892 53.378 56.9826 50.1657C56.9826 49.6871 56.9332 49.2116 56.8475 48.7491C59.3376 47.0048 60.6716 44.1106 60.329 41.03C59.9667 37.7824 57.8521 35.0808 54.7758 33.8345H54.7791ZM50.5632 9.37632C50.5632 8.42224 51.357 7.64808 52.3352 7.64808C53.3135 7.64808 54.1073 8.42225 54.1073 9.37632C54.1073 10.3304 53.3135 11.1046 52.3352 11.1046C51.357 11.1046 50.5632 10.3304 50.5632 9.37632ZM17.8931 9.37632C17.8931 8.42224 18.6869 7.64808 19.6651 7.64808C20.6434 7.64808 21.4372 8.42225 21.4372 9.37632C21.4372 10.3304 20.6434 11.1046 19.6651 11.1046C18.6869 11.1046 17.8931 10.3304 17.8931 9.37632ZM34.2264 9.37632C34.2264 8.42224 35.0202 7.64808 35.9985 7.64808C36.9767 7.64808 37.7705 8.42225 37.7705 9.37632C37.7705 10.3304 36.9767 11.1046 35.9985 11.1046C35.0202 11.1046 34.2264 10.3304 34.2264 9.37632ZM56.3272 47.0849C55.9616 46.2529 55.451 45.482 54.7989 44.8074C54.4794 44.4765 53.9459 44.4605 53.6066 44.7721C53.2673 45.0837 53.2508 45.604 53.5703 45.935C54.6836 47.0849 55.2963 48.5915 55.2995 50.1687C55.3061 52.7064 53.679 55.0289 51.2516 55.9476C49.664 56.5483 47.8624 56.4969 46.3143 55.8062C45.8927 55.6167 45.392 55.7966 45.1978 56.211C45.0035 56.6253 45.1912 57.1137 45.616 57.2999C46.5383 57.7111 47.533 57.9327 48.5342 57.9841C48.3498 60.9747 45.807 63.3518 42.6978 63.3518C39.47 63.3518 36.8449 60.7916 36.8449 57.6436V56.0375C36.8449 55.5845 36.4661 55.2151 36.0017 55.2151C35.5373 55.2151 35.1585 55.5845 35.1585 56.0375V57.6436C35.1585 60.7916 32.5334 63.3518 29.3056 63.3518C26.1964 63.3518 23.6537 60.9747 23.4692 57.9841C24.4705 57.9327 25.4652 57.7143 26.3874 57.2999C26.8123 57.1104 26.9967 56.6253 26.8024 56.211C26.608 55.7966 26.1074 55.6167 25.6858 55.8062C24.1345 56.4969 22.3361 56.5482 20.7485 55.9476C18.3244 55.0288 16.6973 52.7064 16.7006 50.1687C16.7039 48.5882 17.3165 47.0849 18.4298 45.935C18.7493 45.6041 18.7328 45.0837 18.3936 44.7721C18.0543 44.4605 17.5207 44.4765 17.2012 44.8074C16.549 45.482 16.0418 46.2561 15.6729 47.0849C13.947 45.665 13.0874 43.5353 13.3443 41.2064C13.6144 38.7844 15.0768 36.7285 17.244 35.6171C17.3659 36.4073 17.6294 37.175 18.0312 37.8849C18.186 38.1547 18.4726 38.3089 18.769 38.3089C18.9073 38.3089 19.049 38.2768 19.1774 38.2061C19.5826 37.9845 19.7308 37.4834 19.5035 37.0882C18.8843 35.9993 18.6966 34.7304 18.9765 33.5162C19.4113 31.6498 20.9264 30.1561 22.8334 29.716C24.7437 29.2759 26.7826 29.9441 28.0309 31.4249C28.3273 31.7751 28.8576 31.8265 29.2166 31.5374C29.5756 31.2483 29.6283 30.7311 29.3319 30.381C28.0045 28.8069 25.9954 27.9364 23.9434 27.9557C24.869 25.9159 26.9473 24.5571 29.2924 24.5571C32.5202 24.5571 35.1453 27.1173 35.1453 30.2654V31.8522C35.1453 32.3052 35.5241 32.6746 35.9885 32.6746C36.4529 32.6746 36.8317 32.3052 36.8317 31.8522V30.2654C36.8317 27.1173 39.4568 24.5571 42.6846 24.5571C45.033 24.5571 47.108 25.9127 48.0336 27.9557C45.9849 27.9397 43.9757 28.807 42.6484 30.381C42.352 30.7311 42.4047 31.2515 42.7637 31.5374C43.1227 31.8265 43.653 31.7751 43.9494 31.4249C45.1944 29.9441 47.2332 29.2759 49.1469 29.716C51.0572 30.1561 52.5723 31.6498 53.0038 33.5162C53.287 34.7304 53.0993 35.9992 52.4801 37.0882C52.2528 37.4834 52.401 37.9844 52.8061 38.2061C52.9346 38.2768 53.0762 38.3089 53.2146 38.3089C53.511 38.3089 53.7975 38.1547 53.9523 37.8849C54.3575 37.175 54.621 36.4073 54.7428 35.6171C56.9101 36.7285 58.3758 38.7844 58.6426 41.2064C58.9028 43.5353 58.0398 45.6619 56.3139 47.0849H56.3272ZM46.0049 33.7473H25.9961C25.1101 33.7473 24.3888 34.4508 24.3888 35.3148V48.5233C24.3888 49.3874 25.1101 50.0877 25.9961 50.0877H33.3674C33.1632 50.9261 32.8602 51.7356 32.4715 52.5129H30.9432C30.4788 52.5129 30.1001 52.8823 30.1001 53.3353C30.1001 53.7882 30.4788 54.1576 30.9432 54.1576H41.0581C41.5225 54.1576 41.9013 53.7882 41.9013 53.3353C41.9013 52.8823 41.5225 52.5129 41.0581 52.5129H39.5298C39.1445 51.7356 38.8382 50.9261 38.6339 50.0877H46.0052C46.8913 50.0877 47.6125 49.3842 47.6125 48.5233V35.3148C47.6125 34.4507 46.8909 33.7473 46.0049 33.7473ZM37.6784 52.5165H34.3221C34.6548 51.7327 34.9051 50.9232 35.083 50.0912H36.9209C37.0987 50.9232 37.3491 51.7359 37.6817 52.5165H37.6784ZM45.9258 48.4465H26.0747V35.3918H45.9258V48.4465ZM60.3848 26.4776V21.4086C60.3848 20.9557 60.006 20.5863 59.5416 20.5863H46.5675C46.1031 20.5863 45.7243 20.9557 45.7243 21.4086C45.7243 21.8615 46.1031 22.231 46.5675 22.231H58.6984V26.4776C57.1998 26.847 56.0832 28.1641 56.0832 29.738C56.0832 31.5979 57.6345 33.111 59.5416 33.111C61.4487 33.111 63 31.598 63 29.738C63 28.164 61.8834 26.847 60.3848 26.4776ZM59.5416 31.4663C58.5633 31.4663 57.7695 30.6921 57.7695 29.738C57.7695 28.784 58.5633 28.0098 59.5416 28.0098C60.5199 28.0098 61.3136 28.784 61.3136 29.738C61.3136 30.6921 60.5198 31.4663 59.5416 31.4663ZM15.9168 29.738C15.9168 28.164 14.8003 26.847 13.3016 26.4776V22.231H25.4325C25.8969 22.231 26.2757 21.8615 26.2757 21.4086C26.2757 20.9557 25.8969 20.5863 25.4325 20.5863H12.4584C11.994 20.5863 11.6152 20.9557 11.6152 21.4086V26.4776C10.1166 26.847 9 28.1641 9 29.738C9 31.5979 10.5513 33.111 12.4584 33.111C14.3655 33.111 15.9168 31.598 15.9168 29.738ZM10.6865 29.738C10.6865 28.784 11.4802 28.0098 12.4585 28.0098C13.4368 28.0098 14.2305 28.784 14.2305 29.738C14.2305 30.6921 13.4368 31.4663 12.4585 31.4663C11.4802 31.4663 10.6865 30.6921 10.6865 29.738Z" fill="white"/>
</svg>
