<svg width="72" height="72" viewBox="0 0 72 72" fill="none" xmlns="http://www.w3.org/2000/svg">
<path fill-rule="evenodd" clip-rule="evenodd" d="M10.3818 20.3594V12.0065C10.3818 11.452 10.8358 11.0033 11.396 11.0033H19.7807C20.341 11.0033 20.795 11.4552 20.795 12.0065C20.795 12.5674 20.341 13.0194 19.7807 13.0194H12.4136V20.3591C12.4136 20.9136 11.9596 21.3624 11.3993 21.3624C10.8359 21.3624 10.3818 20.9107 10.3818 20.3594ZM50.2048 12.0032C50.2048 11.4488 50.6588 11 51.219 11H59.6004C60.1639 11 60.6147 11.4519 60.6147 12.0032L60.6179 20.3594C60.6179 20.9138 60.1639 21.3626 59.6036 21.3626C59.0434 21.3626 58.5893 20.9107 58.5893 20.3594V13.0196H51.2223C50.6588 13.0196 50.2048 12.5674 50.2048 12.0032ZM20.7942 59.9968C20.7942 60.5513 20.3402 61 19.7799 61H11.3952C10.8317 61 10.3809 60.5481 10.3809 59.9968V51.6505C10.3809 51.0896 10.8349 50.6376 11.3952 50.6376C11.9555 50.6376 12.4095 51.0896 12.4095 51.6505V58.9806H19.7766C20.34 58.9806 20.7942 59.4326 20.7942 59.9968ZM60.6172 51.6505V59.9968C60.6172 60.5513 60.1632 61 59.6029 61H51.2215C50.6613 61 50.2072 60.5481 50.2072 59.9968C50.2072 59.4359 50.6612 58.9839 51.2215 58.9839H58.5886V51.6538C58.5886 51.0929 59.0426 50.6409 59.6029 50.6409C60.1631 50.6377 60.6172 51.0896 60.6172 51.6505ZM35.4986 33.5803C36.8381 33.5803 37.9264 34.67 37.9264 35.997C37.9264 37.3335 36.8381 38.4168 35.4986 38.4168C34.1592 38.4168 33.0709 37.3367 33.0709 35.997C33.0709 34.6732 34.1592 33.5803 35.4986 33.5803ZM35.4986 40.4361C37.9586 40.4361 39.9582 38.4425 39.9582 36.0002C39.9582 33.558 37.9586 31.5644 35.4986 31.5644C33.0418 31.5644 31.0391 33.558 31.0391 36.0002C31.0391 38.4425 33.0418 40.4361 35.4986 40.4361ZM42.167 42.6412V29.3588H28.83V42.6412H42.167ZM47.1191 34.2277C47.6794 34.2277 48.1334 33.7758 48.1334 33.2148C48.1334 32.6604 47.6794 32.2116 47.1191 32.2116H44.1987V28.3558C44.1987 27.795 43.7447 27.343 43.1844 27.343H39.3109V24.4391C39.3109 23.8782 38.8569 23.4263 38.2966 23.4263C37.7331 23.4263 37.2823 23.8782 37.2823 24.4391V27.343H33.7244V24.4391C33.7244 23.8782 33.2704 23.4263 32.7101 23.4263C32.1498 23.4263 31.6958 23.8782 31.6958 24.4391V27.343H27.8223C27.2588 27.343 26.808 27.7949 26.808 28.3558V32.2116H23.8875C23.3273 32.2116 22.8733 32.6635 22.8733 33.2148C22.8733 33.7757 23.3273 34.2277 23.8875 34.2277H26.808V37.7694H23.8875C23.3273 37.7694 22.8733 38.2213 22.8733 38.7822C22.8733 39.3367 23.3273 39.7854 23.8875 39.7854H26.808V43.6412C26.808 44.2021 27.262 44.654 27.8223 44.654H31.6958V47.5579C31.6958 48.1188 32.1498 48.5708 32.7101 48.5708C33.2735 48.5708 33.7244 48.1188 33.7244 47.5579V44.654H37.2823V47.5579C37.2823 48.1188 37.7363 48.5708 38.2966 48.5708C38.8569 48.5708 39.3109 48.1188 39.3109 47.5579V44.654H43.1844C43.7446 44.654 44.1987 44.2021 44.1987 43.6412V39.7854H47.1191C47.6794 39.7854 48.1334 39.3335 48.1334 38.7822C48.1334 38.2213 47.6794 37.7694 47.1191 37.7694H44.1987V34.2277H47.1191ZM55.8195 45.2054C58.4952 39.372 58.4888 32.6351 55.8195 26.7947C59.7541 29.1696 63.4055 32.2626 66.6547 36C63.4059 39.7372 59.7545 42.8301 55.8195 45.2054ZM52.5191 46.9938C54.6571 43.7246 55.7905 39.9265 55.7905 36.0006C55.7905 32.0747 54.6571 28.2762 52.5191 25.0073C47.1967 22.4176 41.4399 21.065 35.4959 21.065C29.5553 21.065 23.7984 22.4175 18.476 25.0073C16.338 28.2766 15.2046 32.0747 15.2046 36.0006C15.2046 39.9265 16.338 43.725 18.476 46.9938C23.7984 49.5835 29.5553 50.9361 35.4959 50.9361C41.4398 50.9361 47.1967 49.5804 52.5191 46.9938ZM4.3436 36.0006C7.59245 32.2634 11.2406 29.1705 15.1789 26.7952C12.5096 32.635 12.5031 39.3721 15.1789 45.2059C11.2442 42.8309 7.59286 39.7379 4.3436 36.0006ZM68.7633 35.3531C50.5194 13.6161 20.4749 13.603 2.23425 35.3531C1.92192 35.7281 1.92192 36.273 2.23425 36.648C20.4749 58.3949 50.526 58.3982 68.7633 36.648C69.0789 36.273 69.0789 35.7281 68.7633 35.3531Z" fill="white"/>
</svg>
