<svg width="72" height="72" viewBox="0 0 72 72" fill="none" xmlns="http://www.w3.org/2000/svg">
<path fill-rule="evenodd" clip-rule="evenodd" d="M43.0664 19.1389C46.8587 18.7952 49.8617 15.7923 50.2053 12L51.7519 12.1427L53.2985 12C53.6422 15.7923 56.6452 18.7953 60.4375 19.1389L60.2947 20.6855L60.4375 22.2321C56.6452 22.5758 53.6422 25.5788 53.2985 29.3711L51.7519 29.2283L50.2053 29.3711C49.8616 25.5788 46.8587 22.5758 43.0664 22.2321L43.2091 20.6855L43.0664 19.1389ZM48.0529 20.6855C49.5645 21.603 50.8345 22.8729 51.7519 24.3846C52.6694 22.8729 53.9393 21.603 55.451 20.6855C53.9393 19.768 52.6694 18.4981 51.7519 16.9865C50.8344 18.4981 49.5645 19.7681 48.0529 20.6855Z" fill="white"/>
<path fill-rule="evenodd" clip-rule="evenodd" d="M31.9342 21.1253L32.342 16.6602H35.4352L35.8401 21.1253C36.5886 29.3422 43.0955 35.8487 51.3121 36.5973L55.7772 37.0022V40.0954L51.3121 40.5032C43.0951 41.2488 36.5887 47.7587 35.8401 55.9723L35.4352 60.4374H32.342L31.9342 55.9723C31.1886 47.7583 24.6787 41.2488 16.4651 40.5032L12 40.0954V37.0022L16.4651 36.5973C24.6791 35.8488 31.1886 29.3419 31.9342 21.1253ZM33.8886 26.5108C31.8497 32.0915 27.4312 36.5129 21.848 38.5492C27.4316 40.5881 31.85 45.0066 33.8886 50.5898C35.9246 45.0062 40.346 40.5878 45.927 38.5492C40.3463 36.5132 35.9249 32.0918 33.8886 26.5108Z" fill="white"/>
<path fill-rule="evenodd" clip-rule="evenodd" d="M15.248 60.2976V50.9771H18.353V60.2976H15.248Z" fill="white"/>
<path fill-rule="evenodd" clip-rule="evenodd" d="M12.1406 54.085H21.4611V57.1899H12.1406V54.085Z" fill="white"/>
<path fill-rule="evenodd" clip-rule="evenodd" d="M50.9741 52.5293V55.6371H47.8691V52.5293H50.9741Z" fill="white"/>
<path fill-rule="evenodd" clip-rule="evenodd" d="M19.9086 21.4629V24.5678H16.8008V21.4629H19.9086Z" fill="white"/>
</svg>
