<svg width="72" height="72" viewBox="0 0 72 72" fill="none" xmlns="http://www.w3.org/2000/svg">
<path d="M30.7598 18.0522C30.7598 18.5033 31.0031 18.9203 31.3946 19.1363L35.4727 21.3899L37.7032 25.5102C37.917 25.9058 38.3296 26.1517 38.7762 26.1517C39.2228 26.1517 39.6354 25.9058 39.8492 25.5102L42.0797 21.3899L46.1578 19.1363C46.5493 18.9203 46.7926 18.5034 46.7926 18.0522C46.7926 17.601 46.5493 17.1841 46.1578 16.9681L42.0797 14.7144L39.8492 10.5941C39.4196 9.80088 38.1329 9.80302 37.7033 10.5941L35.4727 14.7144L31.3947 16.9681C31.0053 17.1862 30.7598 17.601 30.7598 18.0522ZM36.9624 16.7094C37.1677 16.5961 37.337 16.425 37.4492 16.2176L38.7782 13.7608L40.1072 16.2176C40.2193 16.425 40.3886 16.5961 40.5939 16.7094L43.0255 18.0522L40.5939 19.3949C40.3886 19.5083 40.2193 19.6793 40.1072 19.8867L38.7782 22.3435L37.4492 19.8867C37.337 19.6793 37.1677 19.5083 36.9624 19.3949L34.5308 18.0522L36.9624 16.7094Z" fill="white"/>
<path d="M39.4177 52.2545L36.1587 50.4542L34.3767 47.1613C33.9471 46.3681 32.6604 46.3681 32.2309 47.1613L30.4489 50.4542L27.1899 52.2545C26.7984 52.4705 26.555 52.8874 26.555 53.3386C26.555 53.7898 26.7984 54.2067 27.1899 54.4227L30.4489 56.2231L32.2309 59.5138C32.4446 59.9115 32.8573 60.1574 33.3038 60.1574C33.7504 60.1574 34.163 59.9115 34.3768 59.5138L36.1587 56.2231L39.4178 54.4227C39.8093 54.2067 40.0527 53.7898 40.0527 53.3386C40.0527 52.8853 39.8092 52.4705 39.4177 52.2545ZM34.6709 54.2281C34.4656 54.3414 34.2963 54.5125 34.1842 54.7199L33.3038 56.3471L32.4234 54.7199C32.3113 54.5125 32.142 54.3414 31.9367 54.2281L30.3241 53.3386L31.9367 52.447C32.142 52.3337 32.3113 52.1626 32.4234 51.9552L33.3038 50.328L34.1842 51.9552C34.2963 52.1626 34.4656 52.3337 34.6709 52.447L36.2835 53.3386L34.6709 54.2281Z" fill="white"/>
<path d="M59.7675 54.1917L46.4352 40.7213C45.9569 40.238 45.1845 40.238 44.7062 40.7213L43.1888 42.2544L40.4609 39.4982C43.6226 35.812 45.0702 31.0117 44.4056 26.1154C44.3125 25.4397 43.6882 24.965 43.0279 25.0591C42.3592 25.151 41.8915 25.7754 41.9825 26.4511C42.5983 30.9862 41.1148 35.4423 37.9171 38.6751C35.2083 41.412 31.6083 42.9194 27.778 42.9194C23.9454 42.9194 20.3433 41.412 17.6367 38.6751C12.0457 33.0262 12.0457 23.8363 17.6367 18.1868C21.192 14.5946 26.4317 13.1385 31.3163 14.3893C31.9723 14.5604 32.6368 14.1563 32.8019 13.4956C32.967 12.8349 32.5712 12.1613 31.9173 11.9946C26.2055 10.532 20.0727 12.234 15.9076 16.4399C9.36414 23.0511 9.36414 33.8104 15.9076 40.4216C19.0778 43.6246 23.2913 45.3886 27.7755 45.3886C31.8472 45.3886 35.6901 43.9197 38.7376 41.2512L41.4591 44.0009L39.9396 45.5361C39.4613 46.0194 39.4613 46.7998 39.9396 47.283L53.2719 60.7535C54.093 61.5852 55.1702 62 56.2516 62C57.3309 62 58.4102 61.5852 59.2313 60.7556L59.7667 60.2125C61.4111 58.5511 61.4111 55.8505 59.7667 54.1913L59.7675 54.1917ZM58.0385 58.466L57.5031 59.0091C56.8132 59.7061 55.6915 59.7061 55.0016 59.0091L42.5345 46.4106L45.5714 43.3423L58.0407 55.9385C58.7285 56.6356 58.7284 57.7689 58.0385 58.466Z" fill="white"/>
</svg>
