<svg width="51" height="51" viewBox="0 0 51 51" fill="none" xmlns="http://www.w3.org/2000/svg">
<path d="M6.71057 2.68422C4.48688 2.68422 2.68424 4.48685 2.68424 6.71053V12.0789C2.68424 12.8201 2.08332 13.421 1.34209 13.421C0.600857 13.421 0 12.8201 0 12.0789V6.71053C0 3.0044 3.00441 0 6.71057 0H12.079C12.8202 0 13.4211 0.600853 13.4211 1.34208C13.4211 2.08331 12.8202 2.68422 12.079 2.68422H6.71057Z" fill="white"/>
<path d="M44.2894 2.68422C46.5131 2.68422 48.3158 4.48685 48.3158 6.71053V12.0789C48.3158 12.8201 48.9166 13.421 49.6578 13.421C50.3991 13.421 51 12.8201 51 12.0789V6.71053C51 3.0044 47.9956 0 44.2894 0H38.921C38.1798 0 37.5789 0.600853 37.5789 1.34208C37.5789 2.08331 38.1798 2.68422 38.921 2.68422H44.2894Z" fill="white"/>
<path d="M48.3158 44.2895C48.3158 46.5131 46.5131 48.3158 44.2894 48.3158H38.921C38.1798 48.3158 37.5789 48.9166 37.5789 49.6579C37.5789 50.3991 38.1798 51 38.921 51H44.2894C47.9956 51 51 47.9956 51 44.2895V38.9211C51 38.1799 50.3991 37.5789 49.6578 37.5789C48.9166 37.5789 48.3158 38.1799 48.3158 38.9211V44.2895Z" fill="white"/>
<path d="M6.71057 48.3158C4.48688 48.3158 2.68424 46.5131 2.68424 44.2895V38.9211C2.68424 38.1799 2.08332 37.5789 1.34209 37.5789C0.600857 37.5789 0 38.1799 0 38.9211V44.2895C0 47.9956 3.00441 51 6.71057 51H12.079C12.8202 51 13.4211 50.3991 13.4211 49.6579C13.4211 48.9166 12.8202 48.3158 12.079 48.3158H6.71057Z" fill="white"/>
<path fill-rule="evenodd" clip-rule="evenodd" d="M6.71084 30.8674H2.18447C1.44324 30.8674 0.842383 30.2666 0.842383 29.5253C0.842383 28.7841 1.44324 28.1832 2.18447 28.1832H48.9001C49.6414 28.1832 50.2422 28.7841 50.2422 29.5253C50.2422 30.2666 49.6414 30.8674 48.9001 30.8674H44.2899V38.9209C44.2899 41.8857 41.8863 44.2892 38.9215 44.2892H12.0793C9.11433 44.2892 6.71084 41.8857 6.71084 38.9209V30.8674ZM9.39501 30.8682H41.6056V38.9209C41.6056 40.4033 40.4039 41.605 38.9215 41.605H12.0793C10.5968 41.605 9.39501 40.4033 9.39501 38.9209V30.8682Z" fill="white"/>
<path fill-rule="evenodd" clip-rule="evenodd" d="M44.2898 25.4998V12.0788C44.2898 9.11388 41.8862 6.7104 38.9214 6.7104H12.0792C9.11425 6.7104 6.71076 9.11388 6.71076 12.0788V25.4998H44.2898ZM9.39493 22.8156H41.6056V12.0788C41.6056 10.5963 40.4038 9.39456 38.9214 9.39456H12.0792C10.5967 9.39456 9.39493 10.5963 9.39493 12.0788V22.8156Z" fill="white"/>
</svg>
