<svg width="72" height="72" viewBox="0 0 72 72" fill="none" xmlns="http://www.w3.org/2000/svg">
<path d="M46.7788 20.6343H18.8594C18.385 20.6343 18 21.0193 18 21.4937V57.1405C18 57.6149 18.385 57.9999 18.8594 57.9999H46.7856C47.26 57.9999 47.645 57.6149 47.645 57.1405V21.4937C47.6381 21.0193 47.2531 20.6343 46.7788 20.6343ZM45.9194 56.2812H19.7188V22.353H45.9262V56.2812H45.9194Z" fill="white"/>
<path d="M53.3032 14H25.3838C24.9094 14 24.5244 14.385 24.5244 14.8594V18.2144C24.5244 18.6888 24.9094 19.0738 25.3838 19.0738C25.8582 19.0738 26.2432 18.6888 26.2432 18.2144V15.7188H52.4438V45.9206H49.9069C49.4325 45.9206 49.0475 46.3056 49.0475 46.78C49.0475 47.2544 49.4325 47.6394 49.9069 47.6394H53.3032C53.7775 47.6394 54.1625 47.2544 54.1625 46.78V14.8594C54.1694 14.385 53.7844 14 53.3032 14Z" fill="white"/>
<path d="M31.0073 36.9558C30.7598 36.7083 30.3886 36.6326 30.0723 36.7701C29.7492 36.9008 29.543 37.217 29.543 37.5676V49.812C29.543 50.1626 29.7492 50.472 30.0723 50.6095C30.1823 50.6508 30.2923 50.6783 30.4023 50.6783C30.6292 50.6783 30.8492 50.5889 31.0073 50.4239L37.1261 44.3051C37.463 43.9683 37.463 43.4251 37.1261 43.0883L31.0073 36.9558ZM31.2548 47.7289V39.6439L35.2973 43.6864L31.2548 47.7289Z" fill="white"/>
<path d="M28.7451 31.0498H37.552C38.0264 31.0498 38.4114 30.6648 38.4114 30.1904C38.4114 29.7161 38.0264 29.3311 37.552 29.3311H28.7451C28.2707 29.3311 27.8857 29.7161 27.8857 30.1904C27.8857 30.6648 28.2707 31.0498 28.7451 31.0498Z" fill="white"/>
</svg>
