<svg width="50" height="51" viewBox="0 0 50 51" fill="none" xmlns="http://www.w3.org/2000/svg">
<path d="M3.39111 16.677C3.6973 15.3366 4.11326 14.0252 4.64477 12.76C4.587 12.8986 4.52922 13.0373 4.47145 13.1759C5.17627 11.5237 6.06019 9.94647 7.11743 8.49639C7.18675 8.40395 7.25608 8.30574 7.32541 8.2133C7.34274 8.19019 7.43517 8.09198 7.4294 8.07465C7.4294 8.06309 7.18675 8.38084 7.29074 8.25374C7.43517 8.06887 7.57961 7.884 7.72981 7.7049C8.01867 7.35827 8.31909 7.01164 8.62529 6.68233C9.22034 6.04106 9.85584 5.42867 10.5202 4.85673C10.7224 4.68341 10.9246 4.51587 11.1268 4.35411C11.2193 4.279 11.3117 4.20968 11.4041 4.13457C10.9535 4.49854 11.3348 4.19234 11.4388 4.11146C11.849 3.80527 12.2707 3.51641 12.704 3.23332C13.4666 2.74226 13.8479 1.67347 13.328 0.864656C12.8369 0.107838 11.7681 -0.285014 10.9593 0.240714C6.63214 3.04845 3.28712 7.08674 1.29975 11.8356C0.768242 13.1008 0.346504 14.4123 0.0460873 15.7526C-0.156116 16.6365 0.317617 17.6706 1.25931 17.8844C2.13745 18.0924 3.17157 17.6244 3.39111 16.677Z" fill="white"/>
<path d="M36.4367 3.23901C36.8411 3.50476 37.2397 3.77629 37.6268 4.06515C37.725 4.13448 37.8174 4.20958 37.9156 4.28469C38.0658 4.40023 37.7597 4.16336 37.7712 4.16914C37.8116 4.19803 37.8521 4.23269 37.8925 4.26735C38.0947 4.42912 38.2969 4.59088 38.4934 4.75842C39.1924 5.35347 39.851 5.98319 40.475 6.65335C40.7696 6.9711 41.0585 7.29463 41.3358 7.6297C41.4744 7.79725 41.6131 7.96479 41.7459 8.1381C41.7748 8.17277 41.8095 8.20743 41.8326 8.24787C41.8442 8.27098 41.59 7.93012 41.7055 8.08033C41.7806 8.17854 41.8557 8.27676 41.9308 8.38075C42.445 9.07979 42.9245 9.80772 43.3636 10.5588C43.8604 11.4138 44.2937 12.2919 44.6808 13.2047C44.623 13.0661 44.5652 12.9274 44.5075 12.7888C45.0332 14.0482 45.4492 15.3539 45.7496 16.6826C45.9518 17.5666 47.0206 18.1732 47.8814 17.8959C48.8115 17.5954 49.3083 16.7115 49.0946 15.7641C48.0142 10.9689 45.4434 6.5147 41.8788 3.13502C40.7465 2.06045 39.5044 1.09565 38.1987 0.246396C37.4361 -0.250446 36.2518 0.0673017 35.8301 0.870338C35.3621 1.73115 35.6279 2.7075 36.4367 3.23901Z" fill="white"/>
<path d="M38.6841 21.3854C38.6841 23.2976 38.6841 25.2099 38.6841 27.1222C38.6841 30.1725 38.6841 33.2171 38.6841 36.2675C38.6841 36.9666 38.6841 37.6714 38.6841 38.3704C39.2618 37.7927 39.8395 37.215 40.4172 36.6373C39.3658 36.6373 38.3143 36.6373 37.2571 36.6373C34.7324 36.6373 32.202 36.6373 29.6774 36.6373C26.6212 36.6373 23.565 36.6373 20.5089 36.6373C17.8745 36.6373 15.2458 36.6373 12.6114 36.6373C11.3346 36.6373 10.0463 36.6026 8.76954 36.6373C8.75221 36.6373 8.73488 36.6373 8.71177 36.6373C9.28949 37.215 9.86722 37.7927 10.4449 38.3704C10.4449 36.2617 10.4449 34.1588 10.4449 32.0501C10.4449 28.9478 10.4449 25.8454 10.4449 22.743C10.4449 21.5876 10.4334 20.4437 10.5836 19.2998C10.5605 19.4558 10.5432 19.606 10.52 19.762C10.7049 18.4159 11.0689 17.0986 11.5888 15.845C11.5311 15.9836 11.4733 16.1223 11.4155 16.2609C11.7275 15.5272 12.0915 14.8166 12.5074 14.1407C12.7154 13.8056 12.9349 13.4705 13.166 13.1528C13.218 13.0777 13.27 13.0084 13.322 12.939C13.5646 12.6155 13.114 13.199 13.2816 12.9853C13.4087 12.8235 13.5358 12.6675 13.6686 12.5115C14.1828 11.9107 14.7374 11.3445 15.3325 10.8246C15.4769 10.6975 15.6213 10.5761 15.7716 10.4548C15.8409 10.3971 15.9102 10.3451 15.9795 10.2873C16.072 10.2122 16.2337 10.1082 15.812 10.4202C15.864 10.3797 15.916 10.3451 15.9622 10.3046C16.28 10.0677 16.6035 9.84244 16.9386 9.62868C17.6954 9.14339 18.4984 8.72743 19.3246 8.3808C19.1859 8.43857 19.0472 8.49634 18.9086 8.55411C20.1911 8.01683 21.5315 7.65286 22.9122 7.46799C22.7562 7.4911 22.606 7.50843 22.45 7.53154C23.8366 7.34667 25.2404 7.35245 26.627 7.53154C26.471 7.50843 26.3208 7.4911 26.1648 7.46799C27.5744 7.65864 28.9494 8.03416 30.2609 8.58878C30.1222 8.53101 29.9836 8.47323 29.8449 8.41546C30.5728 8.72743 31.2719 9.08562 31.9478 9.50158C32.2829 9.70378 32.6064 9.92332 32.9242 10.1544C32.9993 10.2064 33.0686 10.2584 33.1437 10.3162C33.1899 10.3508 33.2419 10.3855 33.2881 10.4259C33.3112 10.4433 32.9704 10.1775 33.1148 10.2931C33.265 10.4144 33.421 10.5357 33.5654 10.6628C34.1605 11.1654 34.7151 11.7143 35.2235 12.3035C35.3506 12.448 35.4777 12.5982 35.599 12.7484C35.6568 12.8177 35.7088 12.887 35.7666 12.9564C35.8821 13.1008 35.6164 12.7599 35.6337 12.7831C35.6799 12.8408 35.7261 12.9044 35.7666 12.9621C35.9977 13.2741 36.223 13.5976 36.431 13.9269C36.9105 14.678 37.3264 15.4695 37.6731 16.2956C37.6153 16.157 37.5575 16.0183 37.4997 15.8797C38.0255 17.1333 38.3894 18.439 38.5743 19.7851C38.5512 19.6291 38.5339 19.4789 38.5108 19.3229C38.6321 19.993 38.6783 20.6863 38.6841 21.3854C38.6841 22.2924 39.4813 23.159 40.4172 23.1185C41.3532 23.0781 42.1562 22.3559 42.1504 21.3854C42.1389 18.0172 41.1278 14.6549 39.256 11.8529C37.4304 9.12028 34.8827 6.85561 31.8669 5.50951C30.18 4.75847 28.4699 4.27896 26.6443 4.04209C25.0382 3.83411 23.4495 3.89766 21.8492 4.12875C19.1455 4.5216 16.4879 5.62506 14.2868 7.24846C12.0048 8.93541 10.0752 11.1019 8.81576 13.6612C7.62565 16.0761 6.99015 18.7163 6.98438 21.4085C6.98438 22.3039 6.98438 23.1994 6.98438 24.0949C6.98438 25.88 6.98438 27.6594 6.98438 29.4446C6.98438 31.2875 6.98438 33.1363 6.98438 34.9792C6.98438 36.0595 6.98438 37.1341 6.98438 38.2144C6.98438 38.2664 6.98438 38.3184 6.98438 38.3704C6.98438 39.3063 7.77586 40.1036 8.71755 40.1036C9.769 40.1036 10.8205 40.1036 11.8777 40.1036C14.4023 40.1036 16.9328 40.1036 19.4574 40.1036C22.5136 40.1036 25.5697 40.1036 28.6259 40.1036C31.2603 40.1036 33.889 40.1036 36.5234 40.1036C37.8059 40.1036 39.0885 40.1267 40.3653 40.1036C40.3826 40.1036 40.3999 40.1036 40.423 40.1036C41.3589 40.1036 42.1562 39.3121 42.1562 38.3704C42.1562 36.4582 42.1562 34.5459 42.1562 32.6336C42.1562 29.5833 42.1562 26.5387 42.1562 23.4883C42.1562 22.7892 42.1562 22.0844 42.1562 21.3854C42.1562 20.4783 41.3589 19.6117 40.423 19.6522C39.4756 19.6926 38.6841 20.409 38.6841 21.3854Z" fill="white"/>
<path d="M3.60465 40.0978C3.98017 40.0978 4.35569 40.0978 4.73121 40.0978C5.74223 40.0978 6.75902 40.0978 7.77004 40.0978C9.2779 40.0978 10.78 40.0978 12.2878 40.0978C14.1192 40.0978 15.9448 40.0978 17.7762 40.0978C19.7867 40.0978 21.8029 40.0978 23.8134 40.0978C25.847 40.0978 27.8806 40.0978 29.9084 40.0978C31.7918 40.0978 33.681 40.0978 35.5643 40.0978C37.1646 40.0978 38.7649 40.0978 40.371 40.0978C41.5207 40.0978 42.6646 40.0978 43.8142 40.0978C44.3631 40.0978 44.9061 40.1036 45.455 40.0978C45.4781 40.0978 45.5012 40.0978 45.5243 40.0978C46.4313 40.0978 47.2979 39.3006 47.2575 38.3646C47.217 37.423 46.4949 36.6315 45.5243 36.6315C45.1488 36.6315 44.7732 36.6315 44.3977 36.6315C43.3867 36.6315 42.3699 36.6315 41.3589 36.6315C39.851 36.6315 38.349 36.6315 36.8411 36.6315C35.0097 36.6315 33.1841 36.6315 31.3527 36.6315C29.3422 36.6315 27.326 36.6315 25.3155 36.6315C23.2819 36.6315 21.2483 36.6315 19.2205 36.6315C17.3371 36.6315 15.448 36.6315 13.5646 36.6315C11.9643 36.6315 10.364 36.6315 8.75795 36.6315C7.60828 36.6315 6.46438 36.6315 5.31471 36.6315C4.76588 36.6315 4.22281 36.6257 3.67398 36.6315C3.65087 36.6315 3.62776 36.6315 3.60465 36.6315C2.69762 36.6315 1.83104 37.4287 1.87148 38.3646C1.91192 39.3063 2.6283 40.0978 3.60465 40.0978Z" fill="white"/>
<path d="M28.1693 43.4024C28.1693 43.6451 28.152 43.8819 28.1231 44.1188C28.1462 43.9628 28.1635 43.8126 28.1866 43.6566C28.1173 44.1188 27.996 44.5694 27.8169 44.9969C27.8747 44.8583 27.9324 44.7196 27.9902 44.581C27.8573 44.8814 27.7014 45.176 27.5165 45.4476C27.476 45.5111 27.4298 45.5689 27.3836 45.6324C27.2103 45.8809 27.6725 45.2916 27.4703 45.5169C27.3605 45.6382 27.2565 45.7653 27.141 45.8809C27.0254 45.9964 26.9041 46.1004 26.777 46.2102C26.5632 46.395 27.1352 45.9502 26.8925 46.1235C26.829 46.1697 26.7712 46.2102 26.7077 46.2564C26.4361 46.4412 26.1415 46.5972 25.8411 46.7301C25.9797 46.6723 26.1184 46.6146 26.257 46.5568C25.8238 46.7359 25.3789 46.863 24.9167 46.9265C25.0727 46.9034 25.2229 46.8861 25.3789 46.863C24.8994 46.9265 24.4199 46.9265 23.9404 46.863C24.0964 46.8861 24.2466 46.9034 24.4026 46.9265C23.9404 46.8572 23.4897 46.7359 23.0622 46.5568C23.2009 46.6146 23.3395 46.6723 23.4782 46.7301C23.1778 46.5972 22.8831 46.4412 22.6116 46.2564C22.5481 46.2159 22.4903 46.1697 22.4267 46.1235C22.1783 45.9502 22.7676 46.4124 22.5423 46.2102C22.421 46.1004 22.2939 45.9964 22.1783 45.8809C22.0628 45.7653 21.9588 45.644 21.849 45.5169C21.6641 45.3031 22.109 45.8751 21.9357 45.6324C21.8895 45.5689 21.849 45.5111 21.8028 45.4476C21.6179 45.176 21.4619 44.8814 21.3291 44.581C21.3868 44.7196 21.4446 44.8583 21.5024 44.9969C21.3233 44.5636 21.1962 44.1188 21.1326 43.6566C21.1557 43.8126 21.1731 43.9628 21.1962 44.1188C21.1673 43.8819 21.15 43.6393 21.15 43.4024C21.1442 42.4954 20.3585 41.6288 19.4168 41.6693C18.4809 41.7097 17.6778 42.4318 17.6836 43.4024C17.6952 44.7774 18.0938 46.2044 18.8968 47.3252C19.7808 48.5615 20.9304 49.4512 22.3574 49.9827C24.9514 50.959 28.1635 50.104 29.9314 47.9722C31.0117 46.6666 31.6357 45.1067 31.6472 43.3966C31.653 42.4896 30.8442 41.623 29.914 41.6635C28.9608 41.7097 28.1751 42.4318 28.1693 43.4024Z" fill="white"/>
</svg>
