<svg width="31" height="49" viewBox="0 0 31 49" fill="none" xmlns="http://www.w3.org/2000/svg">
<path d="M15.4738 0C10.1384 0 5.80277 4.33559 5.80277 9.67105V25.1447C5.80277 30.4802 10.1384 34.8158 15.4738 34.8158C20.8093 34.8158 25.1449 30.4802 25.1449 25.1447V9.67105C25.1449 4.33559 20.8093 0 15.4738 0ZM15.4738 2.57895C19.4251 2.57895 22.5659 5.71972 22.5659 9.67105V25.1447C22.5659 29.0961 19.4251 32.2368 15.4738 32.2368C11.5225 32.2368 8.38171 29.0961 8.38171 25.1447V9.67105C8.38171 5.71972 11.5225 2.57895 15.4738 2.57895ZM1.30976 17.4079C0.621153 17.3971 -0.0106377 18.0289 0.000135823 18.7175V25.1648C0.000135823 33.2833 6.2347 39.9271 14.1843 40.5781V46.4211H9.02645C8.31429 46.4211 7.73698 46.9983 7.73698 47.7105C7.73698 48.4227 8.31429 49 9.02645 49H21.9212C22.6333 49 23.2107 48.4227 23.2107 47.7105C23.2107 46.9983 22.6333 46.4211 21.9212 46.4211H16.7633V40.5781C24.7129 39.9271 30.9475 33.2833 30.9475 25.1648V18.7175C30.9571 18.0363 30.3393 17.4097 29.658 17.4097C28.9767 17.4097 28.3589 18.0363 28.3686 18.7175V25.1648C28.3686 32.3308 22.6398 38.0596 15.4738 38.0596C8.30783 38.0596 2.57908 32.3308 2.57908 25.1648V18.7175C2.58966 18.0423 1.98493 17.4184 1.30976 17.4079Z" fill="white"/>
</svg>
