<svg width="63" height="63" viewBox="0 0 63 63" fill="none" xmlns="http://www.w3.org/2000/svg">
<path fill-rule="evenodd" clip-rule="evenodd" d="M5.87614 1.47217H56.9328C59.4108 1.47217 61.4349 3.45948 61.4349 5.90068V56.896C61.4349 59.325 59.4108 61.3245 56.9328 61.3245H5.87614C3.39814 61.3245 1.37402 59.3372 1.37402 56.896V5.90068C1.37402 3.45948 3.39814 1.47217 5.87614 1.47217Z" fill="#454545"/>
<path fill-rule="evenodd" clip-rule="evenodd" d="M61.4349 41.2427V56.8958C61.4349 59.3247 59.4108 61.3243 56.9328 61.3243H5.87614C3.39814 61.3243 1.37402 59.337 1.37402 56.8958V41.2427H61.4349Z" fill="#454545"/>
<path fill-rule="evenodd" clip-rule="evenodd" d="M11.9241 11.2489H22.1673V12.5247C24.6699 8.3293 29.2456 5.50781 34.4715 5.50781C41.1572 5.50781 46.7756 10.1081 48.3581 16.3153C49.0696 14.463 50.37 12.905 52.0261 11.8991C54.9334 10.4884 57.0066 10.7092 60.0366 12.1076V16.7447C58.0739 14.7819 55.559 13.2976 53.0565 15.7388C52.1978 16.6343 51.5844 17.8978 51.5722 19.603C51.5722 20.8665 51.9524 22.0442 52.6517 22.9642C54.9702 25.9697 58.1352 24.8043 59.9876 22.3877L60.0366 27.2087C57.1783 28.5214 55.1297 28.7054 52.3205 27.4786C50.603 26.5218 49.2291 24.9884 48.4563 23.1237C47.0087 29.5395 41.2921 34.3361 34.4715 34.3361C26.559 34.3361 20.131 27.8834 20.131 19.9342C20.131 18.0328 20.499 16.2049 21.1737 14.5366H18.9901V27.8466H14.9787V14.5243H11.9241V14.0582L11.8505 14.2912C11.5806 14.6961 11.3107 15.1377 11.0409 15.5425C10.1453 14.4752 7.94949 13.5307 7.07851 14.8433C6.47741 15.7388 7.07851 16.5852 8.01082 17.1127C9.51971 17.7874 10.7219 17.7997 12.01 19.1C13.0404 20.155 13.3717 21.6639 13.2367 23.0992C13.0036 25.7857 11.0409 27.7362 9.07808 28.092C5.34881 28.6195 3.54551 26.9021 2.13477 24.7307L4.78451 22.3631C4.88265 23.0133 5.1648 23.4917 5.54509 23.8598C6.19526 24.4731 7.34839 25.0129 8.25617 24.7675C8.59966 24.6817 8.86954 24.4854 9.06581 24.2278C9.56878 23.5653 9.56878 22.4981 9.04128 21.9093C8.66099 21.4922 8.03536 21.2223 7.37292 20.9033C5.82724 20.3022 3.60685 19.1982 3.06708 17.4685C2.82174 16.6834 2.834 15.7756 3.05482 14.8923C3.4351 13.3589 4.39196 11.9727 5.86404 11.3225C7.59373 10.5497 9.67918 10.979 11.8996 12.0463V11.2489H11.9241Z" fill="#F0F0F0"/>
<path fill-rule="evenodd" clip-rule="evenodd" d="M34.4714 10.2925C39.7586 10.2925 44.0522 14.5983 44.0522 19.9223C44.0522 25.2341 39.7586 29.5522 34.4714 29.5522C29.1842 29.5522 24.8906 25.2464 24.8906 19.9223C24.8906 14.5983 29.1842 10.2925 34.4714 10.2925Z" fill="#454545"/>
<path fill-rule="evenodd" clip-rule="evenodd" d="M43.6224 41.3779L31.1465 21.2227L56.2332 41.243C56.2332 41.243 43.5365 41.243 43.6224 41.3779Z" fill="#F0F0F0"/>
<path d="M6.45311 55.1541V45.8309L7.15235 45.3525V54.7738L6.45311 55.1541ZM53.6578 54.0623L53.0568 52.9951L53.6456 51.8542L54.2221 52.9951L53.6578 54.0623ZM53.6701 50.3331L53.0936 49.2167L53.6701 48.0759L54.2712 49.2167L53.6701 50.3331ZM49.3888 55.056L49.3152 54.8597L49.1557 54.4181L49.0699 54.1114L48.9595 54.1359L48.8613 54.1482C48.7632 54.1482 48.6528 54.1237 48.5301 54.0623C48.4197 54.001 48.297 53.9029 48.1866 53.7557C47.9658 53.4612 47.8063 53.0809 47.6837 52.6025C47.6223 52.3449 47.5855 52.026 47.5855 51.6457C47.5855 51.02 47.6959 50.468 47.9045 49.965C48.113 49.4743 48.4074 49.229 48.7877 49.229H49.1803V48.4071H47.1562V47.4257H50.7505V48.4071H49.8059V49.9896H49.2048H48.8122C48.6528 49.9896 48.5301 50.1245 48.432 50.4067C48.3829 50.5416 48.3461 50.7133 48.3216 50.9096L48.2848 51.4494C48.2848 52.1241 48.4074 52.6271 48.665 52.9705L48.8 53.0564L48.9595 53.0809L48.9104 52.9828L48.8736 52.8847L48.8 52.5903V52.2958C48.8 51.9155 48.8613 51.6334 48.9963 51.4494L49.2048 51.2531C49.2907 51.204 49.3765 51.1672 49.4624 51.155C49.6219 51.155 49.7446 51.2408 49.8304 51.4126C49.8918 51.5598 49.9408 51.8297 49.9899 52.2222C49.9899 52.6761 49.904 53.0319 49.7446 53.314L49.5606 53.5716L49.6464 53.9029L49.7814 54.2954L49.9163 54.6144L49.9531 54.688L49.9899 54.7002C49.9531 54.872 49.8304 55.0315 49.6219 55.2155L49.5606 55.24L49.4747 55.3013L49.3888 55.056ZM48.0394 52.7865L47.8554 53.1055L47.7082 53.3018C47.6223 53.4122 47.4751 53.5348 47.2788 53.6698C47.1439 53.7557 46.9967 53.8047 46.8495 53.8047H46.5428L46.3465 53.7066C45.9172 53.449 45.7086 52.9337 45.7086 52.1364C45.7086 51.4862 45.8436 50.9832 46.1257 50.6397L45.8558 50.468C45.7945 50.4189 45.7209 50.3331 45.6595 50.2227C45.4755 49.9282 45.3774 49.548 45.3774 49.0818C45.3774 48.6034 45.4878 48.1617 45.7086 47.7569C45.9294 47.3521 46.2238 47.1558 46.6041 47.1558C46.9353 47.1558 47.1684 47.3766 47.2911 47.8305L47.3402 48.2844C47.3402 48.8119 47.242 49.1677 47.0335 49.3517L46.8985 49.4743L46.7145 49.5725L46.4447 48.9959L46.506 48.9469L46.5673 48.8732L46.6041 48.8119L46.6409 48.7506L46.6777 48.6156V48.4439C46.6777 48.3703 46.6777 48.3089 46.6777 48.2721L46.6409 48.1495L46.5673 48.0881H46.4815C46.4446 48.0881 46.3956 48.1127 46.3588 48.1495L46.2606 48.2844C46.1993 48.4071 46.1625 48.5788 46.1625 48.7996C46.1625 49.1431 46.2361 49.4253 46.3833 49.6338C46.4569 49.7565 46.5428 49.8424 46.6287 49.916L46.7881 49.9896H46.8985L47.1316 49.9405C47.2175 49.916 47.2666 49.8914 47.3034 49.8669L47.4138 49.7933L47.5364 49.7197L47.6837 49.597L47.5364 50.6029L47.2298 50.6888L47.0212 50.7747C46.6777 50.9219 46.506 51.2654 46.506 51.8174C46.506 52.0505 46.5673 52.2468 46.69 52.4185L46.874 52.6148L47.0948 52.6761C47.3279 52.6761 47.561 52.4921 47.7695 52.1364L47.9045 51.9156L48.0639 51.5966L48.0394 52.7865ZM47.5732 48.4194V47.438H47.8309V48.4194H47.5732ZM43.6109 54.9333V48.4194H43.0098V47.4502H43.5618L43.476 47.2417L43.4146 46.9963L43.3655 46.7142V46.3952C43.3655 45.6347 43.5864 45.0581 44.028 44.6778C44.3715 44.3957 44.8622 44.2485 45.5001 44.2485C46.1502 44.2485 46.6777 44.3957 47.0826 44.6778C47.5855 45.0213 47.8431 45.5856 47.8431 46.3952C47.8431 46.8614 47.7695 47.1804 47.6346 47.3644L47.5364 47.487L47.4138 47.5729H46.7636L46.7391 47.3521L46.7759 47.3276L46.8127 47.2662L46.8495 47.2172L46.874 47.1681C46.9353 47.0331 46.9721 46.8123 47.0089 46.5179C47.0089 45.9536 46.8249 45.5488 46.4692 45.2912C46.2974 45.1685 46.1502 45.1194 46.0153 45.1194L45.4142 45.0704L44.9848 45.1194C44.899 45.1194 44.8008 45.1562 44.6904 45.2176C44.3469 45.3893 44.1752 45.8064 44.1752 46.4443C44.1752 46.6161 44.1752 46.7265 44.1752 46.7633L44.2365 47.0822L44.3101 47.3276L44.3469 47.4502H45.5369V48.4194H44.4205L44.4083 54.0501L43.6109 54.9333ZM42.9853 57.718L42.7154 57.9388L42.4332 58.086L42.1511 58.1474C41.8812 58.1474 41.6236 58.0002 41.4028 57.6935C41.1329 57.3254 40.9857 56.8961 40.9857 56.4054C40.9857 55.9515 41.0961 55.5712 41.3169 55.2645C41.5377 54.9579 41.8199 54.7984 42.1511 54.7984C42.2492 54.7984 42.3228 54.7984 42.3474 54.7984L42.605 54.9211L42.6786 54.9947L42.6663 55.6326H42.605H42.4946H42.2369C42.0897 55.6326 41.9548 55.7307 41.8567 55.9392C41.8199 56.0251 41.8076 56.1478 41.7831 56.3195C41.7831 56.5035 41.8199 56.6753 41.8812 56.8225C41.9425 56.9697 42.0284 57.0678 42.1265 57.1292L42.3106 57.1905C42.4578 57.1905 42.6172 57.0924 42.7645 56.8961L42.8626 56.7734L42.973 56.6017L43.1693 57.4972L42.9853 57.718ZM40.6299 53.2527C40.3846 54.0869 40.0411 54.5162 39.5995 54.5162C39.4523 54.5162 39.3296 54.4672 39.2314 54.369L39.0965 54.2095C39.0229 54.0869 38.9493 53.9151 38.8757 53.6575L38.8144 53.2772L38.7898 52.8356C38.7898 52.1241 38.9984 51.5475 39.4277 51.1427L39.6976 50.9342L40.0779 50.7379V50.3944C40.0779 50.2472 40.0656 50.1 40.0411 49.9528C40.0288 49.6584 39.992 49.4007 39.943 49.1922C39.9307 49.0327 39.8939 48.91 39.8571 48.8242L39.7467 48.4316H38.385V47.4502H43.476V48.4316H42.3596V54.0623L41.5622 54.9456V51.6702L41.4273 51.6457L40.8998 51.4126L40.8875 51.9278C40.8385 52.3694 40.7649 52.8111 40.6299 53.2527ZM41.55 48.4194H40.5195L40.6299 48.8732L40.7281 49.3026L40.8385 49.9896C40.863 50.1859 40.8753 50.3944 40.8753 50.6029L41.55 50.7379V48.4194ZM39.9062 51.6702L39.7835 51.8665C39.6485 52.075 39.5504 52.3572 39.5013 52.7007L39.4645 53.13V53.2772L39.4768 53.4735L39.5013 53.6084L39.5504 53.6943H39.624C39.7344 53.6943 39.8448 53.4367 39.943 52.9337C40.0043 52.6025 40.0534 52.2222 40.0779 51.8051V51.4371L39.9062 51.6702ZM36.9988 54.9333V51.3022L35.6126 51.2899L35.4286 51.5598L35.2323 51.7315L35.0115 51.8419H34.7907H34.7539H34.7171H34.6803C34.6803 52.2345 34.7416 52.6761 34.8765 53.1545C35.0483 53.7802 35.2323 54.0869 35.4531 54.0869C35.5635 54.0869 35.6371 54.0133 35.6862 53.8661L35.7353 53.6207V53.3263V53.1668V53.1055V52.9705V52.8847L36.5081 52.5657C36.5081 52.9705 36.4713 53.3876 36.3977 53.7925C36.2382 54.5898 35.9193 54.9947 35.4408 54.9947C34.987 54.9947 34.6189 54.5653 34.3245 53.7188C34.1037 53.0196 33.9688 52.21 33.9074 51.2899L33.8706 50.6765L33.8338 50.0141L34.6067 49.5602L34.6435 50.9219L34.6803 50.971L34.7293 50.9955H34.7784H34.8275L34.9747 50.9464L35.0851 50.8115C35.171 50.6397 35.22 50.3699 35.22 50.0018L35.2078 49.7074L35.1219 48.8242L35.0851 48.6156L35.0606 48.4071H33.3799V47.4257H38.9002V48.4071H37.7839V54.0378L36.9988 54.9333ZM36.9988 50.1368V48.4194H35.907L35.9315 48.7138L35.9683 49.0205L36.0051 49.3271V49.548V49.8792L35.9683 50.1368H36.9988ZM31.2454 45.3771L31.1227 45.2176L30.9387 45.0704L30.7547 44.9722L30.583 44.9232C30.4726 44.9232 30.3744 45.0458 30.2763 45.2912L30.2027 45.6715L30.1659 46.0518V46.3462C30.1782 46.5547 30.2272 46.8737 30.2886 47.303C30.3008 47.4012 30.3131 47.4625 30.3254 47.4748L30.3622 47.6833L29.8469 47.671L29.7488 47.4257L29.6752 47.1926C29.5525 46.8246 29.4912 46.4198 29.4912 45.9904C29.4912 45.3157 29.5893 44.825 29.7733 44.4938C29.9941 44.1381 30.2886 43.9663 30.6566 43.9663C30.7425 43.9663 30.8038 43.9663 30.8406 43.9786C30.8774 43.9786 30.9387 44.0031 31.0123 44.0399C31.0982 44.0767 31.1473 44.1013 31.1963 44.1258C31.2331 44.1503 31.2822 44.1871 31.3436 44.2607L31.454 44.3834L31.6012 44.5429L31.2454 45.3771ZM30.3254 47.303L30.2272 47.4502L29.9696 47.7447C29.8837 47.806 29.7979 47.8305 29.712 47.8305H29.6752H29.6384L29.6016 47.7815L29.5525 47.7324L29.0128 46.6774L28.5589 45.8923C28.4607 45.7083 28.3749 45.6224 28.3381 45.6224C28.2767 45.6224 28.2031 45.6469 28.154 45.6837C28.0804 45.7083 28.0068 45.7573 27.9332 45.8432L27.8351 45.9414L27.7124 46.0763L27.3935 45.1808L27.8351 44.8005L28.2767 44.4938L28.5711 44.3957C28.657 44.3957 28.841 44.641 29.1109 45.144L29.9819 46.7633L30.0677 46.7387L30.1782 46.6406L30.2027 46.6283L30.2395 46.567L30.4358 47.0699L30.3254 47.303ZM28.9023 48.4194V47.438H31.4172V48.4194H30.3008L30.2886 54.0501L29.4912 54.9333V48.4194H28.9023ZM28.3749 49.3885L28.3381 49.781L28.3135 50.1368C28.3135 50.2349 28.3013 50.2963 28.289 50.3085V50.4803V50.6765V50.8483L28.3135 51.5353C28.3135 51.7193 28.3381 51.891 28.3994 52.0382C28.4975 52.394 28.6447 52.578 28.8533 52.578L29.025 52.5289L29.209 52.394L29.3072 52.2958L29.4421 52.0996L28.3749 49.3885ZM29.6507 52.9337L29.5157 53.13C29.393 53.2772 29.2581 53.3999 29.1109 53.4858L28.8778 53.5594H28.6815C28.3013 53.5594 28.0068 53.3018 27.786 52.7743C27.6879 52.5657 27.6143 52.2468 27.5407 51.8419C27.5284 51.7683 27.5161 51.6702 27.5039 51.523C27.4916 51.3758 27.4793 51.2654 27.4793 51.1672V50.7379V50.1736L27.5529 49.4375L27.602 48.9959L27.6879 48.4194L27.1113 48.4071V47.4257H29.393V48.4071H28.5834L29.8101 51.4985V52.6393L29.6507 52.9337ZM24.7683 54.9333V52.9583L24.6947 53.0564L24.621 53.1423L24.5352 53.2404L24.437 53.3263L24.2285 53.4612L24.0322 53.5103C23.701 53.5103 23.4434 53.2772 23.2348 52.8233C23.0386 52.3694 22.9282 51.8297 22.9282 51.2163C22.9282 50.2349 23.149 49.597 23.5783 49.3026C23.7501 49.2045 23.9095 49.1554 24.0445 49.1554C24.1426 49.1554 24.2285 49.1677 24.3144 49.2045C24.4002 49.2413 24.4738 49.3026 24.572 49.4007L24.6701 49.4989L24.7805 49.6461L24.4002 50.3821L24.3266 50.284L24.2776 50.2104L24.1426 50.0632L24.0445 50.0018C23.9954 50.0018 23.9341 50.0386 23.885 50.1C23.8359 50.1736 23.7869 50.2472 23.7378 50.3331L23.6519 50.7133L23.6151 51.1182V51.3267C23.6151 51.5598 23.6642 51.7929 23.7501 52.026C23.7869 52.1364 23.8605 52.2468 23.9709 52.3572L24.1058 52.443L24.2653 52.4676C24.3266 52.4676 24.3634 52.4553 24.388 52.443L24.5229 52.3081L24.6333 52.1364L24.756 51.8787V48.4071H22.4743V47.4257H27.7492V48.4071H25.5411V49.781L25.7006 49.5602L25.86 49.3639L26.0931 49.1922L26.3385 49.1309C26.915 49.1309 27.1972 49.8424 27.1972 51.2776V51.707V51.9278C27.1972 52.0505 27.1849 52.259 27.1359 52.5412L27.1236 52.6761L27.099 52.8233L26.2649 53.9642L26.3262 53.5716L26.363 53.2404L26.4366 52.4185L26.4734 51.707L26.4489 51.1795C26.4121 50.7992 26.3507 50.5661 26.2526 50.4803L26.0686 50.3821C25.9827 50.3821 25.8968 50.468 25.7864 50.6275L25.6515 50.9096L25.5288 51.2286V54.0501L24.7683 54.9333ZM22.83 50.8238C22.7809 50.7624 22.6215 50.6397 22.3639 50.4435C22.2166 50.3576 22.0817 50.3085 21.9345 50.3085L21.775 50.3576C21.7014 50.4189 21.6401 50.5416 21.6033 50.7256V51.1059L21.6278 51.6457L21.7014 52.1486C21.7382 52.4062 21.7996 52.7743 21.9222 53.2282L22.0449 53.7434L22.2412 54.4181L21.3947 55.0928L21.2475 54.4426L21.1494 53.9274C21.0512 53.449 20.9776 52.8724 20.9163 52.1854V51.7438C20.9163 51.0446 21.0512 50.4557 21.3334 49.9773C21.6033 49.4989 21.9468 49.2658 22.3393 49.2658C22.5724 49.2658 22.7932 49.3394 22.9895 49.4989L23.1122 49.597L23.2716 49.732V51.3267L22.83 50.8238ZM20.4011 48.4194V47.438H22.8055V48.4194H20.4011ZM19.7509 47.303L19.6528 47.4502L19.3952 47.7447C19.3093 47.806 19.2234 47.8305 19.1375 47.8305H19.1007H19.0639L19.0271 47.7815L18.9781 47.7324L18.4383 46.6774L17.9844 45.8923C17.8863 45.7083 17.8004 45.6224 17.7636 45.6224C17.7023 45.6224 17.6287 45.6469 17.5796 45.6837C17.506 45.7083 17.4324 45.7573 17.3588 45.8432L17.2606 45.9414L17.138 46.0763L16.819 45.1808L17.2606 44.8005L17.7023 44.4938L17.9967 44.3957C18.0826 44.3957 18.2666 44.641 18.5364 45.144L19.4074 46.7633L19.4933 46.7387L19.6037 46.6406L19.6282 46.6283L19.665 46.567L19.8613 47.0699L19.7509 47.303ZM18.3402 48.4194V47.438H20.855V48.4194H19.7386L19.7264 54.0501L18.929 54.9333V48.4194H18.3402ZM16.3651 48.4194V47.438H18.8799V48.4194H17.7636L17.7513 54.0501L16.954 54.9333V48.4194H16.3651ZM15.7027 49.2167L15.6536 48.861L15.5923 48.4194H15.2365L15.1875 48.8242L15.1139 49.413L15.0525 50.0632L15.0402 50.5661L15.0648 51.2531C15.0648 51.4617 15.0771 51.6702 15.1139 51.8542C15.1507 52.0382 15.1997 52.21 15.2611 52.3694C15.2979 52.4921 15.3592 52.5412 15.4205 52.5412C15.5432 52.5412 15.6413 52.3326 15.7027 51.9033L15.7763 51.2531L15.8008 50.5539V50.1L15.7027 49.2167ZM16.4142 48.4194L16.4755 48.8487L16.5369 49.3149L16.5737 49.8301V50.2963L16.5491 50.8851C16.5491 50.9587 16.5491 51.0568 16.5369 51.1427C16.5246 51.2408 16.5123 51.3513 16.5001 51.4617C16.3774 52.259 16.1566 52.8233 15.8499 53.13C15.6782 53.2895 15.5187 53.3631 15.3469 53.3631C15.0157 53.3631 14.7458 53.1177 14.525 52.6148C14.4146 52.3572 14.341 52.0382 14.2797 51.6579L14.2183 51.0691L14.2061 50.4925L14.2183 49.9773L14.2919 49.3394L14.341 48.8855L14.4146 48.4194L13.8012 48.4071V47.4257H16.6595V48.4071H16.4142V48.4194ZM13.5804 57.9634C13.3351 58.3191 13.0407 58.4908 12.7095 58.4908H12.4641C12.415 58.4908 12.3782 58.4908 12.3414 58.4786C12.3046 58.4663 12.2433 58.4418 12.1206 58.3927C11.9734 58.3559 11.8017 58.27 11.6054 58.1474C11.4091 58.0247 11.2251 57.8652 11.0288 57.6812C10.8816 57.5463 10.7589 57.3991 10.6363 57.2273L11.1883 56.295L11.4582 56.6753L11.6667 56.9452C11.8139 57.1292 12.0102 57.2886 12.2433 57.4481C12.4518 57.5585 12.6481 57.6076 12.7953 57.6076C12.9057 57.6076 13.0161 57.5217 13.1143 57.35C13.1511 57.2886 13.1756 57.1782 13.2247 57.0188V56.6753L13.1756 56.3931C13.1388 56.2582 13.0775 56.1478 12.9793 56.0619L12.8199 56.0128C12.7217 56.0128 12.6604 56.0374 12.6113 56.0864L12.3169 56.3318L12.182 56.4667L11.9979 56.663L11.9857 55.3504L12.1084 55.2645L12.3292 55.1296L12.6849 54.9701L12.9671 54.9211H13.1388C13.1756 54.9211 13.2369 54.9579 13.2983 55.0192C13.5314 55.1909 13.7031 55.4976 13.838 55.9147C13.8871 56.1232 13.9117 56.3318 13.9117 56.5649C13.9362 57.1292 13.8135 57.5953 13.5804 57.9634ZM11.3355 48.4194L11.4827 48.9223L11.6054 49.4007L11.7403 50.2595C11.7526 50.3821 11.7649 50.4803 11.7771 50.5539C11.7771 50.6275 11.7894 50.7379 11.7894 50.8851C11.7894 51.1182 11.7771 51.3267 11.7649 51.5107C11.7526 51.6947 11.7158 51.891 11.679 52.0996C11.5809 52.578 11.4336 52.9828 11.2128 53.3018C11.1147 53.4367 11.0043 53.5471 10.8694 53.633C10.7467 53.7189 10.6117 53.7557 10.4768 53.7557C10.1701 53.7557 9.90023 53.5594 9.69169 53.1668C9.59355 52.9828 9.50768 52.7375 9.4218 52.4185C9.36047 52.1486 9.33593 51.8051 9.33593 51.3881V51.0814C9.33593 50.9464 9.36047 50.7992 9.39727 50.6397C9.48314 50.1368 9.64262 49.781 9.8757 49.5848L9.9861 49.4989L10.2069 49.4375H10.3296L10.5013 49.5111L10.5749 49.5602L10.6731 49.6216L10.4523 50.4189H10.4277L10.4032 50.4067L10.3173 50.3821L10.256 50.3699L10.1456 50.3944C10.0965 50.3944 10.0474 50.4925 9.99837 50.6765V50.9587C9.99837 51.4126 10.072 51.8297 10.2069 52.1977C10.3541 52.5657 10.5013 52.7497 10.6485 52.7497C10.7589 52.7497 10.8448 52.6271 10.9307 52.394L11.0043 51.9401L11.0411 51.2899C11.0411 50.8728 10.992 50.4189 10.8816 49.9405C10.808 49.5234 10.7099 49.1431 10.5872 48.8119L10.4523 48.4194H8.80844V47.438H14.2551V48.4194H13.1511V54.0501L12.3537 54.9333V48.4194H11.3355ZM58.3685 55.1541V45.8309L59.0677 45.3525V54.7738L58.3685 55.1541ZM55.9886 55.1541V45.8309L56.6879 45.3525V54.7738L55.9886 55.1541ZM4.07324 55.1541V45.8309L4.77248 45.3525V54.7738L4.07324 55.1541Z" fill="#F0F0F0"/>
</svg>
