<svg width="72" height="72" viewBox="0 0 72 72" fill="none" xmlns="http://www.w3.org/2000/svg">
<path fill-rule="evenodd" clip-rule="evenodd" d="M44.0638 63H18.49C16.015 63 14 60.9322 14 58.3875V13.6125C14 11.07 16.0129 9 18.49 9H44.0638C46.5388 9 48.5538 11.0678 48.5538 13.6125V46.2651C48.5538 46.4739 48.4654 46.6723 48.3114 46.8073C47.079 47.9045 46.3704 49.4955 46.3704 51.1687C46.3704 52.8441 47.077 54.433 48.3114 55.5301C48.4654 55.6673 48.5538 55.8656 48.5538 56.0724V58.3871C48.5538 60.9297 46.5409 63 44.0638 63ZM18.49 10.4391C16.7852 10.4391 15.3988 11.8634 15.3988 13.6147V58.3896C15.3988 60.141 16.7852 61.5652 18.49 61.5652H44.0638C45.7686 61.5652 47.155 60.141 47.155 58.3896V56.3936C45.7645 55.0347 44.9737 53.1504 44.9737 51.1712C44.9737 49.192 45.7645 47.3078 47.155 45.9489V13.6151C47.155 11.8637 45.7686 10.4416 44.0638 10.4416H18.49V10.4391Z" fill="white"/>
<path fill-rule="evenodd" clip-rule="evenodd" d="M47.8533 18.2083H14.7004C14.3143 18.2083 14.0001 17.8855 14.0001 17.4888C14.0001 17.0922 14.3123 16.7693 14.7004 16.7693H47.8533C48.2395 16.7693 48.5537 17.09 48.5537 17.4888C48.5537 17.8855 48.2395 18.2083 47.8533 18.2083Z" fill="white"/>
<path fill-rule="evenodd" clip-rule="evenodd" d="M46.5756 55.2351H14.7004C14.3143 55.2351 14.0001 54.9144 14.0001 54.5156C14.0001 54.1189 14.3123 53.7961 14.7004 53.7961H46.5756C46.9618 53.7961 47.276 54.1168 47.276 54.5156C47.276 54.9123 46.9617 55.2351 46.5756 55.2351Z" fill="white"/>
<path fill-rule="evenodd" clip-rule="evenodd" d="M35.349 59.12H27.2053C26.8191 59.12 26.5049 58.7971 26.5049 58.4005C26.5049 58.0038 26.8191 57.681 27.2053 57.681H35.349C35.7352 57.681 36.0494 58.0017 36.0494 58.4005C36.0494 58.7972 35.7351 59.12 35.349 59.12Z" fill="white"/>
<path fill-rule="evenodd" clip-rule="evenodd" d="M31.3539 14.324H26.2211C25.835 14.324 25.5207 14.0012 25.5207 13.6045C25.5207 13.2079 25.835 12.885 26.2211 12.885H31.3519C31.738 12.885 32.0522 13.2079 32.0522 13.6045C32.0522 14.0012 31.74 14.324 31.3539 14.324Z" fill="white"/>
<path fill-rule="evenodd" clip-rule="evenodd" d="M36.3328 14.324H34.5664C34.1803 14.324 33.866 14.0012 33.866 13.6045C33.866 13.2079 34.1803 12.885 34.5664 12.885H36.3328C36.719 12.885 37.0332 13.2079 37.0332 13.6045C37.0332 14.0012 36.7189 14.324 36.3328 14.324Z" fill="white"/>
<path fill-rule="evenodd" clip-rule="evenodd" d="M21.659 42.3851C21.2729 42.3851 20.9586 42.0644 20.9586 41.6656V30.3307C20.9586 29.9341 21.2708 29.6112 21.659 29.6112C22.0452 29.6112 22.3594 29.9341 22.3594 30.3307V41.6656C22.3594 42.0623 22.0472 42.3851 21.659 42.3851Z" fill="white"/>
<path fill-rule="evenodd" clip-rule="evenodd" d="M25.5064 41.1276C25.1202 41.1276 24.806 40.8047 24.806 40.4081V31.5926C24.806 31.1959 25.1202 30.8731 25.5064 30.8731C25.8925 30.8731 26.2068 31.1959 26.2068 31.5926V40.4081C26.2068 40.8048 25.8925 41.1276 25.5064 41.1276Z" fill="white"/>
<path fill-rule="evenodd" clip-rule="evenodd" d="M29.3532 39.8679C28.9671 39.8679 28.6528 39.5451 28.6528 39.1484V32.8522C28.6528 32.4555 28.9671 32.1327 29.3532 32.1327C29.7393 32.1327 30.0536 32.4556 30.0536 32.8522V39.1484C30.0536 39.5451 29.7393 39.8679 29.3532 39.8679Z" fill="white"/>
<path fill-rule="evenodd" clip-rule="evenodd" d="M33.2006 42.3851C32.8144 42.3851 32.5002 42.0644 32.5002 41.6656V30.3307C32.5002 29.9341 32.8144 29.6112 33.2006 29.6112C33.5867 29.6112 33.9009 29.9341 33.9009 30.3307V41.6656C33.9009 42.0623 33.5887 42.3851 33.2006 42.3851Z" fill="white"/>
<path fill-rule="evenodd" clip-rule="evenodd" d="M37.0474 41.1276C36.6613 41.1276 36.347 40.8047 36.347 40.4081V31.5926C36.347 31.1959 36.6592 30.8731 37.0474 30.8731C37.4335 30.8731 37.7478 31.1959 37.7478 31.5926V40.4081C37.7478 40.8048 37.4356 41.1276 37.0474 41.1276Z" fill="white"/>
<path fill-rule="evenodd" clip-rule="evenodd" d="M40.8942 39.8679C40.5081 39.8679 40.1938 39.5451 40.1938 39.1484V32.8522C40.1938 32.4555 40.5061 32.1327 40.8942 32.1327C41.2804 32.1327 41.5946 32.4556 41.5946 32.8522V39.1484C41.5946 39.5451 41.2824 39.8679 40.8942 39.8679Z" fill="white"/>
<path fill-rule="evenodd" clip-rule="evenodd" d="M42.9854 27.6764C42.5992 27.6764 42.285 27.3535 42.285 26.9569V24.5071C42.285 24.0703 41.9564 23.7159 41.5518 23.7159H39.2349C38.8488 23.7159 38.5345 23.3951 38.5345 22.9964C38.5345 22.5997 38.8488 22.2769 39.2349 22.2769H41.5518C42.7266 22.2769 43.6838 23.277 43.6838 24.505V26.9548C43.6838 27.3515 43.3716 27.6743 42.9854 27.6743L42.9854 27.6764Z" fill="white"/>
<path fill-rule="evenodd" clip-rule="evenodd" d="M19.5684 27.6764C19.1822 27.6764 18.868 27.3535 18.868 26.9569V24.5071C18.868 23.2791 19.8251 22.2789 21 22.2789H23.3168C23.703 22.2789 24.0172 22.5996 24.0172 22.9984C24.0172 23.3951 23.703 23.7179 23.3168 23.7179H21C20.5954 23.7179 20.2668 24.0724 20.2668 24.5092V26.9589C20.2668 27.3556 19.9546 27.6784 19.5664 27.6784L19.5684 27.6764Z" fill="white"/>
<path fill-rule="evenodd" clip-rule="evenodd" d="M41.5515 49.7216H39.2347C38.8485 49.7216 38.5343 49.3988 38.5343 49.0021C38.5343 48.6054 38.8485 48.2826 39.2347 48.2826H41.5515C41.9561 48.2826 42.2847 47.9281 42.2847 47.4914V45.0416C42.2847 44.6449 42.599 44.3221 42.9851 44.3221C43.3712 44.3221 43.6855 44.645 43.6855 45.0416V47.4914C43.6855 48.7215 42.7284 49.7196 41.5535 49.7196L41.5515 49.7216Z" fill="white"/>
<path fill-rule="evenodd" clip-rule="evenodd" d="M23.319 49.7216H21.0022C19.8273 49.7216 18.8702 48.7215 18.8702 47.4934V45.0437C18.8702 44.647 19.1844 44.3242 19.5705 44.3242C19.9567 44.3242 20.2709 44.647 20.2709 45.0437V47.4934C20.2709 47.9302 20.5996 48.2847 21.0042 48.2847H23.321C23.7071 48.2847 24.0214 48.6075 24.0214 49.0042C24.0214 49.4008 23.7092 49.7216 23.321 49.7216L23.319 49.7216Z" fill="white"/>
<path fill-rule="evenodd" clip-rule="evenodd" d="M51.9857 58.3751C48.1181 58.3751 44.9714 55.1425 44.9714 51.1693C44.9714 47.196 48.118 43.9635 51.9857 43.9635C55.8533 43.9635 59 47.196 59 51.1693C59 55.1425 55.8533 58.3751 51.9857 58.3751ZM51.9857 45.4003C48.8883 45.4003 46.37 47.9872 46.37 51.1693C46.37 54.3491 48.8882 56.9383 51.9857 56.9383C55.0832 56.9383 57.6013 54.3513 57.6013 51.1693C57.6013 47.9895 55.0832 45.4003 51.9857 45.4003Z" fill="white"/>
<path fill-rule="evenodd" clip-rule="evenodd" d="M50.7085 54.3514C50.5236 54.3514 50.3449 54.2754 50.2135 54.1404L47.9767 51.8426C47.7036 51.562 47.7036 51.1062 47.9767 50.8256C48.2499 50.547 48.6936 50.5449 48.9667 50.8256L50.7085 52.617L55.0095 48.1986C55.2826 47.9179 55.7263 47.9179 55.9995 48.1986C56.2726 48.4792 56.2726 48.935 55.9995 49.2156L51.2055 54.1404C51.0741 54.2754 50.8954 54.3514 50.7105 54.3514H50.7085Z" fill="white"/>
</svg>
