<svg width="72" height="72" viewBox="0 0 72 72" fill="none" xmlns="http://www.w3.org/2000/svg">
<path fill-rule="evenodd" clip-rule="evenodd" d="M31.2586 18.6773C31.2586 19.0932 30.9198 19.4298 30.5016 19.4298H22.1479C21.7298 19.4298 21.3909 19.0908 21.3909 18.6773C21.3909 18.2565 21.7297 17.9175 22.1479 17.9175H30.5016C30.9198 17.9175 31.2586 18.2565 31.2586 18.6773ZM51.7293 11.0003H39.5255C37.6846 11.2071 36.2523 12.6568 36.2523 14.4119V25.6083C36.2523 26.2671 37.0381 26.6157 37.5236 26.1637L40.1312 23.7546C40.7512 23.1872 41.489 22.9059 42.3879 22.9059H51.2749C53.3297 22.9059 55 21.3672 55 19.4702V14.4117C55 12.6541 53.5703 11.2071 51.7293 11.0003ZM31.477 11.0003H19.2732C17.4323 11.2071 16 12.6568 16 14.4119V19.4705C16 21.3675 17.6727 22.9062 19.7275 22.9062H28.6145C29.5133 22.9062 30.2512 23.1875 30.8712 23.7549L33.4788 26.164C33.9642 26.616 34.7501 26.265 34.7501 25.6086L34.7477 14.4098C34.7477 12.6546 33.3179 11.2071 31.477 11.0003ZM19.4923 15.2029C19.4923 14.787 19.8311 14.4431 20.2493 14.4431H30.4991C30.9197 14.4431 31.2562 14.787 31.2562 15.2029C31.2562 15.6237 30.9173 15.9627 30.4991 15.9627H20.2493C19.8311 15.9627 19.4923 15.6237 19.4923 15.2029ZM17.5168 14.4095V19.4681C17.5168 20.5284 18.5094 21.3915 19.7278 21.3915H28.6149C29.8934 21.3915 30.9989 21.8122 31.8977 22.6441L33.234 23.8775V14.4119C33.234 13.3516 32.2414 12.4885 31.0229 12.4885H19.7278C18.5094 12.4885 17.5168 13.3492 17.5168 14.4095ZM40.9486 57.9529C41.0159 58.2318 40.9294 58.4867 40.7396 58.6814L38.6535 60.7755C38.3604 61.076 37.8725 61.0712 37.5817 60.7827C37.2837 60.4894 37.2837 60.011 37.5793 59.7104L37.9278 59.3594C26.5053 60.8572 16.2456 51.9809 16.2456 40.3321C16.2456 35.2039 18.2428 30.3809 21.8669 26.76C22.5782 26.0435 23.3497 25.3871 24.162 24.7933C24.5009 24.5505 24.9743 24.6202 25.2195 24.9592C25.4646 25.2982 25.3901 25.7766 25.0512 26.0195C20.4658 29.3277 17.7595 34.6628 17.7595 40.3296C17.7595 45.0492 19.598 49.49 22.9361 52.8296C26.8366 56.7269 32.3449 58.559 37.7448 57.8497L37.1921 57.5996C36.81 57.4265 36.6393 56.9793 36.8124 56.5971C36.983 56.2196 37.4324 56.0489 37.8145 56.2196L40.6191 57.4914C40.6191 57.4986 40.6215 57.4986 40.6215 57.4986C40.7777 57.5948 40.9006 57.7606 40.9486 57.9529ZM48.9972 26.7574C56.4975 34.2541 56.4956 46.3977 48.9972 53.8969C47.7162 55.1807 46.2646 56.2723 44.6905 57.1426C44.3228 57.3445 43.8614 57.2147 43.6595 56.8493C43.4576 56.479 43.5922 56.0198 43.9575 55.8154C49.6004 52.6875 53.1017 46.8305 53.1017 40.3322C53.1017 35.6054 51.2632 31.1669 47.9251 27.8254C47.889 27.7941 47.853 27.7557 47.8169 27.722L47.9515 28.2197C48.0597 28.6284 47.8194 29.0443 47.4156 29.1525C47.0119 29.2607 46.5961 29.0179 46.4879 28.6164C46.3918 28.2606 45.6949 25.7481 45.6901 25.5942C45.678 25.4355 45.7237 25.2624 45.8222 25.1158C45.8318 25.1037 45.8415 25.0893 45.8487 25.0773H45.8511C46.0265 24.8585 46.2668 24.7647 46.5312 24.796L49.4776 25.0773C49.8934 25.1158 50.1986 25.486 50.1602 25.9068C50.1193 26.3227 49.7492 26.6281 49.3334 26.5848L48.7711 26.5343C48.848 26.604 48.9226 26.6805 48.9972 26.7574ZM49.6124 18.6767C49.6124 19.0926 49.2735 19.4292 48.8553 19.4292H40.5017C40.0835 19.4292 39.7446 19.0902 39.7446 18.6767C39.7446 18.2559 40.0835 17.9169 40.5017 17.9169H48.8553C49.2735 17.9169 49.6124 18.2559 49.6124 18.6767ZM51.5109 15.2025C51.5109 15.6233 51.1721 15.9623 50.7539 15.9623H40.5016C40.0834 15.9623 39.7446 15.6233 39.7446 15.2025C39.7446 14.7866 40.0834 14.4428 40.5016 14.4428H50.7514C51.172 14.4428 51.5109 14.7866 51.5109 15.2025ZM53.484 19.4677C53.484 20.528 52.4938 21.3911 51.273 21.3911H42.3884C41.1098 21.3911 40.0043 21.8118 39.1055 22.6438L37.7693 23.8771V14.4115C37.7693 13.3512 38.7619 12.4881 39.9803 12.4881H51.2754C52.4939 12.4881 53.4865 13.3512 53.4865 14.4115L53.484 19.4677ZM42.3138 50.3333C43.9096 50.3333 44.705 48.3858 43.5539 47.2678C43.102 46.8303 43.3472 46.0561 43.9792 45.9719C46.7862 45.5945 48.9035 43.1686 48.9035 40.3315C48.9035 37.4897 46.7862 35.0686 43.9792 34.6839C43.3448 34.5974 43.1068 33.8232 43.5539 33.388C43.9047 33.049 44.0994 32.597 44.0994 32.1041C44.0994 30.5005 42.1407 29.7359 41.0473 30.8467C40.5498 31.3516 39.6991 30.9525 39.7543 30.2601C39.836 29.2382 39.0165 28.3366 37.9735 28.3366C36.9905 28.3366 36.1879 29.1421 36.1879 30.1254V34.6935C38.721 35.0325 40.7277 37.0376 41.0665 39.5741H43.3761C43.65 38.4369 44.5248 37.5113 45.6856 37.1987C46.0893 37.0905 46.5051 37.3334 46.6132 37.7349C46.7214 38.1436 46.4811 38.5595 46.0773 38.6677C45.3251 38.8649 44.8012 39.5501 44.8012 40.3338C44.8012 41.1128 45.3251 41.7956 46.0773 42C46.4811 42.1082 46.7214 42.5241 46.6132 42.9256C46.5027 43.3391 46.0725 43.57 45.6856 43.4617C44.5248 43.1492 43.65 42.2236 43.3761 41.0863H41.0665C40.7277 43.6228 38.7186 45.628 36.1879 45.967V50.5351C36.1879 51.5257 36.9882 52.3238 37.9735 52.3238C39.0165 52.3238 39.836 51.4271 39.7543 50.4004C39.699 49.7128 40.545 49.3041 41.0473 49.8138C41.3861 50.1456 41.8355 50.3333 42.3138 50.3333ZM35.4305 44.5005C37.7305 44.5005 39.6026 42.63 39.6026 40.3292C39.6026 38.0235 37.7304 36.153 35.4305 36.153C33.1307 36.153 31.2585 38.0235 31.2585 40.3292C31.2585 42.6301 33.1307 44.5005 35.4305 44.5005ZM34.6735 50.5304V45.9623C32.1428 45.6233 30.1337 43.6182 29.7949 41.0817L27.4853 41.0841C27.2138 42.2213 26.339 43.1469 25.1758 43.4595C25.1109 43.4787 25.0436 43.4859 24.9787 43.4859C24.1063 43.4859 23.9285 42.2285 24.7817 41.9977C25.5339 41.7933 26.0578 41.1105 26.0578 40.3316C26.0578 39.5454 25.5315 38.8626 24.7817 38.6654C24.3779 38.5572 24.1376 38.1413 24.2457 37.7326C24.3539 37.3311 24.7697 37.0882 25.1734 37.1964C26.3366 37.509 27.209 38.4346 27.4829 39.5719H29.7925C30.1313 37.0354 32.1404 35.0302 34.6711 34.6912V30.1231C34.6711 29.1397 33.8708 28.3344 32.8855 28.3344C31.8449 28.3344 31.023 29.2335 31.1047 30.2578C31.16 30.943 30.314 31.3566 29.8117 30.8444C29.4729 30.5054 29.0235 30.3203 28.5452 30.3203C26.9446 30.3203 26.154 32.2726 27.3051 33.3857C27.7545 33.8209 27.5166 34.5975 26.8797 34.6817C24.0727 35.0639 21.9555 37.485 21.9555 40.3293C21.9555 43.1663 24.0727 45.5922 26.8797 45.9697C27.5142 46.0538 27.7545 46.828 27.3051 47.2656C26.9542 47.6046 26.762 48.0566 26.762 48.5494C26.762 50.1531 28.7207 50.9177 29.8141 49.8069C30.3164 49.2972 31.1623 49.7083 31.1071 50.3935C31.023 51.4226 31.8449 52.3169 32.8879 52.3169C33.8732 52.3193 34.6735 51.5209 34.6735 50.5304ZM45.6154 48.5493C45.6154 50.8814 43.2531 52.4778 41.0925 51.6147C40.2489 54.0358 37.0767 54.6152 35.4328 52.6366C33.789 54.6129 30.6167 54.0358 29.7731 51.6147C29.3886 51.7686 28.9752 51.8503 28.5523 51.8503C26.1538 51.8503 24.5821 49.3764 25.5289 47.2125C22.5633 46.2989 20.4485 43.5148 20.4485 40.3264C20.4485 37.1336 22.5657 34.3471 25.5289 33.4335C25.3463 33.0176 25.2502 32.5656 25.2502 32.0992C25.2502 29.7646 27.6125 28.1706 29.7731 29.0337C30.6167 26.6126 33.789 26.0332 35.4328 28.0119C37.079 26.0332 40.2489 26.6126 41.0925 29.0337C41.477 28.8798 41.8904 28.7981 42.3133 28.7981C44.7142 28.7981 46.2859 31.2769 45.3367 33.4359C48.3023 34.3496 50.4196 37.1337 50.4196 40.3288C50.4196 43.5169 48.3023 46.301 45.3367 47.2149C45.5193 47.6308 45.6154 48.0829 45.6154 48.5493Z" fill="white"/>
</svg>
