<svg width="72" height="72" viewBox="0 0 72 72" fill="none" xmlns="http://www.w3.org/2000/svg">
<path d="M47.5325 34.3797H53.3046C54.5538 34.3797 55.7062 35.0607 56.3282 36.167L61.5353 45.4127C62.1549 46.5139 62.1549 47.8683 61.5353 48.967L56.3282 58.2127C55.7062 59.319 54.5537 60 53.3046 60H42.9026C41.6534 60 40.501 59.319 39.8765 58.2127L35.9854 51.3015L35.9904 51.2964L33.1427 46.2458L29.2864 39.4078C29.1996 39.2509 29.2542 39.0534 29.4053 38.9648C29.4524 38.937 29.507 38.9218 29.5615 38.9218H32.2951C32.5231 38.9218 32.7313 39.0458 32.8453 39.2458L33.165 39.8129V39.7977L34.8454 42.7799L38.962 50.0736L38.9545 50.0761L42.6275 56.5972C42.6746 56.6807 42.7564 56.7389 42.8456 56.7541L42.9026 56.7592H53.3047C53.4187 56.7592 53.5228 56.6984 53.5798 56.5972L58.7868 47.3515C58.8414 47.2503 58.8414 47.1287 58.7868 47.0275L53.5798 37.7818C53.5228 37.6831 53.4187 37.6198 53.3047 37.6198H44.7172C44.6676 37.6173 44.6181 37.6046 44.5734 37.5768C44.4223 37.4881 44.3702 37.2907 44.457 37.1363L45.825 34.7059C45.939 34.5059 46.1472 34.3819 46.3752 34.3819H47.545L47.5325 34.3797ZM33.46 34.3772L36.6844 34.3797L38.8728 34.3822C38.9273 34.3822 38.9818 34.3949 39.0289 34.4253C39.1826 34.5139 39.2346 34.7113 39.1479 34.8658L37.7798 37.2936C37.6658 37.4961 37.4576 37.6201 37.2296 37.6201L33.5294 37.6176V37.6252H23.2048V37.6201H17.6953C17.5813 37.6201 17.4772 37.6834 17.4202 37.7822L12.2132 47.0278C12.1586 47.1291 12.1586 47.2506 12.2132 47.3519L17.4202 56.5975C17.4772 56.6988 17.5813 56.7596 17.6953 56.7596H28.0974C28.2114 56.7596 28.3155 56.6988 28.3725 56.5975L32.5436 49.1925L32.6675 48.9722C32.6873 48.9393 32.7096 48.9114 32.7394 48.8861L32.784 48.8532C32.9352 48.7646 33.1285 48.8178 33.2177 48.9722L34.5907 51.4101C34.7047 51.6127 34.7047 51.8582 34.5907 52.0582L34.6081 52.0228L34.0405 53.0329L33.7605 53.524L31.1235 58.2126C30.499 59.3189 29.3465 59.9999 28.0974 59.9999H17.6954C16.4462 59.9999 15.2938 59.3189 14.6718 58.2126L9.4647 48.9669C8.8451 47.8682 8.8451 46.5138 9.4647 45.4125L14.6718 36.1669C15.2938 35.0606 16.4463 34.3796 17.6954 34.3796H24.4638V34.3846H33.458L33.46 34.3772ZM40.6993 12.0005C41.9484 12.0005 43.1033 12.6815 43.7253 13.7878L48.9324 23.0335C49.552 24.1322 49.552 25.4866 48.9324 26.5879L44.9818 33.6002L40.7612 41.0986L40.7587 41.0961L39.0363 44.1568L38.9842 44.2505L38.32 45.4353C38.3051 45.453 38.2878 45.4707 38.2704 45.4859L38.2233 45.5188C38.0722 45.61 37.8788 45.5543 37.7921 45.3998L36.4166 42.9619C36.3026 42.7619 36.3026 42.5164 36.4141 42.3164L38.8032 38.0709H38.8057L41.237 33.7519L46.1814 24.9722C46.2285 24.8887 46.2359 24.7874 46.2062 24.6988L46.1814 24.6482L40.9743 15.4025C40.9198 15.3013 40.8132 15.2405 40.6992 15.2405H30.2997C30.1857 15.2405 30.0791 15.3013 30.0246 15.4025L24.8175 24.6482C24.7605 24.7494 24.7605 24.871 24.8175 24.9722L28.4037 31.3392L29.1126 32.605C29.2018 32.7594 29.1497 32.9569 28.9961 33.0455C28.949 33.0759 28.8945 33.0885 28.8375 33.0885H26.0939C25.8733 33.0885 25.6701 32.9721 25.5561 32.7822L22.0665 26.5874C21.4469 25.4861 21.4469 24.1317 22.0665 23.033L27.2736 13.7873C27.8957 12.681 29.0506 12 30.2997 12L40.6993 12.0005Z" fill="white"/>
</svg>
