<svg width="72" height="72" viewBox="0 0 72 72" fill="none" xmlns="http://www.w3.org/2000/svg">
<path d="M38.2001 21.201C37.7001 21.101 37.1001 21.501 37.1001 22.001C37.0001 22.501 37.4001 23.101 37.9001 23.101C43.6001 24.001 48.0001 29.101 48.0001 35.001C48.0001 41.601 42.6001 47.001 36.0001 47.001C29.4001 47.001 24.0001 41.601 24.0001 35.001C24.0001 29.101 28.4001 24.001 34.2001 23.101C34.7001 23.001 35.1001 22.501 35.0001 22.001C34.9001 21.501 34.4001 21.101 33.9001 21.201C27.1001 22.201 22.1001 28.201 22.1001 35.001C22.1001 42.701 28.4001 49.001 36.1001 49.001C43.8001 49.001 50.1001 42.701 50.1001 35.001C50.0001 28.201 44.9001 22.201 38.2001 21.201Z" fill="white"/>
<path d="M63 46C62.2 46 61.5 46.3 61 46.8L53.2 36.5L61 24.3C61.5 24.8 62.2 25 62.9 25C64.6 25 65.9 23.7 65.9 22C65.9 20.3 64.6 19 62.9 19C61.5 19 60.3 20 60 21.4L44.4 19.6L37.6 11.5C38.5 10.9 39 10 39 9C39 7.3 37.7 6 36 6C34.3 6 33 7.3 33 9C33 10 33.5 10.9 34.3 11.5L27.5 19.6L11.9 21.4C11.6 20 10.4 19 9 19C7.3 19 6 20.3 6 22C6 23.7 7.3 25 9 25C9.7 25 10.4 24.7 10.9 24.3L18.7 36.5L11 46.8C10.5 46.3 9.8 46 9 46C7.3 46 6 47.3 6 49C6 50.7 7.3 52 9 52C10.4 52 11.6 51 11.9 49.6L27.4 51.4L34.3 60.5C33.5 61 33 62 33 63C33 64.7 34.3 66 36 66C37.7 66 39 64.7 39 63C39 62 38.5 61 37.6 60.5L44.5 51.4L60 49.6C60.4 51 61.6 52 63 52C64.7 52 66 50.7 66 49C66 47.3 64.7 46 63 46ZM63 21C63.6 21 64 21.4 64 22C64 22.6 63.6 23 63 23C62.4 23 62 22.6 62 22C62 21.4 62.4 21 63 21ZM36 8C36.6 8 37 8.4 37 9C37 9.6 36.6 10 36 10C35.4 10 35 9.6 35 9C35 8.4 35.4 8 36 8ZM9 23C8.4 23 8 22.6 8 22C8 21.4 8.4 21 9 21C9.6 21 10 21.4 10 22C10 22.6 9.6 23 9 23ZM9 50C8.4 50 8 49.6 8 49C8 48.4 8.4 48 9 48C9.6 48 10 48.4 10 49C10 49.6 9.6 50 9 50ZM36 64C35.4 64 35 63.6 35 63C35 62.4 35.4 62 36 62C36.6 62 37 62.4 37 63C37 63.6 36.6 64 36 64ZM43.9 49.5C43.6 49.5 43.4 49.7 43.2 49.9L36 59.4L28.8 49.9C28.6 49.7 28.4 49.5 28.1 49.5L12.8 47.7L20.8 37.1C21.1 36.8 21.1 36.3 20.8 36L12.7 23.3L28.1 21.5C28.4 21.5 28.6 21.3 28.7 21.2L35.9 12.6L43.1 21.2C43.3 21.4 43.5 21.5 43.7 21.5L59.1 23.3L51.2 36C51 36.4 51 36.8 51.2 37.1L59.2 47.7L43.9 49.5ZM63 50C62.4 50 62 49.6 62 49C62 48.4 62.4 48 63 48C63.6 48 64 48.4 64 49C64 49.6 63.6 50 63 50Z" fill="white"/>
<path d="M26.7999 31.0004C26.3999 31.1004 26.0999 31.4004 25.9999 31.7004C25.8999 32.0004 25.9999 32.5004 26.2999 32.7004L30.7999 36.3004L28.9999 41.6004C28.8999 42.0004 28.9999 42.4004 29.2999 42.7004C29.5999 43.0004 29.9999 43.0004 30.3999 42.8004L35.9999 40.0004L41.5999 42.8004C41.6999 43.0004 41.7999 43.0004 41.9999 43.0004C42.1999 43.0004 42.4999 42.9004 42.6999 42.8004C42.9999 42.5004 43.0999 42.1004 42.9999 41.7004L41.1999 36.4004L45.6999 32.8004C45.9999 32.6004 46.0999 32.1004 45.9999 31.8004C45.8999 31.5004 45.5999 31.1004 45.1999 31.1004L39.6999 30.2004L36.8999 25.6004C36.4999 25.0004 35.4999 25.0004 35.1999 25.6004L32.3999 30.2004L26.7999 31.0004ZM33.8999 31.5004L35.9999 27.9004L38.0999 31.5004C38.2999 31.8004 38.4999 31.9004 38.7999 32.0004L42.5999 32.6004L39.2999 35.2004C38.9999 35.5004 38.7999 35.9004 38.9999 36.3004L40.1999 40.0004L36.3999 38.1004C36.2999 38.0004 36.1999 38.0004 35.9999 38.0004C35.7999 38.0004 35.6999 38.0004 35.5999 38.1004L31.6999 40.0004L32.8999 36.3004C32.9999 35.9004 32.8999 35.5004 32.5999 35.2004L29.2999 32.6004L33.0999 32.0004C33.4999 31.9004 33.6999 31.8004 33.8999 31.5004Z" fill="white"/>
</svg>
