<svg width="27" height="27" viewBox="0 0 27 27" fill="none" xmlns="http://www.w3.org/2000/svg">
<g clip-path="url(#clip0_2892_1758)">
<path d="M13.4135 2.41547C16.9974 2.41547 17.4218 2.43119 18.8312 2.49407C20.1412 2.5517 20.8485 2.77177 21.3201 2.95515C21.9436 3.19618 22.3942 3.4896 22.8605 3.95592C23.3321 4.42749 23.6203 4.87286 23.8613 5.49638C24.0447 5.96794 24.2647 6.68053 24.3224 7.9852C24.3853 9.3999 24.401 9.82431 24.401 13.403C24.401 16.9869 24.3853 17.4113 24.3224 18.8208C24.2647 20.1307 24.0447 20.838 23.8613 21.3096C23.6203 21.9331 23.3269 22.3837 22.8605 22.85C22.389 23.3216 21.9436 23.6098 21.3201 23.8508C20.8485 24.0342 20.1359 24.2543 18.8312 24.3119C17.4165 24.3748 16.9921 24.3905 13.4135 24.3905C9.82955 24.3905 9.40514 24.3748 7.99568 24.3119C6.68577 24.2543 5.97842 24.0342 5.50686 23.8508C4.88334 23.6098 4.43273 23.3164 3.9664 22.85C3.49484 22.3785 3.20666 21.9331 2.96563 21.3096C2.78225 20.838 2.56218 20.1254 2.50455 18.8208C2.44167 17.4061 2.42595 16.9817 2.42595 13.403C2.42595 9.81907 2.44167 9.39466 2.50455 7.9852C2.56218 6.67529 2.78225 5.96794 2.96563 5.49638C3.20666 4.87286 3.50008 4.42225 3.9664 3.95592C4.43797 3.48436 4.88334 3.19618 5.50686 2.95515C5.97842 2.77177 6.69101 2.5517 7.99568 2.49407C9.40514 2.43119 9.82955 2.41547 13.4135 2.41547ZM13.4135 0C9.77192 0 9.31607 0.0157189 7.88565 0.0785945C6.46047 0.14147 5.48066 0.372014 4.63184 0.702111C3.74634 1.04793 2.99707 1.50377 2.25304 2.25304C1.50378 2.99707 1.04793 3.74634 0.702111 4.6266C0.372014 5.48066 0.14147 6.45523 0.0785945 7.88041C0.0157189 9.31607 0 9.77192 0 13.4135C0 17.055 0.0157189 17.5109 0.0785945 18.9413C0.14147 20.3665 0.372014 21.3463 0.702111 22.1951C1.04793 23.0806 1.50378 23.8299 2.25304 24.5739C2.99707 25.3179 3.74634 25.779 4.6266 26.1196C5.48066 26.4497 6.45523 26.6802 7.88041 26.7431C9.31083 26.806 9.76668 26.8217 13.4082 26.8217C17.0498 26.8217 17.5056 26.806 18.936 26.7431C20.3612 26.6802 21.341 26.4497 22.1899 26.1196C23.0701 25.779 23.8194 25.3179 24.5634 24.5739C25.3074 23.8299 25.7685 23.0806 26.1091 22.2003C26.4392 21.3463 26.6697 20.3717 26.7326 18.9465C26.7955 17.5161 26.8112 17.0602 26.8112 13.4187C26.8112 9.77716 26.7955 9.32131 26.7326 7.89089C26.6697 6.46571 26.4392 5.4859 26.1091 4.63708C25.779 3.74634 25.3232 2.99707 24.5739 2.25304C23.8299 1.50901 23.0806 1.04793 22.2003 0.70735C21.3463 0.377254 20.3717 0.14671 18.9465 0.0838341C17.5109 0.0157189 17.055 0 13.4135 0Z" fill="white"/>
<path d="M13.4136 6.52344C9.60958 6.52344 6.52344 9.60958 6.52344 13.4136C6.52344 17.2175 9.60958 20.3037 13.4136 20.3037C17.2175 20.3037 20.3037 17.2175 20.3037 13.4136C20.3037 9.60958 17.2175 6.52344 13.4136 6.52344ZM13.4136 17.883C10.9457 17.883 8.94415 15.8814 8.94415 13.4136C8.94415 10.9457 10.9457 8.94415 13.4136 8.94415C15.8814 8.94415 17.883 10.9457 17.883 13.4136C17.883 15.8814 15.8814 17.883 13.4136 17.883Z" fill="white"/>
<path d="M22.1844 6.25115C22.1844 7.14189 21.4613 7.85972 20.5759 7.85972C19.6851 7.85972 18.9673 7.13665 18.9673 6.25115C18.9673 5.36041 19.6904 4.64258 20.5759 4.64258C21.4613 4.64258 22.1844 5.36565 22.1844 6.25115Z" fill="white"/>
</g>
<defs>
<clipPath id="clip0_2892_1758">
<rect width="26.8269" height="26.8269" rx="4" fill="white"/>
</clipPath>
</defs>
</svg>
