<svg width="72" height="72" viewBox="0 0 72 72" fill="none" xmlns="http://www.w3.org/2000/svg">
<path d="M10.8001 47.3543H14.7983C15.7928 47.3543 16.5983 46.5321 16.5983 45.517C16.5983 44.5019 15.7928 43.6798 14.7983 43.6798H14.6813C15.5993 32.4934 24.8061 23.6745 36 23.6745C47.1939 23.6745 56.4007 32.4934 57.3188 43.6798H57.2018C56.2073 43.6798 55.4018 44.5019 55.4018 45.517C55.4018 46.5321 56.2073 47.3543 57.2018 47.3543H61.2C62.1945 47.3543 63 46.5321 63 45.517C63 44.5019 62.1945 43.6798 61.2 43.6798H60.9278C60.0008 30.465 49.1786 20 36.0004 20C22.8199 20 11.9975 30.4656 11.073 43.6798H10.8008C9.80628 43.6798 9.00081 44.5019 9.00081 45.517C9.00081 46.5321 9.80628 47.3543 10.8008 47.3543H10.8001Z" fill="white"/>
<path d="M61.1997 48.3255H42.5C42.563 47.9512 42.5967 47.5699 42.5967 47.1819C42.5967 45.9923 42.2907 44.8761 41.7575 43.9047L50.9377 34.5343C51.6398 33.8178 51.6398 32.6535 50.9377 31.9369C50.2357 31.2203 49.095 31.2203 48.393 31.9369L39.2128 41.3072C38.2611 40.7629 37.1653 40.4483 35.9998 40.4483C32.3616 40.4483 29.4029 43.4683 29.4029 47.1818C29.4029 47.5699 29.4367 47.9512 29.4997 48.3255H10.8C9.80547 48.3255 9 49.1476 9 50.1627C9 51.1778 9.80547 52 10.8 52H61.1996C62.1941 52 62.9996 51.1778 62.9996 50.1627C62.9996 49.1476 62.1942 48.3255 61.1997 48.3255ZM33.003 47.1819C33.003 45.4962 34.3484 44.1228 35.9999 44.1228C37.6514 44.1228 38.9969 45.4962 38.9969 47.1819C38.9969 47.5838 38.9137 47.9673 38.7719 48.3255H33.228C33.084 47.9673 33.003 47.5838 33.003 47.1819Z" fill="white"/>
</svg>
