<svg width="72" height="72" viewBox="0 0 72 72" fill="none" xmlns="http://www.w3.org/2000/svg">
<path d="M33.9231 43.2758L23.1536 32.9643L25.8465 30.3226L33.9228 38.0527L46.1533 26.3465L48.8462 28.9858L33.9231 43.2758Z" fill="white"/>
<path d="M36.5537 61.9973C35.4372 61.9973 34.3231 61.7304 33.3001 61.1941L25.8561 57.3013C17.9257 53.1531 13 45.0055 13 36.0429V15.2415L36.0049 10L59 15.2415V36.4119C59 45.1261 54.2707 53.167 46.6616 57.3922L39.9554 61.1156C38.8964 61.7052 37.7273 62 36.5557 62L36.5537 61.9973ZM16.8338 18.1804V36.0431C16.8338 43.6431 20.9881 50.5377 27.6799 54.0378L35.124 57.9307C36.044 58.4112 37.1413 58.3996 38.0493 57.8959L44.7555 54.1725C51.1789 50.607 55.168 43.8033 55.168 36.4119V18.1801L36.0063 13.8114L16.8338 18.1804Z" fill="white"/>
</svg>
