<svg width="63" height="16" viewBox="0 0 63 16" fill="none" xmlns="http://www.w3.org/2000/svg">
<g clip-path="url(#clip0_2654_4245)">
<path d="M8.20613 0C3.67367 0 0 3.58063 0 7.99828C0 12.4159 3.67367 15.9966 8.20613 15.9966C12.7386 15.9966 16.4123 12.4159 16.4123 7.99828C16.4123 3.58063 12.7409 0 8.20613 0ZM9.01947 13.4146C5.59571 13.4146 2.81944 10.7087 2.81944 7.37162C2.81944 4.03457 5.59798 1.32862 9.02175 1.32862C12.4455 1.32862 15.2218 4.03457 15.2218 7.37162C15.2218 10.7087 12.4455 13.4146 9.02175 13.4146H9.01947Z" fill="#171717"/>
<path d="M26.5517 5.44336H19.1589V15.0028H21.942V6.54168H25.9656C27.0266 6.54168 27.6127 7.41857 27.6127 8.12938V15.0028H30.3958V8.12052C30.3958 7.87252 30.3912 5.44557 26.5517 5.44557V5.44336Z" fill="#171717"/>
<path d="M48.1691 5.44336H45.386V15.0028H48.1691V5.44336Z" fill="#171717"/>
<path d="M42.6346 5.44336L38.8723 12.4917L35.1101 5.44336H31.9089L37.0139 15.0338H38.9746L44.0795 5.44336H42.6346Z" fill="#171717"/>
<path d="M56.032 6.54168H59.5558V5.44336H55.4459C51.6064 5.44336 51.6018 7.8703 51.6018 8.11831V15.0006H54.3849V10.4146H59.1445V9.31628H54.3849V8.12495C54.3849 7.41414 54.9733 6.53726 56.0343 6.53726L56.032 6.54168Z" fill="#171717"/>
</g>
<path d="M60.5952 4.627H60.3628V3.31171H60.956C61.111 3.31171 61.2353 3.34957 61.3291 3.4253C61.427 3.50103 61.4759 3.59669 61.4759 3.71227C61.4759 3.82786 61.427 3.92352 61.3291 3.99925C61.2353 4.07099 61.111 4.10686 60.956 4.10686H60.5768V3.90957H60.956C61.0417 3.90957 61.1089 3.89163 61.1579 3.85576C61.2109 3.8159 61.2374 3.76807 61.2374 3.71227C61.2374 3.65249 61.2109 3.60466 61.1579 3.56879C61.1089 3.52893 61.0417 3.509 60.956 3.509H60.5952V4.627ZM61.6044 4.627H61.3108L60.7909 4.07697H61.0722L61.6044 4.627ZM60.8888 5.33248C60.6441 5.33248 60.4198 5.27269 60.216 5.15312C60.0162 5.03355 59.8551 4.87412 59.7328 4.67483C59.6145 4.47156 59.5554 4.24636 59.5554 3.99925C59.5554 3.75213 59.6145 3.52893 59.7328 3.32964C59.8551 3.12637 60.0162 2.96495 60.216 2.84537C60.4198 2.7258 60.6441 2.66602 60.8888 2.66602C61.1375 2.66602 61.3617 2.7258 61.5615 2.84537C61.7613 2.96495 61.9204 3.12637 62.0386 3.32964C62.1609 3.52893 62.2221 3.75213 62.2221 3.99925C62.2221 4.24636 62.1609 4.47156 62.0386 4.67483C61.9204 4.87412 61.7613 5.03355 61.5615 5.15312C61.3617 5.27269 61.1375 5.33248 60.8888 5.33248ZM60.8888 5.02757C61.0804 5.02757 61.2517 4.98373 61.4025 4.89604C61.5575 4.80835 61.6778 4.68679 61.7634 4.53134C61.8531 4.3759 61.8979 4.19853 61.8979 3.99925C61.8979 3.79597 61.8531 3.61861 61.7634 3.46715C61.6778 3.31171 61.5575 3.19014 61.4025 3.10245C61.2517 3.01477 61.0804 2.97093 60.8888 2.97093C60.6971 2.97093 60.5238 3.01477 60.3689 3.10245C60.218 3.19014 60.0977 3.31171 60.008 3.46715C59.9224 3.61861 59.8796 3.79597 59.8796 3.99925C59.8796 4.19853 59.9224 4.3759 60.008 4.53134C60.0977 4.68679 60.218 4.80835 60.3689 4.89604C60.5238 4.98373 60.6971 5.02757 60.8888 5.02757Z" fill="#171717"/>
<defs>
<clipPath id="clip0_2654_4245">
<rect width="59.5558" height="15.9988" fill="white"/>
</clipPath>
</defs>
</svg>
