<svg width="58" height="48" viewBox="0 0 58 48" fill="none" xmlns="http://www.w3.org/2000/svg">
<path d="M28.9589 0C21.1211 0 14.7684 6.37235 14.7684 14.2343C14.7684 18.2895 18.316 24.5791 21.2861 29.1307C23.1837 32.11 24.9162 34.3445 25.8238 35.5031C28.2164 38.5651 28.4639 38.5651 28.9589 38.5651C29.4539 38.5651 29.7014 38.5651 32.094 35.5859C33.0015 34.4272 34.7341 32.11 36.6317 29.2135C39.6018 24.6618 43.1494 18.3722 43.1494 14.2343C43.1494 6.37235 36.7967 0 28.9589 0ZM28.9589 35.8341C26.2363 32.6893 16.996 19.9446 16.996 14.1516C16.996 7.53096 22.3587 2.1517 28.9589 2.1517C35.5591 2.1517 40.9218 7.53096 40.9218 14.1516C40.9218 19.9446 31.6815 32.6893 28.9589 35.8341Z" fill="white"/>
<path d="M28.9586 6.78711C25.4109 6.78711 22.6883 9.60088 22.6883 13.0767C22.6883 16.6353 25.4934 19.3663 28.9586 19.3663C32.5062 19.3663 35.2288 16.6353 35.2288 13.0767C35.2288 9.51812 32.5062 6.78711 28.9586 6.78711ZM28.9586 17.1318C26.731 17.1318 24.9159 15.3112 24.9159 13.0767C24.9159 10.8422 26.731 9.02157 28.9586 9.02157C31.2687 9.02157 33.0012 10.8422 33.0012 13.0767C33.0012 15.3112 31.1862 17.1318 28.9586 17.1318Z" fill="white"/>
<path d="M28.9586 42.6207C25.741 42.6207 9.48785 42.3725 9.48785 38.2346C9.48785 37.4898 9.48785 35.5036 18.9757 34.4277C19.5532 34.345 20.1307 34.7588 20.2133 35.4208C20.2958 36.0001 19.8832 36.5794 19.2232 36.6622C14.768 37.1587 12.7055 37.9035 11.9629 38.3173C13.448 39.1449 19.2232 40.469 28.9586 40.469C38.6939 40.469 44.4692 39.1449 45.9542 38.3173C45.2942 37.9863 43.3966 37.2415 38.3639 36.6622C37.7864 36.5794 37.2914 36.0829 37.3739 35.4208C37.4564 34.8415 37.9514 34.345 38.6114 34.4277C47.2743 35.4208 48.4293 36.9105 48.4293 38.2346C48.4293 42.3725 32.2587 42.6207 28.9586 42.6207Z" fill="white"/>
<path d="M29.0411 48C14.9331 48 0 44.8552 0 38.9794C0 33.4346 13.0355 31.2829 17.0781 30.7036C17.6557 30.6209 18.2332 31.0347 18.3157 31.6967C18.3982 32.276 17.9857 32.8553 17.3256 32.9381C7.42528 34.2622 2.14508 36.9932 2.14508 38.9794C2.14508 41.7932 12.3755 45.7655 28.9586 45.7655C45.5417 45.7655 55.7721 41.7932 55.7721 38.9794C55.7721 36.9932 50.6569 34.345 40.9215 33.0208C40.344 32.9381 39.9315 32.3588 40.014 31.7795C40.0965 31.2002 40.674 30.7036 41.2515 30.8691C45.2117 31.3657 57.9997 33.5174 57.9997 39.0622C58.0822 44.8552 43.1491 48 29.0411 48Z" fill="white"/>
</svg>
