<svg width="48" height="48" viewBox="0 0 48 48" fill="none" xmlns="http://www.w3.org/2000/svg">
<path d="M20.086 21.501L26.5 27.915L17.707 36.708C17.316 37.099 16.684 37.099 16.293 36.708L11.294 31.709C10.903 31.318 10.903 30.686 11.294 30.295L20.086 21.501ZM0 46.586V48H1.414L9.085 40.329L7.671 38.915L0 46.586ZM8.293 35.293C7.902 35.684 7.902 36.316 8.293 36.707L11.293 39.707C11.684 40.098 12.316 40.098 12.707 39.707L14.586 37.828L10.172 33.414L8.293 35.293ZM48 0H46.586L38.914 7.672L40.328 9.086L48 1.414V0ZM36.707 8.293C36.316 7.902 35.684 7.902 35.293 8.293L33.414 10.172L37.828 14.586L39.707 12.707C40.098 12.316 40.098 11.684 39.707 11.293L36.707 8.293ZM31.707 11.294C31.316 10.903 30.684 10.903 30.293 11.294L21.5 20.086L27.914 26.5L36.707 17.707C37.098 17.316 37.098 16.684 36.707 16.293L31.707 11.294Z" fill="white"/>
</svg>
