<svg width="80" height="80" viewBox="0 0 80 80" fill="none" xmlns="http://www.w3.org/2000/svg">
<mask id="mask0_315_4765" style="mask-type:alpha" maskUnits="userSpaceOnUse" x="0" y="0" width="80" height="80">
<path d="M35.7048 0.000214991C26.8264 0.000214991 18.9389 5.63359 16.1902 13.9531L15.1992 19.6661V38.6018C15.1992 39.5488 15.6925 40.3896 16.5175 40.8764L31.9652 49.6612V23.6399H31.9696V22.4053L47.6055 13.4928C49.1173 12.629 50.7641 12.0388 52.4693 11.7304L50.9641 6.69121C47.0809 2.40755 41.5252 -0.0263365 35.7048 0.000214991ZM35.7048 5.1999L35.678 5.22644C39.2516 5.22644 42.6864 6.44341 45.4352 8.69586C45.323 8.74896 45.1034 8.88614 44.942 8.9658L28.777 18.1526C27.952 18.6129 27.4586 19.4802 27.4586 20.4273V41.9916L20.5039 38.0354V20.2105C20.4993 11.9308 27.3018 5.21318 35.7048 5.1999Z" fill="#1A1A1A"/>
<path d="M72.9599 16.3346C68.5207 8.74654 59.6334 4.822 50.9586 6.63249L45.4498 8.64204L28.8331 18.1099C28.0019 18.5834 27.5107 19.4254 27.4961 20.3739L27.5111 37.969L50.3454 24.9583L50.3476 24.9621L51.4312 24.3447L67.0701 33.2522C68.5841 34.1124 69.9253 35.2246 71.0487 36.5278L74.7179 32.7218C76.5355 27.2612 75.8933 21.2957 72.9599 16.3346ZM68.3971 18.9345L68.3603 18.9248C70.1471 21.9791 70.7967 25.5233 70.1945 28.9988C70.0917 28.9296 69.8615 28.8104 69.7109 28.7122L53.5666 19.4898C52.7502 19.0148 51.7426 19.0269 50.9114 19.5004L31.9881 30.2826L31.9823 22.3603L47.6244 13.4479C54.8878 9.30427 64.1839 11.7593 68.3971 18.9345Z" fill="#1A1A1A"/>
<path d="M77.2426 56.3289C81.6816 48.7407 80.682 39.1828 74.7558 32.6738L70.238 28.9704L53.6213 19.5025C52.7901 19.029 51.8057 19.0302 50.9661 19.4919L35.5332 28.3022L58.3677 41.3126L58.3655 41.3166L59.4489 41.9338L59.4519 59.7537C59.4541 61.4777 59.1485 63.1801 58.5667 64.7919L63.7413 66.0249C69.442 64.8479 74.3556 61.3165 77.2426 56.3289ZM72.6796 53.7289L72.6698 53.6927C70.883 56.7471 68.0976 59.0743 64.7465 60.2973C64.7561 60.1749 64.7455 59.9185 64.7563 59.7407L64.7771 41.3316C64.7857 40.3962 64.2713 39.541 63.4403 39.0676L44.5168 28.2854L51.4659 24.3194L67.108 33.232C74.3758 37.3678 76.8696 46.5405 72.6796 53.7289Z" fill="#1A1A1A"/>
<path d="M44.2899 79.9989C53.1683 79.9989 61.0557 74.3655 63.8046 66.0461L64.7954 60.333V41.3973C64.7954 40.4503 64.3022 39.6095 63.4772 39.1227L48.0295 30.3379V56.3592H48.0251V57.5938L32.3892 66.5063C30.8774 67.3701 29.2306 67.9603 27.5254 68.2689L29.0306 73.3079C32.9138 77.5915 38.4694 80.0255 44.2899 79.9989ZM44.2899 74.7993L44.3167 74.7727C40.7431 74.7727 37.3082 73.5557 34.5594 71.3033C34.6716 71.2501 34.8912 71.1129 35.0526 71.0333L51.2177 61.8464C52.0427 61.3862 52.5361 60.5188 52.5361 59.5718V38.0075L59.4907 41.9637V59.7886C59.4953 68.0683 52.6929 74.7859 44.2899 74.7993Z" fill="#1A1A1A"/>
<path d="M7.04543 63.6654C11.4846 71.2536 20.3719 75.178 29.0468 73.3676L34.5556 71.358L51.1723 61.8901C52.0033 61.4167 52.4945 60.5747 52.5093 59.6261L52.4943 42.0312L29.66 55.0417L29.6578 55.0379L28.5742 55.6553L12.9353 46.7479C11.4214 45.8879 10.0801 44.7755 8.95672 43.4723L5.28738 47.2783C3.46993 52.7389 4.11198 58.7043 7.04543 63.6654ZM11.6083 61.0655L11.6451 61.0753C9.85821 58.0209 9.2087 54.4769 9.81094 51.0013C9.91359 51.0705 10.1438 51.1897 10.2944 51.2879L26.4388 60.5103C27.2552 60.9853 28.2628 60.9731 29.094 60.4997L48.0173 49.7175L48.0231 57.6397L32.381 66.5522C25.1176 70.6958 15.8215 68.2408 11.6083 61.0655Z" fill="#1A1A1A"/>
<path d="M2.75329 23.6668C-1.68589 31.255 -0.686194 40.8128 5.24007 47.3219L9.75793 51.0253L26.3745 60.4931C27.2057 60.9667 28.1901 60.9655 29.0297 60.5037L44.4626 51.6935L21.6281 38.683L21.6303 38.679L20.5469 38.0618L20.5439 20.2419C20.5417 18.518 20.8473 16.8154 21.4291 15.2038L16.2545 13.9707C10.5539 15.1477 5.64015 18.6791 2.75329 23.6668ZM7.3162 26.2668L7.32604 26.303C9.1129 23.2485 11.8982 20.9213 15.2492 19.6984C15.2398 19.8207 15.2503 20.0771 15.2395 20.2549L15.2187 38.664C15.21 39.5994 15.7245 40.4546 16.5556 40.928L35.479 51.7103L28.5299 55.6763L12.8879 46.7637C5.62003 42.6278 3.1263 33.4552 7.3162 26.2668Z" fill="#1A1A1A"/>
</mask>
<g mask="url(#mask0_315_4765)">
<path fill-rule="evenodd" clip-rule="evenodd" d="M12.3105 53.9985C15.0586 55.2405 18.0992 56.8881 20.943 58.2397L39.9361 67.6924L64.186 55.6395C64.8192 55.3213 65.2922 55.1207 65.926 54.8025C66.8706 54.3279 67.4212 54.2003 67.561 53.7537C66.7954 53.6015 46.3207 43.3337 43.4335 41.8403C42.9877 41.6095 40.1855 40.1816 39.9361 40.1816L19.1732 50.4453C18.4433 50.8215 12.6777 53.5305 12.3105 53.9985Z" fill="white"/>
<path fill-rule="evenodd" clip-rule="evenodd" d="M41.0742 38.5965C41.6982 38.7209 54.1111 44.9951 54.5207 45.2062C55.0349 45.471 55.5763 45.7442 56.1523 46.0132L66.2053 50.9972C66.4983 51.1448 66.7375 51.2808 67.0139 51.4284C67.2961 51.5794 67.6973 51.8576 67.6973 51.3126V25.7581C67.6973 25.1151 62.1137 22.6902 61.2277 22.2366L49.5637 16.4281C48.4047 15.8747 41.804 12.4537 41.0742 12.3086V38.5965Z" fill="white"/>
<path fill-rule="evenodd" clip-rule="evenodd" d="M12.3105 25.3915V51.6796C13.3968 51.1886 14.4987 50.6168 15.5742 50.0656C16.7175 49.48 17.7857 48.9876 18.9213 48.4004L35.5812 40.1345C36.7362 39.5545 37.7815 38.9953 38.9337 38.4743V12.3086C38.2913 12.3545 36.2368 13.4796 35.5612 13.8291L28.9588 17.115C24.7128 19.1322 19.7571 21.8124 15.6518 23.7216L12.3105 25.3915Z" fill="white"/>
</g>
</svg>
