<svg width="60" height="59" viewBox="0 0 60 59" fill="none" xmlns="http://www.w3.org/2000/svg">
<path fill-rule="evenodd" clip-rule="evenodd" d="M6.28765 23.6505V41.8747C6.28765 43.0555 7.24196 44.0179 8.41286 44.0179C9.58376 44.0179 10.5381 43.0555 10.5381 41.8747V23.6505C10.5381 22.4697 9.58376 21.5073 8.41286 21.5073C7.2352 21.5073 6.28765 22.4697 6.28765 23.6505ZM55.2149 25.2204V40.3117C58.0778 38.9602 60 35.9979 60 32.7694C60 29.5341 58.0778 26.5718 55.2149 25.2204ZM49.3942 23.6505V41.8747C49.3942 43.0555 50.3486 44.0179 51.5195 44.0179C52.6904 44.0179 53.6447 43.0555 53.6447 41.8747V23.6505C53.6447 22.4697 52.6904 21.5073 51.5195 21.5073C50.3486 21.5073 49.3942 22.4697 49.3942 23.6505ZM29.6785 13.2689C29.6108 13.3371 29.6041 13.4258 29.6582 13.5009L30.1861 14.32C30.5178 14.8319 30.5651 15.4462 30.3215 16.0059C30.2741 16.1083 30.2335 16.2107 30.1929 16.313C29.9763 16.8864 29.5093 17.2823 28.9205 17.412L28.1286 17.5826C28.9137 17.7123 29.5499 18.3061 29.7191 19.1183L29.9628 20.2719C29.9898 20.4152 30.0643 20.4971 30.1997 20.5517C30.3486 20.6131 30.5042 20.6746 30.6531 20.7428C30.7817 20.8043 30.8968 20.7906 31.0186 20.7155L31.3232 20.5176C31.1066 19.9238 30.9848 19.2958 30.9848 18.661C30.9848 15.7465 33.3401 13.3712 36.2301 13.3712C39.1201 13.3712 41.4755 15.7465 41.4755 18.661C41.4755 21.5482 39.1607 23.9099 36.3046 23.9508C36.2572 24.0532 36.203 24.1624 36.1421 24.2648L35.5059 25.2477C35.4315 25.3705 35.4179 25.4866 35.4788 25.6163C35.5465 25.7664 35.6074 25.9166 35.6684 26.0736C35.7225 26.2101 35.8037 26.2852 35.9459 26.3125L37.0897 26.5582C37.1777 26.5787 37.2589 26.5991 37.3401 26.6333L37.4619 26.0394C37.5905 25.4388 37.9831 24.9747 38.5516 24.7494C38.6531 24.7085 38.7547 24.6675 38.8562 24.6197C39.4112 24.3672 40.0203 24.4218 40.5279 24.7562L41.3401 25.2886C41.4213 25.3364 41.5093 25.3296 41.5702 25.2682L42.7479 24.0396C42.8156 23.9713 42.8223 23.8826 42.7682 23.8075L42.2403 22.9884C41.9086 22.4765 41.8613 21.8622 42.1049 21.3025C42.1523 21.2001 42.1929 21.0978 42.2335 20.9954C42.4501 20.422 42.9171 20.0261 43.5127 19.8965L44.4602 19.6917C44.5482 19.6712 44.6091 19.603 44.6091 19.5074V17.801C44.6091 17.7055 44.555 17.6372 44.4602 17.6167L43.5127 17.412C42.9171 17.2891 42.4569 16.8864 42.2335 16.313C42.1929 16.2107 42.1523 16.1083 42.1049 16.0059C41.8545 15.4462 41.9086 14.8319 42.2403 14.32L42.7682 13.5009C42.8223 13.4258 42.8088 13.3303 42.7479 13.2689L41.5499 12.0607C41.4822 11.9925 41.3942 11.9857 41.3198 12.0334L40.5076 12.5658C40 12.9003 39.3909 12.9481 38.8359 12.7023C38.7343 12.6546 38.6328 12.6136 38.5313 12.5727C37.9628 12.3542 37.5702 11.8833 37.4416 11.2826L37.2386 10.327C37.2183 10.2383 37.1506 10.1769 37.0558 10.1769H35.3638C35.269 10.1769 35.2014 10.2315 35.1811 10.327L34.978 11.2826C34.8494 11.8764 34.4569 12.3474 33.8883 12.5727C33.7868 12.6136 33.6853 12.6546 33.5838 12.7023C33.0288 12.9481 32.4196 12.9003 31.912 12.5658L31.0998 12.0334C31.0254 11.9857 30.9306 11.9925 30.8697 12.0607L29.6785 13.2689ZM9.25212 19.7804C8.98139 19.719 8.70389 19.6917 8.41286 19.6917C8.15567 19.6917 7.90525 19.719 7.66836 19.7668C8.35871 14.5043 10.8629 9.64449 14.7953 6.00648C18.9645 2.12957 24.3655 0 30.0034 0C35.6413 0 41.0423 2.12957 45.2183 5.99965C49.2115 9.6991 51.736 14.6613 52.379 20.0261C52.1015 19.9579 51.8173 19.9238 51.5195 19.9238C51.269 19.9238 51.0186 19.9511 50.7817 19.9988H50.7885C49.4416 9.61037 40.4602 1.58353 30.0034 1.58353C19.6142 1.58353 10.6937 9.50115 9.25212 19.7804ZM50.7411 20.0057C50.7276 20.0057 50.714 20.0125 50.7005 20.0125C50.714 20.0125 50.7276 20.0125 50.7411 20.0057ZM50.9848 45.5605C50.9509 52.5772 44.4941 53.8194 36.555 54.4269C36.176 52.7751 34.7073 51.5465 32.9543 51.5465H26.8291C24.7919 51.5465 23.1337 53.2188 23.1337 55.2733C23.1337 57.3277 24.7919 59 26.8291 59H32.9543C34.7411 59 36.2301 57.7168 36.5753 56.0172C40.3046 55.7374 44.4264 55.2733 47.4518 53.8058C50.9103 52.1267 52.5821 49.3896 52.5618 45.4581C52.2301 45.5537 51.8849 45.6083 51.5262 45.6083C51.3367 45.6015 51.1607 45.5878 50.9848 45.5605ZM19.3841 24.374L18.7479 23.3911C18.6464 23.2341 18.6667 23.0362 18.7953 22.9065L20.2369 21.4527C20.3655 21.3162 20.5618 21.3025 20.7174 21.3981L21.692 22.0397C22.2606 22.4083 22.9374 22.4629 23.5533 22.1898C23.6751 22.1352 23.8037 22.0806 23.9255 22.0329C24.555 21.7871 24.9949 21.2684 25.1371 20.5995L25.3807 19.446C25.4213 19.2617 25.5702 19.1388 25.753 19.1388H27.7902C27.9797 19.1388 28.1286 19.2617 28.1692 19.446L28.4129 20.5995C28.5482 21.2684 28.9949 21.7871 29.6244 22.0329C29.753 22.0806 29.8748 22.1352 29.9966 22.1898C30.6125 22.4697 31.2893 22.4151 31.8579 22.0397L32.8325 21.3981C32.9882 21.2957 33.1777 21.3162 33.313 21.4459L34.7547 22.8997C34.89 23.0294 34.9036 23.2273 34.8088 23.3843L34.1726 24.3672C33.8071 24.9405 33.753 25.6231 34.0237 26.2442C34.0778 26.3671 34.132 26.4968 34.1794 26.6264C34.423 27.2612 34.9374 27.7049 35.6007 27.8482L36.7377 28.0939C36.9205 28.1349 37.0423 28.2851 37.0423 28.4693V30.5238C37.0423 30.7081 36.9205 30.8651 36.7377 30.8992L35.6007 31.145C34.9374 31.2883 34.423 31.732 34.1794 32.3667C34.132 32.4964 34.0778 32.6193 34.0237 32.749C33.7462 33.3701 33.8003 34.0526 34.1726 34.626L34.8088 35.6089C34.9103 35.7659 34.89 35.9638 34.7547 36.0935L33.313 37.5473C33.1777 37.677 32.9882 37.6975 32.8325 37.5951L31.8579 36.9535C31.2893 36.5849 30.6125 36.5303 29.9966 36.8033C29.8748 36.8579 29.7462 36.9125 29.6244 36.9603C28.9949 37.206 28.555 37.7248 28.4129 38.3937L28.1692 39.5472C28.1286 39.7315 27.9797 39.8543 27.7902 39.8543H25.753C25.5635 39.8543 25.4146 39.7315 25.3807 39.5472L25.1371 38.3937C24.9949 37.7248 24.555 37.206 23.9255 36.9603C23.8037 36.9125 23.6751 36.8579 23.5533 36.8033C23.2961 36.6873 23.0186 36.6259 22.7547 36.6259C22.3892 36.6259 22.0237 36.7351 21.692 36.9467L20.7174 37.5883C20.5618 37.6907 20.3723 37.6702 20.2369 37.5405L18.7953 36.0867C18.6667 35.957 18.6464 35.759 18.7479 35.602L19.3841 34.6192C19.7563 34.0458 19.8105 33.3633 19.533 32.7421C19.4788 32.6193 19.4247 32.4896 19.3773 32.3599C19.1337 31.7251 18.6193 31.2815 17.956 31.1381L16.8122 30.8924C16.6294 30.8515 16.5076 30.7013 16.5076 30.517V28.4625C16.5076 28.2782 16.6294 28.1212 16.8122 28.0871L17.956 27.8414C18.6193 27.6981 19.1337 27.2544 19.3773 26.6196C19.4247 26.4899 19.4788 26.3671 19.533 26.2374C19.8037 25.6299 19.7496 24.9474 19.3841 24.374ZM20.6227 29.5C20.6227 26.0804 23.3841 23.2956 26.775 23.2956C30.1658 23.2956 32.9272 26.0804 32.9272 29.5C32.9272 32.9196 30.1658 35.7044 26.775 35.7044C23.3841 35.7044 20.6227 32.9196 20.6227 29.5ZM4.71066 40.2707V25.2545C1.85448 26.6264 0 29.5205 0 32.7626C0.00676819 36.0116 1.86125 38.9056 4.71066 40.2707Z" fill="white"/>
</svg>
