<svg width="58" height="58" viewBox="0 0 58 58" fill="none" xmlns="http://www.w3.org/2000/svg">
<path fill-rule="evenodd" clip-rule="evenodd" d="M5.38852 1.34961H52.211C54.4835 1.34961 56.3398 3.17211 56.3398 5.41086V52.1771C56.3398 54.4046 54.4835 56.2383 52.211 56.2383H5.38852C3.11602 56.2383 1.25977 54.4158 1.25977 52.1771V5.41086C1.25977 3.17211 3.11602 1.34961 5.38852 1.34961Z" fill="#171717"/>
<path fill-rule="evenodd" clip-rule="evenodd" d="M56.3398 37.8223V52.1773C56.3398 54.4048 54.4835 56.2385 52.211 56.2385H5.38852C3.11602 56.2385 1.25977 54.416 1.25977 52.1773V37.8223H56.3398Z" fill="#171717"/>
<path fill-rule="evenodd" clip-rule="evenodd" d="M10.9345 10.3158H20.3283V11.4858C22.6233 7.63828 26.8195 5.05078 31.612 5.05078C37.7433 5.05078 42.8958 9.26953 44.347 14.962C44.9995 13.2633 46.192 11.8345 47.7108 10.912C50.377 9.61828 52.2783 9.82078 55.057 11.1033V15.3558C53.257 13.5558 50.9508 12.1945 48.6558 14.4333C47.8683 15.2545 47.3058 16.4133 47.2945 17.977C47.2945 19.1358 47.6433 20.2158 48.2845 21.0595C50.4108 23.8158 53.3133 22.747 55.012 20.5308L55.057 24.952C52.4358 26.1558 50.557 26.3245 47.9808 25.1995C46.4058 24.322 45.1458 22.9158 44.437 21.2058C43.1095 27.0895 37.867 31.4883 31.612 31.4883C24.3558 31.4883 18.4608 25.5708 18.4608 18.2808C18.4608 16.537 18.7983 14.8608 19.417 13.3308H17.4145V25.537H13.7358V13.3195H10.9345V12.892L10.867 13.1058C10.6195 13.477 10.372 13.882 10.1245 14.2533C9.30328 13.2745 7.28953 12.4083 6.49078 13.612C5.93953 14.4333 6.49078 15.2095 7.34578 15.6933C8.72953 16.312 9.83203 16.3233 11.0133 17.5158C11.9583 18.4833 12.262 19.867 12.1383 21.1833C11.9245 23.647 10.1245 25.4358 8.32453 25.762C4.90453 26.2458 3.25078 24.6708 1.95703 22.6795L4.38703 20.5083C4.47703 21.1045 4.73578 21.5433 5.08453 21.8808C5.68078 22.4433 6.73828 22.9383 7.57078 22.7133C7.88578 22.6345 8.13328 22.4545 8.31328 22.2183C8.77453 21.6108 8.77453 20.632 8.29078 20.092C7.94203 19.7095 7.36828 19.462 6.76078 19.1695C5.34328 18.6183 3.30703 17.6058 2.81203 16.0195C2.58703 15.2995 2.59828 14.467 2.80078 13.657C3.14953 12.2508 4.02703 10.9795 5.37703 10.3833C6.96328 9.67453 8.87578 10.0683 10.912 11.047V10.3158H10.9345Z" fill="white"/>
<path fill-rule="evenodd" clip-rule="evenodd" d="M31.6124 9.43945C36.4612 9.43945 40.3987 13.3882 40.3987 18.2707C40.3987 23.1419 36.4612 27.1019 31.6124 27.1019C26.7637 27.1019 22.8262 23.1532 22.8262 18.2707C22.8262 13.3882 26.7637 9.43945 31.6124 9.43945Z" fill="#171717"/>
<path fill-rule="evenodd" clip-rule="evenodd" d="M40.0057 37.9466L28.5645 19.4629L51.5707 37.8229C51.5707 37.8229 39.927 37.8229 40.0057 37.9466Z" fill="white"/>
<path d="M5.91687 50.5803V42.0303L6.55812 41.5916V50.2316L5.91687 50.5803ZM49.2069 49.5791L48.6556 48.6003L49.1956 47.5541L49.7244 48.6003L49.2069 49.5791ZM49.2181 46.1591L48.6894 45.1353L49.2181 44.0891L49.7694 45.1353L49.2181 46.1591ZM45.2919 50.4903L45.2244 50.3103L45.0781 49.9053L44.9994 49.6241L44.8981 49.6466L44.8081 49.6578C44.7181 49.6578 44.6169 49.6353 44.5044 49.5791C44.4031 49.5228 44.2906 49.4328 44.1894 49.2978C43.9869 49.0278 43.8406 48.6791 43.7281 48.2403C43.6719 48.0041 43.6381 47.7116 43.6381 47.3628C43.6381 46.7891 43.7394 46.2828 43.9306 45.8216C44.1219 45.3716 44.3919 45.1466 44.7406 45.1466H45.1006V44.3928H43.2444V43.4928H46.5406V44.3928H45.6744V45.8441H45.1231H44.7631C44.6169 45.8441 44.5044 45.9678 44.4144 46.2266C44.3694 46.3503 44.3356 46.5078 44.3131 46.6878L44.2794 47.1828C44.2794 47.8016 44.3919 48.2628 44.6281 48.5778L44.7519 48.6566L44.8981 48.6791L44.8531 48.5891L44.8194 48.4991L44.7519 48.2291V47.9591C44.7519 47.6103 44.8081 47.3516 44.9319 47.1828L45.1231 47.0028C45.2019 46.9578 45.2806 46.9241 45.3594 46.9128C45.5056 46.9128 45.6181 46.9916 45.6969 47.1491C45.7531 47.2841 45.7981 47.5316 45.8431 47.8916C45.8431 48.3078 45.7644 48.6341 45.6181 48.8928L45.4494 49.1291L45.5281 49.4328L45.6519 49.7928L45.7756 50.0853L45.8094 50.1528L45.8431 50.1641C45.8094 50.3216 45.6969 50.4678 45.5056 50.6366L45.4494 50.6591L45.3706 50.7153L45.2919 50.4903ZM44.0544 48.4091L43.8856 48.7016L43.7506 48.8816C43.6719 48.9828 43.5369 49.0953 43.3569 49.2191C43.2331 49.2978 43.0981 49.3428 42.9631 49.3428H42.6819L42.5019 49.2528C42.1081 49.0166 41.9169 48.5441 41.9169 47.8128C41.9169 47.2166 42.0406 46.7553 42.2994 46.4403L42.0519 46.2828C41.9956 46.2378 41.9281 46.1591 41.8719 46.0578C41.7031 45.7878 41.6131 45.4391 41.6131 45.0116C41.6131 44.5728 41.7144 44.1678 41.9169 43.7966C42.1194 43.4253 42.3894 43.2453 42.7381 43.2453C43.0419 43.2453 43.2556 43.4478 43.3681 43.8641L43.4131 44.2803C43.4131 44.7641 43.3231 45.0903 43.1319 45.2591L43.0081 45.3716L42.8394 45.4616L42.5919 44.9328L42.6481 44.8878L42.7044 44.8203L42.7381 44.7641L42.7719 44.7078L42.8056 44.5841V44.4266C42.8056 44.3591 42.8056 44.3028 42.8056 44.2691L42.7719 44.1566L42.7044 44.1003H42.6256C42.5919 44.1003 42.5469 44.1228 42.5131 44.1566L42.4231 44.2803C42.3669 44.3928 42.3331 44.5503 42.3331 44.7528C42.3331 45.0678 42.4006 45.3266 42.5356 45.5178C42.6031 45.6303 42.6819 45.7091 42.7606 45.7766L42.9069 45.8441H43.0081L43.2219 45.7991C43.3006 45.7766 43.3456 45.7541 43.3794 45.7316L43.4806 45.6641L43.5931 45.5966L43.7281 45.4841L43.5931 46.4066L43.3119 46.4853L43.1206 46.5641C42.8056 46.6991 42.6481 47.0141 42.6481 47.5203C42.6481 47.7341 42.7044 47.9141 42.8169 48.0716L42.9856 48.2516L43.1881 48.3078C43.4019 48.3078 43.6156 48.1391 43.8069 47.8128L43.9306 47.6103L44.0769 47.3178L44.0544 48.4091ZM43.6269 44.4041V43.5041H43.8631V44.4041H43.6269ZM39.9931 50.3778V44.4041H39.4419V43.5153H39.9481L39.8694 43.3241L39.8131 43.0991L39.7681 42.8403V42.5478C39.7681 41.8503 39.9706 41.3216 40.3756 40.9728C40.6906 40.7141 41.1406 40.5791 41.7256 40.5791C42.3219 40.5791 42.8056 40.7141 43.1769 40.9728C43.6381 41.2878 43.8744 41.8053 43.8744 42.5478C43.8744 42.9753 43.8069 43.2678 43.6831 43.4366L43.5931 43.5491L43.4806 43.6278H42.8844L42.8619 43.4253L42.8956 43.4028L42.9294 43.3466L42.9631 43.3016L42.9856 43.2566C43.0419 43.1328 43.0756 42.9303 43.1094 42.6603C43.1094 42.1428 42.9406 41.7716 42.6144 41.5353C42.4569 41.4228 42.3219 41.3778 42.1981 41.3778L41.6469 41.3328L41.2531 41.3778C41.1744 41.3778 41.0844 41.4116 40.9831 41.4678C40.6681 41.6253 40.5106 42.0078 40.5106 42.5928C40.5106 42.7503 40.5106 42.8516 40.5106 42.8853L40.5669 43.1778L40.6344 43.4028L40.6681 43.5153H41.7594V44.4041H40.7356L40.7244 49.5678L39.9931 50.3778ZM39.4194 52.9316L39.1719 53.1341L38.9131 53.2691L38.6544 53.3253C38.4069 53.3253 38.1706 53.1903 37.9681 52.9091C37.7206 52.5716 37.5856 52.1778 37.5856 51.7278C37.5856 51.3116 37.6869 50.9628 37.8894 50.6816C38.0919 50.4003 38.3506 50.2541 38.6544 50.2541C38.7444 50.2541 38.8119 50.2541 38.8344 50.2541L39.0706 50.3666L39.1381 50.4341L39.1269 51.0191H39.0706H38.9694H38.7331C38.5981 51.0191 38.4744 51.1091 38.3844 51.3003C38.3506 51.3791 38.3394 51.4916 38.3169 51.6491C38.3169 51.8178 38.3506 51.9753 38.4069 52.1103C38.4631 52.2453 38.5419 52.3353 38.6319 52.3916L38.8006 52.4478C38.9356 52.4478 39.0819 52.3578 39.2169 52.1778L39.3069 52.0653L39.4081 51.9078L39.5881 52.7291L39.4194 52.9316ZM37.2594 48.8366C37.0344 49.6016 36.7194 49.9953 36.3144 49.9953C36.1794 49.9953 36.0669 49.9503 35.9769 49.8603L35.8531 49.7141C35.7856 49.6016 35.7181 49.4441 35.6506 49.2078L35.5944 48.8591L35.5719 48.4541C35.5719 47.8016 35.7631 47.2728 36.1569 46.9016L36.4044 46.7103L36.7531 46.5303V46.2153C36.7531 46.0803 36.7419 45.9453 36.7194 45.8103C36.7081 45.5403 36.6744 45.3041 36.6294 45.1128C36.6181 44.9666 36.5844 44.8541 36.5506 44.7753L36.4494 44.4153H35.2006V43.5153H39.8694V44.4153H38.8456V49.5791L38.1144 50.3891V47.3853L37.9906 47.3628L37.5069 47.1491L37.4956 47.6216C37.4506 48.0266 37.3831 48.4316 37.2594 48.8366ZM38.1031 44.4041H37.1581L37.2594 44.8203L37.3494 45.2141L37.4506 45.8441C37.4731 46.0241 37.4844 46.2153 37.4844 46.4066L38.1031 46.5303V44.4041ZM36.5956 47.3853L36.4831 47.5653C36.3594 47.7566 36.2694 48.0153 36.2244 48.3303L36.1906 48.7241V48.8591L36.2019 49.0391L36.2244 49.1628L36.2694 49.2416H36.3369C36.4381 49.2416 36.5394 49.0053 36.6294 48.5441C36.6856 48.2403 36.7306 47.8916 36.7531 47.5091V47.1716L36.5956 47.3853ZM33.9294 50.3778V47.0478L32.6581 47.0366L32.4894 47.2841L32.3094 47.4416L32.1069 47.5428H31.9044H31.8706H31.8369H31.8031C31.8031 47.9028 31.8594 48.3078 31.9831 48.7466C32.1406 49.3203 32.3094 49.6016 32.5119 49.6016C32.6131 49.6016 32.6806 49.5341 32.7256 49.3991L32.7706 49.1741V48.9041V48.7578V48.7016V48.5778V48.4991L33.4794 48.2066C33.4794 48.5778 33.4456 48.9603 33.3781 49.3316C33.2319 50.0628 32.9394 50.4341 32.5006 50.4341C32.0844 50.4341 31.7469 50.0403 31.4769 49.2641C31.2744 48.6228 31.1506 47.8803 31.0944 47.0366L31.0606 46.4741L31.0269 45.8666L31.7356 45.4503L31.7694 46.6991L31.8031 46.7441L31.8481 46.7666H31.8931H31.9381L32.0731 46.7216L32.1744 46.5978C32.2531 46.4403 32.2981 46.1928 32.2981 45.8553L32.2869 45.5853L32.2081 44.7753L32.1744 44.5841L32.1519 44.3928H30.6106V43.4928H35.6731V44.3928H34.6494V49.5566L33.9294 50.3778ZM33.9294 45.9791V44.4041H32.9281L32.9506 44.6741L32.9844 44.9553L33.0181 45.2366V45.4391V45.7428L32.9844 45.9791H33.9294ZM28.6531 41.6141L28.5406 41.4678L28.3719 41.3328L28.2031 41.2428L28.0456 41.1978C27.9444 41.1978 27.8544 41.3103 27.7644 41.5353L27.6969 41.8841L27.6631 42.2328V42.5028C27.6744 42.6941 27.7194 42.9866 27.7756 43.3803C27.7869 43.4703 27.7981 43.5266 27.8094 43.5378L27.8431 43.7291L27.3706 43.7178L27.2806 43.4928L27.2131 43.2791C27.1006 42.9416 27.0444 42.5703 27.0444 42.1766C27.0444 41.5578 27.1344 41.1078 27.3031 40.8041C27.5056 40.4778 27.7756 40.3203 28.1131 40.3203C28.1919 40.3203 28.2481 40.3203 28.2819 40.3316C28.3156 40.3316 28.3719 40.3541 28.4394 40.3878C28.5181 40.4216 28.5631 40.4441 28.6081 40.4666C28.6419 40.4891 28.6869 40.5228 28.7431 40.5903L28.8444 40.7028L28.9794 40.8491L28.6531 41.6141ZM27.8094 43.3803L27.7194 43.5153L27.4831 43.7853C27.4044 43.8416 27.3256 43.8641 27.2469 43.8641H27.2131H27.1794L27.1456 43.8191L27.1006 43.7741L26.6056 42.8066L26.1894 42.0866C26.0994 41.9178 26.0206 41.8391 25.9869 41.8391C25.9306 41.8391 25.8631 41.8616 25.8181 41.8953C25.7506 41.9178 25.6831 41.9628 25.6156 42.0416L25.5256 42.1316L25.4131 42.2553L25.1206 41.4341L25.5256 41.0853L25.9306 40.8041L26.2006 40.7141C26.2794 40.7141 26.4481 40.9391 26.6956 41.4003L27.4944 42.8853L27.5731 42.8628L27.6744 42.7728L27.6969 42.7616L27.7306 42.7053L27.9106 43.1666L27.8094 43.3803ZM26.5044 44.4041V43.5041H28.8106V44.4041H27.7869L27.7756 49.5678L27.0444 50.3778V44.4041H26.5044ZM26.0206 45.2928L25.9869 45.6528L25.9644 45.9791C25.9644 46.0691 25.9531 46.1253 25.9419 46.1366V46.2941V46.4741V46.6316L25.9644 47.2616C25.9644 47.4303 25.9869 47.5878 26.0431 47.7228C26.1331 48.0491 26.2681 48.2178 26.4594 48.2178L26.6169 48.1728L26.7856 48.0491L26.8756 47.9591L26.9994 47.7791L26.0206 45.2928ZM27.1906 48.5441L27.0669 48.7241C26.9544 48.8591 26.8306 48.9716 26.6956 49.0503L26.4819 49.1178H26.3019C25.9531 49.1178 25.6831 48.8816 25.4806 48.3978C25.3906 48.2066 25.3231 47.9141 25.2556 47.5428C25.2444 47.4753 25.2331 47.3853 25.2219 47.2503C25.2106 47.1153 25.1994 47.0141 25.1994 46.9241V46.5303V46.0128L25.2669 45.3378L25.3119 44.9328L25.3906 44.4041L24.8619 44.3928V43.4928H26.9544V44.3928H26.2119L27.3369 47.2278V48.2741L27.1906 48.5441ZM22.7131 50.3778V48.5666L22.6456 48.6566L22.5781 48.7353L22.4994 48.8253L22.4094 48.9041L22.2181 49.0278L22.0381 49.0728C21.7344 49.0728 21.4981 48.8591 21.3069 48.4428C21.1269 48.0266 21.0256 47.5316 21.0256 46.9691C21.0256 46.0691 21.2281 45.4841 21.6219 45.2141C21.7794 45.1241 21.9256 45.0791 22.0494 45.0791C22.1394 45.0791 22.2181 45.0903 22.2969 45.1241C22.3756 45.1578 22.4431 45.2141 22.5331 45.3041L22.6231 45.3941L22.7244 45.5291L22.3756 46.2041L22.3081 46.1141L22.2631 46.0466L22.1394 45.9116L22.0494 45.8553C22.0044 45.8553 21.9481 45.8891 21.9031 45.9453C21.8581 46.0128 21.8131 46.0803 21.7681 46.1591L21.6894 46.5078L21.6556 46.8791V47.0703C21.6556 47.2841 21.7006 47.4978 21.7794 47.7116C21.8131 47.8128 21.8806 47.9141 21.9819 48.0153L22.1056 48.0941L22.2519 48.1166C22.3081 48.1166 22.3419 48.1053 22.3644 48.0941L22.4881 47.9703L22.5894 47.8128L22.7019 47.5766V44.3928H20.6094V43.4928H25.4469V44.3928H23.4219V45.6528L23.5681 45.4503L23.7144 45.2703L23.9281 45.1128L24.1531 45.0566C24.6819 45.0566 24.9406 45.7091 24.9406 47.0253V47.4191V47.6216C24.9406 47.7341 24.9294 47.9253 24.8844 48.1841L24.8731 48.3078L24.8506 48.4428L24.0856 49.4891L24.1419 49.1291L24.1756 48.8253L24.2431 48.0716L24.2769 47.4191L24.2544 46.9353C24.2206 46.5866 24.1644 46.3728 24.0744 46.2941L23.9056 46.2041C23.8269 46.2041 23.7481 46.2828 23.6469 46.4291L23.5231 46.6878L23.4106 46.9803V49.5678L22.7131 50.3778ZM20.9356 46.6091C20.8906 46.5528 20.7444 46.4403 20.5081 46.2603C20.3731 46.1816 20.2494 46.1366 20.1144 46.1366L19.9681 46.1816C19.9006 46.2378 19.8444 46.3503 19.8106 46.5191V46.8678L19.8331 47.3628L19.9006 47.8241C19.9344 48.0603 19.9906 48.3978 20.1031 48.8141L20.2156 49.2866L20.3956 49.9053L19.6194 50.5241L19.4844 49.9278L19.3944 49.4553C19.3044 49.0166 19.2369 48.4878 19.1806 47.8578V47.4528C19.1806 46.8116 19.3044 46.2716 19.5631 45.8328C19.8106 45.3941 20.1256 45.1803 20.4856 45.1803C20.6994 45.1803 20.9019 45.2478 21.0819 45.3941L21.1944 45.4841L21.3406 45.6078V47.0703L20.9356 46.6091ZM18.7081 44.4041V43.5041H20.9131V44.4041H18.7081ZM18.1119 43.3803L18.0219 43.5153L17.7856 43.7853C17.7069 43.8416 17.6281 43.8641 17.5494 43.8641H17.5156H17.4819L17.4481 43.8191L17.4031 43.7741L16.9081 42.8066L16.4919 42.0866C16.4019 41.9178 16.3231 41.8391 16.2894 41.8391C16.2331 41.8391 16.1656 41.8616 16.1206 41.8953C16.0531 41.9178 15.9856 41.9628 15.9181 42.0416L15.8281 42.1316L15.7156 42.2553L15.4231 41.4341L15.8281 41.0853L16.2331 40.8041L16.5031 40.7141C16.5819 40.7141 16.7506 40.9391 16.9981 41.4003L17.7969 42.8853L17.8756 42.8628L17.9769 42.7728L17.9994 42.7616L18.0331 42.7053L18.2131 43.1666L18.1119 43.3803ZM16.8181 44.4041V43.5041H19.1244V44.4041H18.1006L18.0894 49.5678L17.3581 50.3778V44.4041H16.8181ZM15.0069 44.4041V43.5041H17.3131V44.4041H16.2894L16.2781 49.5678L15.5469 50.3778V44.4041H15.0069ZM14.3994 45.1353L14.3544 44.8091L14.2981 44.4041H13.9719L13.9269 44.7753L13.8594 45.3153L13.8031 45.9116L13.7919 46.3728L13.8144 47.0028C13.8144 47.1941 13.8256 47.3853 13.8594 47.5541C13.8931 47.7228 13.9381 47.8803 13.9944 48.0266C14.0281 48.1391 14.0844 48.1841 14.1406 48.1841C14.2531 48.1841 14.3431 47.9928 14.3994 47.5991L14.4669 47.0028L14.4894 46.3616V45.9453L14.3994 45.1353ZM15.0519 44.4041L15.1081 44.7978L15.1644 45.2253L15.1981 45.6978V46.1253L15.1756 46.6653C15.1756 46.7328 15.1756 46.8228 15.1644 46.9016C15.1531 46.9916 15.1419 47.0928 15.1306 47.1941C15.0181 47.9253 14.8156 48.4428 14.5344 48.7241C14.3769 48.8703 14.2306 48.9378 14.0731 48.9378C13.7694 48.9378 13.5219 48.7128 13.3194 48.2516C13.2181 48.0153 13.1506 47.7228 13.0944 47.3741L13.0381 46.8341L13.0269 46.3053L13.0381 45.8328L13.1056 45.2478L13.1506 44.8316L13.2181 44.4041L12.6556 44.3928V43.4928H15.2769V44.3928H15.0519V44.4041ZM12.4531 53.1566C12.2281 53.4828 11.9581 53.6403 11.6544 53.6403H11.4294C11.3844 53.6403 11.3506 53.6403 11.3169 53.6291C11.2831 53.6178 11.2269 53.5953 11.1144 53.5503C10.9794 53.5166 10.8219 53.4378 10.6419 53.3253C10.4619 53.2128 10.2931 53.0666 10.1131 52.8978C9.97813 52.7741 9.86562 52.6391 9.75312 52.4816L10.2594 51.6266L10.5069 51.9753L10.6981 52.2228C10.8331 52.3916 11.0131 52.5378 11.2269 52.6841C11.4181 52.7853 11.5981 52.8303 11.7331 52.8303C11.8344 52.8303 11.9356 52.7516 12.0256 52.5941C12.0594 52.5378 12.0819 52.4366 12.1269 52.2903V51.9753L12.0819 51.7166C12.0481 51.5928 11.9919 51.4916 11.9019 51.4128L11.7556 51.3678C11.6656 51.3678 11.6094 51.3903 11.5644 51.4353L11.2944 51.6603L11.1706 51.7841L11.0019 51.9641L10.9906 50.7603L11.1031 50.6816L11.3056 50.5578L11.6319 50.4116L11.8906 50.3666H12.0481C12.0819 50.3666 12.1381 50.4003 12.1944 50.4566C12.4081 50.6141 12.5656 50.8953 12.6894 51.2778C12.7344 51.4691 12.7569 51.6603 12.7569 51.8741C12.7794 52.3916 12.6669 52.8191 12.4531 53.1566ZM10.3944 44.4041L10.5294 44.8653L10.6419 45.3041L10.7656 46.0916C10.7769 46.2041 10.7881 46.2941 10.7994 46.3616C10.7994 46.4291 10.8106 46.5303 10.8106 46.6653C10.8106 46.8791 10.7994 47.0703 10.7881 47.2391C10.7769 47.4078 10.7431 47.5878 10.7094 47.7791C10.6194 48.2178 10.4844 48.5891 10.2819 48.8816C10.1919 49.0053 10.0906 49.1066 9.96687 49.1853C9.85437 49.2641 9.73063 49.2978 9.60687 49.2978C9.32562 49.2978 9.07812 49.1178 8.88687 48.7578C8.79688 48.5891 8.71813 48.3641 8.63938 48.0716C8.58313 47.8241 8.56062 47.5091 8.56062 47.1266V46.8453C8.56062 46.7216 8.58312 46.5866 8.61687 46.4403C8.69562 45.9791 8.84187 45.6528 9.05562 45.4728L9.15688 45.3941L9.35937 45.3378H9.47187L9.62937 45.4053L9.69687 45.4503L9.78687 45.5066L9.58437 46.2378H9.56187L9.53938 46.2266L9.46062 46.2041L9.40437 46.1928L9.30312 46.2153C9.25812 46.2153 9.21312 46.3053 9.16812 46.4741V46.7328C9.16812 47.1491 9.23562 47.5316 9.35937 47.8691C9.49437 48.2066 9.62937 48.3753 9.76438 48.3753C9.86562 48.3753 9.94437 48.2628 10.0231 48.0491L10.0906 47.6328L10.1244 47.0366C10.1244 46.6541 10.0794 46.2378 9.97812 45.7991C9.91062 45.4166 9.82063 45.0678 9.70813 44.7641L9.58437 44.4041H8.07688V43.5041H13.0719V44.4041H12.0594V49.5678L11.3281 50.3778V44.4041H10.3944ZM53.5269 50.5803V42.0303L54.1681 41.5916V50.2316L53.5269 50.5803ZM51.3444 50.5803V42.0303L51.9856 41.5916V50.2316L51.3444 50.5803ZM3.73438 50.5803V42.0303L4.37563 41.5916V50.2316L3.73438 50.5803Z" fill="white"/>
</svg>
