<svg width="55" height="49" viewBox="0 0 55 49" fill="none" xmlns="http://www.w3.org/2000/svg">
<path d="M7.29688 0.467773H13.251C14.1027 0.467847 14.791 1.15404 14.791 1.99707C14.7909 2.8401 14.1027 3.52629 13.251 3.52637H7.29688C5.10735 3.52637 3.32932 5.29072 3.3291 7.4707V32.1982C3.32918 34.3783 5.10727 36.1436 7.29688 36.1436H47.7031C49.8927 36.1436 51.6708 34.3783 51.6709 32.1982V7.4707C51.6707 5.29071 49.8926 3.52637 47.7031 3.52637H41.7227C40.8711 3.52617 40.1837 2.84002 40.1836 1.99707C40.1836 1.15412 40.8711 0.467968 41.7227 0.467773H47.7031C51.5962 0.467773 54.7498 3.60451 54.75 7.4707V32.1982C54.7499 36.0645 51.5963 39.2012 47.7031 39.2012H29.04V45.6914H40.125C40.9767 45.6914 41.6649 46.3777 41.665 47.2207C41.665 48.0638 40.9768 48.75 40.125 48.75H14.875C14.0234 48.7498 13.3359 48.0637 13.3359 47.2207C13.336 46.3779 14.0235 45.6917 14.875 45.6914H25.96V39.2012H7.29688C3.40374 39.2012 0.250083 36.0645 0.25 32.1982V7.4707C0.250219 3.60451 3.40382 0.467773 7.29688 0.467773ZM26.7295 0.455078C27.2062 0.181465 27.7939 0.18148 28.2705 0.455078L40.8223 7.65918C41.2987 7.93256 41.5917 8.43699 41.5918 8.98242V23.3906C41.5917 23.936 41.2987 24.4404 40.8223 24.7139L28.2705 31.918C27.7939 32.1915 27.2062 32.1915 26.7295 31.918L14.1777 24.7139C13.7014 24.4404 13.4083 23.936 13.4082 23.3906V8.98242C13.4083 8.43702 13.7014 7.93258 14.1777 7.65918L26.7295 0.455078ZM38.1396 11.9785L29.168 17.0078L29.04 17.0791V27.9443L29.4141 27.7295L38.3867 22.5801L38.5127 22.5078V11.7695L38.1396 11.9785ZM27.376 3.61621L18.4033 8.76562L18.0254 8.98242L18.4033 9.19922L27.376 14.3486L27.498 14.4189L27.6221 14.3506L36.709 9.2666L37.0938 9.05176L36.7109 8.83203L27.624 3.61621L27.5 3.54492L27.376 3.61621ZM25.96 17.0684L25.835 16.9971L16.8623 11.8477L16.4883 11.6328V22.5078L16.6133 22.5801L25.5859 27.7295L25.96 27.9443V17.0684Z" fill="white" stroke="#171717" stroke-width="0.5"/>
</svg>
