<svg width="48" height="48" viewBox="0 0 48 48" fill="none" xmlns="http://www.w3.org/2000/svg">
<path d="M44.3769 25.3673C43.7089 25.3679 43.0541 25.5517 42.4847 25.8986C41.9153 26.2454 41.4535 26.7418 41.1503 27.3328L26.6281 23.4866C26.8082 22.1993 26.5597 20.8888 25.9204 19.7547L33.6223 14.1493C34.2906 14.7403 35.1555 15.0646 36.0504 15.0599C36.9453 15.0552 37.8067 14.7217 38.4686 14.1238C39.1306 13.5258 39.5462 12.7057 39.6353 11.8215C39.7243 10.9374 39.4807 10.0518 38.9512 9.33545C38.4217 8.61911 37.6439 8.12276 36.7677 7.94208C35.8915 7.7614 34.979 7.90919 34.206 8.35694C33.433 8.8047 32.8544 9.52073 32.5815 10.367C32.3087 11.2133 32.3611 12.1299 32.7285 12.9401L25.0256 18.546C24.4669 17.9578 23.7941 17.4878 23.0477 17.1644C22.3014 16.841 21.4968 16.6709 20.6825 16.6643L19.5418 7.00275C20.3894 6.71754 21.1006 6.13088 21.5384 5.35588C21.9761 4.58088 22.1095 3.6724 21.9127 2.80558C21.7158 1.93875 21.2028 1.17496 20.4725 0.661429C19.7422 0.147902 18.8463 -0.0789955 17.9575 0.0244761C17.0687 0.127948 16.2499 0.554463 15.659 1.2218C15.0681 1.88914 14.747 2.75004 14.7574 3.63856C14.7679 4.52708 15.1092 5.3803 15.7157 6.03374C16.3221 6.68718 17.1507 7.09457 18.0417 7.17739L19.1818 16.8384C18.275 17.0625 17.4323 17.4913 16.7194 18.0913C16.0065 18.6913 15.4425 19.4465 15.0712 20.2981L9.22077 18.6185C9.44117 17.4795 9.222 16.2999 8.60679 15.314C7.99158 14.328 7.02537 13.608 5.90011 13.2969C4.77485 12.9857 3.5729 13.1063 2.53305 13.6346C1.4932 14.163 0.691553 15.0604 0.287378 16.1485C-0.116797 17.2367 -0.093923 18.436 0.351456 19.5083C0.796835 20.5805 1.63212 21.4471 2.69137 21.9359C3.75062 22.4248 4.95631 22.5001 6.0689 22.1469C7.18149 21.7937 8.11955 21.0378 8.69672 20.0295L14.651 21.7386C14.4239 23.1673 14.7233 24.6294 15.4942 25.8566C16.2651 27.0838 17.456 27.9937 18.8481 28.4195L16.6567 40.8114C15.7627 40.8441 14.9126 41.2042 14.2701 41.8223C13.6276 42.4404 13.2383 43.2728 13.1772 44.159C13.1161 45.0452 13.3876 45.9225 13.9393 46.6218C14.4909 47.321 15.2838 47.7928 16.1649 47.9461C17.0461 48.0993 17.9532 47.9233 18.7115 47.4519C19.4697 46.9805 20.0253 46.2471 20.2713 45.393C20.5172 44.539 20.4361 43.6247 20.0435 42.8266C19.6509 42.0284 18.9746 41.4028 18.1451 41.0703L20.3364 28.6778C20.4341 28.683 20.5323 28.6855 20.6311 28.6855C21.5453 28.6873 22.4479 28.4823 23.2704 28.086L25.2401 31.0958C24.5357 31.7727 24.1105 32.6858 24.0473 33.6571C23.9842 34.6284 24.2876 35.5883 24.8984 36.3495C25.5093 37.1107 26.3837 37.6188 27.3513 37.7746C28.3189 37.9304 29.3103 37.7228 30.1321 37.1923C30.9539 36.6617 31.5473 35.8463 31.7965 34.905C32.0458 33.9636 31.933 32.9639 31.4802 32.1006C31.0273 31.2374 30.267 30.5725 29.3473 30.2357C28.4276 29.8989 27.4146 29.9142 26.5057 30.2787L24.5355 27.2659C25.2839 26.6377 25.8683 25.8392 26.2388 24.9383L40.7595 28.7846C40.7564 28.8448 40.7548 28.9056 40.7548 28.9664C40.7547 29.6778 40.9671 30.3734 41.3651 30.965C41.7631 31.5566 42.3289 32.0177 42.9909 32.29C43.6528 32.5623 44.3813 32.6336 45.084 32.4948C45.7868 32.356 46.4323 32.0134 46.939 31.5104C47.4456 31.0073 47.7907 30.3663 47.9304 29.6685C48.0702 28.9707 47.9984 28.2474 47.7241 27.5901C47.4499 26.9328 46.9855 26.371 46.3897 25.9758C45.7939 25.5806 45.0934 25.3697 44.3769 25.3698V25.3673ZM36.0317 9.36961C36.4493 9.36961 36.8576 9.49259 37.2048 9.72298C37.5521 9.95337 37.8228 10.2808 37.9826 10.664C38.1424 11.0471 38.1842 11.4687 38.1027 11.8754C38.0213 12.2821 37.8202 12.6557 37.5248 12.949C37.2295 13.2422 36.8533 13.4419 36.4436 13.5228C36.034 13.6037 35.6095 13.5622 35.2236 13.4035C34.8378 13.2448 34.508 12.976 34.2759 12.6312C34.0439 12.2864 33.9201 11.881 33.9201 11.4663C33.9206 10.9104 34.1433 10.3774 34.5391 9.98433C34.935 9.59123 35.4718 9.37015 36.0317 9.36961ZM4.66066 20.8659C4.04109 20.8659 3.43544 20.6835 2.9203 20.3417C2.40515 19.9999 2.00366 19.5141 1.76658 18.9457C1.52951 18.3773 1.4675 17.7519 1.58841 17.1485C1.70932 16.5452 2.00771 15.991 2.44585 15.556C2.88399 15.121 3.44219 14.8248 4.04986 14.7049C4.65754 14.5849 5.28739 14.6466 5.85976 14.8821C6.43214 15.1176 6.92133 15.5163 7.26547 16.0279C7.60961 16.5394 7.79324 17.1408 7.79314 17.756C7.79178 18.5806 7.46122 19.371 6.87394 19.9539C6.28666 20.5369 5.49107 20.8648 4.66066 20.8659ZM18.9005 44.4069C18.9005 44.8216 18.7767 45.227 18.5447 45.5718C18.3126 45.9166 17.9828 46.1854 17.597 46.3441C17.2111 46.5028 16.7866 46.5443 16.3769 46.4634C15.9673 46.3825 15.5911 46.1828 15.2958 45.8895C15.0004 45.5963 14.7993 45.2227 14.7179 44.816C14.6364 44.4092 14.6782 43.9877 14.838 43.6045C14.9978 43.2214 15.2685 42.8939 15.6157 42.6636C15.963 42.4332 16.3713 42.3102 16.7889 42.3102C17.3483 42.3109 17.8847 42.5317 18.2804 42.9244C18.6761 43.317 18.8989 43.8494 18.9 44.4049L18.9005 44.4069ZM30.4276 33.912C30.4276 34.3916 30.2844 34.8604 30.016 35.2591C29.7477 35.6578 29.3663 35.9686 28.9201 36.1521C28.4739 36.3356 27.9829 36.3836 27.5092 36.29C27.0356 36.1964 26.6005 35.9654 26.259 35.6263C25.9175 35.2871 25.685 34.8551 25.5909 34.3847C25.4967 33.9144 25.5451 33.4268 25.73 32.9838C25.9149 32.5408 26.228 32.1622 26.6296 31.8958C27.0312 31.6295 27.5033 31.4873 27.9863 31.4874C28.6336 31.4883 29.2542 31.744 29.7118 32.1985C30.1695 32.653 30.4269 33.2693 30.4276 33.912ZM16.2679 3.5967C16.2679 3.18201 16.3918 2.77662 16.6238 2.43182C16.8558 2.08701 17.1856 1.81827 17.5715 1.65957C17.9573 1.50088 18.3819 1.45935 18.7915 1.54026C19.2011 1.62116 19.5774 1.82085 19.8727 2.11409C20.168 2.40732 20.3692 2.78092 20.4506 3.18765C20.5321 3.59438 20.4903 4.01596 20.3305 4.39909C20.1706 4.78221 19.9 5.10968 19.5527 5.34007C19.2055 5.57046 18.7972 5.69344 18.3796 5.69344C17.8197 5.69289 17.2829 5.47182 16.887 5.07872C16.4911 4.68562 16.2685 4.15262 16.2679 3.5967ZM20.6311 27.1857C19.7325 27.1858 18.854 26.9213 18.1067 26.4257C17.3595 25.9301 16.777 25.2255 16.433 24.4012C16.089 23.5769 15.9989 22.6698 16.1741 21.7946C16.3493 20.9195 16.7819 20.1155 17.4172 19.4845C18.0525 18.8534 18.862 18.4236 19.7433 18.2494C20.6247 18.0751 21.5382 18.1643 22.3685 18.5056C23.1988 18.8469 23.9085 19.425 24.4079 20.1668C24.9074 20.9086 25.174 21.7808 25.1742 22.6731C25.1733 23.8694 24.6944 25.0164 23.8426 25.8624C22.9909 26.7085 21.8359 27.1844 20.6311 27.1857ZM44.3769 31.0605C43.9593 31.0605 43.551 30.9376 43.2037 30.7072C42.8565 30.4768 42.5858 30.1493 42.426 29.7662C42.2662 29.3831 42.2244 28.9615 42.3058 28.5548C42.3873 28.148 42.5884 27.7744 42.8838 27.4812C43.1791 27.188 43.5553 26.9883 43.9649 26.9074C44.3746 26.8265 44.7991 26.868 45.185 27.0267C45.5708 27.1854 45.9006 27.4541 46.1327 27.7989C46.3647 28.1437 46.4885 28.5491 46.4885 28.9638C46.4878 29.5197 46.2652 30.0526 45.8693 30.4457C45.4734 30.8387 44.9367 31.0599 44.3769 31.0605Z" fill="white"/>
</svg>
