<svg width="60" height="60" viewBox="0 0 60 60" fill="none" xmlns="http://www.w3.org/2000/svg">
<path d="M14.144 29.9988C14.144 33.1346 15.0739 36.2 16.816 38.8073C18.5582 41.4147 21.0344 43.4468 23.9315 44.6468C26.8286 45.8469 30.0165 46.1609 33.092 45.5491C36.1676 44.9373 38.9927 43.4273 41.21 41.2099C43.4274 38.9926 44.9374 36.1675 45.5492 33.092C46.1609 30.0164 45.847 26.8285 44.6469 23.9314C43.4469 21.0343 41.4148 18.5581 38.8074 16.816C36.2001 15.0738 33.1347 14.144 29.9989 14.144C25.7954 14.1487 21.7654 15.8207 18.7931 18.793C15.8207 21.7653 14.1488 25.7953 14.144 29.9988ZM21.0998 41.2267C21.2081 40.2952 21.6563 39.4364 22.3585 38.8148C23.0607 38.1933 23.9676 37.8527 24.9054 37.8583H26.5357C26.8558 39.4042 28.2795 40.6859 29.982 40.6859C31.6846 40.6859 33.1084 39.4042 33.4284 37.8583H35.0923C36.0301 37.8527 36.937 38.1933 37.6392 38.8149C38.3414 39.4364 38.7896 40.2953 38.8978 41.2268C36.3694 43.2419 33.232 44.3392 29.9988 44.3392C26.7657 44.3392 23.6282 43.2417 21.0998 41.2267ZM26.6413 33.2681C26.1958 32.8308 25.8418 32.3092 25.6 31.7337C25.3583 31.1582 25.2336 30.5402 25.2334 29.916V29.5011C26.7961 29.1967 28.2779 28.5692 29.5839 27.6587C30.89 26.7483 31.9914 25.575 32.8175 24.214C33.0253 24.2892 33.2234 24.389 33.4074 24.5114C33.8242 24.7888 34.1649 25.1663 34.3981 25.6093C34.6314 26.0523 34.7499 26.5468 34.7427 27.0474L34.7665 27.5908V29.8475C34.7665 32.4719 32.6044 34.6376 30.0181 34.6376H29.982C28.7309 34.6421 27.5292 34.1495 26.6413 33.2681ZM36.3124 27.6016L36.2912 27.07C36.3061 26.3119 36.1301 25.5623 35.7793 24.8901C35.4285 24.2179 34.9141 23.6448 34.2837 23.2236C33.767 22.8756 33.1781 22.6493 32.5614 22.5617C32.4055 22.54 32.2467 22.5661 32.106 22.6366C31.9653 22.7072 31.8493 22.8188 31.7735 22.9567C29.3017 27.4805 24.9328 28.0056 24.5708 28.0417C24.3353 28.0514 24.1124 28.151 23.9481 28.32C23.7838 28.4891 23.6905 28.7146 23.6874 28.9503V29.9165C23.6911 30.2234 23.7169 30.5297 23.7647 30.8329C23.1931 29.6643 22.8702 28.3898 22.8163 27.0899C22.7637 25.8985 23.0125 24.713 23.5397 23.6432C24.4337 21.8494 26.1291 20.4794 28.1885 19.8842C29.3432 19.5268 30.5913 19.6297 31.6718 20.1712C32.6901 20.7015 33.4876 21.5755 33.9226 22.638L33.9512 22.7235C34.0122 22.9068 34.1397 23.0606 34.3085 23.1545C34.4773 23.2485 34.6752 23.2759 34.8631 23.2312C35.0573 23.1846 36.0612 23.0363 36.7135 24.651C37.3683 26.2734 37.3309 28.1164 36.6085 29.8415C36.4951 30.1338 36.367 30.4201 36.2246 30.6993C36.2728 30.4176 36.302 30.133 36.312 29.8475L36.3124 27.6016ZM28.0675 35.8732C28.6821 36.0895 29.3302 36.1946 29.9816 36.1835H30.0294C30.6766 36.1794 31.3189 36.0722 31.9323 35.866V37.1097C31.9323 37.6222 31.7287 38.1137 31.3663 38.4761C31.004 38.8385 30.5124 39.042 29.9999 39.042C29.4874 39.042 28.9959 38.8385 28.6335 38.4761C28.2711 38.1137 28.0675 37.6222 28.0675 37.1097V35.8732ZM29.9989 15.6899C32.8179 15.6926 35.5734 16.5272 37.9203 18.089C40.2671 19.6507 42.1009 21.8703 43.192 24.4696C44.283 27.0689 44.5828 29.9324 44.0538 32.7013C43.5247 35.4702 42.1904 38.0214 40.2179 40.0354C39.8704 38.9505 39.1861 38.0047 38.2644 37.3352C37.3426 36.6657 36.2315 36.3074 35.0923 36.3124H33.4783V36.1286C34.0145 35.7241 34.5175 35.2774 34.9826 34.7927C36.3739 33.4026 37.4024 31.9375 38.0303 30.4384C38.9112 28.3357 38.9535 26.0747 38.1452 24.0719C37.5345 22.5585 36.4103 21.6664 35.1685 21.6518C34.5284 20.312 33.4284 19.2465 32.0689 18.6495C30.7094 18.0524 29.1806 17.9633 27.7609 18.3986C25.2875 19.1135 23.2456 20.7736 22.1592 22.9533C21.5251 24.2589 21.231 25.7035 21.3042 27.1531C21.455 30.8031 23.4298 34.1999 26.5216 35.946V36.3124H24.9054C23.7662 36.3074 22.6551 36.6657 21.7334 37.3352C20.8117 38.0047 20.1273 38.9506 19.7798 40.0354C17.1561 37.3602 15.6875 33.762 15.6899 30.0149C15.6899 22.1245 22.1089 15.6899 29.9989 15.6899Z" fill="white"/>
<path d="M1.97792 13.1778C1.84709 11.7003 1.93311 10.2116 2.23326 8.75906C2.63803 6.92702 3.43675 5.40455 4.6074 4.23456C6.24259 2.59846 8.53338 1.70158 11.4102 1.56927C12.7888 1.51716 14.169 1.61112 15.5278 1.8496L15.7952 0.327002C14.3269 0.0695073 12.8354 -0.0317992 11.3458 0.0247758C8.06562 0.175502 5.43073 1.22415 3.51469 3.14147C2.132 4.52287 1.19324 6.3008 0.721609 8.43532C0.38924 10.0389 0.293752 11.6826 0.438191 13.314L1.97792 13.1778Z" fill="white"/>
<path d="M6.52932 26.7475C5.90528 25.6093 5.33291 24.4647 4.82816 23.3455L3.41893 23.9808C3.94016 25.1367 4.53058 26.3175 5.17381 27.4907L6.52932 26.7475Z" fill="white"/>
<path d="M1.03162 17.0802C1.28827 18.176 1.60004 19.2582 1.96574 20.3226L3.42856 19.8226C3.07984 18.8076 2.78243 17.7757 2.53747 16.7308L1.03162 17.0802Z" fill="white"/>
<path d="M13.4487 39.1646C13.9723 39.7607 14.5152 40.3596 15.0623 40.9445C15.3082 41.2075 15.557 41.4697 15.8088 41.7311L16.9226 40.6592C16.6763 40.4031 16.4325 40.1463 16.1914 39.8886C15.6552 39.3153 15.1233 38.7284 14.6104 38.1448C14.5202 38.0417 14.4304 37.9387 14.3409 37.8356L13.1745 38.85C13.2655 38.955 13.3568 39.0599 13.4487 39.1646Z" fill="white"/>
<path d="M10.693 35.8326L11.9135 34.8841C11.7635 34.6908 11.6148 34.4972 11.4675 34.3032C10.8373 33.4746 10.2277 32.6334 9.65546 31.8029L8.38252 32.6802C8.9683 33.5305 9.5922 34.3912 10.2365 35.2383C10.3869 35.4366 10.5391 35.6347 10.693 35.8326Z" fill="white"/>
<path d="M46.0579 57.6284C45.6199 57.5864 45.1672 57.5285 44.7126 57.4566L44.471 58.9836C44.9568 59.0609 45.441 59.1222 45.9103 59.1672C46.5729 59.2308 47.2179 59.2625 47.8452 59.2625C48.9979 59.2697 50.1478 59.1492 51.274 58.9035C53.372 58.4306 55.1299 57.4966 56.499 56.1277C59.1951 53.4315 60.1801 49.2558 59.3475 44.0522C58.9302 41.4451 58.0669 38.6381 56.7813 35.709L55.3657 36.3303C56.5986 39.1387 57.4247 41.8192 57.8211 44.2964C58.5721 48.9903 57.7371 52.7035 55.4061 55.0346C54.2466 56.194 52.7425 56.9878 50.9344 57.3955C49.4855 57.7215 47.8445 57.7997 46.0579 57.6284Z" fill="white"/>
<path d="M54.3819 30.9598L53.039 31.7262C53.5381 32.6009 54.0084 33.4822 54.4373 34.346L55.8219 33.6586C55.38 32.768 54.8954 31.86 54.3819 30.9598Z" fill="white"/>
<path d="M47.1597 20.7873C46.3168 19.8018 45.4355 18.8267 44.5404 17.8887L43.4223 18.9562C44.2983 19.8735 45.1603 20.8276 45.9849 21.7919L47.1597 20.7873Z" fill="white"/>
<path d="M49.6165 23.8243L48.3887 24.7634C49.1597 25.7715 49.9125 26.8138 50.6266 27.8617L51.9041 26.9912C51.1741 25.9202 50.4047 24.8546 49.6165 23.8243Z" fill="white"/>
<path d="M37.2994 60L42.5694 58.492C42.7665 58.4356 42.9332 58.3032 43.0326 58.124C43.1321 57.9447 43.1563 57.7333 43.0999 57.5362L41.7261 52.7354L40.2399 53.1605L41.2425 56.6635C38.6045 55.8672 36.0527 54.8091 33.6252 53.5052C30.4594 51.814 27.4488 49.8469 24.6286 47.6268C22.5375 45.9889 20.5371 44.2386 18.6361 42.3835L17.5561 43.4898C19.4971 45.3837 21.5396 47.1708 23.6745 48.843C26.5668 51.1196 29.6542 53.1367 32.9008 54.871C35.033 56.0092 37.2542 56.9721 39.5425 57.7503L36.8747 58.5137L37.2994 60Z" fill="white"/>
<path d="M19.4375 6.94618L20.9491 6.62321L20.1883 3.0631C22.2439 3.76638 24.2412 4.62967 26.1619 5.64503C29.2868 7.29462 32.2612 9.21477 35.051 11.3835C36.3659 12.3981 37.6901 13.4987 38.9865 14.6544C39.7069 15.2976 40.4306 15.9701 41.1379 16.6531C41.4453 16.9494 41.759 17.2586 42.0706 17.57L43.1639 16.4769C42.8459 16.1589 42.5256 15.8439 42.2119 15.5411C41.4905 14.8441 40.7518 14.1579 40.0159 13.5008C38.692 12.3205 37.3393 11.1964 35.998 10.1613C33.1377 7.93806 30.0882 5.96955 26.8845 4.27832C25.309 3.4453 23.6832 2.71086 22.0167 2.07925L24.6719 1.51177L24.3488 0L18.9882 1.14565C18.889 1.16687 18.7949 1.20744 18.7113 1.26503C18.6277 1.32263 18.5563 1.39612 18.5011 1.48132C18.4459 1.56652 18.408 1.66175 18.3897 1.76158C18.3713 1.86141 18.3727 1.96389 18.394 2.06315L19.4375 6.94618Z" fill="white"/>
<path d="M0.327056 44.2173C0.0696369 45.6857 -0.0317124 47.1771 0.0246999 48.6668C0.175556 51.9469 1.2242 54.5819 3.1414 56.4987C4.52345 57.8809 6.30138 58.8192 8.43526 59.2897C9.55486 59.5219 10.6953 59.639 11.8387 59.6391C12.3305 59.6391 12.8222 59.6176 13.3139 59.5747L13.178 58.0348C11.7005 58.1654 10.2118 58.0792 8.75926 57.7787C6.92709 57.3744 5.40475 56.5768 4.23462 55.4059C2.59852 53.7698 1.70176 51.479 1.56959 48.6024C1.51747 47.2239 1.61135 45.8437 1.84965 44.4849L0.327056 44.2173Z" fill="white"/>
<path d="M27.4908 54.8389L26.7476 53.4832C25.6096 54.1071 24.465 54.6795 23.3455 55.1845L23.981 56.5936C25.137 56.0722 26.3179 55.4816 27.4908 54.8389Z" fill="white"/>
<path d="M20.3226 58.0468L19.8227 56.5839C18.8077 56.9326 17.7757 57.2301 16.7308 57.4751L17.0803 58.9809C18.1761 58.7242 19.2582 58.4124 20.3226 58.0468Z" fill="white"/>
<path d="M39.8888 43.8212C39.314 44.3586 38.7272 44.8904 38.145 45.402C38.0424 45.492 37.9398 45.5816 37.837 45.6709L38.8499 46.8385C38.9551 46.7475 39.0597 46.656 39.1648 46.5639C39.7594 46.0416 40.3582 45.4987 40.9448 44.9501C41.2077 44.7042 41.4696 44.4554 41.7306 44.2038L40.6588 43.0898C40.4031 43.3364 40.1464 43.5802 39.8888 43.8212Z" fill="white"/>
<path d="M31.8035 50.3566L32.6804 51.6297C33.5307 51.0442 34.3918 50.4203 35.2387 49.776C35.4372 49.6254 35.6354 49.4731 35.8332 49.3193L34.8844 48.0987C34.6912 48.2489 34.4976 48.3977 34.3034 48.5451C33.4749 49.1752 32.6337 49.7846 31.8035 50.3566Z" fill="white"/>
<path d="M44.2966 2.19149C48.9908 1.44018 52.7036 2.27561 55.0346 4.60646C56.194 5.7659 56.9878 7.26994 57.3956 9.07815C57.7216 10.5268 57.8 12.1675 57.6285 13.9545C57.5865 14.3925 57.5287 14.845 57.4568 15.2999L58.9837 15.5414C59.061 15.0554 59.1224 14.5712 59.1673 14.1021C59.3544 12.1519 59.2658 10.3475 58.9038 8.73843C58.4306 6.64024 57.4966 4.88228 56.1277 3.51338C53.4316 0.817302 49.2559 -0.167574 44.0523 0.665029C41.4452 1.08217 38.6382 1.94556 35.7091 3.23112L36.3304 4.64679C39.1391 3.41392 41.8193 2.58789 44.2966 2.19149Z" fill="white"/>
<path d="M34.3457 5.5755L33.6586 4.19088C32.7377 4.64821 31.7982 5.15076 30.8663 5.68526L31.6347 7.0266C32.5398 6.5073 33.4524 6.0193 34.3457 5.5755Z" fill="white"/>
<path d="M21.7922 14.0281L20.7873 12.8532C19.8021 13.6961 18.827 14.5774 17.8888 15.4726L18.9563 16.5908C19.8742 15.7149 20.8275 14.8527 21.7922 14.0281Z" fill="white"/>
<path d="M26.9914 8.10875C25.9199 8.83906 24.8545 9.60854 23.8246 10.3962L24.7637 11.6242C25.7713 10.8536 26.8137 10.1007 27.862 9.38619L26.9914 8.10875Z" fill="white"/>
<path d="M58.492 17.4431C58.4356 17.246 58.3032 17.0794 58.124 16.9799C57.9447 16.8804 57.7333 16.8562 57.5362 16.9126L52.7355 18.2864L53.1606 19.7727L56.6637 18.7703C55.8672 21.4081 54.8092 23.9598 53.5055 26.3874C51.8141 29.5531 49.847 32.5636 47.6269 35.3839C45.989 37.475 44.2386 39.4755 42.3836 41.3765L43.49 42.4562C45.3839 40.5154 47.1708 38.473 48.843 36.3382C51.1196 33.4458 53.1367 30.3584 54.8712 27.1118C56.0092 24.9795 56.9721 22.7583 57.7503 20.47L58.5137 23.1378L60 22.7127L58.492 17.4431Z" fill="white"/>
<path d="M1.90083 41.636C1.9554 41.636 2.00981 41.6302 2.06316 41.6187L6.94632 40.5752L6.62322 39.0633L3.06311 39.8242C3.76637 37.7686 4.62966 35.7712 5.64504 33.8505C7.29459 30.7256 9.2147 27.7513 11.3834 24.9615C12.3975 23.6475 13.4982 22.323 14.6545 21.026C15.2961 20.3071 15.9685 19.5831 16.6529 18.8746C16.9527 18.5644 17.2612 18.2504 17.57 17.9416L16.4769 16.8485C16.1618 17.1635 15.8471 17.4838 15.5411 17.8004C14.8426 18.5235 14.1563 19.2622 13.5009 19.9965C12.3201 21.321 11.1958 22.6735 10.1613 24.0144C7.93803 26.8746 5.96952 29.9241 4.27833 33.1278C3.4453 34.7033 2.71087 36.3291 2.07926 37.9956L1.51165 35.3404L0 35.6635L1.14565 41.0241C1.18251 41.1971 1.27759 41.3522 1.41502 41.4636C1.55246 41.5749 1.72394 41.6358 1.90083 41.636Z" fill="white"/>
<path fill-rule="evenodd" clip-rule="evenodd" d="M22.3585 38.8148C21.6563 39.4364 21.2081 40.2952 21.0998 41.2267C23.6282 43.2417 26.7657 44.3392 29.9988 44.3392C33.232 44.3392 36.3694 43.2419 38.8978 41.2268C38.7896 40.2953 38.3414 39.4364 37.6392 38.8149C36.937 38.1933 36.0301 37.8527 35.0923 37.8583H33.4284C33.1084 39.4042 31.6846 40.6859 29.982 40.6859C28.2795 40.6859 26.8558 39.4042 26.5357 37.8583H24.9054C23.9676 37.8527 23.0607 38.1933 22.3585 38.8148Z" fill="white"/>
</svg>
