<svg width="72" height="72" viewBox="0 0 72 72" fill="none" xmlns="http://www.w3.org/2000/svg">
<path d="M29.2161 47.4412C33.0112 47.4412 36.6207 46.2752 39.662 44.1363L41.2503 45.7249L40.5422 46.4329C40.3547 46.6204 40.2493 46.8748 40.2493 47.1399C40.2493 47.405 40.3547 47.6594 40.5422 47.8469L52.1731 59.4783C53.1799 60.4856 54.5032 60.989 55.8254 60.989C57.1487 60.989 58.4719 60.4856 59.4788 59.4783C60.4543 58.5027 60.9924 57.2053 60.9924 55.8254C60.9924 54.4456 60.4543 53.1482 59.4788 52.1731L47.8479 40.5417C47.4573 40.1511 46.8245 40.1511 46.4338 40.5417L45.7316 41.2439L44.142 39.6546C46.2776 36.6149 47.4417 33.0079 47.4417 29.2161C47.4417 24.3479 45.5452 19.7712 42.1028 16.3293C34.9973 9.22388 23.4348 9.22388 16.3293 16.3293C9.22388 23.4353 9.22388 34.9968 16.3293 42.1028C19.7717 45.5452 24.3479 47.4412 29.2161 47.4412ZM58.0647 53.5872C58.6624 54.1853 58.9924 54.9797 58.9924 55.8254C58.9924 56.6711 58.6624 57.4661 58.0647 58.0642C56.8694 59.26 54.7825 59.261 53.5872 58.0642L42.6633 47.1399L47.1409 42.6628L58.0647 53.5872ZM44.3167 42.657L42.6633 44.3098L41.2396 42.8858C41.5305 42.6293 41.8261 42.3795 42.1028 42.1028C42.3817 41.8239 42.6337 41.5261 42.8921 41.2327L44.3167 42.657ZM17.7434 17.7434C20.9065 14.5803 25.0608 12.9988 29.2161 12.9988C33.3704 12.9988 37.5256 14.5803 40.6887 17.7434C43.7532 20.8079 45.4417 24.8821 45.4417 29.2161C45.4417 33.55 43.7532 37.6243 40.6887 40.6887C37.6243 43.7532 33.55 45.4412 29.2161 45.4412C24.8821 45.4412 20.8079 43.7532 17.7434 40.6887C11.4172 34.3625 11.4172 24.0696 17.7434 17.7434Z" fill="currentColor"/>
<path d="M29.2151 43.428C32.8547 43.428 36.4954 42.0422 39.2668 39.2708C42.7395 35.7986 44.1604 30.8586 43.0667 26.0574C43.0657 26.0525 43.0647 26.0476 43.0637 26.0427C42.3538 23.1262 40.8196 21.0071 40.761 20.9275C40.3176 20.3079 39.8157 19.7156 39.2668 19.1667C33.7239 13.6238 24.7053 13.6248 19.1624 19.1667C13.6194 24.7092 13.6194 33.7283 19.1624 39.2708C21.9338 42.0422 25.5745 43.428 29.2151 43.428ZM20.5764 20.5808C22.9583 18.199 26.0862 17.0085 29.2151 17.0085C32.343 17.0085 35.4709 18.1995 37.8528 20.5803C38.3235 21.052 38.7551 21.5603 39.1399 22.0984C39.1536 22.1169 40.5061 23.9973 41.1184 26.5085C42.0549 30.6335 40.8342 34.8752 37.8528 37.8567C33.0901 42.6189 25.3411 42.6199 20.5764 37.8567C15.8137 33.0935 15.8137 25.344 20.5764 20.5808Z" fill="currentColor"/>
<path d="M24.4768 30.219H28.2141V33.9568C28.2141 34.509 28.6614 34.9568 29.2141 34.9568C29.7668 34.9568 30.2141 34.509 30.2141 33.9568V30.219H33.9524C34.5051 30.219 34.9524 29.7712 34.9524 29.219C34.9524 28.6667 34.5051 28.219 33.9524 28.219H30.2141V24.4812C30.2141 23.929 29.7668 23.4812 29.2141 23.4812C28.6614 23.4812 28.2141 23.929 28.2141 24.4812V28.219H24.4768C23.9241 28.219 23.4768 28.6667 23.4768 29.219C23.4768 29.7712 23.9241 30.219 24.4768 30.219Z" fill="currentColor"/>
</svg>
