<svg width="130" height="130" viewBox="0 0 130 130" fill="none" xmlns="http://www.w3.org/2000/svg">
<rect width="130" height="130" fill="white" fill-opacity="0.2"/>
<mask id="path-2-outside-1_2087_4876" maskUnits="userSpaceOnUse" x="34.8333" y="34.8335" width="60" height="60" fill="black">
<rect fill="white" x="34.8333" y="34.8335" width="60" height="60"/>
<path d="M83.2381 81.9468C82.6852 81.3939 81.8572 81.2891 81.1917 81.6192L78.9016 79.3293C80.7069 76.8821 81.776 73.8638 81.776 70.5962C81.776 62.4662 75.1599 55.8506 67.0296 55.8506C66.4112 55.8506 65.8007 55.8926 65.2033 55.9686C64.9963 55.214 65.2059 54.3179 65.8164 53.4192C66.3038 52.7013 66.2671 51.758 65.7299 51.0768C64.9255 50.0603 64.0032 49.1354 62.9866 48.3283C62.3054 47.786 61.362 47.7519 60.6415 48.2393C59.6406 48.9152 58.6475 49.1065 57.8431 48.7738C57.0387 48.441 56.4701 47.6026 56.2421 46.4131C56.0771 45.559 55.388 44.917 54.5206 44.8175C53.2341 44.6681 51.9292 44.6681 50.6427 44.8175C49.778 44.917 49.0863 45.559 48.9213 46.4131C48.6933 47.6026 48.1247 48.441 47.3203 48.7738C46.5159 49.1065 45.5228 48.9179 44.5219 48.2393C43.8014 47.7519 42.858 47.786 42.1768 48.3283C41.1602 49.1353 40.2378 50.0602 39.4335 51.0768C38.8963 51.758 38.8596 52.6987 39.347 53.4192C40.023 54.4201 40.2117 55.4131 39.8789 56.2148C39.5461 57.0166 38.7129 57.5826 37.5338 57.8131C36.6796 57.9808 36.0402 58.6724 35.9433 59.5345C35.7966 60.8078 35.7966 62.0969 35.9433 63.3703C36.0429 64.235 36.6822 64.9266 37.5364 65.0917C38.7181 65.3223 39.5513 65.8882 39.8815 66.6899C40.2143 67.4917 40.0256 68.4847 39.3496 69.4856C38.8622 70.2061 38.8989 71.1467 39.4361 71.828C40.2405 72.8445 41.1628 73.7694 42.1794 74.5765C42.8607 75.1188 43.804 75.1529 44.5245 74.6655C45.5255 73.9896 46.5185 73.7983 47.3229 74.131C48.1273 74.4638 48.6959 75.3022 48.9239 76.4917C49.089 77.3458 49.778 77.9878 50.6454 78.0873C51.2899 78.1607 51.9371 78.2 52.5843 78.2C53.1739 78.2 53.7608 78.1659 54.3477 78.1031C56.9208 82.434 61.6424 85.3424 67.0321 85.3424C70.2995 85.3424 73.318 84.2733 75.7656 82.4681L78.0557 84.7581C77.7256 85.4236 77.8278 86.2515 78.3833 86.8044L84.74 93.1607C85.4107 93.8315 86.2911 94.1668 87.1689 94.1668C88.0493 94.1668 88.9297 93.8315 89.5979 93.1607C90.2451 92.5136 90.6014 91.6516 90.6014 90.7319C90.6014 89.8122 90.2451 88.9476 89.5979 88.3031L83.2381 81.9468ZM50.7758 76.9083C50.4194 76.8664 50.1548 76.6228 50.0893 76.2691C49.7828 74.6734 48.96 73.5259 47.7731 73.0333C46.5887 72.5433 45.1947 72.7713 43.8532 73.6804C43.5545 73.8822 43.1955 73.8691 42.9152 73.6437C41.9719 72.8944 41.1151 72.035 40.3657 71.0892C40.1429 70.8088 40.1298 70.4499 40.3316 70.1538C41.2382 68.8123 41.4688 67.4211 40.9788 66.2368C40.4888 65.0552 39.3464 64.2351 37.7611 63.9259C37.41 63.8578 37.1663 63.5932 37.1244 63.2369C36.9882 62.0526 36.9882 60.8552 37.1244 59.6709C37.1663 59.3146 37.41 59.05 37.7611 58.9819C39.3464 58.6727 40.4888 57.8526 40.9788 56.671C41.4688 55.4867 41.2408 54.0955 40.3316 52.754C40.1298 52.4579 40.1456 52.099 40.3657 51.8186C41.1124 50.8728 41.9718 50.0134 42.9152 49.264C43.1955 49.0413 43.5545 49.0282 43.8532 49.2274C45.1973 50.1366 46.5887 50.3671 47.7731 49.8745C48.96 49.3819 49.7828 48.2344 50.0893 46.6387C50.1574 46.285 50.4195 46.0414 50.7784 45.9994C51.9732 45.8606 53.1864 45.8606 54.3838 45.9994C54.7402 46.0414 55.0048 46.285 55.0703 46.6387C55.3769 48.2344 56.1996 49.3819 57.3866 49.8745C58.5709 50.3645 59.9649 50.1365 61.3065 49.2274C61.6026 49.0256 61.9641 49.0387 62.2445 49.264C63.1877 50.0134 64.0472 50.8728 64.794 51.8186C65.0167 52.099 65.0298 52.4579 64.828 52.754C64.0472 53.9095 63.7721 55.099 64.021 56.1627C62.8026 56.4168 61.6392 56.8203 60.5518 57.3548C59.0243 54.381 55.9585 52.4919 52.5783 52.4919C47.6365 52.4919 43.6147 56.5138 43.6147 61.455C43.6147 66.2996 47.4795 70.2478 52.2852 70.4027C52.2852 70.4682 52.2799 70.5337 52.2799 70.5992C52.2799 72.8761 52.7987 75.035 53.7263 76.9634C52.7437 77.0368 51.7531 77.021 50.7758 76.9083ZM52.348 69.2156C48.1687 69.0925 44.8071 65.6628 44.8071 61.4551C44.8071 57.1687 48.2946 53.6813 52.5814 53.6813C55.5213 53.6813 58.1835 55.3319 59.5065 57.9232C55.5578 60.2734 52.796 64.413 52.348 69.2156ZM53.4721 70.599C53.4721 63.1236 59.5536 57.0427 67.0291 57.0427C74.505 57.0427 80.5862 63.1239 80.5862 70.599C80.5862 78.0744 74.5047 84.1554 67.0291 84.1554C59.5513 84.1527 53.4721 78.0742 53.4721 70.599ZM78.1493 80.2644L80.2769 82.3919L78.8201 83.8487L76.6924 81.7212C77.2112 81.2679 77.6986 80.7832 78.1493 80.2644ZM79.2184 85.1351L81.5635 82.7901C81.6788 82.6749 81.8281 82.6172 81.9775 82.6172C82.1268 82.6172 82.2788 82.6749 82.3915 82.7875L83.9663 84.3622L80.7905 87.5378L79.2157 85.9631C78.9904 85.7378 78.9904 85.3657 79.2184 85.1351ZM88.7508 92.3221C87.8756 93.1972 86.4502 93.1972 85.5751 92.3221L81.6369 88.3841L84.8126 85.2086L88.7508 89.1466C89.1727 89.5684 89.4059 90.1317 89.4059 90.7343C89.4059 91.3343 89.1726 91.9003 88.7508 92.3221ZM67.0263 59.0024C60.633 59.0024 55.4319 64.2032 55.4319 70.5961C55.4319 76.989 60.6331 82.1899 67.0263 82.1899C73.4196 82.1899 78.6207 76.989 78.6207 70.5961C78.6207 64.2058 73.4196 59.0024 67.0263 59.0024ZM67.0263 81.0034C61.288 81.0034 56.6212 76.337 56.6212 70.5988C56.6212 64.8608 61.2878 60.1943 67.0263 60.1943C72.7646 60.1943 77.4314 64.8606 77.4314 70.5988C77.4314 76.3368 72.7648 81.0034 67.0263 81.0034ZM77.7957 52.358C78.4062 52.9502 78.7154 53.6786 78.7206 54.5275C78.2804 54.834 77.9896 55.345 77.9896 55.9213C77.9896 56.3405 78.1442 56.7283 78.3983 57.0244C78.1442 57.3204 77.9896 57.7056 77.9896 58.1274C77.9896 59.0104 78.6708 59.7309 79.5329 59.8095C79.8709 61.2453 81.1548 62.3064 82.6772 62.3064C84.1995 62.3064 85.4834 61.2453 85.8214 59.8095C86.6835 59.7309 87.3648 59.0104 87.3648 58.1274C87.3648 57.7082 87.2102 57.3204 86.956 57.0244C87.2102 56.7283 87.3648 56.3432 87.3648 55.9213C87.3648 55.3449 87.0739 54.834 86.6338 54.5275C86.639 53.6786 86.9482 52.9501 87.5587 52.358C88.9343 51.0244 89.6916 49.2349 89.6916 47.3196C89.6916 43.4524 86.5447 40.3057 82.6772 40.3057C78.8098 40.3057 75.6629 43.4524 75.6629 47.3196C75.6629 49.2375 76.42 51.0244 77.7957 52.358ZM82.6771 61.1172C81.8203 61.1172 81.0866 60.5827 80.7853 59.8255H84.5689C84.2676 60.5827 83.5339 61.1172 82.6771 61.1172ZM85.6668 58.636H79.6874C79.407 58.636 79.1791 58.4081 79.1791 58.1277C79.1791 57.8474 79.407 57.6194 79.6874 57.6194H85.6668C85.9471 57.6194 86.1751 57.8474 86.1751 58.1277C86.1751 58.4081 85.9471 58.636 85.6668 58.636ZM85.6668 56.4299H79.6874C79.407 56.4299 79.1791 56.2019 79.1791 55.9216C79.1791 55.6412 79.407 55.4133 79.6874 55.4133H85.6668C85.9471 55.4133 86.1751 55.6412 86.1751 55.9216C86.1751 56.2019 85.9471 56.4299 85.6668 56.4299ZM82.6771 41.4978C85.8895 41.4978 88.5019 44.1101 88.5019 47.3223C88.5019 48.9127 87.873 50.3982 86.7306 51.504C85.9551 52.2559 85.5305 53.1704 85.4572 54.2236H83.2746L83.2719 49.4367L86.0468 46.6621C86.28 46.4289 86.28 46.0516 86.0468 45.821C85.8136 45.5879 85.4362 45.5879 85.2057 45.821L82.6772 48.3494L80.1487 45.821C79.9155 45.5879 79.5382 45.5879 79.3076 45.821C79.0744 46.0542 79.0744 46.4315 79.3076 46.6621L82.0824 49.4367V54.221H79.8997C79.8264 53.1677 79.4019 52.2533 78.6263 51.5013C77.4839 50.3957 76.8551 48.9101 76.8551 47.3197C76.8525 44.1101 79.4647 41.4978 82.6771 41.4978ZM90.8022 54.6035C91.0354 54.8366 91.0354 55.2139 90.8022 55.4445C90.6869 55.5598 90.535 55.62 90.3804 55.62C90.2284 55.62 90.0764 55.5624 89.9585 55.4445L88.5934 54.0794C88.3601 53.8462 88.3601 53.4689 88.5934 53.2384C88.8266 53.0052 89.2039 53.0052 89.4344 53.2384L90.8022 54.6035ZM94.1666 47.3226C94.1666 47.6501 93.8993 47.9173 93.5718 47.9173H91.6407C91.3132 47.9173 91.0459 47.6501 91.0459 47.3226C91.0459 46.9951 91.3132 46.7278 91.6407 46.7278H93.5692C93.8993 46.7278 94.1666 46.9924 94.1666 47.3226ZM88.596 41.4038C88.3628 41.1706 88.3628 40.7933 88.596 40.5628L89.9611 39.1977C90.1943 38.9645 90.5717 38.9645 90.8022 39.1977C91.0354 39.4309 91.0354 39.8082 90.8022 40.0387L89.4371 41.4038C89.3218 41.5191 89.1698 41.5794 89.0152 41.5794C88.8632 41.5767 88.7113 41.5191 88.596 41.4038ZM82.0821 38.3566V36.4283C82.0821 36.1007 82.3494 35.8335 82.6769 35.8335C83.0044 35.8335 83.2717 36.1007 83.2717 36.4283V38.3566C83.2717 38.6841 83.0044 38.9514 82.6769 38.9514C82.3468 38.9514 82.0821 38.6868 82.0821 38.3566ZM74.5513 40.0387C74.3181 39.8055 74.3181 39.4282 74.5513 39.1977C74.7845 38.9645 75.1618 38.9645 75.3924 39.1977L76.7576 40.5628C76.9908 40.796 76.9908 41.1733 76.7576 41.4038C76.6423 41.5191 76.4903 41.5794 76.3357 41.5794C76.1837 41.5794 76.0318 41.5217 75.9138 41.4038L74.5513 40.0387ZM71.187 47.3223C71.187 46.9948 71.4542 46.7275 71.7817 46.7275H73.7102C74.0378 46.7275 74.305 46.9948 74.305 47.3223C74.305 47.6498 74.0378 47.9171 73.7102 47.9171H71.7817C71.4516 47.9171 71.187 47.6498 71.187 47.3223ZM76.7576 53.2411C76.9908 53.4742 76.9908 53.8515 76.7576 54.0821L75.3924 55.4472C75.2771 55.5625 75.1251 55.6227 74.9705 55.6227C74.8186 55.6227 74.6666 55.5651 74.5487 55.4472C74.3155 55.214 74.3155 54.8367 74.5487 54.6061L75.9138 53.2411C76.1497 53.0079 76.5244 53.0079 76.7576 53.2411Z"/>
</mask>
<path d="M83.2381 81.9468C82.6852 81.3939 81.8572 81.2891 81.1917 81.6192L78.9016 79.3293C80.7069 76.8821 81.776 73.8638 81.776 70.5962C81.776 62.4662 75.1599 55.8506 67.0296 55.8506C66.4112 55.8506 65.8007 55.8926 65.2033 55.9686C64.9963 55.214 65.2059 54.3179 65.8164 53.4192C66.3038 52.7013 66.2671 51.758 65.7299 51.0768C64.9255 50.0603 64.0032 49.1354 62.9866 48.3283C62.3054 47.786 61.362 47.7519 60.6415 48.2393C59.6406 48.9152 58.6475 49.1065 57.8431 48.7738C57.0387 48.441 56.4701 47.6026 56.2421 46.4131C56.0771 45.559 55.388 44.917 54.5206 44.8175C53.2341 44.6681 51.9292 44.6681 50.6427 44.8175C49.778 44.917 49.0863 45.559 48.9213 46.4131C48.6933 47.6026 48.1247 48.441 47.3203 48.7738C46.5159 49.1065 45.5228 48.9179 44.5219 48.2393C43.8014 47.7519 42.858 47.786 42.1768 48.3283C41.1602 49.1353 40.2378 50.0602 39.4335 51.0768C38.8963 51.758 38.8596 52.6987 39.347 53.4192C40.023 54.4201 40.2117 55.4131 39.8789 56.2148C39.5461 57.0166 38.7129 57.5826 37.5338 57.8131C36.6796 57.9808 36.0402 58.6724 35.9433 59.5345C35.7966 60.8078 35.7966 62.0969 35.9433 63.3703C36.0429 64.235 36.6822 64.9266 37.5364 65.0917C38.7181 65.3223 39.5513 65.8882 39.8815 66.6899C40.2143 67.4917 40.0256 68.4847 39.3496 69.4856C38.8622 70.2061 38.8989 71.1467 39.4361 71.828C40.2405 72.8445 41.1628 73.7694 42.1794 74.5765C42.8607 75.1188 43.804 75.1529 44.5245 74.6655C45.5255 73.9896 46.5185 73.7983 47.3229 74.131C48.1273 74.4638 48.6959 75.3022 48.9239 76.4917C49.089 77.3458 49.778 77.9878 50.6454 78.0873C51.2899 78.1607 51.9371 78.2 52.5843 78.2C53.1739 78.2 53.7608 78.1659 54.3477 78.1031C56.9208 82.434 61.6424 85.3424 67.0321 85.3424C70.2995 85.3424 73.318 84.2733 75.7656 82.4681L78.0557 84.7581C77.7256 85.4236 77.8278 86.2515 78.3833 86.8044L84.74 93.1607C85.4107 93.8315 86.2911 94.1668 87.1689 94.1668C88.0493 94.1668 88.9297 93.8315 89.5979 93.1607C90.2451 92.5136 90.6014 91.6516 90.6014 90.7319C90.6014 89.8122 90.2451 88.9476 89.5979 88.3031L83.2381 81.9468ZM50.7758 76.9083C50.4194 76.8664 50.1548 76.6228 50.0893 76.2691C49.7828 74.6734 48.96 73.5259 47.7731 73.0333C46.5887 72.5433 45.1947 72.7713 43.8532 73.6804C43.5545 73.8822 43.1955 73.8691 42.9152 73.6437C41.9719 72.8944 41.1151 72.035 40.3657 71.0892C40.1429 70.8088 40.1298 70.4499 40.3316 70.1538C41.2382 68.8123 41.4688 67.4211 40.9788 66.2368C40.4888 65.0552 39.3464 64.2351 37.7611 63.9259C37.41 63.8578 37.1663 63.5932 37.1244 63.2369C36.9882 62.0526 36.9882 60.8552 37.1244 59.6709C37.1663 59.3146 37.41 59.05 37.7611 58.9819C39.3464 58.6727 40.4888 57.8526 40.9788 56.671C41.4688 55.4867 41.2408 54.0955 40.3316 52.754C40.1298 52.4579 40.1456 52.099 40.3657 51.8186C41.1124 50.8728 41.9718 50.0134 42.9152 49.264C43.1955 49.0413 43.5545 49.0282 43.8532 49.2274C45.1973 50.1366 46.5887 50.3671 47.7731 49.8745C48.96 49.3819 49.7828 48.2344 50.0893 46.6387C50.1574 46.285 50.4195 46.0414 50.7784 45.9994C51.9732 45.8606 53.1864 45.8606 54.3838 45.9994C54.7402 46.0414 55.0048 46.285 55.0703 46.6387C55.3769 48.2344 56.1996 49.3819 57.3866 49.8745C58.5709 50.3645 59.9649 50.1365 61.3065 49.2274C61.6026 49.0256 61.9641 49.0387 62.2445 49.264C63.1877 50.0134 64.0472 50.8728 64.794 51.8186C65.0167 52.099 65.0298 52.4579 64.828 52.754C64.0472 53.9095 63.7721 55.099 64.021 56.1627C62.8026 56.4168 61.6392 56.8203 60.5518 57.3548C59.0243 54.381 55.9585 52.4919 52.5783 52.4919C47.6365 52.4919 43.6147 56.5138 43.6147 61.455C43.6147 66.2996 47.4795 70.2478 52.2852 70.4027C52.2852 70.4682 52.2799 70.5337 52.2799 70.5992C52.2799 72.8761 52.7987 75.035 53.7263 76.9634C52.7437 77.0368 51.7531 77.021 50.7758 76.9083ZM52.348 69.2156C48.1687 69.0925 44.8071 65.6628 44.8071 61.4551C44.8071 57.1687 48.2946 53.6813 52.5814 53.6813C55.5213 53.6813 58.1835 55.3319 59.5065 57.9232C55.5578 60.2734 52.796 64.413 52.348 69.2156ZM53.4721 70.599C53.4721 63.1236 59.5536 57.0427 67.0291 57.0427C74.505 57.0427 80.5862 63.1239 80.5862 70.599C80.5862 78.0744 74.5047 84.1554 67.0291 84.1554C59.5513 84.1527 53.4721 78.0742 53.4721 70.599ZM78.1493 80.2644L80.2769 82.3919L78.8201 83.8487L76.6924 81.7212C77.2112 81.2679 77.6986 80.7832 78.1493 80.2644ZM79.2184 85.1351L81.5635 82.7901C81.6788 82.6749 81.8281 82.6172 81.9775 82.6172C82.1268 82.6172 82.2788 82.6749 82.3915 82.7875L83.9663 84.3622L80.7905 87.5378L79.2157 85.9631C78.9904 85.7378 78.9904 85.3657 79.2184 85.1351ZM88.7508 92.3221C87.8756 93.1972 86.4502 93.1972 85.5751 92.3221L81.6369 88.3841L84.8126 85.2086L88.7508 89.1466C89.1727 89.5684 89.4059 90.1317 89.4059 90.7343C89.4059 91.3343 89.1726 91.9003 88.7508 92.3221ZM67.0263 59.0024C60.633 59.0024 55.4319 64.2032 55.4319 70.5961C55.4319 76.989 60.6331 82.1899 67.0263 82.1899C73.4196 82.1899 78.6207 76.989 78.6207 70.5961C78.6207 64.2058 73.4196 59.0024 67.0263 59.0024ZM67.0263 81.0034C61.288 81.0034 56.6212 76.337 56.6212 70.5988C56.6212 64.8608 61.2878 60.1943 67.0263 60.1943C72.7646 60.1943 77.4314 64.8606 77.4314 70.5988C77.4314 76.3368 72.7648 81.0034 67.0263 81.0034ZM77.7957 52.358C78.4062 52.9502 78.7154 53.6786 78.7206 54.5275C78.2804 54.834 77.9896 55.345 77.9896 55.9213C77.9896 56.3405 78.1442 56.7283 78.3983 57.0244C78.1442 57.3204 77.9896 57.7056 77.9896 58.1274C77.9896 59.0104 78.6708 59.7309 79.5329 59.8095C79.8709 61.2453 81.1548 62.3064 82.6772 62.3064C84.1995 62.3064 85.4834 61.2453 85.8214 59.8095C86.6835 59.7309 87.3648 59.0104 87.3648 58.1274C87.3648 57.7082 87.2102 57.3204 86.956 57.0244C87.2102 56.7283 87.3648 56.3432 87.3648 55.9213C87.3648 55.3449 87.0739 54.834 86.6338 54.5275C86.639 53.6786 86.9482 52.9501 87.5587 52.358C88.9343 51.0244 89.6916 49.2349 89.6916 47.3196C89.6916 43.4524 86.5447 40.3057 82.6772 40.3057C78.8098 40.3057 75.6629 43.4524 75.6629 47.3196C75.6629 49.2375 76.42 51.0244 77.7957 52.358ZM82.6771 61.1172C81.8203 61.1172 81.0866 60.5827 80.7853 59.8255H84.5689C84.2676 60.5827 83.5339 61.1172 82.6771 61.1172ZM85.6668 58.636H79.6874C79.407 58.636 79.1791 58.4081 79.1791 58.1277C79.1791 57.8474 79.407 57.6194 79.6874 57.6194H85.6668C85.9471 57.6194 86.1751 57.8474 86.1751 58.1277C86.1751 58.4081 85.9471 58.636 85.6668 58.636ZM85.6668 56.4299H79.6874C79.407 56.4299 79.1791 56.2019 79.1791 55.9216C79.1791 55.6412 79.407 55.4133 79.6874 55.4133H85.6668C85.9471 55.4133 86.1751 55.6412 86.1751 55.9216C86.1751 56.2019 85.9471 56.4299 85.6668 56.4299ZM82.6771 41.4978C85.8895 41.4978 88.5019 44.1101 88.5019 47.3223C88.5019 48.9127 87.873 50.3982 86.7306 51.504C85.9551 52.2559 85.5305 53.1704 85.4572 54.2236H83.2746L83.2719 49.4367L86.0468 46.6621C86.28 46.4289 86.28 46.0516 86.0468 45.821C85.8136 45.5879 85.4362 45.5879 85.2057 45.821L82.6772 48.3494L80.1487 45.821C79.9155 45.5879 79.5382 45.5879 79.3076 45.821C79.0744 46.0542 79.0744 46.4315 79.3076 46.6621L82.0824 49.4367V54.221H79.8997C79.8264 53.1677 79.4019 52.2533 78.6263 51.5013C77.4839 50.3957 76.8551 48.9101 76.8551 47.3197C76.8525 44.1101 79.4647 41.4978 82.6771 41.4978ZM90.8022 54.6035C91.0354 54.8366 91.0354 55.2139 90.8022 55.4445C90.6869 55.5598 90.535 55.62 90.3804 55.62C90.2284 55.62 90.0764 55.5624 89.9585 55.4445L88.5934 54.0794C88.3601 53.8462 88.3601 53.4689 88.5934 53.2384C88.8266 53.0052 89.2039 53.0052 89.4344 53.2384L90.8022 54.6035ZM94.1666 47.3226C94.1666 47.6501 93.8993 47.9173 93.5718 47.9173H91.6407C91.3132 47.9173 91.0459 47.6501 91.0459 47.3226C91.0459 46.9951 91.3132 46.7278 91.6407 46.7278H93.5692C93.8993 46.7278 94.1666 46.9924 94.1666 47.3226ZM88.596 41.4038C88.3628 41.1706 88.3628 40.7933 88.596 40.5628L89.9611 39.1977C90.1943 38.9645 90.5717 38.9645 90.8022 39.1977C91.0354 39.4309 91.0354 39.8082 90.8022 40.0387L89.4371 41.4038C89.3218 41.5191 89.1698 41.5794 89.0152 41.5794C88.8632 41.5767 88.7113 41.5191 88.596 41.4038ZM82.0821 38.3566V36.4283C82.0821 36.1007 82.3494 35.8335 82.6769 35.8335C83.0044 35.8335 83.2717 36.1007 83.2717 36.4283V38.3566C83.2717 38.6841 83.0044 38.9514 82.6769 38.9514C82.3468 38.9514 82.0821 38.6868 82.0821 38.3566ZM74.5513 40.0387C74.3181 39.8055 74.3181 39.4282 74.5513 39.1977C74.7845 38.9645 75.1618 38.9645 75.3924 39.1977L76.7576 40.5628C76.9908 40.796 76.9908 41.1733 76.7576 41.4038C76.6423 41.5191 76.4903 41.5794 76.3357 41.5794C76.1837 41.5794 76.0318 41.5217 75.9138 41.4038L74.5513 40.0387ZM71.187 47.3223C71.187 46.9948 71.4542 46.7275 71.7817 46.7275H73.7102C74.0378 46.7275 74.305 46.9948 74.305 47.3223C74.305 47.6498 74.0378 47.9171 73.7102 47.9171H71.7817C71.4516 47.9171 71.187 47.6498 71.187 47.3223ZM76.7576 53.2411C76.9908 53.4742 76.9908 53.8515 76.7576 54.0821L75.3924 55.4472C75.2771 55.5625 75.1251 55.6227 74.9705 55.6227C74.8186 55.6227 74.6666 55.5651 74.5487 55.4472C74.3155 55.214 74.3155 54.8367 74.5487 54.6061L75.9138 53.2411C76.1497 53.0079 76.5244 53.0079 76.7576 53.2411Z" fill="white"/>
<path d="M83.2381 81.9468C82.6852 81.3939 81.8572 81.2891 81.1917 81.6192L78.9016 79.3293C80.7069 76.8821 81.776 73.8638 81.776 70.5962C81.776 62.4662 75.1599 55.8506 67.0296 55.8506C66.4112 55.8506 65.8007 55.8926 65.2033 55.9686C64.9963 55.214 65.2059 54.3179 65.8164 53.4192C66.3038 52.7013 66.2671 51.758 65.7299 51.0768C64.9255 50.0603 64.0032 49.1354 62.9866 48.3283C62.3054 47.786 61.362 47.7519 60.6415 48.2393C59.6406 48.9152 58.6475 49.1065 57.8431 48.7738C57.0387 48.441 56.4701 47.6026 56.2421 46.4131C56.0771 45.559 55.388 44.917 54.5206 44.8175C53.2341 44.6681 51.9292 44.6681 50.6427 44.8175C49.778 44.917 49.0863 45.559 48.9213 46.4131C48.6933 47.6026 48.1247 48.441 47.3203 48.7738C46.5159 49.1065 45.5228 48.9179 44.5219 48.2393C43.8014 47.7519 42.858 47.786 42.1768 48.3283C41.1602 49.1353 40.2378 50.0602 39.4335 51.0768C38.8963 51.758 38.8596 52.6987 39.347 53.4192C40.023 54.4201 40.2117 55.4131 39.8789 56.2148C39.5461 57.0166 38.7129 57.5826 37.5338 57.8131C36.6796 57.9808 36.0402 58.6724 35.9433 59.5345C35.7966 60.8078 35.7966 62.0969 35.9433 63.3703C36.0429 64.235 36.6822 64.9266 37.5364 65.0917C38.7181 65.3223 39.5513 65.8882 39.8815 66.6899C40.2143 67.4917 40.0256 68.4847 39.3496 69.4856C38.8622 70.2061 38.8989 71.1467 39.4361 71.828C40.2405 72.8445 41.1628 73.7694 42.1794 74.5765C42.8607 75.1188 43.804 75.1529 44.5245 74.6655C45.5255 73.9896 46.5185 73.7983 47.3229 74.131C48.1273 74.4638 48.6959 75.3022 48.9239 76.4917C49.089 77.3458 49.778 77.9878 50.6454 78.0873C51.2899 78.1607 51.9371 78.2 52.5843 78.2C53.1739 78.2 53.7608 78.1659 54.3477 78.1031C56.9208 82.434 61.6424 85.3424 67.0321 85.3424C70.2995 85.3424 73.318 84.2733 75.7656 82.4681L78.0557 84.7581C77.7256 85.4236 77.8278 86.2515 78.3833 86.8044L84.74 93.1607C85.4107 93.8315 86.2911 94.1668 87.1689 94.1668C88.0493 94.1668 88.9297 93.8315 89.5979 93.1607C90.2451 92.5136 90.6014 91.6516 90.6014 90.7319C90.6014 89.8122 90.2451 88.9476 89.5979 88.3031L83.2381 81.9468ZM50.7758 76.9083C50.4194 76.8664 50.1548 76.6228 50.0893 76.2691C49.7828 74.6734 48.96 73.5259 47.7731 73.0333C46.5887 72.5433 45.1947 72.7713 43.8532 73.6804C43.5545 73.8822 43.1955 73.8691 42.9152 73.6437C41.9719 72.8944 41.1151 72.035 40.3657 71.0892C40.1429 70.8088 40.1298 70.4499 40.3316 70.1538C41.2382 68.8123 41.4688 67.4211 40.9788 66.2368C40.4888 65.0552 39.3464 64.2351 37.7611 63.9259C37.41 63.8578 37.1663 63.5932 37.1244 63.2369C36.9882 62.0526 36.9882 60.8552 37.1244 59.6709C37.1663 59.3146 37.41 59.05 37.7611 58.9819C39.3464 58.6727 40.4888 57.8526 40.9788 56.671C41.4688 55.4867 41.2408 54.0955 40.3316 52.754C40.1298 52.4579 40.1456 52.099 40.3657 51.8186C41.1124 50.8728 41.9718 50.0134 42.9152 49.264C43.1955 49.0413 43.5545 49.0282 43.8532 49.2274C45.1973 50.1366 46.5887 50.3671 47.7731 49.8745C48.96 49.3819 49.7828 48.2344 50.0893 46.6387C50.1574 46.285 50.4195 46.0414 50.7784 45.9994C51.9732 45.8606 53.1864 45.8606 54.3838 45.9994C54.7402 46.0414 55.0048 46.285 55.0703 46.6387C55.3769 48.2344 56.1996 49.3819 57.3866 49.8745C58.5709 50.3645 59.9649 50.1365 61.3065 49.2274C61.6026 49.0256 61.9641 49.0387 62.2445 49.264C63.1877 50.0134 64.0472 50.8728 64.794 51.8186C65.0167 52.099 65.0298 52.4579 64.828 52.754C64.0472 53.9095 63.7721 55.099 64.021 56.1627C62.8026 56.4168 61.6392 56.8203 60.5518 57.3548C59.0243 54.381 55.9585 52.4919 52.5783 52.4919C47.6365 52.4919 43.6147 56.5138 43.6147 61.455C43.6147 66.2996 47.4795 70.2478 52.2852 70.4027C52.2852 70.4682 52.2799 70.5337 52.2799 70.5992C52.2799 72.8761 52.7987 75.035 53.7263 76.9634C52.7437 77.0368 51.7531 77.021 50.7758 76.9083ZM52.348 69.2156C48.1687 69.0925 44.8071 65.6628 44.8071 61.4551C44.8071 57.1687 48.2946 53.6813 52.5814 53.6813C55.5213 53.6813 58.1835 55.3319 59.5065 57.9232C55.5578 60.2734 52.796 64.413 52.348 69.2156ZM53.4721 70.599C53.4721 63.1236 59.5536 57.0427 67.0291 57.0427C74.505 57.0427 80.5862 63.1239 80.5862 70.599C80.5862 78.0744 74.5047 84.1554 67.0291 84.1554C59.5513 84.1527 53.4721 78.0742 53.4721 70.599ZM78.1493 80.2644L80.2769 82.3919L78.8201 83.8487L76.6924 81.7212C77.2112 81.2679 77.6986 80.7832 78.1493 80.2644ZM79.2184 85.1351L81.5635 82.7901C81.6788 82.6749 81.8281 82.6172 81.9775 82.6172C82.1268 82.6172 82.2788 82.6749 82.3915 82.7875L83.9663 84.3622L80.7905 87.5378L79.2157 85.9631C78.9904 85.7378 78.9904 85.3657 79.2184 85.1351ZM88.7508 92.3221C87.8756 93.1972 86.4502 93.1972 85.5751 92.3221L81.6369 88.3841L84.8126 85.2086L88.7508 89.1466C89.1727 89.5684 89.4059 90.1317 89.4059 90.7343C89.4059 91.3343 89.1726 91.9003 88.7508 92.3221ZM67.0263 59.0024C60.633 59.0024 55.4319 64.2032 55.4319 70.5961C55.4319 76.989 60.6331 82.1899 67.0263 82.1899C73.4196 82.1899 78.6207 76.989 78.6207 70.5961C78.6207 64.2058 73.4196 59.0024 67.0263 59.0024ZM67.0263 81.0034C61.288 81.0034 56.6212 76.337 56.6212 70.5988C56.6212 64.8608 61.2878 60.1943 67.0263 60.1943C72.7646 60.1943 77.4314 64.8606 77.4314 70.5988C77.4314 76.3368 72.7648 81.0034 67.0263 81.0034ZM77.7957 52.358C78.4062 52.9502 78.7154 53.6786 78.7206 54.5275C78.2804 54.834 77.9896 55.345 77.9896 55.9213C77.9896 56.3405 78.1442 56.7283 78.3983 57.0244C78.1442 57.3204 77.9896 57.7056 77.9896 58.1274C77.9896 59.0104 78.6708 59.7309 79.5329 59.8095C79.8709 61.2453 81.1548 62.3064 82.6772 62.3064C84.1995 62.3064 85.4834 61.2453 85.8214 59.8095C86.6835 59.7309 87.3648 59.0104 87.3648 58.1274C87.3648 57.7082 87.2102 57.3204 86.956 57.0244C87.2102 56.7283 87.3648 56.3432 87.3648 55.9213C87.3648 55.3449 87.0739 54.834 86.6338 54.5275C86.639 53.6786 86.9482 52.9501 87.5587 52.358C88.9343 51.0244 89.6916 49.2349 89.6916 47.3196C89.6916 43.4524 86.5447 40.3057 82.6772 40.3057C78.8098 40.3057 75.6629 43.4524 75.6629 47.3196C75.6629 49.2375 76.42 51.0244 77.7957 52.358ZM82.6771 61.1172C81.8203 61.1172 81.0866 60.5827 80.7853 59.8255H84.5689C84.2676 60.5827 83.5339 61.1172 82.6771 61.1172ZM85.6668 58.636H79.6874C79.407 58.636 79.1791 58.4081 79.1791 58.1277C79.1791 57.8474 79.407 57.6194 79.6874 57.6194H85.6668C85.9471 57.6194 86.1751 57.8474 86.1751 58.1277C86.1751 58.4081 85.9471 58.636 85.6668 58.636ZM85.6668 56.4299H79.6874C79.407 56.4299 79.1791 56.2019 79.1791 55.9216C79.1791 55.6412 79.407 55.4133 79.6874 55.4133H85.6668C85.9471 55.4133 86.1751 55.6412 86.1751 55.9216C86.1751 56.2019 85.9471 56.4299 85.6668 56.4299ZM82.6771 41.4978C85.8895 41.4978 88.5019 44.1101 88.5019 47.3223C88.5019 48.9127 87.873 50.3982 86.7306 51.504C85.9551 52.2559 85.5305 53.1704 85.4572 54.2236H83.2746L83.2719 49.4367L86.0468 46.6621C86.28 46.4289 86.28 46.0516 86.0468 45.821C85.8136 45.5879 85.4362 45.5879 85.2057 45.821L82.6772 48.3494L80.1487 45.821C79.9155 45.5879 79.5382 45.5879 79.3076 45.821C79.0744 46.0542 79.0744 46.4315 79.3076 46.6621L82.0824 49.4367V54.221H79.8997C79.8264 53.1677 79.4019 52.2533 78.6263 51.5013C77.4839 50.3957 76.8551 48.9101 76.8551 47.3197C76.8525 44.1101 79.4647 41.4978 82.6771 41.4978ZM90.8022 54.6035C91.0354 54.8366 91.0354 55.2139 90.8022 55.4445C90.6869 55.5598 90.535 55.62 90.3804 55.62C90.2284 55.62 90.0764 55.5624 89.9585 55.4445L88.5934 54.0794C88.3601 53.8462 88.3601 53.4689 88.5934 53.2384C88.8266 53.0052 89.2039 53.0052 89.4344 53.2384L90.8022 54.6035ZM94.1666 47.3226C94.1666 47.6501 93.8993 47.9173 93.5718 47.9173H91.6407C91.3132 47.9173 91.0459 47.6501 91.0459 47.3226C91.0459 46.9951 91.3132 46.7278 91.6407 46.7278H93.5692C93.8993 46.7278 94.1666 46.9924 94.1666 47.3226ZM88.596 41.4038C88.3628 41.1706 88.3628 40.7933 88.596 40.5628L89.9611 39.1977C90.1943 38.9645 90.5717 38.9645 90.8022 39.1977C91.0354 39.4309 91.0354 39.8082 90.8022 40.0387L89.4371 41.4038C89.3218 41.5191 89.1698 41.5794 89.0152 41.5794C88.8632 41.5767 88.7113 41.5191 88.596 41.4038ZM82.0821 38.3566V36.4283C82.0821 36.1007 82.3494 35.8335 82.6769 35.8335C83.0044 35.8335 83.2717 36.1007 83.2717 36.4283V38.3566C83.2717 38.6841 83.0044 38.9514 82.6769 38.9514C82.3468 38.9514 82.0821 38.6868 82.0821 38.3566ZM74.5513 40.0387C74.3181 39.8055 74.3181 39.4282 74.5513 39.1977C74.7845 38.9645 75.1618 38.9645 75.3924 39.1977L76.7576 40.5628C76.9908 40.796 76.9908 41.1733 76.7576 41.4038C76.6423 41.5191 76.4903 41.5794 76.3357 41.5794C76.1837 41.5794 76.0318 41.5217 75.9138 41.4038L74.5513 40.0387ZM71.187 47.3223C71.187 46.9948 71.4542 46.7275 71.7817 46.7275H73.7102C74.0378 46.7275 74.305 46.9948 74.305 47.3223C74.305 47.6498 74.0378 47.9171 73.7102 47.9171H71.7817C71.4516 47.9171 71.187 47.6498 71.187 47.3223ZM76.7576 53.2411C76.9908 53.4742 76.9908 53.8515 76.7576 54.0821L75.3924 55.4472C75.2771 55.5625 75.1251 55.6227 74.9705 55.6227C74.8186 55.6227 74.6666 55.5651 74.5487 55.4472C74.3155 55.214 74.3155 54.8367 74.5487 54.6061L75.9138 53.2411C76.1497 53.0079 76.5244 53.0079 76.7576 53.2411Z" stroke="white" mask="url(#path-2-outside-1_2087_4876)"/>
</svg>
