<svg width="72" height="72" viewBox="0 0 72 72" fill="none" xmlns="http://www.w3.org/2000/svg">
<path d="M30.4456 11.0002C19.7216 11.0002 11.0002 19.7216 11.0002 30.4457C11.0002 41.167 19.7216 49.8884 30.4456 49.8884C34.3467 49.8884 37.9823 48.7295 41.0289 46.7425L48.581 58.0706C49.7997 59.8987 51.857 61.0002 54.0549 61.0002H54.87C56.495 61.0002 58.0549 60.3544 59.2034 59.2034C60.3544 58.0549 61.0002 56.495 61.0002 54.87V54.0549C61.0002 51.8569 59.8987 49.7997 58.0706 48.5809L46.7426 41.0289C48.7296 37.982 49.8884 34.3469 49.8884 30.4455C49.8884 19.7215 41.167 11.0002 30.4456 11.0002ZM30.4456 13.7789C39.6669 13.7789 47.1123 21.2243 47.1123 30.4457C47.1123 39.667 39.6669 47.1124 30.4456 47.1124C21.2243 47.1124 13.7789 39.667 13.7789 30.4457C13.7789 21.2243 21.2243 13.7789 30.4456 13.7789ZM45.0603 43.2477L56.529 50.8937C57.5888 51.5995 58.2217 52.7843 58.2217 54.0552V54.8704C58.2217 55.761 57.8701 56.6126 57.2399 57.2402C56.6123 57.8704 55.7607 58.222 54.8701 58.222H54.055C52.7842 58.222 51.5992 57.5891 50.8935 56.5292L43.2475 45.0605C43.8907 44.498 44.4978 43.891 45.0603 43.2477Z" fill="white"/>
<path d="M26.2791 26.2816C24.9692 26.2816 23.7348 26.8988 22.9483 27.9457L19.6124 32.3859C19.391 32.6801 19.2947 33.0499 19.3468 33.4171C19.3989 33.7817 19.5942 34.1099 19.891 34.3312C20.1853 34.5552 20.5551 34.6489 20.9223 34.5968C21.2869 34.5447 21.615 34.352 21.8364 34.0552L25.1671 29.6098C25.4301 29.2582 25.8416 29.0577 26.2791 29.0577C26.8 29.0577 27.2999 29.2635 27.6671 29.6332L31.2583 33.2218C32.1463 34.1098 33.3546 34.6098 34.6098 34.6098C35.9197 34.6098 37.1541 33.9926 37.9405 32.9457L41.2765 28.5056V28.503C41.4978 28.2087 41.5942 27.8389 41.5421 27.4743C41.49 27.1071 41.2947 26.779 41.0004 26.5576C40.7062 26.3363 40.3338 26.2399 39.9692 26.292C39.6046 26.3441 39.2738 26.5394 39.0525 26.8337L35.7218 31.279C35.4587 31.6306 35.0473 31.8311 34.6098 31.8311C34.0889 31.8311 33.589 31.6254 33.2218 31.2556L29.6306 27.6696C28.7426 26.7816 27.5369 26.2816 26.2791 26.2816Z" fill="white"/>
</svg>
