<svg width="72" height="72" viewBox="0 0 72 72" fill="none" xmlns="http://www.w3.org/2000/svg">
<path d="M36.162 28.4434C31.7977 28.4434 28.2422 31.9989 28.2422 36.3632C28.2422 40.7274 31.7977 44.283 36.162 44.283C40.5263 44.283 44.0819 40.7274 44.0819 36.3632C44.0819 31.9989 40.5263 28.4434 36.162 28.4434ZM36.162 30.204C39.575 30.204 42.3212 32.9502 42.3212 36.3632C42.3212 39.7761 39.575 42.5223 36.162 42.5223C32.749 42.5223 30.0029 39.7761 30.0029 36.3632C30.0029 32.9502 32.749 30.204 36.162 30.204Z" fill="white"/>
<path d="M9.19545 17.0618C8.62029 16.8411 8.00224 17.2644 8 17.8804V54.8481C8.00225 55.4641 8.62029 55.8874 9.19545 55.6667C27.5043 48.6919 44.8287 48.7009 62.2434 55.6667C62.8205 55.8934 63.4448 55.4682 63.4453 54.8481V17.8804C63.4448 17.2603 62.8205 16.8351 62.2434 17.0618C44.8287 24.0276 27.5043 24.0365 9.19545 17.0618ZM9.76068 19.137C27.5613 25.6374 44.6789 25.6517 61.6877 19.1576V53.5586C44.6789 47.0645 27.5613 47.0679 9.76068 53.5683V19.137Z" fill="white"/>
</svg>
