<svg width="72" height="72" viewBox="0 0 72 72" fill="none" xmlns="http://www.w3.org/2000/svg">
<path d="M54.9942 18.2688C54.9942 18.2393 54.9942 18.2089 54.9942 18.1784C54.9942 18.1479 54.9942 18.1306 54.9871 18.1062C54.9801 18.0818 54.9801 18.0575 54.976 18.0341C54.972 18.0107 54.9649 17.9762 54.9579 17.9467C54.9579 17.9355 54.9579 17.9254 54.9508 17.9142C54.9437 17.903 54.9447 17.8969 54.9427 17.8878C54.9346 17.8573 54.9245 17.8278 54.9145 17.7983C54.9044 17.7689 54.9013 17.7597 54.8933 17.7414C54.8852 17.7231 54.8711 17.6886 54.86 17.6632C54.8488 17.6378 54.8408 17.6215 54.8297 17.6002C54.8186 17.5788 54.8065 17.5575 54.7943 17.5362C54.7822 17.5148 54.7681 17.4904 54.753 17.4681C54.7378 17.4457 54.7287 17.4335 54.7166 17.4163C54.7045 17.399 54.6833 17.3695 54.6662 17.3482L54.6278 17.3024C54.6086 17.2811 54.5905 17.2588 54.5703 17.2384L54.5259 17.1947C54.5067 17.1764 54.4865 17.1571 54.4663 17.1399L54.4118 17.0962L54.3533 17.0525C54.3321 17.0372 54.3099 17.024 54.2887 17.0098L54.2322 16.9752C54.2079 16.962 54.1837 16.9488 54.1595 16.9366L54.102 16.9092L54.0263 16.8787L53.9637 16.8553L53.892 16.834L53.8173 16.8147L53.7538 16.8025L53.666 16.7893L53.6094 16.7842C53.5771 16.7842 53.5448 16.7842 53.5085 16.7842H53.3642L53.2935 16.7913L53.2208 16.8025L53.133 16.8208L53.1018 16.8269C51.8307 17.1605 50.5224 17.3288 49.2089 17.3279C46.914 17.3322 44.6476 16.8169 42.5773 15.8201C40.507 14.8233 38.6859 13.3706 37.2487 11.5693L37.2396 11.5581C37.2245 11.5388 37.2073 11.5205 37.1912 11.5022C37.175 11.4839 37.1639 11.4697 37.1498 11.4545C37.1155 11.4186 37.0795 11.3847 37.0418 11.3529L37.0327 11.3457C36.9974 11.3163 36.961 11.2878 36.9237 11.2624L36.8884 11.2401C36.8601 11.2218 36.8308 11.2025 36.8016 11.1862L36.743 11.1567C36.7198 11.1456 36.6976 11.1334 36.6734 11.1232C36.6492 11.113 36.6249 11.1039 36.6007 11.0937L36.5402 11.0714C36.5139 11.0622 36.4877 11.0551 36.4614 11.048L36.4019 11.0328L36.3242 11.0175L36.2596 11.0074L36.1879 11.0002H35.9689L35.9124 11.0053C35.8831 11.0053 35.8538 11.0114 35.8256 11.0165L35.7721 11.0267C35.7428 11.0328 35.7146 11.0389 35.6853 11.046L35.6298 11.0622L35.55 11.0876L35.4865 11.113L35.4188 11.1425C35.3946 11.1537 35.3704 11.1669 35.3462 11.1801L35.2917 11.2106C35.2654 11.2258 35.2402 11.2431 35.215 11.2604L35.1816 11.2817L35.1675 11.2929C35.1433 11.3112 35.1201 11.3305 35.0969 11.3498L35.0454 11.3935C35.0282 11.4098 35.0111 11.426 34.9949 11.4433C34.9788 11.4606 34.9535 11.4839 34.9344 11.5063L34.9223 11.5185L34.8778 11.5713L34.8587 11.5947C33.4214 13.3924 31.6013 14.8421 29.533 15.8367C27.4646 16.8313 25.2007 17.3454 22.9086 17.3411C21.5601 17.342 20.2174 17.1647 18.9148 16.8137L18.8673 16.7923C18.8381 16.7852 18.8098 16.7791 18.7805 16.773L18.7069 16.7619L18.6362 16.7537C18.6049 16.7537 18.5746 16.7537 18.5444 16.7537H18.4878C18.4545 16.7537 18.4222 16.7537 18.3869 16.7537H18.3314C18.3021 16.7537 18.2729 16.7619 18.2436 16.7669L18.18 16.7791L18.1063 16.7984L18.0347 16.8198L17.9731 16.8421C17.9479 16.8523 17.9216 16.8614 17.8964 16.8726L17.8409 16.9001C17.8156 16.9122 17.7914 16.9244 17.7672 16.9387L17.7117 16.9732C17.6895 16.9874 17.6673 17.0007 17.6461 17.0159C17.6249 17.0311 17.6067 17.0454 17.5865 17.0606C17.5663 17.0758 17.5502 17.088 17.532 17.1033C17.5139 17.1185 17.4907 17.1409 17.4705 17.1592L17.4271 17.2008C17.4069 17.2222 17.3867 17.2445 17.3675 17.2669L17.3302 17.3106C17.312 17.3329 17.2948 17.3563 17.2787 17.3807C17.2625 17.4051 17.2545 17.4142 17.2434 17.4315C17.2323 17.4488 17.2161 17.4762 17.202 17.4996C17.1879 17.523 17.1778 17.5412 17.1667 17.5626C17.1556 17.5839 17.1465 17.6032 17.1374 17.6246C17.1283 17.6459 17.1132 17.6764 17.1031 17.7038C17.093 17.7313 17.089 17.7404 17.0829 17.7597C17.0768 17.779 17.0627 17.8197 17.0536 17.8502C17.0536 17.8583 17.0486 17.8654 17.0466 17.8725C17.0445 17.8796 17.0466 17.8959 17.0395 17.9081C17.0324 17.9375 17.0264 17.967 17.0203 17.9965C17.0143 18.026 17.0122 18.0453 17.0092 18.0696C17.0062 18.094 17.0032 18.1174 17.0011 18.1418C16.9991 18.1662 17.0011 18.2028 17.0011 18.2322C17.0011 18.2444 17.0011 18.2556 17.0011 18.2678V41.8711C17.0011 52.4188 25.5247 61.0002 36.0012 61.0002C46.4777 61.0002 55.0002 52.4157 55.0002 41.8711V18.2963C55.0002 18.2902 54.9952 18.28 54.9942 18.2688ZM35.9961 57.9487C27.189 57.9487 20.024 50.734 20.024 41.868V20.1497C20.9742 20.3001 21.9346 20.3759 22.8965 20.3763C25.3485 20.3812 27.7766 19.89 30.0364 18.9319C32.2962 17.9737 34.3418 16.5682 36.0517 14.7986C37.7614 16.568 39.8068 17.9734 42.0665 18.9316C44.3261 19.8897 46.754 20.381 49.2059 20.3763C50.1319 20.3759 51.0567 20.3056 51.9723 20.166V41.8711C51.9723 50.734 44.8063 57.9487 35.9961 57.9487Z" fill="white"/>
<path d="M41.0558 28.6671C40.7719 28.953 40.6125 29.3406 40.6125 29.7448C40.6125 30.149 40.7719 30.5366 41.0558 30.8224C42.0707 31.8442 42.7619 33.146 43.0419 34.5633C43.3219 35.9806 43.1782 37.4496 42.629 38.7846C42.0797 40.1197 41.1496 41.2608 39.9562 42.0636C38.7628 42.8664 37.3598 43.2949 35.9245 43.2949C34.4892 43.2949 33.0862 42.8664 31.8928 42.0636C30.6994 41.2608 29.7692 40.1197 29.22 38.7846C28.6708 37.4496 28.5271 35.9806 28.8071 34.5633C29.0871 33.146 29.7783 31.8442 30.7932 30.8224C31.069 30.5349 31.2216 30.1499 31.2181 29.7503C31.2147 29.3506 31.0555 28.9683 30.7748 28.6857C30.4941 28.4031 30.1144 28.2428 29.7174 28.2393C29.3205 28.2359 28.938 28.3895 28.6525 28.6671C27.2142 30.1153 26.2347 31.9603 25.8378 33.9689C25.441 35.9775 25.6447 38.0595 26.4231 39.9515C27.2016 41.8436 28.5198 43.4607 30.2111 44.5985C31.9024 45.7363 33.8909 46.3435 35.925 46.3435C37.9591 46.3435 39.9476 45.7363 41.6389 44.5985C43.3302 43.4607 44.6484 41.8436 45.4268 39.9515C46.2053 38.0595 46.409 35.9775 46.0121 33.9689C45.6153 31.9603 44.6358 30.1153 43.1975 28.6671C43.0569 28.5255 42.89 28.4131 42.7062 28.3365C42.5225 28.2598 42.3255 28.2204 42.1266 28.2204C41.9277 28.2204 41.7308 28.2598 41.547 28.3365C41.3633 28.4131 41.1964 28.5255 41.0558 28.6671Z" fill="white"/>
<path d="M35.9245 37.5016C36.326 37.5016 36.7111 37.341 36.995 37.0552C37.2789 36.7693 37.4384 36.3816 37.4384 35.9774L37.4506 27.0748C37.4506 26.6706 37.291 26.2829 37.0071 25.997C36.7232 25.7112 36.3381 25.5506 35.9366 25.5506C35.5351 25.5506 35.15 25.7112 34.8661 25.997C34.5822 26.2829 34.4227 26.6706 34.4227 27.0748L34.4105 35.9774C34.4105 36.3816 34.57 36.7693 34.854 37.0552C35.1379 37.341 35.523 37.5016 35.9245 37.5016Z" fill="white"/>
</svg>
