<svg width="72" height="72" viewBox="0 0 72 72" fill="none" xmlns="http://www.w3.org/2000/svg">
<path d="M62.7836 35.4145C62.2886 34.8475 50.6607 21.5996 35.9998 21.5996C21.3389 21.5996 9.71105 34.8475 9.21606 35.4145C9.07662 35.5775 9 35.785 9 35.9995C9 36.214 9.07662 36.4215 9.21606 36.5845C9.71105 37.1515 21.3389 50.3994 35.9998 50.3994C50.6607 50.3994 62.2886 37.1515 62.7836 36.5845C62.923 36.4215 62.9996 36.214 62.9996 35.9995C62.9996 35.785 62.923 35.5775 62.7836 35.4145ZM53.0997 35.9995C53.0978 38.7136 52.45 41.3883 51.2097 43.8024C49.4707 44.8742 47.6466 45.8013 45.7557 46.5744C47.2131 45.2262 48.3759 43.5912 49.1711 41.7722C49.9664 39.9531 50.3769 37.9893 50.3769 36.004C50.3769 34.0187 49.9664 32.0548 49.1711 30.2358C48.3759 28.4167 47.2131 26.7818 45.7557 25.4336C47.6274 26.2107 49.4332 27.1377 51.1557 28.2056C52.4111 30.6132 53.0773 33.2843 53.0997 35.9995ZM20.781 43.7934C19.5442 41.3799 18.8992 38.7069 18.8992 35.995C18.8992 33.2831 19.5442 30.61 20.781 28.1966C22.52 27.1248 24.3441 26.1976 26.2349 25.4246C24.7776 26.7728 23.6148 28.4077 22.8195 30.2268C22.0242 32.0458 21.6137 34.0097 21.6137 35.995C21.6137 37.9803 22.0242 39.9441 22.8195 41.7632C23.6148 43.5822 24.7776 45.2172 26.2349 46.5654C24.345 45.7903 22.5211 44.8633 20.781 43.7934ZM23.3999 35.9995C23.3999 33.5075 24.1389 31.0714 25.5234 28.9994C26.9079 26.9273 28.8757 25.3124 31.1781 24.3587C33.4804 23.405 36.0138 23.1555 38.4579 23.6417C40.9021 24.1279 43.1472 25.3279 44.9093 27.09C46.6714 28.8521 47.8714 31.0972 48.3576 33.5414C48.8438 35.9855 48.5943 38.5189 47.6406 40.8212C46.6869 43.1236 45.072 45.0914 42.9999 46.4759C40.9279 47.8604 38.4918 48.5994 35.9998 48.5994C32.6581 48.5994 29.4533 47.2719 27.0904 44.9089C24.7274 42.546 23.3999 39.3412 23.3999 35.9995ZM11.124 35.9995C13.2515 33.784 15.5805 31.7713 18.081 29.9875C16.7741 33.8859 16.7741 38.1041 18.081 42.0024C15.5834 40.2183 13.2547 38.2089 11.124 35.9995ZM53.9187 42.0114C55.2256 38.1131 55.2256 33.8949 53.9187 29.9965C56.4162 31.7807 58.7449 33.7901 60.8756 35.9995C58.7482 38.215 56.4191 40.2276 53.9187 42.0114Z" fill="white"/>
<path d="M43.443 37.3949C42.7952 37.6628 42.101 37.8004 41.4 37.7999C39.9678 37.7999 38.5943 37.231 37.5816 36.2183C36.5689 35.2056 36 33.8321 36 32.4C35.9977 31.6928 36.1357 30.9921 36.406 30.3387C36.6764 29.6852 37.0737 29.0918 37.575 28.593C37.6947 28.4729 37.778 28.3214 37.8154 28.156C37.8527 27.9906 37.8426 27.8181 37.7862 27.6582C37.7298 27.4983 37.6293 27.3576 37.4964 27.2523C37.3635 27.147 37.2036 27.0814 37.035 27.063C36.6914 27.0238 36.3459 27.0028 36 27C34.3265 26.9993 32.6859 27.4652 31.2625 28.3454C29.8391 29.2256 28.6893 30.4852 27.9424 31.9828C27.1954 33.4804 26.8807 35.1566 27.0338 36.8232C27.1869 38.4897 27.8016 40.0805 28.809 41.417C29.8163 42.7534 31.1763 43.7826 32.7362 44.3887C34.2961 44.9949 35.9941 45.1541 37.6395 44.8485C39.285 44.5429 40.8126 43.7845 42.0508 42.6587C43.289 41.5328 44.1887 40.0839 44.6489 38.4749C44.6953 38.3125 44.695 38.1404 44.6481 37.9782C44.6012 37.816 44.5097 37.6702 44.3839 37.5575C44.2581 37.4449 44.1032 37.3699 43.9368 37.3411C43.7704 37.3124 43.5993 37.331 43.443 37.3949ZM36 43.1999C34.1651 43.205 32.3974 42.5093 31.0581 41.2549C29.7188 40.0005 28.909 38.2821 28.7941 36.4508C28.6793 34.6194 29.2679 32.8132 30.4399 31.4013C31.6119 29.9894 33.2788 29.0782 35.1 28.854C34.4966 29.9375 34.1864 31.1598 34.2 32.4C34.2 34.3095 34.9586 36.1408 36.3088 37.4911C37.6591 38.8413 39.4904 39.5999 41.4 39.5999C41.7008 39.6021 42.0015 39.584 42.3 39.5459C41.6695 40.66 40.7534 41.5859 39.6461 42.2282C38.5387 42.8704 37.2801 43.2059 36 43.1999Z" fill="white"/>
<path d="M36 53.9999C29.646 53.9999 23.1211 51.8399 16.6051 47.565C16.4064 47.4344 16.2674 47.2305 16.2185 46.9978C16.1696 46.7651 16.2147 46.5225 16.3441 46.323C16.4088 46.2233 16.4926 46.1375 16.5906 46.0703C16.6886 46.0032 16.799 45.9562 16.9153 45.9319C17.0316 45.9076 17.1515 45.9066 17.2682 45.929C17.3849 45.9513 17.496 45.9965 17.5951 46.062C23.8051 50.1389 29.997 52.1999 36 52.1999C42.0029 52.1999 48.1949 50.1389 54.4048 46.062C54.5035 45.9946 54.6145 45.9476 54.7315 45.9236C54.8485 45.8996 54.9692 45.8992 55.0863 45.9223C55.2035 45.9454 55.315 45.9916 55.4141 46.0582C55.5133 46.1248 55.5982 46.2105 55.6639 46.3102C55.7296 46.41 55.7748 46.5218 55.7968 46.6392C55.8188 46.7566 55.8173 46.8772 55.7923 46.994C55.7672 47.1108 55.7192 47.2214 55.6509 47.3194C55.5827 47.4175 55.4956 47.5009 55.3948 47.565C48.8879 51.8309 42.3539 53.9999 36 53.9999Z" fill="white"/>
<path d="M17.1001 26.0999C16.9504 26.1007 16.8028 26.064 16.6708 25.9933C16.5388 25.9226 16.4265 25.82 16.3441 25.6949C16.2147 25.4954 16.1696 25.2528 16.2185 25.0201C16.2674 24.7874 16.4064 24.5835 16.6051 24.4529C23.1121 20.169 29.646 18 36 18C42.3539 18 48.8789 20.16 55.3948 24.4349C55.4956 24.499 55.5827 24.5825 55.6509 24.6805C55.7192 24.7785 55.7672 24.8892 55.7923 25.0059C55.8173 25.1227 55.8188 25.2433 55.7968 25.3607C55.7748 25.4781 55.7296 25.59 55.6639 25.6897C55.5982 25.7895 55.5133 25.8751 55.4141 25.9417C55.315 26.0083 55.2035 26.0545 55.0863 26.0776C54.9692 26.1007 54.8485 26.1003 54.7315 26.0763C54.6145 26.0523 54.5035 26.0053 54.4048 25.9379C48.1949 21.861 42.0029 19.8 36 19.8C29.997 19.8 23.8051 21.861 17.5951 25.9379C17.4497 26.0395 17.2775 26.0959 17.1001 26.0999Z" fill="white"/>
</svg>
