<svg width="72" height="72" viewBox="0 0 72 72" fill="none" xmlns="http://www.w3.org/2000/svg">
<path d="M49.83 32.318C49.83 31.7236 50.3153 31.2392 50.9151 31.2392C51.513 31.2392 52.0002 31.7217 52.0002 32.318V36.2366C52.0002 40.6121 50.2009 44.5893 47.3018 47.4697C44.6425 50.1133 41.0567 51.8378 37.0854 52.1038V56.8425H43.3655C43.9634 56.8425 44.4506 57.325 44.4506 57.9213C44.4506 58.5156 43.9653 59 43.3655 59H28.635C28.0371 59 27.5499 58.5175 27.5499 57.9213C27.5499 57.3269 28.0352 56.8425 28.635 56.8425H34.9151V52.1038C30.9437 51.8359 27.358 50.1133 24.6987 47.4697C21.7995 44.5876 20.0002 40.6105 20.0002 36.2366V32.318C20.0002 31.7236 20.4856 31.2392 21.0854 31.2392C21.6833 31.2392 22.1705 31.7217 22.1705 32.318V36.2366C22.1705 40.0177 23.7262 43.4537 26.2342 45.9452C28.5004 48.1999 31.5434 49.6785 34.917 49.9427V46.3195C32.5419 46.0681 30.4031 44.9967 28.7957 43.3988C26.9484 41.5624 25.7987 39.0252 25.7987 36.2348V23.1434C25.7987 20.353 26.9466 17.8176 28.7957 15.9794C30.643 14.1429 33.1952 13 36.0022 13C38.8091 13 41.3596 14.1393 43.2087 15.9794C45.056 17.8158 46.2057 20.3529 46.2057 23.1434V36.2348C46.2057 39.0252 45.0578 41.5606 43.2087 43.3988C41.6013 44.9967 39.4624 46.0681 37.0874 46.3195V49.9427C40.4608 49.6785 43.5039 48.198 45.7702 45.9452C48.2781 43.452 49.8339 40.0159 49.8339 36.2366V32.318H49.83ZM35.9986 30.2945C37.6392 30.2945 39.1248 30.9549 40.2006 32.0245C41.2747 33.094 41.9409 34.5708 41.9409 36.2017C41.9409 37.8327 41.2747 39.3095 40.2006 40.3772C39.1248 41.4467 37.6392 42.1072 35.9986 42.1072C34.358 42.1072 32.8724 41.4468 31.7965 40.3772C30.7225 39.3077 30.0563 37.8308 30.0563 36.2017C30.0563 34.5708 30.7225 33.094 31.7965 32.0245C32.8724 30.9549 34.358 30.2945 35.9986 30.2945ZM38.6671 33.549C37.9843 32.872 37.0413 32.4501 35.9986 32.4501C34.9578 32.4501 34.0129 32.8702 33.3301 33.549C32.6491 34.2259 32.2247 35.1652 32.2247 36.2017C32.2247 37.2364 32.6473 38.1757 33.3301 38.8527C34.0129 39.5314 34.9559 39.9515 35.9986 39.9515C37.0394 39.9515 37.9843 39.5314 38.6671 38.8527C39.348 38.1757 39.7725 37.2364 39.7725 36.2017C39.7725 35.1671 39.3499 34.2278 38.6671 33.549ZM41.6715 17.5077C40.2136 16.0584 38.2076 15.1594 35.9985 15.1594C33.7894 15.1594 31.7817 16.0584 30.3255 17.5077C28.8677 18.957 27.9652 20.9511 27.9652 23.1472V36.2387C27.9652 38.4346 28.8695 40.4306 30.3255 41.8782C31.7834 43.3275 33.7894 44.2246 35.9985 44.2246C38.2076 44.2246 40.2153 43.3256 41.6715 41.8782C43.1293 40.4289 44.0318 38.4347 44.0318 36.2387V23.1472C44.0318 20.9512 43.1275 18.9571 41.6715 17.5077Z" fill="currentColor"/>
</svg>
