<svg width="66" height="31" viewBox="0 0 66 31" fill="none" xmlns="http://www.w3.org/2000/svg">
<path d="M57.8757 19.3323C57.8757 19.3323 57.8251 18.3172 58.2977 18.2792C58.7738 18.2446 59.5503 17.706 59.2498 16.4768C59.2498 16.4768 59.5334 16.3974 59.6719 16.7323C59.9149 17.3262 60.364 17.378 60.6847 17.3607C61.2891 17.3262 61.7212 16.9291 61.7482 16.4768C61.7651 16.1488 61.6368 15.548 61.8867 14.9196C62.1365 14.2912 61.7212 13.9666 61.2654 13.7629C60.9819 13.6386 60.5126 13.9839 60.229 14.0633C60.0467 14.1082 59.9521 13.8699 59.9521 13.8699C59.9521 13.8699 60.2628 13.0551 60.6105 12.9342C60.9549 12.8099 62.832 12.9342 63.3148 12.8824C63.7976 12.8306 64.0238 12.3438 64.3783 11.9087C64.7227 11.484 64.9995 11.5565 65.1751 11.3148C65.7018 10.607 64.8375 9.875 63.7908 8.95308C62.7443 8.0346 62.0454 6.65348 62.0183 6.06312C61.9913 5.47959 61.0662 4.91332 61.0662 4.91332C61.3329 4.40921 61.4984 4.00182 61.5321 3.75663C61.576 3.42861 61.3161 3.30431 61.3161 3.30431C61.3161 3.55982 60.894 3.91546 60.6172 4.04666C60.3404 4.17095 60.0905 4.30216 59.7698 2.77258C59.4423 1.24296 58.3012 1.57099 57.8521 1.17393C57.4875 0.856269 57.2984 0 56.4274 0C55.4517 0 53.5239 0.0621504 53.5239 0.0621504C50.8635 0.0621504 51.2145 1.27409 49.5738 1.21884C46.2887 1.11181 45.5291 1.63318 44.5771 3.05571C44.0335 3.87057 41.7782 3.97419 39.8134 4.39882C37.8417 4.82352 35.8295 5.29308 33.7194 5.36211C31.6093 5.43117 23.8577 5.02719 23.8577 5.02719C20.7888 4.92016 18.0676 5.78681 16.6159 6.54646C14.6037 7.59956 10.0898 7.0851 6.79835 7.76529C2.89216 8.58016 0.748271 10.5931 0.143955 13.3173C-0.298323 15.2786 0.349899 17.005 1.11966 17.8889C1.88942 18.7728 3.26355 19.3667 3.26355 19.3667C3.43573 20.4094 3.97254 21.0724 5.14745 21.3901C7.15962 21.9287 9.1144 20.9308 9.1144 20.9308C9.1144 20.9308 8.31087 19.9158 7.24735 18.9696C6.42694 18.2376 4.1345 18.103 4.1345 18.103C4.1345 18.103 1.35933 17.2881 1.62942 13.9734C1.89614 10.6587 5.64702 9.57104 7.23049 9.31559C8.81051 9.06009 15.4312 9.11188 15.4312 9.11188C15.4312 9.11188 15.7857 9.60563 13.7364 12.613C12.8552 13.9043 11.9572 15.938 11.5655 16.9877C11.0659 18.3757 10.7012 19.4633 10.8397 20.5855C10.8397 20.5855 8.81739 21.1241 9.00642 22.0184C9.18873 22.9126 9.59387 22.7262 9.36092 23.9623C9.12796 25.1984 8.97266 26.0201 9.7593 27.0457C10.546 28.0815 9.47571 29.7492 11.2718 30.0703C13.0679 30.388 15.4211 30.388 15.411 28.4959C15.4009 26.5969 12.5683 27.2391 12.5683 27.2391C12.5683 27.2391 12.2847 24.5355 13.8309 23.2442C15.3772 21.9529 15.4042 23.113 16.856 21.1483C17.3219 20.513 17.9025 20.2299 18.8107 20.1746C19.7189 20.1228 20.0025 19.3183 20.0025 19.3183C20.0025 19.3183 20.9107 19.9019 20.8499 22.305C20.8162 23.6309 20.7284 24.5044 20.833 24.8428C21.0761 25.6473 23.1052 27.132 24.7392 28.2645C26.3632 29.397 26.2349 29.732 26.6569 29.7492C27.1667 29.7665 27.9196 29.6698 28.6894 29.5904C29.709 29.4937 30.8232 29.7044 31.2485 29.3418C31.6705 28.9793 31.2046 27.3979 30.4112 27.353C29.1486 27.2736 28.8819 27.5843 28.0851 27.0077C27.2883 26.4346 25.769 24.9395 25.6475 24.4699C25.526 24.0003 26.5387 22.6054 26.6839 22.1358C26.8325 21.6663 27.1836 20.9411 27.3761 19.3702C27.5145 18.248 28.7063 17.7439 28.7063 17.7439C28.7063 17.7439 31.1607 19.1147 32.6902 19.2459C34.2196 19.3702 36.7449 19.4565 36.7449 19.4565C36.7449 19.4565 36.512 20.368 36.2453 21.8769C36.1068 22.6365 36.2014 23.5308 35.8908 24.3249C34.9319 26.8006 34.905 27.2149 35.7692 27.6914C35.7692 27.6914 35.7692 28.2024 35.5194 28.5063C35.2696 28.8067 35.2696 30.4605 38.1022 30.3259C40.9381 30.2016 40.901 29.4144 40.8605 29.0104C40.8436 28.8412 40.739 28.5166 40.2798 28.2162C39.6316 27.8019 38.5681 27.4117 38.5681 27.2977C38.5681 27.1044 38.6119 25.8476 39.4425 24.9291C40.273 24.0106 42.2615 20.8099 42.6566 19.598C42.6566 19.598 43.8416 21.5869 45.1212 21.5593C46.4008 21.5317 46.7283 21.6111 47.2719 22.8058C47.8087 23.99 49.2672 25.4299 49.598 25.8719C49.9188 26.3139 49.8411 26.5072 50.0302 26.9768C50.2192 27.4464 51.8634 27.985 51.8634 27.985C51.8634 27.985 51.5528 30.105 53.3928 30.105C55.2328 30.105 56.823 30.2569 56.9783 29.3005C57.1336 28.3475 56.5461 27.3807 55.9586 27.2944C55.3712 27.2047 54.6014 27.2426 54.6014 27.2426C54.6014 27.2426 54.6014 26.3242 54.2031 25.8546C53.8047 25.385 53.4265 24.7048 53.0788 24.256C52.7344 23.7967 52.7682 21.6491 52.7851 21.435C52.8019 21.2244 53.5278 21.0103 53.8486 20.1264C54.1693 19.2425 54.1929 18.6141 54.1929 18.6141L54.5643 18.6038L54.615 19.902C54.615 19.902 54.6926 19.6914 55.0977 19.4877C55.5029 19.284 56.5934 18.1273 56.6372 17.6923C56.59 17.7234 56.8899 18.9144 57.8757 19.3323Z" fill="white"/>
</svg>
