<svg width="72" height="72" viewBox="0 0 72 72" fill="none" xmlns="http://www.w3.org/2000/svg">
<path d="M33.3459 33.9354C33.02 33.9354 32.6963 33.9642 32.375 34.023V28.9505C32.375 28.3139 31.8553 27.7973 31.215 27.7973H24.1854C23.8061 27.7973 23.4511 27.9818 23.2342 28.2909C23.0173 28.5999 22.9662 28.9954 23.0973 29.3483C23.2864 29.8568 23.3815 30.3826 23.3815 30.9119C23.3815 33.1812 21.7239 35.0273 19.6869 35.0273C17.65 35.0273 15.9923 33.1812 15.9923 30.9119C15.9923 30.3826 16.0886 29.8556 16.2765 29.3483C16.4076 28.9943 16.3566 28.5999 16.1396 28.2909C15.9227 27.9807 15.5678 27.7973 15.1884 27.7973H8.16C7.51968 27.7973 7 28.3139 7 28.9505V50.8457C7 51.4834 7.51968 51.9988 8.16 51.9988H31.215C31.8553 51.9988 32.375 51.4834 32.375 50.8457V45.7709C32.6952 45.8285 33.02 45.8574 33.3459 45.8574C36.5672 45.8574 39.1877 43.1845 39.1877 39.8969C39.1877 36.6094 36.5672 33.9354 33.3459 33.9354ZM33.3459 43.5512C32.8135 43.5512 32.2799 43.4116 31.759 43.1383C31.3994 42.9481 30.9668 42.9596 30.6176 43.1672C30.2684 43.377 30.055 43.7518 30.055 44.1554V49.6926H9.32V30.1036H13.7222C13.6897 30.3722 13.6735 30.6421 13.6735 30.913C13.6735 34.4543 16.3716 37.3347 19.6881 37.3347C23.0045 37.3347 25.7027 34.4531 25.7027 30.913C25.7027 30.6421 25.6864 30.3722 25.654 30.1036H30.0562V35.6385C30.0562 36.0432 30.2696 36.418 30.6188 36.6267C30.9679 36.8354 31.4006 36.8458 31.7602 36.6567C32.2822 36.3811 32.8158 36.2416 33.3471 36.2416C35.2889 36.2416 36.8688 37.8813 36.8688 39.8969C36.8677 41.9114 35.2878 43.5512 33.3459 43.5512Z" fill="white"/>
<path d="M63.84 26.7745H58.736C58.794 26.4563 58.823 26.1334 58.823 25.8094C58.823 22.606 56.1341 20 52.8281 20C49.5198 20 46.8286 22.606 46.8286 25.8094C46.8286 26.1334 46.8576 26.4563 46.9156 26.7745H41.8151C41.1736 26.7745 40.6551 27.2911 40.6551 27.9276V34.9143C40.6551 35.2914 40.8395 35.6443 41.1504 35.8599C41.4624 36.0755 41.8603 36.1263 42.2141 35.9971C42.7303 35.8092 43.2604 35.7135 43.7882 35.7135C46.0723 35.7135 47.9294 37.3612 47.9294 39.3873C47.9294 41.4121 46.0711 43.0599 43.7882 43.0599C43.2546 43.0599 42.7268 42.9654 42.2188 42.7774C41.8603 42.646 41.4636 42.6967 41.1527 42.9112C40.8395 43.128 40.6539 43.4808 40.6539 43.8579V50.8469C40.6539 51.4846 41.1724 52 41.8139 52H63.84C64.4815 52 65 51.4846 65 50.8469V27.9276C65 27.2911 64.4815 26.7745 63.84 26.7745ZM62.68 49.6926H42.9751V45.3166C43.2442 45.3489 43.5156 45.365 43.7882 45.365C47.3506 45.365 50.2494 42.6829 50.2494 39.3861C50.2494 36.0894 47.3506 33.4061 43.7882 33.4061C43.5168 33.4061 43.2454 33.4222 42.9751 33.4545V29.0808H48.5431C48.9514 29.0808 49.3284 28.8674 49.5372 28.5203C49.746 28.1733 49.7576 27.7408 49.565 27.3845C49.289 26.8702 49.1486 26.3398 49.1486 25.8094C49.1486 23.8779 50.7993 22.3062 52.8281 22.3062C54.8546 22.3062 56.503 23.8779 56.503 25.8094C56.503 26.3387 56.3626 26.8691 56.0866 27.3857C55.8952 27.7431 55.9068 28.1744 56.1156 28.5215C56.3244 28.8686 56.7025 29.0808 57.1097 29.0808H62.68V49.6926Z" fill="white"/>
</svg>
