<svg width="72" height="72" viewBox="0 0 72 72" fill="none" xmlns="http://www.w3.org/2000/svg">
<path d="M25.308 36.1146C25.2488 36.2201 25.1948 36.3256 25.151 36.4363C24.9863 36.8043 25.151 37.2393 25.5191 37.3988C25.6169 37.4451 25.7172 37.4657 25.815 37.4657C26.093 37.4657 26.3606 37.3087 26.4815 37.0308C26.515 36.951 26.5536 36.8789 26.5948 36.7991C26.7852 36.444 26.654 36.0014 26.2988 35.8109C25.9437 35.6205 25.5011 35.7517 25.3106 36.1069L25.308 36.1146Z" fill="white"/>
<path d="M27.3184 40.9658C27.1202 40.7883 26.9427 40.585 26.7908 40.3662C26.5592 40.0368 26.1063 39.9519 25.7768 40.1809C25.4474 40.4125 25.3625 40.8655 25.5916 41.1949C25.8077 41.5037 26.0599 41.7945 26.343 42.0442C26.482 42.1703 26.6595 42.2346 26.8294 42.2346C27.0276 42.2346 27.2309 42.1548 27.3698 41.9901C27.6401 41.6942 27.6143 41.2258 27.3184 40.9556L27.3184 40.9658Z" fill="white"/>
<path d="M23.2725 40.3664C22.8916 40.2403 22.4747 40.4461 22.3512 40.8347C22.1942 41.3211 22.1067 41.8358 22.1067 42.3557C22.1067 43.9436 22.8839 45.4388 24.1887 46.3549C24.3148 46.4475 24.4666 46.4862 24.6107 46.4862C24.8423 46.4862 25.0662 46.3806 25.2104 46.1773C25.442 45.8479 25.3622 45.3924 25.0328 45.1556C24.1166 44.5174 23.5762 43.47 23.5762 42.3557C23.5762 41.9928 23.6354 41.6299 23.7486 41.2954C23.8747 40.9145 23.6689 40.4976 23.2803 40.3741L23.2725 40.3664Z" fill="white"/>
<path d="M30.4398 39.674C30.8361 39.674 31.1578 39.3575 31.1707 38.9637C31.1835 38.5623 30.867 38.2251 30.4604 38.2123C25.0509 38.0553 20.0584 37.6667 16.3887 37.1057C11.9803 36.4392 10.8223 35.7546 10.5315 35.5101C10.8146 35.2656 11.9624 34.5939 16.2756 33.9351C16.677 33.8759 16.9472 33.5002 16.8881 33.1039C16.8289 32.7076 16.4609 32.4322 16.0568 32.4914C9.84439 33.4462 9.00024 34.5528 9.00024 35.5075C9.00024 36.4623 9.77745 37.5045 15.5292 38.4464C19.3174 39.0667 24.6084 39.5016 30.4198 39.6663H30.4404L30.4398 39.674Z" fill="white"/>
<path d="M54.736 32.3138C54.3345 32.2624 53.9639 32.5454 53.9124 32.9392C53.861 33.3407 54.1441 33.7113 54.5378 33.7627C59.9396 34.4807 61.2518 35.2708 61.5483 35.5281C60.8818 36.1947 57.3637 37.0903 50.8939 37.6821C51.2696 36.9899 51.4807 36.1998 51.4807 35.3686C51.4807 33.5568 50.4667 31.9226 48.9252 31.0786C49.077 30.8547 49.2083 30.6102 49.3215 30.3606C49.4862 29.9926 49.3215 29.5576 48.9535 29.3981C48.5855 29.2334 48.1505 29.3981 47.991 29.7661C47.8057 30.1753 47.5484 30.5382 47.2267 30.8521C47.0362 31.0374 46.9564 31.2999 47.0233 31.5573C47.0903 31.8146 47.2807 32.0128 47.538 32.0848C49.0075 32.494 50.0292 33.8451 50.0292 35.3661C50.0292 36.3208 49.6277 37.2036 48.9612 37.8366C46.8921 37.9936 44.5656 38.1197 41.9764 38.1995C41.5749 38.2123 41.2584 38.5495 41.2713 38.9509C41.2841 39.3472 41.6084 39.6561 42.0021 39.6561H42.0227C43.7418 39.6046 45.4094 39.5248 47.0025 39.4244C47.0231 39.5969 47.0951 39.7539 47.2186 39.8722C47.898 40.5233 48.2738 41.4009 48.2738 42.3351C48.2738 44.2189 46.7451 45.7476 44.8613 45.7476C44.6838 45.7476 44.4933 45.727 44.2823 45.6961C44.0841 45.6626 43.886 45.709 43.729 45.8273C43.572 45.9457 43.4665 46.1182 43.4382 46.3137C43.2014 47.9813 41.7525 49.2398 40.0643 49.2398C38.1805 49.2398 36.6518 47.7112 36.6518 45.8273V45.7887C36.6518 45.5983 36.711 43.9384 38.1007 43.9384C38.5022 43.9384 38.8316 43.609 38.8316 43.2075C38.8316 42.806 38.5022 42.4766 38.1007 42.4766C35.7948 42.4766 35.1875 44.6383 35.1875 45.7835V45.8221C35.1875 47.7059 33.6588 49.2346 31.775 49.2346C31.3941 49.2346 31.0236 49.1754 30.6684 49.0493C30.2875 48.9181 29.8706 49.1214 29.7393 49.5048C29.6081 49.8857 29.8114 50.3026 30.1948 50.4339C30.7018 50.6115 31.2345 50.6964 31.775 50.6964C33.5198 50.6964 35.0562 49.7751 35.9183 48.3828C36.7804 49.7674 38.3168 50.6964 40.0617 50.6964C42.2286 50.6964 44.1278 49.2346 44.7326 47.2041H44.8587C47.5454 47.2041 49.7328 45.0167 49.7328 42.3299C49.7328 41.3546 49.4498 40.4256 48.9222 39.6355C49.1383 39.5171 49.3442 39.3859 49.5347 39.2392C52.2369 39.023 54.6611 38.7451 56.6558 38.4157C62.3021 37.4789 63.0664 36.4135 63.0664 35.4973C63.0664 34.4628 62.0782 33.2712 54.7258 32.2959L54.736 32.3138Z" fill="white"/>
<path d="M25.3596 48.9357C20.2203 53.0198 18.4552 53.5011 17.9993 53.5474C18.0328 53.1665 18.3802 51.8669 20.9897 48.3155C21.2265 47.9938 21.1622 47.5305 20.8328 47.2938C20.5111 47.057 20.0478 47.1213 19.8111 47.4507C16.0434 52.5694 16.2339 53.954 16.9133 54.6384C17.078 54.8031 17.3148 55.0399 17.863 55.0399C18.9233 55.0399 21.1493 54.1443 26.2629 50.0859C26.5794 49.8363 26.6309 49.3757 26.3812 49.0591C26.1316 48.7425 25.671 48.6911 25.3544 48.9407L25.3596 48.9357Z" fill="white"/>
<path d="M48.7888 20.509C52.3788 17.8608 53.6913 17.5108 54.0722 17.4773C54.0258 17.9123 53.5781 19.5516 49.934 24.2302C46.9307 28.0853 42.6949 32.7869 38.0035 37.4784C35.4274 40.0545 32.8642 42.4786 30.381 44.6865C30.0773 44.9567 30.0516 45.4174 30.3218 45.721C30.4659 45.8857 30.6641 45.9655 30.8674 45.9655C31.0398 45.9655 31.2174 45.9063 31.3538 45.7802C33.8578 43.5541 36.4391 41.1093 39.0356 38.5128C44.0282 33.5202 48.4626 28.5633 51.5274 24.5591C56.0336 18.6683 55.8895 17.1269 55.1586 16.3957C54.474 15.7111 53.0844 15.5258 47.9195 19.3346C47.5978 19.5713 47.5232 20.032 47.7677 20.3563C48.0044 20.678 48.4651 20.7526 48.7894 20.5081L48.7888 20.509Z" fill="white"/>
<path d="M22.3612 26.8449C22.1965 27.3313 22.1039 27.8537 22.1039 28.3942C22.1039 29.3696 22.3869 30.2986 22.9145 31.0886C21.3653 31.925 20.359 33.5669 20.359 35.3709C20.359 35.7724 20.6885 36.1018 21.0899 36.1018C21.4914 36.1018 21.8208 35.7724 21.8208 35.3709C21.8208 33.85 22.8477 32.4989 24.3119 32.0897C24.5616 32.0176 24.7597 31.8195 24.8266 31.5621C24.8936 31.3048 24.8138 31.0346 24.6233 30.857C23.944 30.2059 23.5682 29.3283 23.5682 28.3941V28.3015C24.9914 29.982 26.5792 31.768 28.2777 33.5926C28.4218 33.7444 28.6199 33.8242 28.8104 33.8242C28.9879 33.8242 29.1655 33.7573 29.3122 33.626C29.6082 33.3481 29.621 32.8874 29.3508 32.5915C27.2894 30.3783 25.5369 28.3813 24.0674 26.6158C24.6671 25.6353 25.7479 24.9765 26.9807 24.9765C27.1582 24.9765 27.3487 24.9971 27.5597 25.028C27.5931 25.028 27.6266 25.028 27.6575 25.0357C27.3075 25.3394 26.9987 25.6945 26.749 26.0908C26.5329 26.4331 26.6307 26.8809 26.9729 27.0996C27.0913 27.1794 27.2303 27.2129 27.3615 27.2129C27.606 27.2129 27.8428 27.0945 27.9818 26.8757C28.2983 26.3816 28.7383 25.9724 29.2659 25.697C29.6159 25.5118 29.9917 25.3934 30.3725 25.3342C30.774 25.275 31.0519 24.907 30.9927 24.503C30.9336 24.1015 30.5707 23.8236 30.1615 23.8827C29.6082 23.9625 29.0755 24.1324 28.5814 24.3974C28.5094 24.436 28.4424 24.4772 28.3781 24.5158C28.391 24.4824 28.3987 24.4489 28.4038 24.4103C28.6406 22.7427 30.0895 21.4842 31.7777 21.4842C33.6615 21.4842 35.1902 23.0129 35.1902 24.8967V33.402C35.1902 33.8035 35.5196 34.1329 35.9211 34.1329C36.3225 34.1329 36.652 33.8035 36.652 33.402V28.309C37.0406 28.5407 37.5141 28.6771 38.1008 28.6771C38.5023 28.6771 38.8317 28.3476 38.8317 27.9462C38.8317 27.5447 38.5023 27.2153 38.1008 27.2153C36.7111 27.2153 36.652 25.5554 36.652 25.3701V24.8888C36.652 23.005 38.1806 21.4763 40.0644 21.4763C41.7501 21.4763 43.2015 22.7348 43.4383 24.4024C43.464 24.6006 43.5695 24.7704 43.7291 24.8888C43.8861 25.0072 44.0842 25.0535 44.2824 25.0201C44.4934 24.9866 44.6787 24.9686 44.8614 24.9686C45.528 24.9686 46.1714 25.159 46.7246 25.5219C47.0618 25.7381 47.5147 25.648 47.7386 25.3109C47.9548 24.9737 47.8647 24.5208 47.5276 24.2969C46.6964 23.7564 45.7416 23.4734 44.7353 23.5068C44.128 21.4712 42.2313 20.0146 40.0645 20.0146C38.3197 20.0146 36.7832 20.9359 35.9211 22.3281C35.059 20.9436 33.5226 20.0146 31.7777 20.0146C29.6108 20.0146 27.7116 21.4763 27.1069 23.5068H26.9808C25.4007 23.5068 23.9955 24.2634 23.1076 25.437C19.5819 21.0749 18.0018 18.3343 17.9941 17.4719C18.3441 17.4976 19.5356 17.7935 22.804 20.1457C23.1334 20.3825 23.5889 20.3104 23.8257 19.981C24.0624 19.6516 23.9904 19.1961 23.661 18.9593C18.8923 15.5211 17.5798 15.7322 16.9213 16.391C16.2831 17.0292 16.0592 18.2825 19.2349 22.7682C20.097 23.988 21.1521 25.3571 22.3642 26.8394L22.3612 26.8449Z" fill="white"/>
<path d="M51.3704 47.4743C51.0487 47.711 50.9741 48.1717 51.2134 48.496C53.7174 51.929 54.0469 53.1875 54.0803 53.5555C53.6711 53.522 52.1759 53.1283 47.8885 49.8471C47.5668 49.6026 47.1113 49.6618 46.8617 49.986C46.6172 50.3077 46.6764 50.7632 47.0006 51.0129C51.1054 54.15 53.0947 55.0327 54.1758 55.0327C54.6442 55.0327 54.9402 54.868 55.164 54.6441C55.8357 53.9724 56.0339 52.6162 52.3975 47.6415C52.1608 47.3121 51.7001 47.2452 51.3758 47.4846L51.3704 47.4743Z" fill="white"/>
<path d="M29.7552 47.3556C29.7552 49.3063 26.8291 49.3063 26.8291 47.3556C26.8291 45.4049 29.7552 45.4049 29.7552 47.3556Z" fill="white"/>
</svg>
