<svg width="72" height="72" viewBox="0 0 72 72" fill="none" xmlns="http://www.w3.org/2000/svg">
<path d="M22.4344 15.0834C22.396 15.0816 22.3575 15.0816 22.319 15.0834C22.0189 15.1151 21.7323 15.2619 21.5311 15.487L9.23138 29.0166C8.81422 29.4777 8.83214 30.2662 9.26982 30.7079L35.0992 56.5373C35.5539 56.9868 36.3742 56.9868 36.8289 56.5373L62.6583 30.7079C63.096 30.2662 63.1139 29.4777 62.6967 29.0166L50.397 15.487C50.169 15.2356 49.8331 15.0855 49.4937 15.0834H22.4344ZM22.9725 17.5433H29.3722L24.1064 28.6131H12.9021L22.9725 17.5433ZM32.1012 17.5433H39.8269L45.0927 28.6131H26.8354L32.1012 17.5433ZM42.5559 17.5433H48.9556L59.026 28.6131H47.8217L42.5559 17.5433ZM13.1135 31.073H24.0871L32.3126 50.2721L13.1135 31.073ZM26.7585 31.073H45.1696L35.964 52.5206L26.7585 31.073ZM47.841 31.073H58.8146L39.6155 50.2721L47.841 31.073Z" fill="white"/>
</svg>
