<svg width="130" height="130" viewBox="0 0 130 130" fill="none" xmlns="http://www.w3.org/2000/svg">
<rect width="130" height="130" fill="white" fill-opacity="0.2"/>
<path d="M44.2498 56.677C44.5559 55.3366 44.9719 54.0252 45.5034 52.76C45.4456 52.8986 45.3879 53.0373 45.3301 53.1759C46.0349 51.5237 46.9188 49.9465 47.9761 48.4964C48.0454 48.4039 48.1147 48.3057 48.184 48.2133C48.2014 48.1902 48.2938 48.092 48.288 48.0746C48.288 48.0631 48.0454 48.3808 48.1494 48.2537C48.2938 48.0689 48.4382 47.884 48.5885 47.7049C48.8773 47.3583 49.1777 47.0116 49.4839 46.6823C50.079 46.0411 50.7145 45.4287 51.3789 44.8567C51.5811 44.6834 51.7833 44.5159 51.9855 44.3541C52.0779 44.279 52.1703 44.2097 52.2628 44.1346C51.8122 44.4985 52.1935 44.1923 52.2974 44.1115C52.7076 43.8053 53.1294 43.5164 53.5627 43.2333C54.3253 42.7423 54.7065 41.6735 54.1866 40.8647C53.6955 40.1078 52.6267 39.715 51.8179 40.2407C47.4908 43.0485 44.1458 47.0867 42.1584 51.8356C41.6269 53.1008 41.2051 54.4123 40.9047 55.7526C40.7025 56.6365 41.1763 57.6706 42.1179 57.8844C42.9961 58.0924 44.0302 57.6244 44.2498 56.677Z" fill="white"/>
<path d="M77.2956 43.239C77.7 43.5048 78.0986 43.7763 78.4857 44.0651C78.5839 44.1345 78.6763 44.2096 78.7745 44.2847C78.9247 44.4002 78.6185 44.1634 78.6301 44.1691C78.6705 44.198 78.711 44.2327 78.7514 44.2674C78.9536 44.4291 79.1558 44.5909 79.3522 44.7584C80.0513 45.3535 80.7099 45.9832 81.3338 46.6534C81.6285 46.9711 81.9173 47.2946 82.1947 47.6297C82.3333 47.7972 82.472 47.9648 82.6048 48.1381C82.6337 48.1728 82.6684 48.2074 82.6915 48.2479C82.703 48.271 82.4489 47.9301 82.5644 48.0803C82.6395 48.1785 82.7146 48.2768 82.7897 48.3807C83.3039 49.0798 83.7834 49.8077 84.2225 50.5588C84.7193 51.4138 85.1526 52.2919 85.5397 53.2047C85.4819 53.0661 85.4241 52.9274 85.3664 52.7888C85.8921 54.0482 86.308 55.3539 86.6085 56.6826C86.8107 57.5666 87.8795 58.1732 88.7403 57.8959C89.6704 57.5954 90.1672 56.7115 89.9535 55.7641C88.8731 50.9689 86.3023 46.5147 82.7377 43.135C81.6054 42.0604 80.3633 41.0957 79.0576 40.2464C78.295 39.7496 77.1107 40.0673 76.6889 40.8703C76.221 41.7311 76.4867 42.7075 77.2956 43.239Z" fill="white"/>
<path d="M79.543 61.3854C79.543 63.2976 79.543 65.2099 79.543 67.1222C79.543 70.1725 79.543 73.2171 79.543 76.2675C79.543 76.9666 79.543 77.6714 79.543 78.3704C80.1207 77.7927 80.6984 77.215 81.2761 76.6373C80.2247 76.6373 79.1732 76.6373 78.116 76.6373C75.5913 76.6373 73.0609 76.6373 70.5363 76.6373C67.4801 76.6373 64.4239 76.6373 61.3678 76.6373C58.7334 76.6373 56.1047 76.6373 53.4703 76.6373C52.1935 76.6373 50.9052 76.6026 49.6284 76.6373C49.6111 76.6373 49.5938 76.6373 49.5707 76.6373C50.1484 77.215 50.7261 77.7927 51.3038 78.3704C51.3038 76.2617 51.3038 74.1588 51.3038 72.0501C51.3038 68.9478 51.3038 65.8454 51.3038 62.743C51.3038 61.5876 51.2923 60.4437 51.4425 59.2998C51.4194 59.4558 51.402 59.606 51.3789 59.762C51.5638 58.4159 51.9278 57.0986 52.4477 55.845C52.3899 55.9836 52.3322 56.1223 52.2744 56.2609C52.5864 55.5272 52.9503 54.8166 53.3663 54.1407C53.5743 53.8056 53.7938 53.4705 54.0249 53.1528C54.0769 53.0777 54.1289 53.0084 54.1809 52.939C54.4235 52.6155 53.9729 53.199 54.1405 52.9853C54.2676 52.8235 54.3946 52.6675 54.5275 52.5115C55.0417 51.9107 55.5963 51.3445 56.1914 50.8246C56.3358 50.6975 56.4802 50.5761 56.6304 50.4548C56.6998 50.3971 56.7691 50.3451 56.8384 50.2873C56.9309 50.2122 57.0926 50.1082 56.6709 50.4202C56.7229 50.3797 56.7749 50.3451 56.8211 50.3046C57.1388 50.0677 57.4624 49.8424 57.7974 49.6287C58.5543 49.1434 59.3573 48.7274 60.1834 48.3808C60.0448 48.4386 59.9061 48.4963 59.7675 48.5541C61.05 48.0168 62.3903 47.6529 63.7711 47.468C63.6151 47.4911 63.4649 47.5084 63.3089 47.5315C64.6955 47.3467 66.0993 47.3524 67.4859 47.5315C67.3299 47.5084 67.1797 47.4911 67.0237 47.468C68.4333 47.6586 69.8083 48.0342 71.1197 48.5888C70.9811 48.531 70.8424 48.4732 70.7038 48.4155C71.4317 48.7274 72.1308 49.0856 72.8067 49.5016C73.1418 49.7038 73.4653 49.9233 73.7831 50.1544C73.8582 50.2064 73.9275 50.2584 74.0026 50.3162C74.0488 50.3508 74.1008 50.3855 74.147 50.4259C74.1701 50.4433 73.8293 50.1775 73.9737 50.2931C74.1239 50.4144 74.2799 50.5357 74.4243 50.6628C75.0194 51.1654 75.574 51.7143 76.0824 52.3035C76.2095 52.448 76.3366 52.5982 76.4579 52.7484C76.5157 52.8177 76.5677 52.887 76.6255 52.9564C76.741 53.1008 76.4752 52.7599 76.4926 52.7831C76.5388 52.8408 76.585 52.9044 76.6255 52.9621C76.8566 53.2741 77.0819 53.5976 77.2898 53.9269C77.7694 54.678 78.1853 55.4695 78.5319 56.2956C78.4742 56.157 78.4164 56.0183 78.3586 55.8797C78.8844 57.1333 79.2483 58.439 79.4332 59.7851C79.4101 59.6291 79.3928 59.4789 79.3696 59.3229C79.491 59.993 79.5372 60.6863 79.543 61.3854C79.543 62.2924 80.3402 63.159 81.2761 63.1185C82.212 63.0781 83.0151 62.3559 83.0093 61.3854C82.9978 58.0172 81.9867 54.6549 80.1149 51.8529C78.2893 49.1203 75.7415 46.8556 72.7258 45.5095C71.0389 44.7585 69.3288 44.279 67.5032 44.0421C65.8971 43.8341 64.3084 43.8977 62.7081 44.1288C60.0043 44.5216 57.3468 45.6251 55.1457 47.2485C52.8637 48.9354 50.9341 51.1019 49.6746 53.6612C48.4845 56.0761 47.849 58.7163 47.8433 61.4085C47.8433 62.3039 47.8433 63.1994 47.8433 64.0949C47.8433 65.88 47.8433 67.6594 47.8433 69.4446C47.8433 71.2875 47.8433 73.1363 47.8433 74.9792C47.8433 76.0595 47.8433 77.1341 47.8433 78.2144C47.8433 78.2664 47.8433 78.3184 47.8433 78.3704C47.8433 79.3063 48.6347 80.1036 49.5764 80.1036C50.6279 80.1036 51.6793 80.1036 52.7366 80.1036C55.2612 80.1036 57.7917 80.1036 60.3163 80.1036C63.3725 80.1036 66.4286 80.1036 69.4848 80.1036C72.1192 80.1036 74.7479 80.1036 77.3823 80.1036C78.6648 80.1036 79.9474 80.1267 81.2241 80.1036C81.2415 80.1036 81.2588 80.1036 81.2819 80.1036C82.2178 80.1036 83.0151 79.3121 83.0151 78.3704C83.0151 76.4582 83.0151 74.5459 83.0151 72.6336C83.0151 69.5833 83.0151 66.5387 83.0151 63.4883C83.0151 62.7892 83.0151 62.0844 83.0151 61.3854C83.0151 60.4783 82.2178 59.6117 81.2819 59.6522C80.3344 59.6926 79.543 60.409 79.543 61.3854Z" fill="white"/>
<path d="M44.4635 80.0978C44.8391 80.0978 45.2146 80.0978 45.5901 80.0978C46.6011 80.0978 47.6179 80.0978 48.6289 80.0978C50.1368 80.0978 51.6389 80.0978 53.1467 80.0978C54.9781 80.0978 56.8037 80.0978 58.6351 80.0978C60.6456 80.0978 62.6618 80.0978 64.6723 80.0978C66.7059 80.0978 68.7395 80.0978 70.7673 80.0978C72.6507 80.0978 74.5398 80.0978 76.4232 80.0978C78.0235 80.0978 79.6238 80.0978 81.2299 80.0978C82.3795 80.0978 83.5234 80.0978 84.6731 80.0978C85.2219 80.0978 85.765 80.1036 86.3138 80.0978C86.337 80.0978 86.3601 80.0978 86.3832 80.0978C87.2902 80.0978 88.1568 79.3006 88.1163 78.3646C88.0759 77.423 87.3537 76.6315 86.3832 76.6315C86.0077 76.6315 85.6321 76.6315 85.2566 76.6315C84.2456 76.6315 83.2288 76.6315 82.2178 76.6315C80.7099 76.6315 79.2078 76.6315 77.7 76.6315C75.8686 76.6315 74.043 76.6315 72.2116 76.6315C70.2011 76.6315 68.1849 76.6315 66.1744 76.6315C64.1408 76.6315 62.1072 76.6315 60.0794 76.6315C58.196 76.6315 56.3069 76.6315 54.4235 76.6315C52.8232 76.6315 51.2229 76.6315 49.6168 76.6315C48.4672 76.6315 47.3233 76.6315 46.1736 76.6315C45.6248 76.6315 45.0817 76.6257 44.5329 76.6315C44.5098 76.6315 44.4866 76.6315 44.4635 76.6315C43.5565 76.6315 42.6899 77.4287 42.7304 78.3646C42.7708 79.3063 43.4872 80.0978 44.4635 80.0978Z" fill="white"/>
<path d="M69.0284 83.4024C69.0284 83.6451 69.0111 83.8819 68.9822 84.1188C69.0053 83.9628 69.0227 83.8126 69.0458 83.6566C68.9764 84.1188 68.8551 84.5694 68.676 84.9969C68.7338 84.8583 68.7916 84.7196 68.8493 84.581C68.7165 84.8814 68.5605 85.176 68.3756 85.4476C68.3352 85.5111 68.289 85.5689 68.2427 85.6324C68.0694 85.8809 68.5316 85.2916 68.3294 85.5169C68.2196 85.6382 68.1156 85.7653 68.0001 85.8809C67.8845 85.9964 67.7632 86.1004 67.6361 86.2102C67.4224 86.395 67.9943 85.9502 67.7517 86.1235C67.6881 86.1697 67.6303 86.2102 67.5668 86.2564C67.2953 86.4412 67.0006 86.5972 66.7002 86.7301C66.8389 86.6723 66.9775 86.6146 67.1162 86.5568C66.6829 86.7359 66.238 86.863 65.7759 86.9265C65.9318 86.9034 66.082 86.8861 66.238 86.863C65.7585 86.9265 65.279 86.9265 64.7995 86.863C64.9555 86.8861 65.1057 86.9034 65.2617 86.9265C64.7995 86.8572 64.3489 86.7359 63.9214 86.5568C64.06 86.6146 64.1987 86.6723 64.3373 86.7301C64.0369 86.5972 63.7423 86.4412 63.4707 86.2564C63.4072 86.2159 63.3494 86.1697 63.2859 86.1235C63.0374 85.9502 63.6267 86.4124 63.4014 86.2102C63.2801 86.1004 63.153 85.9964 63.0374 85.8809C62.9219 85.7653 62.8179 85.644 62.7081 85.5169C62.5233 85.3031 62.9681 85.8751 62.7948 85.6324C62.7486 85.5689 62.7081 85.5111 62.6619 85.4476C62.4771 85.176 62.3211 84.8814 62.1882 84.581C62.246 84.7196 62.3037 84.8583 62.3615 84.9969C62.1824 84.5636 62.0553 84.1188 61.9918 83.6566C62.0149 83.8126 62.0322 83.9628 62.0553 84.1188C62.0264 83.8819 62.0091 83.6393 62.0091 83.4024C62.0033 82.4954 61.2176 81.6288 60.2759 81.6693C59.34 81.7097 58.537 82.4318 58.5428 83.4024C58.5543 84.7774 58.9529 86.2044 59.756 87.3252C60.6399 88.5615 61.7896 89.4512 63.2165 89.9827C65.8105 90.959 69.0227 90.104 70.7905 87.9722C71.8708 86.6666 72.4948 85.1067 72.5063 83.3966C72.5121 82.4896 71.7033 81.623 70.7732 81.6635C69.8199 81.7097 69.0342 82.4318 69.0284 83.4024Z" fill="white"/>
</svg>
