<svg width="72" height="72" viewBox="0 0 72 72" fill="none" xmlns="http://www.w3.org/2000/svg">
<path d="M49.8297 32.318C49.8297 31.7236 50.3151 31.2392 50.9149 31.2392C51.5128 31.2392 52 31.7217 52 32.318V36.2366C52 40.6121 50.2007 44.5893 47.3015 47.4697C44.6422 50.1133 41.0564 51.8378 37.0852 52.1038V56.8425H43.3652C43.9631 56.8425 44.4503 57.325 44.4503 57.9213C44.4503 58.5156 43.965 59 43.3652 59H28.6348C28.0369 59 27.5497 58.5175 27.5497 57.9213C27.5497 57.3269 28.035 56.8425 28.6348 56.8425H34.9148V52.1038C30.9435 51.8359 27.3578 50.1133 24.6985 47.4697C21.7993 44.5876 20 40.6105 20 36.2366V32.318C20 31.7236 20.4853 31.2392 21.0851 31.2392C21.683 31.2392 22.1703 31.7217 22.1703 32.318V36.2366C22.1703 40.0177 23.726 43.4537 26.2339 45.9452C28.5001 48.1999 31.5431 49.6785 34.9168 49.9427V46.3195C32.5417 46.0681 30.4028 44.9967 28.7955 43.3988C26.9482 41.5624 25.7984 39.0252 25.7984 36.2348V23.1434C25.7984 20.353 26.9463 17.8176 28.7955 15.9794C30.6428 14.1429 33.195 13 36.0019 13C38.8088 13 41.3593 14.1393 43.2084 15.9794C45.0557 17.8158 46.2054 20.3529 46.2054 23.1434V36.2348C46.2054 39.0252 45.0576 41.5606 43.2084 43.3988C41.6011 44.9967 39.4622 46.0681 37.0871 46.3195V49.9427C40.4606 49.6785 43.5037 48.198 45.7699 45.9452C48.2779 43.452 49.8336 40.0159 49.8336 36.2366V32.318H49.8297ZM35.9983 30.2945C37.639 30.2945 39.1245 30.9549 40.2004 32.0245C41.2744 33.094 41.9406 34.5708 41.9406 36.2017C41.9406 37.8327 41.2744 39.3095 40.2004 40.3772C39.1245 41.4467 37.6389 42.1072 35.9983 42.1072C34.3578 42.1072 32.8722 41.4468 31.7963 40.3772C30.7223 39.3077 30.056 37.8308 30.056 36.2017C30.056 34.5708 30.7223 33.094 31.7963 32.0245C32.8722 30.9549 34.3578 30.2945 35.9983 30.2945ZM38.6668 33.549C37.984 32.872 37.041 32.4501 35.9983 32.4501C34.9575 32.4501 34.0127 32.8702 33.3299 33.549C32.6489 34.2259 32.2245 35.1652 32.2245 36.2017C32.2245 37.2364 32.6471 38.1757 33.3299 38.8527C34.0127 39.5314 34.9557 39.9515 35.9983 39.9515C37.0392 39.9515 37.984 39.5314 38.6668 38.8527C39.3478 38.1757 39.7722 37.2364 39.7722 36.2017C39.7722 35.1671 39.3496 34.2278 38.6668 33.549ZM41.6712 17.5077C40.2133 16.0584 38.2073 15.1594 35.9983 15.1594C33.7892 15.1594 31.7814 16.0584 30.3253 17.5077C28.8674 18.957 27.965 20.9511 27.965 23.1472V36.2387C27.965 38.4346 28.8693 40.4306 30.3253 41.8782C31.7832 43.3275 33.7892 44.2246 35.9983 44.2246C38.2073 44.2246 40.2151 43.3256 41.6712 41.8782C43.1291 40.4289 44.0315 38.4347 44.0315 36.2387V23.1472C44.0315 20.9512 43.1273 18.9571 41.6712 17.5077Z" fill="white"/>
</svg>
