<svg width="72" height="72" viewBox="0 0 72 72" fill="none" xmlns="http://www.w3.org/2000/svg">
<path fill-rule="evenodd" clip-rule="evenodd" d="M62 18.8333C62 13.9548 58.0452 10 53.1667 10H17.8333C12.9548 10 9 13.9548 9 18.8333V33.9762C9 34.673 9.56498 35.2381 10.2619 35.2381C10.9588 35.2381 11.5238 34.673 11.5238 33.9762V18.8333C11.5238 15.3487 14.3487 12.5238 17.8333 12.5238H53.1667C56.6513 12.5238 59.4762 15.3487 59.4762 18.8333V54.1667C59.4762 57.6513 56.6513 60.4762 53.1667 60.4762H38.0238C37.327 60.4762 36.7619 61.0413 36.7619 61.7381C36.7619 62.4349 37.327 63 38.0238 63H53.1667C58.0452 63 62 59.0452 62 54.1667V18.8333Z" fill="white"/>
<path fill-rule="evenodd" clip-rule="evenodd" d="M10.2619 49.119C10.2619 47.0283 11.9568 45.3333 14.0476 45.3333H26.6667C28.7575 45.3333 30.4524 47.0283 30.4524 49.119V59.2143C30.4524 61.305 28.7575 63 26.6667 63H14.0476C11.9568 63 10.2619 61.305 10.2619 59.2143V49.119ZM14.0476 47.8571C13.3507 47.8571 12.7857 48.4222 12.7857 49.119V59.2143C12.7857 59.9111 13.3507 60.4762 14.0476 60.4762H26.6667C27.3636 60.4762 27.9286 59.9111 27.9286 59.2143V49.119C27.9286 48.4222 27.3636 47.8571 26.6667 47.8571H14.0476Z" fill="white"/>
<path fill-rule="evenodd" clip-rule="evenodd" d="M12.7857 42.8095C12.7857 39.3249 15.6106 36.5 19.0952 36.5H21.619C25.1037 36.5 27.9286 39.3249 27.9286 42.8095V46.5952C27.9286 47.2921 27.3636 47.8571 26.6667 47.8571H14.0476C13.3507 47.8571 12.7857 47.2921 12.7857 46.5952V42.8095ZM19.0952 39.0238C17.0044 39.0238 15.3095 40.7188 15.3095 42.8095V45.3333H25.4048V42.8095C25.4048 40.7188 23.7098 39.0238 21.619 39.0238H19.0952Z" fill="white"/>
<path fill-rule="evenodd" clip-rule="evenodd" d="M44.3333 21.3571C44.3333 20.6602 43.7682 20.0952 43.0714 20.0952H27.9286C27.2316 20.0952 26.6667 20.6602 26.6667 21.3571C26.6667 22.0541 27.2316 22.619 27.9286 22.619H43.0714C43.7682 22.619 44.3333 22.0541 44.3333 21.3571Z" fill="white"/>
</svg>
