<svg width="72" height="72" viewBox="0 0 72 72" fill="none" xmlns="http://www.w3.org/2000/svg">
<path d="M49.8288 9.00024H22.1695C20.4224 9.00024 19.0002 10.403 19.0002 12.1264V59.8741C19.0002 61.5975 20.4224 63.0002 22.1695 63.0002H49.831C51.5781 63.0002 53.0002 61.5975 53.0002 59.8741L52.9981 12.1264C52.9981 10.403 51.5759 9.00024 49.8288 9.00024ZM22.1695 10.7046H49.831C50.6265 10.7046 51.2723 11.3416 51.2723 12.1263V14.685H20.728V12.1263C20.728 11.3416 21.374 10.7046 22.1695 10.7046ZM49.8288 61.296H22.1695C21.374 61.296 20.7282 60.659 20.7282 59.8743V16.3898H51.2703V59.8743C51.2703 60.659 50.6243 61.296 49.8288 61.296ZM25.6251 32.3045H32.5411C33.6531 32.3045 34.5577 31.4123 34.5577 30.3154V23.4936C34.5577 22.3968 33.6532 21.5045 32.5411 21.5045H25.6251C24.5131 21.5045 23.6085 22.3967 23.6085 23.4936V30.3154C23.6085 31.4123 24.513 32.3045 25.6251 32.3045ZM25.3385 23.4961C25.3385 23.34 25.469 23.2113 25.6272 23.2113H32.5433C32.7015 23.2113 32.832 23.34 32.832 23.4961V30.3179C32.832 30.474 32.7015 30.6027 32.5433 30.6027H25.6272C25.469 30.6027 25.3385 30.474 25.3385 30.3179V23.4961ZM46.373 21.5048H39.4569C38.3449 21.5048 37.4403 22.3971 37.4403 23.494V30.3158C37.4403 31.4126 38.3449 32.3049 39.4569 32.3049H46.373C47.485 32.3049 48.3896 31.4127 48.3896 30.3158V23.494C48.3896 22.3971 47.485 21.5048 46.373 21.5048ZM46.6595 30.3155C46.6595 30.4716 46.5291 30.6002 46.3708 30.6002H39.4548C39.2965 30.6002 39.1661 30.4716 39.1661 30.3155V23.4937C39.1661 23.3376 39.2965 23.2089 39.4548 23.2089H46.3708C46.5291 23.2089 46.6595 23.3376 46.6595 23.4937V30.3155ZM34.558 43.9591V37.1373C34.558 36.0404 33.6534 35.1481 32.5413 35.1481H25.6253C24.5133 35.1481 23.6087 36.0404 23.6087 37.1373V43.9591C23.6087 45.0559 24.5133 45.9482 25.6253 45.9482H32.5413C33.6533 45.9482 34.558 45.056 34.558 43.9591ZM32.8301 43.9591C32.8301 44.1152 32.6996 44.2438 32.5414 44.2438H25.6253C25.4671 44.2438 25.3366 44.1152 25.3366 43.9591V37.1373C25.3366 36.9812 25.4671 36.8525 25.6253 36.8525H32.5414C32.6996 36.8525 32.8301 36.9812 32.8301 37.1373V43.9591ZM46.3731 35.1485H39.4571C38.3451 35.1485 37.4404 36.0407 37.4404 37.1376V43.9594C37.4404 45.0562 38.345 45.9485 39.4571 45.9485H46.3731C47.4851 45.9485 48.3897 45.0563 48.3897 43.9594V37.1376C48.3897 36.0407 47.4851 35.1485 46.3731 35.1485ZM46.6597 43.9591C46.6597 44.1152 46.5292 44.2438 46.371 44.2438H39.4549C39.2967 44.2438 39.1662 44.1152 39.1662 43.9591V37.1373C39.1662 36.9812 39.2967 36.8525 39.4549 36.8525H46.371C46.5292 36.8525 46.6597 36.9812 46.6597 37.1373V43.9591ZM35.999 51.0633C34.2518 51.0633 32.8297 52.4661 32.8297 54.1894C32.8297 55.9128 34.2518 57.3155 35.999 57.3155C37.7462 57.3155 39.1683 55.9128 39.1683 54.1894C39.1683 52.4661 37.7462 51.0633 35.999 51.0633ZM35.999 55.6111C35.2035 55.6111 34.5577 54.9741 34.5577 54.1894C34.5577 53.4047 35.2035 52.7677 35.999 52.7677C36.7945 52.7677 37.4404 53.4047 37.4404 54.1894C37.4404 54.9741 36.7945 55.6111 35.999 55.6111ZM45.2204 51.0633C43.4732 51.0633 42.0511 52.4661 42.0511 54.1894C42.0511 55.9128 43.4732 57.3155 45.2204 57.3155C46.9676 57.3155 48.3897 55.9128 48.3897 54.1894C48.3897 52.4661 46.9676 51.0633 45.2204 51.0633ZM45.2204 55.6111C44.4249 55.6111 43.779 54.9741 43.779 54.1894C43.779 53.4047 44.4249 52.7677 45.2204 52.7677C46.0159 52.7677 46.6617 53.4047 46.6617 54.1894C46.6617 54.9741 46.0159 55.6111 45.2204 55.6111ZM26.7776 51.0633C25.0305 51.0633 23.6083 52.4661 23.6083 54.1894C23.6083 55.9128 25.0305 57.3155 26.7776 57.3155C28.5248 57.3155 29.9469 55.9128 29.9469 54.1894C29.9469 52.4661 28.5248 51.0633 26.7776 51.0633ZM26.7776 55.6111C25.9821 55.6111 25.3363 54.9741 25.3363 54.1894C25.3363 53.4047 25.9821 52.7677 26.7776 52.7677C27.5731 52.7677 28.219 53.4047 28.219 54.1894C28.219 54.9741 27.5731 55.6111 26.7776 55.6111Z" fill="currentColor"/>
</svg>
