<svg width="72" height="72" viewBox="0 0 72 72" fill="none" xmlns="http://www.w3.org/2000/svg">
<path d="M32.086 33.501L38.5 39.915L29.707 48.708C29.316 49.099 28.684 49.099 28.293 48.708L23.294 43.709C22.903 43.318 22.903 42.686 23.294 42.295L32.086 33.501ZM12 58.586V60H13.414L21.085 52.329L19.671 50.915L12 58.586ZM20.293 47.293C19.902 47.684 19.902 48.316 20.293 48.707L23.293 51.707C23.684 52.098 24.316 52.098 24.707 51.707L26.586 49.828L22.172 45.414L20.293 47.293ZM60 12H58.586L50.914 19.672L52.328 21.086L60 13.414V12ZM48.707 20.293C48.316 19.902 47.684 19.902 47.293 20.293L45.414 22.172L49.828 26.586L51.707 24.707C52.098 24.316 52.098 23.684 51.707 23.293L48.707 20.293ZM43.707 23.294C43.316 22.903 42.684 22.903 42.293 23.294L33.5 32.086L39.914 38.5L48.707 29.707C49.098 29.316 49.098 28.684 48.707 28.293L43.707 23.294Z" fill="white"/>
</svg>
