<svg width="72" height="72" viewBox="0 0 72 72" fill="none" xmlns="http://www.w3.org/2000/svg">
<path d="M52.5449 32.6044C54.0273 30.9291 54.9358 28.7751 54.9358 26.3819C54.9358 21.2124 50.7279 17.0002 45.5637 17.0002C42.0252 17.0002 38.9171 18.9627 37.3391 21.8825C36.9088 21.8347 36.4784 21.7868 36.0002 21.7868C35.5699 21.7868 35.0917 21.8347 34.6614 21.8825C33.0834 18.9627 29.9753 17.0002 26.4368 17.0002C21.2726 17.0002 17.0647 21.2124 17.0647 26.3819C17.0647 28.7751 17.9732 30.9291 19.4555 32.6044C15.678 34.2318 13.0002 38.0132 13.0002 42.3689V48.0171C13.0002 48.6872 13.5262 49.2137 14.1957 49.2137H22.5637V52.8036C22.5637 53.4737 23.0896 54.0002 23.7591 54.0002H48.2414C48.9108 54.0002 49.4368 53.4737 49.4368 52.8036V49.2137H57.8048C58.4743 49.2137 59.0002 48.6872 59.0002 48.0171V42.3689C59.0002 37.9653 56.3703 34.1839 52.5449 32.6044ZM56.6094 46.8204H49.4368C49.2934 42.6083 46.7113 38.9705 42.9815 37.3909C43.4597 36.8644 43.8901 36.29 44.2248 35.6678C44.6551 35.7156 45.0855 35.7635 45.5637 35.7635C47.3329 35.7635 49.0065 35.237 50.3932 34.3754C53.9795 35.2849 56.6094 38.4918 56.6094 42.3211V46.8204ZM24.9545 51.607V47.1555C24.9545 43.3262 27.5844 40.0714 31.1707 39.2098C32.6052 40.0714 34.231 40.5979 36.0002 40.5979C37.7695 40.5979 39.4431 40.0714 40.8298 39.2098C44.416 40.1193 47.046 43.3262 47.046 47.1555V51.607H24.9545ZM15.3911 42.3689C15.3911 38.5397 18.021 35.2849 21.6073 34.4233C23.0418 35.2849 24.6676 35.8114 26.4368 35.8114C26.8672 35.8114 27.3454 35.7635 27.7757 35.7156C28.1104 36.3379 28.5408 36.9123 29.019 37.4388C25.337 39.0184 22.7071 42.6561 22.5637 46.8683H15.3911V42.3689ZM19.4555 26.3819C19.4555 22.5048 22.6115 19.3935 26.4368 19.3935C28.8755 19.3935 31.0273 20.638 32.2705 22.5526C28.9711 23.9886 26.6281 27.2913 26.6281 31.1684C26.6281 31.9343 26.7237 32.6522 26.915 33.3702C26.7716 33.3702 26.6281 33.3702 26.4847 33.3702C22.5637 33.3702 19.4555 30.2111 19.4555 26.3819ZM45.5637 19.3457C49.4368 19.3457 52.5449 22.5048 52.5449 26.334C52.5449 30.1632 49.4368 33.3702 45.5637 33.3702C45.4202 33.3702 45.2767 33.3702 45.1333 33.3702C45.3246 32.6522 45.4202 31.9343 45.4202 31.1684C45.4202 27.3392 43.0772 23.9886 39.7778 22.5526C40.9732 20.638 43.125 19.3457 45.5637 19.3457ZM42.9815 31.1684C42.9815 35.0455 39.8256 38.1568 36.0002 38.1568C32.1271 38.1568 29.019 34.9977 29.019 31.1684C29.019 27.2913 32.1749 24.1801 36.0002 24.1801C39.8734 24.1322 42.9815 27.2913 42.9815 31.1684Z" fill="currentColor"/>
</svg>
