<svg width="72" height="72" viewBox="0 0 72 72" fill="none" xmlns="http://www.w3.org/2000/svg">
<path d="M56.3971 47.2724C55.9063 47.12 55.385 47.4048 55.2416 47.9021C55.1007 48.3906 55.3789 48.9019 55.8613 49.0502C59.2933 50.1049 61.1633 51.3378 61.1633 52.3893C61.1633 54.7937 51.4003 58.1473 35.5002 58.1473C19.6002 58.1473 9.83718 54.7937 9.83718 52.3893C9.83718 51.3284 11.7402 50.0829 15.2311 49.022C15.7974 48.8499 16.0519 48.1844 15.7487 47.6722L15.7385 47.655C15.5229 47.2909 15.0872 47.124 14.685 47.2477C10.6131 48.4999 8.00024 50.2194 8.00024 52.3893C8.00024 57.386 21.8345 60.0002 35.5002 60.0002C49.166 60.0002 63.0002 57.386 63.0002 52.3893C63.0002 50.2337 60.4226 48.5225 56.3971 47.2724Z" fill="currentColor"/>
<path d="M35.335 44.6972C38.3195 44.6972 41.3038 43.5512 43.5755 41.2594C47.6107 37.1892 48.109 30.6271 44.7349 25.9956C43.6245 24.4716 37.265 15.1577 36.0969 13.409C35.9261 13.1535 35.6407 13.0002 35.3352 13.0002C35.0297 13.0002 34.7443 13.1535 34.5735 13.4088C33.4039 15.1594 27.043 24.4752 25.9354 25.9956C22.5611 30.6271 23.0595 37.1892 27.0946 41.2594C29.3664 43.5512 32.3507 44.6972 35.335 44.6972ZM27.4157 27.0929C28.4174 25.7177 33.302 18.5704 35.3352 15.5725C37.3676 18.5693 42.2504 25.7146 43.2546 27.0929C46.0963 30.9934 45.6758 36.5204 42.2768 39.9493C38.449 43.8099 32.2212 43.8103 28.3934 39.9493C24.9943 36.5204 24.5739 30.9934 27.4157 27.0929Z" fill="currentColor"/>
<path d="M37.8188 39.428C37.9219 39.428 38.0269 39.4104 38.1295 39.3731C41.4869 38.1553 42.167 34.0786 42.1942 33.9056C42.2741 33.4004 41.9327 32.9254 41.4317 32.8451C40.9303 32.7633 40.4599 33.1087 40.3803 33.6143C40.3752 33.6458 39.855 36.7781 37.5081 37.6295C37.0307 37.8027 36.7828 38.3334 36.9545 38.8147C37.0892 39.1927 37.4423 39.428 37.8188 39.428Z" fill="currentColor"/>
<path d="M18.2666 46.6538C23.5307 49.8274 29.4329 51.4142 35.3352 51.4142C40.6571 51.4142 45.9771 50.1196 50.8312 47.5394L49.7817 51.1752C49.6526 51.6222 49.854 52.1232 50.2822 52.2972C50.7745 52.4971 51.3172 52.2222 51.4617 51.7213L53.1462 45.8806C53.2881 45.3887 52.986 44.8787 52.4893 44.7717L46.5914 43.501C46.1106 43.3973 45.6386 43.7103 45.5421 44.1967C45.4482 44.6706 45.7547 45.1409 46.2233 45.2417L49.7762 46.0065C40.144 51.0384 28.6017 50.726 19.2091 45.0632C18.7737 44.8012 18.2101 44.944 17.9494 45.3832C17.6891 45.8225 17.8312 46.3913 18.2666 46.6538Z" fill="currentColor"/>
</svg>
