<svg width="72" height="72" viewBox="0 0 72 72" fill="none" xmlns="http://www.w3.org/2000/svg">
<path d="M32.0862 33.5012L38.5002 39.9152L29.7072 48.7082C29.3162 49.0992 28.6842 49.0992 28.2932 48.7082L23.2942 43.7092C22.9032 43.3182 22.9032 42.6862 23.2942 42.2952L32.0862 33.5012ZM12.0002 58.5862V60.0002H13.4142L21.0852 52.3292L19.6712 50.9152L12.0002 58.5862ZM20.2932 47.2932C19.9022 47.6842 19.9022 48.3162 20.2932 48.7072L23.2932 51.7072C23.6842 52.0982 24.3162 52.0982 24.7072 51.7072L26.5862 49.8282L22.1722 45.4142L20.2932 47.2932ZM60.0002 12.0002H58.5862L50.9142 19.6722L52.3282 21.0862L60.0002 13.4142V12.0002ZM48.7072 20.2932C48.3162 19.9022 47.6842 19.9022 47.2932 20.2932L45.4142 22.1722L49.8282 26.5862L51.7072 24.7072C52.0982 24.3162 52.0982 23.6842 51.7072 23.2932L48.7072 20.2932ZM43.7072 23.2942C43.3162 22.9032 42.6842 22.9032 42.2932 23.2942L33.5002 32.0862L39.9142 38.5002L48.7072 29.7072C49.0982 29.3162 49.0982 28.6842 48.7072 28.2932L43.7072 23.2942Z" fill="white"/>
</svg>
