<svg width="72" height="72" viewBox="0 0 72 72" fill="none" xmlns="http://www.w3.org/2000/svg">
<path d="M35.9383 28.3517C31.609 28.3517 28.082 31.8787 28.082 36.2079C28.082 40.5371 31.609 44.0641 35.9383 44.0641C40.2675 44.0641 43.7945 40.5371 43.7945 36.2079C43.7945 31.8787 40.2675 28.3517 35.9383 28.3517ZM35.9383 30.0982C39.3238 30.0982 42.0479 32.8223 42.0479 36.2079C42.0479 39.5935 39.3238 42.3176 35.9383 42.3176C32.5527 42.3176 29.8286 39.5935 29.8286 36.2079C29.8286 32.8223 32.5527 30.0982 35.9383 30.0982Z" fill="currentColor"/>
<path d="M9.18584 17.0613C8.61531 16.8424 8.00223 17.2622 8 17.8733V54.5443C8.00223 55.1553 8.61531 55.5752 9.18584 55.3563C27.3477 48.4375 44.5329 48.4464 61.8077 55.3563C62.3802 55.5811 62.9995 55.1593 63 54.5443V17.8733C62.9995 17.2582 62.3802 16.8364 61.8077 17.0613C44.5329 23.9712 27.3477 23.9801 9.18584 17.0613ZM9.74654 19.1198C27.4042 25.568 44.3843 25.5822 61.2565 19.1403V53.2651C44.3843 46.8231 27.4042 46.8265 9.74654 53.2747V19.1198Z" fill="currentColor"/>
</svg>
