<svg width="72" height="72" viewBox="0 0 72 72" fill="none" xmlns="http://www.w3.org/2000/svg">
<path d="M60.0002 53.035V24.7829C60.0002 22.8637 59.2358 21.0636 57.8404 19.7082L50.0051 12.098C48.6097 10.7427 46.7564 10.0002 44.7804 10.0002H21.231C16.1433 10.0002 12.0002 14.0242 12.0002 18.9658V53.0347C12.0002 57.9762 16.1433 62.0002 21.231 62.0002H50.7693C55.8569 62.0002 60.0002 57.9765 60.0002 53.035ZM56.308 53.035C56.308 56.0013 53.8236 58.4143 50.7695 58.4143H45.2311V50.3453C45.2311 49.3577 44.4018 48.5522 43.385 48.5522C42.3681 48.5522 41.5388 49.3577 41.5388 50.3453V58.4143H30.462V50.3453C30.462 49.3577 29.6326 48.5522 28.6158 48.5522C27.599 48.5522 26.7697 49.3577 26.7697 50.3453V58.4143H21.2312C18.1772 58.4143 15.6928 56.0013 15.6928 53.035V18.966C15.6928 15.9997 18.1772 13.5867 21.2312 13.5867H44.0228C45.5012 13.5867 46.893 14.1436 47.9351 15.1662L54.6814 21.7187C55.7235 22.7308 56.3076 24.0861 56.3076 25.5186L56.308 53.035Z" fill="white"/>
</svg>
