<svg width="47" height="52" viewBox="0 0 47 52" fill="none" xmlns="http://www.w3.org/2000/svg">
<path d="M3.73828 14.4658C9.8219 -4.48311 36.5887 -4.49336 42.6787 14.4658C43.0949 14.4809 43.5061 14.5685 43.8936 14.7236C44.3386 14.9019 44.7441 15.1668 45.0859 15.5029C45.4277 15.8391 45.6991 16.2397 45.8848 16.6816C46.0705 17.1238 46.1672 17.5986 46.168 18.0781V32.377L46.1631 32.5498C46.1196 33.4106 45.7688 34.2295 45.1719 34.8564C44.5773 35.4809 43.7805 35.8693 42.9268 35.957C41.7605 40.2638 39.2242 44.0762 35.6973 46.8145C32.1237 49.5888 27.734 51.1056 23.21 51.1299H23.209C22.4735 51.1299 21.7681 50.8375 21.248 50.3174C20.728 49.7973 20.4355 49.0919 20.4355 48.3564C20.4356 47.6211 20.7281 46.9155 21.248 46.3955C21.7679 45.8758 22.4729 45.5842 23.208 45.584L23.7842 45.5713C26.6582 45.4544 29.442 44.5087 31.7969 42.8428C34.2095 41.1359 36.056 38.7518 37.1113 35.9971C36.6517 36.0016 36.1921 35.9873 35.7334 35.9561C29.5102 43.791 16.9361 43.8001 10.7002 35.9775C10.6703 35.9822 10.6406 35.9881 10.6104 35.9902L10.6016 35.9912H3.86426C2.90611 35.9901 1.98709 35.6082 1.30957 34.9307C0.632263 34.2532 0.25113 33.3349 0.25 32.377V18.0781L0.254883 17.8984C0.276308 17.4803 0.369733 17.0685 0.532227 16.6816C0.71793 16.2396 0.990142 15.8391 1.33203 15.5029C1.67395 15.1667 2.07925 14.9019 2.52441 14.7236C2.91172 14.5685 3.32228 14.481 3.73828 14.4658ZM39.4189 35.9912C38.3084 39.3778 36.1698 42.3356 33.2949 44.4473C30.3713 46.5947 26.8404 47.7555 23.2129 47.7646L23.2139 47.7656C23.0591 47.7686 22.9111 47.8319 22.8027 47.9424C22.6944 48.0528 22.6339 48.2018 22.6338 48.3564C22.6338 48.5111 22.6945 48.66 22.8027 48.7705C22.9109 48.8808 23.0584 48.944 23.2129 48.9473C27.176 48.9247 31.0254 47.6205 34.1855 45.2285C37.2584 42.9024 39.5187 39.6694 40.6504 35.9912H39.4189ZM34.7334 17.6309C29.3725 9.64438 17.0454 9.64289 11.6836 17.6318V33.6611C12.9646 35.515 14.6737 37.0332 16.668 38.084C18.684 39.1463 20.9292 39.6997 23.208 39.6963H23.209C25.4879 39.6998 27.7338 39.1464 29.75 38.084C31.7438 37.0334 33.4525 35.5155 34.7334 33.6621V17.6309ZM3.86426 16.6465C3.48464 16.6469 3.12101 16.798 2.85254 17.0664C2.584 17.3349 2.433 17.6993 2.43262 18.0791V32.376L2.43945 32.5176C2.47225 32.8454 2.61751 33.1536 2.85254 33.3887C3.121 33.657 3.48467 33.8081 3.86426 33.8086H9.50195V16.6465H3.86426ZM36.916 33.8086H42.5527C42.9325 33.8082 43.2969 33.6572 43.5654 33.3887C43.8338 33.1203 43.9848 32.7565 43.9854 32.377V18.0791L43.9785 17.9375C43.9458 17.6096 43.8005 17.3015 43.5654 17.0664C43.3304 16.8314 43.0222 16.6861 42.6943 16.6533L42.5527 16.6465H36.916V33.8086ZM36.7656 14.4639C31.574 2.86298 14.843 2.85908 9.65039 14.4678C9.69092 14.4665 9.73296 14.4666 9.77637 14.4648C9.96015 14.4573 10.168 14.4464 10.3672 14.4521C10.6509 14.4604 10.9868 14.5018 11.2412 14.6865C17.377 7.71698 29.0424 7.71731 35.1777 14.6895C35.2286 14.6502 35.2824 14.6147 35.3398 14.585C35.4887 14.5078 35.6536 14.466 35.8213 14.4639H36.7656ZM23.208 2.34766C19.3873 2.35454 15.6644 3.55879 12.5635 5.79102C9.55716 7.95519 7.28489 10.9816 6.03809 14.4639H7.30273C12.8843 -0.0333257 33.5293 -0.040422 39.1152 14.4639H40.3789C39.1321 10.9816 36.8598 7.95515 33.8535 5.79102C30.7524 3.55871 27.029 2.35428 23.208 2.34766Z" fill="white" stroke="white" stroke-width="0.5"/>
</svg>
