<svg width="56" height="50" viewBox="0 0 56 50" fill="none" xmlns="http://www.w3.org/2000/svg">
<path d="M39.6819 22.4391C39.2854 16.2084 34.1969 11.2628 28.0005 11.2628C21.8042 11.2628 16.7161 16.2084 16.3192 22.4391C14.7087 22.8414 13.5084 24.3279 13.5084 26.0965V41.724C13.5084 43.7999 15.1627 45.4904 17.1942 45.4904H24.1421L23.5187 48.2118H22.3812C21.8972 48.2118 21.5062 48.6113 21.5062 49.1059C21.5062 49.6005 21.8972 50 22.3812 50H24.2105H24.2132H24.2187H31.7848H31.7903H31.793H33.6223C34.1062 50 34.4972 49.6005 34.4972 49.1059C34.4972 48.6113 34.1062 48.2118 33.6223 48.2118H32.4848L31.8614 45.4904H38.812C40.8435 45.4904 42.4978 43.7999 42.4978 41.724L42.4951 26.0965C42.4951 24.3279 41.2951 22.8414 39.6819 22.4391ZM35.0964 22.3329C35.0308 20.8157 34.7984 19.3516 34.4156 18.0049C34.9816 17.7618 35.512 17.4852 36.0042 17.1807C37.0678 18.6476 37.7541 20.4134 37.9209 22.3329H35.0964ZM28.8759 13.1988C30.1856 13.6263 31.3505 14.9898 32.1652 16.9009C31.1399 17.1831 30.0297 17.362 28.8759 17.4206V13.1988ZM27.1259 17.4234C25.9721 17.3647 24.8619 17.1859 23.8366 16.9037C24.6514 14.9925 25.8162 13.6291 27.1259 13.2015V17.4234ZM27.1259 19.2144V22.3326H22.6581C22.7237 21.0026 22.9288 19.7369 23.2487 18.5913C24.4573 18.9378 25.7697 19.1501 27.1259 19.2144ZM27.1259 24.1208V27.2417C25.7697 27.306 24.46 27.5184 23.2487 27.8648C22.9287 26.7192 22.7237 25.4507 22.658 24.1208L27.1259 24.1208ZM27.1259 29.0355V33.2573C25.8162 32.8298 24.6513 31.4663 23.8366 29.5552C24.8592 29.2702 25.9693 29.0942 27.1259 29.0355ZM28.8759 33.2573V29.0355C30.0297 29.0942 31.1399 29.273 32.1652 29.5552C31.3504 31.4664 30.1856 32.8298 28.8759 33.2573ZM28.8759 27.2445V24.1236H33.3437C33.2781 25.4563 33.073 26.722 32.7531 27.8676C31.5445 27.5184 30.2321 27.3088 28.8759 27.2445ZM28.8759 22.3326V19.2144C30.2321 19.1501 31.5418 18.9378 32.7531 18.5913C33.0731 19.7369 33.2781 21.0026 33.3438 22.3326L28.8759 22.3326ZM33.8277 16.3141C33.6308 15.8391 33.4093 15.3865 33.1687 14.959C33.0375 14.7271 32.9008 14.5036 32.7613 14.2912C33.5105 14.7104 34.1996 15.2245 34.8175 15.8168C34.5031 15.9984 34.175 16.1632 33.8277 16.3141ZM22.8331 14.9618C22.5925 15.3893 22.3737 15.842 22.1741 16.3169C21.8268 16.166 21.4987 15.9984 21.1843 15.8196C21.8022 15.2272 22.4913 14.7131 23.2405 14.294C23.101 14.5064 22.9643 14.7271 22.8331 14.9618ZM21.5863 18.0045C21.2035 19.3485 20.971 20.8126 20.9054 22.3326H18.0837C18.2477 20.413 18.934 18.6472 20.0004 17.1803C20.4899 17.4849 21.0203 17.7615 21.5863 18.0045ZM20.9054 24.1208C20.971 25.6407 21.2035 27.1048 21.5863 28.4516C21.0203 28.6947 20.4898 28.9713 19.9977 29.2758C18.934 27.8089 18.245 26.0403 18.0809 24.1208H20.9054ZM22.1741 30.142C22.371 30.617 22.5925 31.0696 22.8331 31.4943C22.9644 31.729 23.1011 31.9497 23.2405 32.1621C22.4913 31.743 21.8023 31.2289 21.1843 30.6365C21.4988 30.4577 21.8269 30.2929 22.1741 30.142ZM33.1688 31.4943C33.4094 31.0668 33.6281 30.6142 33.8277 30.142C34.175 30.2929 34.5031 30.4605 34.8176 30.6393C34.1996 31.2317 33.5106 31.7458 32.7614 32.1649C32.9008 31.9497 33.0375 31.729 33.1688 31.4943ZM36.0015 29.2758C35.5093 28.9712 34.9789 28.6918 34.4129 28.4516C34.7957 27.1048 35.0281 25.6407 35.0965 24.1208H37.9182C37.7542 26.0403 37.0651 27.8089 36.0015 29.2758ZM16.3418 24.3247C16.8887 30.4102 21.9088 35.1934 28.0007 35.1934C34.0955 35.1934 39.1157 30.4099 39.6596 24.3247C40.3022 24.646 40.7452 25.3194 40.7452 26.0962V40.2702L15.2616 40.2729V26.0961C15.2616 25.3194 15.702 24.6489 16.3418 24.3247ZM30.6858 48.2115H25.3184L25.9418 45.4901H30.0651L30.6858 48.2115ZM38.8119 43.6991H17.1944C16.2401 43.6991 15.4499 42.9894 15.2913 42.0617H40.7146C40.556 42.9894 39.7635 43.6991 38.8119 43.6991ZM56 21.6792C56 27.8317 51.7263 33.188 45.8363 34.4147C45.7761 34.4259 45.7187 34.4343 45.6613 34.4343C45.2539 34.4343 44.8874 34.1409 44.8027 33.719C44.707 33.2356 45.0132 32.7635 45.4862 32.6628C50.5638 31.6038 54.2472 26.9881 54.2472 21.6818C54.2472 15.5014 49.3282 10.4748 43.2799 10.4748C42.6209 10.4748 41.9647 10.5363 41.3194 10.6564C41.9537 12.4139 42.3037 14.3111 42.3037 16.2893C42.3037 16.7838 41.9127 17.1834 41.4287 17.1834C40.9448 17.1834 40.5537 16.7838 40.5537 16.2893C40.5537 8.29529 34.1911 1.79339 26.3707 1.79339C20.4236 1.79339 15.0618 5.62966 13.0326 11.341C13.0216 11.3689 13.0107 11.3968 12.9997 11.4248C12.9122 11.8243 12.5623 12.1205 12.1466 12.1205H12.1275C9.37128 12.0674 6.76826 13.118 4.80215 15.0878C2.83618 17.0548 1.75611 19.6896 1.75611 22.5031C1.75611 27.2166 4.86774 31.349 9.32432 32.5478C9.70165 32.6484 10.079 32.7266 10.47 32.7853C10.9485 32.8579 11.2793 33.3106 11.211 33.7995C11.1481 34.2438 10.7735 34.5651 10.3442 34.5651C10.3032 34.5651 10.2594 34.5623 10.2157 34.5567C9.76726 34.4897 9.31606 34.3975 8.87857 34.2801C3.65055 32.8719 0 28.0298 0 22.503C0 19.2032 1.26872 16.1158 3.57376 13.8081C5.7311 11.6483 8.53649 10.4272 11.5333 10.3322C13.9175 4.13496 19.8266 0 26.3694 0C32.5844 0 37.9765 3.65465 40.6042 8.97176C41.4819 8.77897 42.3788 8.68118 43.2811 8.68118C50.2921 8.68118 55.9984 14.5124 55.9984 21.6793L56 21.6792Z" fill="white"/>
</svg>
