<svg width="72" height="72" viewBox="0 0 72 72" fill="none" xmlns="http://www.w3.org/2000/svg">
<path d="M36 33.8697C36.1881 33.8699 36.3685 33.9448 36.5015 34.0778C36.6346 34.2108 36.7094 34.3912 36.7097 34.5794H38.129C38.1276 34.1405 37.9905 33.7129 37.7363 33.3551C37.4822 32.9973 37.1236 32.727 36.7097 32.5812V31.7406H35.2903V32.5811C34.817 32.7475 34.4178 33.0761 34.1636 33.5087C33.9095 33.9413 33.8167 34.4499 33.9017 34.9444C33.9867 35.4389 34.2441 35.8874 34.6282 36.2102C35.0123 36.533 35.4983 36.7094 36 36.7081C36.1404 36.7081 36.2776 36.7497 36.3944 36.8277C36.5111 36.9056 36.6021 37.0164 36.6559 37.1461C36.7097 37.2758 36.7238 37.4185 36.6964 37.5562C36.6691 37.6939 36.6016 37.8204 36.5024 37.9197C36.4032 38.0191 36.2767 38.0867 36.1391 38.1142C36.0014 38.1417 35.8587 38.1277 35.7289 38.074C35.5992 38.0204 35.4883 37.9295 35.4102 37.8128C35.3321 37.6961 35.2904 37.5589 35.2903 37.4186H33.871C33.8724 37.8574 34.0096 38.285 34.2638 38.6427C34.5179 39.0005 34.8766 39.2708 35.2905 39.4165L35.2903 40.1804H36.7097L36.7098 39.4164C37.1832 39.2499 37.5823 38.9212 37.8364 38.4886C38.0906 38.0559 38.1834 37.5473 38.0983 37.0527C38.0133 36.5582 37.7559 36.1098 37.3718 35.7869C36.9877 35.464 36.5018 35.2875 36 35.2887C35.9066 35.289 35.8141 35.2709 35.7278 35.2354C35.6414 35.1998 35.563 35.1476 35.4968 35.0817C35.4307 35.0158 35.3783 34.9375 35.3425 34.8512C35.3067 34.765 35.2882 34.6726 35.2882 34.5792C35.2882 34.4858 35.3067 34.3934 35.3425 34.3072C35.3783 34.2209 35.4307 34.1426 35.4968 34.0767C35.563 34.0108 35.6414 33.9586 35.7278 33.923C35.8141 33.8875 35.9066 33.8694 36 33.8697Z" fill="white"/>
<path d="M43.0968 37.4948H40.9678V28.192C40.9678 28.0038 40.893 27.8233 40.7599 27.6902C40.6268 27.5571 40.4463 27.4823 40.2581 27.4823H31.742C31.5538 27.4823 31.3732 27.5571 31.2402 27.6902C31.1071 27.8233 31.0323 28.0038 31.0323 28.192V37.4948H28.9033C28.7655 37.4948 28.6307 37.5349 28.5153 37.6102C28.3999 37.6855 28.309 37.7928 28.2535 37.9189C28.1981 38.0451 28.1806 38.1846 28.2031 38.3205C28.2256 38.4565 28.2872 38.5829 28.3804 38.6844L35.4771 46.4146C35.5436 46.487 35.6245 46.5448 35.7145 46.5844C35.8045 46.6239 35.9017 46.6444 36 46.6444C36.0984 46.6444 36.1956 46.6239 36.2856 46.5844C36.3756 46.5448 36.4564 46.487 36.5229 46.4146L43.6197 38.6844C43.7129 38.5829 43.7745 38.4565 43.797 38.3205C43.8195 38.1846 43.802 38.0451 43.7465 37.9189C43.6911 37.7928 43.6001 37.6855 43.4848 37.6102C43.3694 37.5349 43.2346 37.4948 43.0968 37.4948ZM36 44.8853L30.5184 38.9142H31.742C31.9302 38.9142 32.1107 38.8394 32.2438 38.7063C32.3769 38.5732 32.4517 38.3927 32.4517 38.2045V28.9017H39.5484V38.2045C39.5484 38.3927 39.6232 38.5732 39.7563 38.7063C39.8894 38.8394 40.0699 38.9142 40.2581 38.9142H41.4817L36 44.8853Z" fill="white"/>
<path d="M36 21.095C33.0524 21.095 30.171 21.9691 27.7202 23.6067C25.2694 25.2444 23.3592 27.572 22.2312 30.2953C21.1032 33.0187 20.8081 36.0153 21.3831 38.9064C21.9582 41.7974 23.3776 44.453 25.4618 46.5374C27.5461 48.6217 30.2016 50.0412 33.0925 50.6162C35.9835 51.1913 38.98 50.8961 41.7032 49.7681C44.4264 48.6401 46.754 46.7298 48.3916 44.2789C50.0292 41.828 50.9032 38.9465 50.9032 35.9988C50.8988 32.0474 49.3272 28.2591 46.5333 25.4651C43.7393 22.671 39.9512 21.0994 36 21.095ZM36 49.4832C33.3331 49.4832 30.7262 48.6923 28.5088 47.2107C26.2914 45.729 24.5631 43.623 23.5425 41.159C22.522 38.6951 22.2549 35.9838 22.7752 33.3681C23.2955 30.7524 24.5797 28.3497 26.4655 26.4639C28.3512 24.578 30.7538 23.2938 33.3694 22.7735C35.985 22.2532 38.6962 22.5202 41.1601 23.5408C43.6239 24.5614 45.7298 26.2898 47.2114 28.5073C48.6931 30.7247 49.4839 33.3318 49.4839 35.9988C49.4798 39.5738 48.0579 43.0013 45.53 45.5292C43.0022 48.0571 39.5749 49.4791 36 49.4832Z" fill="white"/>
<path d="M56.887 31.1906H55.5047C55.2172 31.1817 54.9401 31.0814 54.7136 30.9042C54.4871 30.727 54.323 30.4822 54.2451 30.2054C53.9151 29.1695 53.4973 28.1633 52.9962 27.1985C52.8549 26.9474 52.7976 26.6577 52.8325 26.3717C52.8674 26.0857 52.9927 25.8184 53.1903 25.6086L54.1734 24.6251C54.2898 24.5087 54.3621 24.3555 54.378 24.1916C54.3939 24.0278 54.3523 23.8635 54.2603 23.7269C52.6705 21.3618 50.6365 19.3278 48.2714 17.7381C48.1348 17.6461 47.9705 17.6046 47.8067 17.6204C47.6428 17.6363 47.4896 17.7086 47.3732 17.8251L46.3898 18.8082C46.18 19.0056 45.9126 19.1309 45.6266 19.1658C45.3407 19.2007 45.0511 19.1434 44.7999 19.0022C43.8351 18.501 42.8292 18.0831 41.7932 17.7533C41.5164 17.6754 41.2716 17.5113 41.0945 17.2847C40.9174 17.0582 40.8171 16.7811 40.8083 16.4937V15.1113C40.8083 14.9467 40.7511 14.7873 40.6465 14.6602C40.5419 14.5331 40.3964 14.4464 40.2348 14.4148C37.4387 13.8617 34.5613 13.8617 31.7651 14.4148C31.6036 14.4464 31.4581 14.5331 31.3535 14.6602C31.2488 14.7873 31.1916 14.9467 31.1917 15.1113V16.4937C31.1828 16.7811 31.0826 17.0582 30.9055 17.2848C30.7284 17.5113 30.4836 17.6754 30.2068 17.7533C29.1707 18.0832 28.1647 18.501 27.1997 19.0022C26.9486 19.1434 26.659 19.2007 26.373 19.1658C26.087 19.1309 25.8197 19.0056 25.6099 18.8082L24.6268 17.8251C24.5104 17.7086 24.3572 17.6363 24.1933 17.6204C24.0295 17.6046 23.8652 17.6461 23.7286 17.7381C21.3634 19.3278 19.3295 21.3618 17.7396 23.7269C17.6477 23.8635 17.6061 24.0278 17.622 24.1916C17.6379 24.3555 17.7102 24.5087 17.8266 24.6251L18.8097 25.6089C19.0073 25.8187 19.1326 26.0861 19.1675 26.3721C19.2024 26.6581 19.1451 26.9478 19.0038 27.1989C18.5026 28.1636 18.0848 29.1695 17.7549 30.2054C17.677 30.4822 17.5129 30.727 17.2864 30.9042C17.0599 31.0814 16.7827 31.1817 16.4953 31.1906H15.113C14.9484 31.1906 14.789 31.2478 14.6619 31.3524C14.5348 31.457 14.4481 31.6026 14.4165 31.7641C13.8612 34.5601 13.8612 37.4381 14.4165 40.2341C14.4481 40.3957 14.5348 40.5412 14.6619 40.6458C14.789 40.7505 14.9484 40.8077 15.113 40.8077H16.4953C16.7827 40.8165 17.0598 40.9167 17.2864 41.0938C17.5129 41.2709 17.677 41.5157 17.7549 41.7925C18.0848 42.8284 18.5026 43.8343 19.0038 44.7991C19.1451 45.0503 19.2024 45.3401 19.1675 45.6262C19.1326 45.9123 19.0073 46.1798 18.8097 46.3897L17.8266 47.3728C17.7102 47.4892 17.6379 47.6424 17.622 47.8063C17.6061 47.9701 17.6477 48.1344 17.7397 48.271C19.3294 50.6362 21.3632 52.6703 23.7283 54.2602C23.8649 54.352 24.0291 54.3935 24.1929 54.3776C24.3567 54.3617 24.51 54.2895 24.6264 54.1732L25.6102 53.1901C25.8199 52.9925 26.0873 52.8671 26.3733 52.8321C26.6592 52.7972 26.9489 52.8545 27.2001 52.9957C28.1648 53.4972 29.1707 53.9152 30.2068 54.2449C30.4836 54.3228 30.7284 54.487 30.9055 54.7135C31.0826 54.94 31.1828 55.2172 31.1917 55.5046V56.8869C31.1916 57.0515 31.2488 57.211 31.3535 57.3381C31.4581 57.4651 31.6036 57.5519 31.7651 57.5835C34.5611 58.1388 37.4389 58.1388 40.2348 57.5835C40.3964 57.5519 40.5419 57.4651 40.6465 57.3381C40.7511 57.211 40.8083 57.0515 40.8083 56.8869V55.5046C40.8171 55.2172 40.9174 54.94 41.0945 54.7135C41.2716 54.487 41.5164 54.3228 41.7932 54.2449C42.8292 53.9151 43.8352 53.4972 44.7999 52.9957C45.0511 52.8545 45.3409 52.7973 45.6269 52.8322C45.9129 52.8672 46.1803 52.9926 46.3901 53.1901L47.3735 54.1732C47.49 54.2895 47.6432 54.3617 47.8071 54.3776C47.9709 54.3934 48.1351 54.3519 48.2717 54.2602C50.6369 52.6704 52.6707 50.6363 54.2603 48.271C54.3522 48.1344 54.3938 47.9701 54.378 47.8063C54.3621 47.6424 54.2898 47.4891 54.1733 47.3728L53.1903 46.3893C52.9927 46.1795 52.8673 45.9121 52.8324 45.626C52.7975 45.3399 52.8549 45.0502 52.9962 44.799C53.4973 43.8342 53.9151 42.8284 54.2451 41.7925C54.323 41.5157 54.4871 41.2709 54.7136 41.0938C54.9402 40.9167 55.2173 40.8165 55.5047 40.8077H56.887C57.0516 40.8077 57.211 40.7505 57.3381 40.6458C57.4652 40.5412 57.5519 40.3957 57.5835 40.2341C58.1388 37.4381 58.1388 34.5601 57.5835 31.7641C57.5519 31.6026 57.4651 31.457 57.3381 31.3524C57.211 31.2478 57.0515 31.1906 56.887 31.1906ZM56.2944 39.3882H55.5047C54.9157 39.3961 54.3446 39.5919 53.8746 39.9471C53.4047 40.3022 53.0605 40.7983 52.8923 41.3628C52.5872 42.3214 52.2007 43.2521 51.7369 44.1448C51.4554 44.6634 51.3472 45.2584 51.4281 45.8429C51.509 46.4274 51.7749 46.9707 52.1867 47.3932L52.7505 47.9574C51.4291 49.8092 49.8095 51.4289 47.9578 52.7503L47.394 52.1865C46.9714 51.7747 46.4282 51.5089 45.8438 51.4279C45.2593 51.3469 44.6643 51.455 44.1457 51.7363C43.2529 52.2002 42.3221 52.5869 41.3635 52.892C40.799 53.0603 40.303 53.4046 39.9478 53.8745C39.5927 54.3444 39.3969 54.9156 39.389 55.5046V56.2943C37.1456 56.6741 34.8544 56.6741 32.611 56.2943V55.5046C32.6031 54.9156 32.4073 54.3445 32.0522 53.8745C31.697 53.4046 31.201 53.0604 30.6365 52.892C29.6779 52.5869 28.7471 52.2003 27.8543 51.7364C27.3357 51.455 26.7408 51.347 26.1564 51.4279C25.572 51.5089 25.0289 51.7747 24.6064 52.1865L24.0422 52.7503C22.1906 51.4287 20.5711 49.8091 19.2495 47.9574L19.8133 47.3936C20.2251 46.9709 20.4909 46.4276 20.5719 45.8431C20.6529 45.2586 20.5448 44.6635 20.2634 44.1448C19.7994 43.2522 19.4128 42.3215 19.1078 41.3628C18.9395 40.7983 18.5953 40.3022 18.1254 39.9471C17.6554 39.5919 17.0843 39.3961 16.4953 39.3882H15.7056C15.3239 37.145 15.3239 34.8533 15.7056 32.61H16.4953C17.0843 32.6021 17.6554 32.4063 18.1253 32.0511C18.5952 31.6959 18.9394 31.2 19.1077 30.6354C19.4128 29.6769 19.7993 28.7462 20.263 27.8535C20.5447 27.3349 20.6529 26.7398 20.572 26.1553C20.4911 25.5708 20.2252 25.0275 19.8133 24.605L19.2495 24.0409C20.5711 22.1892 22.1906 20.5696 24.0422 19.248L24.606 19.8118C25.0286 20.2235 25.5718 20.4893 26.1562 20.5703C26.7407 20.6513 27.3357 20.5433 27.8543 20.2619C28.7471 19.7981 29.6779 19.4114 30.6365 19.1062C31.201 18.9379 31.697 18.5937 32.0522 18.1237C32.4073 17.6538 32.6031 17.0827 32.611 16.4937V15.7039C34.8544 15.3241 37.1456 15.3241 39.389 15.7039V16.4937C39.3969 17.0827 39.5927 17.6538 39.9478 18.1237C40.303 18.5937 40.799 18.9379 41.3635 19.1062C42.322 19.4114 43.2527 19.7979 44.1453 20.2616C44.6639 20.543 45.2589 20.6512 45.8434 20.5703C46.4278 20.4893 46.9711 20.2235 47.3936 19.8118L47.9578 19.2479C49.8094 20.5696 51.4289 22.1892 52.7505 24.0409L52.1867 24.6047C51.7748 25.0272 51.509 25.5704 51.428 26.1549C51.347 26.7394 51.4551 27.3345 51.7366 27.8531C52.2005 28.7459 52.5871 29.6767 52.8922 30.6354C53.0605 31.2 53.4047 31.6959 53.8747 32.0511C54.3446 32.4063 54.9157 32.6021 55.5047 32.61H56.2944C56.676 34.8533 56.676 37.145 56.2944 39.3882Z" fill="white"/>
</svg>
