<svg width="72" height="72" viewBox="0 0 72 72" fill="none" xmlns="http://www.w3.org/2000/svg">
<path fill-rule="evenodd" clip-rule="evenodd" d="M34.4855 28.8432C33.8497 28.8432 33.2344 28.9188 32.6421 29.0647C33.0472 29.6876 33.2857 30.4356 33.2857 31.2409C33.2857 33.4197 31.5474 35.1868 29.404 35.1868C28.4964 35.1868 27.6607 34.8688 26.9991 34.3398C26.7402 35.1321 26.6018 35.9817 26.6018 36.86C26.6018 41.288 30.1321 44.8744 34.4857 44.8744C38.8416 44.8744 42.3695 41.2856 42.3695 36.86C42.3695 32.432 38.8392 28.8456 34.4857 28.8456L34.4855 28.8432ZM34.3139 20C44.09 20 54.2245 25.2698 64.7179 35.8119L64.7282 35.8224C65.0948 36.2029 65.0897 36.8128 64.7179 37.1881C54.2245 47.7305 44.0893 53 34.3139 53C24.5378 53 15.1522 47.7119 6.23786 37.1387C5.92763 36.7842 5.91738 36.2421 6.2276 35.8721C15.1446 25.291 24.5076 20 34.3139 20ZM44.3283 26.4974C46.8459 29.0567 48.4047 32.596 48.4047 36.5027C48.4047 40.4094 46.8459 43.946 44.3283 46.508C41.8106 49.0699 38.329 50.6519 34.4859 50.6519C30.6427 50.6519 27.1638 49.0673 24.6435 46.508C22.1258 43.9487 20.567 40.4094 20.567 36.5027C20.567 32.596 22.1258 29.0594 24.6435 26.4974C27.1611 23.9381 30.6427 22.3535 34.4859 22.3535C38.329 22.3535 41.8079 23.9381 44.3283 26.4974ZM24.8154 49.2288C24.2821 48.8092 23.7771 48.3583 23.3002 47.8736C20.4364 44.9624 18.6674 40.9408 18.6674 36.4999C18.6674 32.059 20.439 28.0371 23.3002 25.1262C23.7771 24.6414 24.2821 24.1905 24.8154 23.7709C19.1417 25.994 13.6065 30.237 8.20686 36.4971C13.6037 42.7599 19.1414 47.0001 24.8154 49.2232V49.2288ZM44.2055 23.8072C44.7208 24.2164 45.2131 24.6568 45.6771 25.1286C48.5409 28.0398 50.31 32.0615 50.31 36.5024C50.31 40.9432 48.5384 44.9651 45.6771 47.8761C45.2157 48.3452 44.7234 48.7883 44.2055 49.1975C50.1997 46.9639 56.3628 42.734 62.6958 36.5054C56.3632 30.2765 50.1998 26.0464 44.2055 23.8132V23.8072Z" fill="white"/>
</svg>
