<svg width="72" height="72" viewBox="0 0 72 72" fill="none" xmlns="http://www.w3.org/2000/svg">
<path d="M36.0008 52.9C36.2706 52.8997 36.5372 52.8419 36.7829 52.7305C37.0286 52.6191 37.2477 52.4567 37.4258 52.254C38.8318 50.639 51.2008 36.275 51.2008 28.2C51.2008 24.1687 49.5994 20.3025 46.7488 17.452C43.8983 14.6014 40.0321 13 36.0008 13C31.9695 13 28.1033 14.6014 25.2528 17.452C22.4022 20.3025 20.8008 24.1687 20.8008 28.2C20.8008 36.275 33.1698 50.639 34.5758 52.254C34.7538 52.4567 34.973 52.6191 35.2187 52.7305C35.4644 52.8419 35.731 52.8997 36.0008 52.9ZM36.0008 16.8C39.0242 16.8 41.9239 18.0011 44.0618 20.139C46.1997 22.2769 47.4008 25.1765 47.4008 28.2C47.4008 33.197 40.1428 43.039 36.0008 48.055C31.8588 43.039 24.6008 33.197 24.6008 28.2C24.6008 25.1765 25.8018 22.2769 27.9398 20.139C30.0777 18.0011 32.9773 16.8 36.0008 16.8Z" fill="white"/>
<path d="M43.847 48.5665C43.5975 48.5391 43.345 48.561 43.104 48.6312C42.863 48.7013 42.6381 48.8182 42.4423 48.9752C42.2464 49.1322 42.0835 49.3263 41.9626 49.5463C41.8418 49.7663 41.7654 50.008 41.738 50.2575C41.7106 50.507 41.7325 50.7595 41.8026 51.0005C41.8728 51.2415 41.9897 51.4664 42.1467 51.6622C42.3037 51.8581 42.4978 52.0211 42.7178 52.1419C42.9378 52.2627 43.1795 52.3391 43.429 52.3665C45.83 52.5551 48.1946 53.0664 50.459 53.8865C45.7813 55.3297 40.8907 55.9595 36 55.7485C31.1071 55.9472 26.2164 55.3046 21.541 53.8485C23.8591 53.0067 26.2823 52.4888 28.742 52.3095C28.9915 52.2821 29.2332 52.2057 29.4532 52.0849C29.6732 51.9641 29.8673 51.8011 30.0243 51.6052C30.1813 51.4094 30.2982 51.1845 30.3684 50.9435C30.4385 50.7025 30.4604 50.45 30.433 50.2005C30.4056 49.951 30.3292 49.7093 30.2084 49.4893C30.0875 49.2693 29.9246 49.0752 29.7287 48.9182C29.5329 48.7612 29.308 48.6443 29.067 48.5742C28.826 48.504 28.5735 48.4821 28.324 48.5095C17 49.7635 17 52.8415 17 53.8485C17 59.1305 31.535 59.5485 36 59.5485C40.465 59.5485 55 59.1305 55 53.8485C55 52.8415 55 49.8015 43.847 48.5665Z" fill="white"/>
<path d="M41.7008 27.2498C41.7008 26.1225 41.3665 25.0204 40.7402 24.0831C40.1138 23.1457 39.2236 22.4151 38.1821 21.9837C37.1405 21.5523 35.9945 21.4394 34.8888 21.6593C33.7831 21.8793 32.7674 22.4221 31.9703 23.2193C31.1731 24.0165 30.6302 25.0321 30.4103 26.1378C30.1904 27.2435 30.3033 28.3896 30.7347 29.4311C31.1661 30.4726 31.8967 31.3629 32.834 31.9892C33.7714 32.6155 34.8734 32.9498 36.0008 32.9498C37.5125 32.9498 38.9623 32.3493 40.0313 31.2803C41.1003 30.2114 41.7008 28.7615 41.7008 27.2498ZM34.1008 27.2498C34.1008 26.874 34.2122 26.5067 34.421 26.1942C34.6298 25.8818 34.9265 25.6382 35.2737 25.4944C35.6209 25.3506 36.0029 25.313 36.3715 25.3863C36.74 25.4596 37.0786 25.6406 37.3443 25.9063C37.61 26.172 37.791 26.5106 37.8643 26.8791C37.9376 27.2477 37.9 27.6297 37.7562 27.9769C37.6123 28.3241 37.3688 28.6208 37.0564 28.8296C36.7439 29.0384 36.3766 29.1498 36.0008 29.1498C35.4969 29.1498 35.0136 28.9496 34.6573 28.5933C34.301 28.237 34.1008 27.7537 34.1008 27.2498Z" fill="white"/>
</svg>
