<svg width="72" height="72" viewBox="0 0 72 72" fill="none" xmlns="http://www.w3.org/2000/svg">
<path d="M15.2498 27.6772C15.5559 26.3369 15.9719 25.0254 16.5034 23.7602C16.4456 23.8989 16.3879 24.0375 16.3301 24.1762C17.0349 22.5239 17.9188 20.9467 18.9761 19.4966C19.0454 19.4042 19.1147 19.306 19.184 19.2135C19.2014 19.1904 19.2938 19.0922 19.288 19.0749C19.288 19.0633 19.0454 19.3811 19.1494 19.254C19.2938 19.0691 19.4382 18.8842 19.5885 18.7051C19.8773 18.3585 20.1777 18.0119 20.4839 17.6826C21.079 17.0413 21.7145 16.4289 22.3789 15.857C22.5811 15.6837 22.7833 15.5161 22.9855 15.3544C23.0779 15.2792 23.1703 15.2099 23.2628 15.1348C22.8122 15.4988 23.1935 15.1926 23.2974 15.1117C23.7076 14.8055 24.1294 14.5167 24.5627 14.2336C25.3253 13.7425 25.7065 12.6737 25.1866 11.8649C24.6955 11.1081 23.6267 10.7152 22.8179 11.241C18.4908 14.0487 15.1458 18.087 13.1584 22.8359C12.6269 24.1011 12.2051 25.4125 11.9047 26.7528C11.7025 27.6368 12.1763 28.6709 13.1179 28.8846C13.9961 29.0926 15.0302 28.6247 15.2498 27.6772Z" fill="white"/>
<path d="M48.2956 14.2392C48.7 14.505 49.0986 14.7765 49.4857 15.0654C49.5839 15.1347 49.6763 15.2098 49.7745 15.2849C49.9247 15.4005 49.6185 15.1636 49.6301 15.1694C49.6705 15.1983 49.711 15.2329 49.7514 15.2676C49.9536 15.4294 50.1558 15.5911 50.3522 15.7587C51.0513 16.3537 51.7099 16.9834 52.3338 17.6536C52.6285 17.9713 52.9173 18.2949 53.1947 18.6299C53.3333 18.7975 53.472 18.965 53.6048 19.1383C53.6337 19.173 53.6684 19.2077 53.6915 19.2481C53.703 19.2712 53.4489 18.9304 53.5644 19.0806C53.6395 19.1788 53.7146 19.277 53.7897 19.381C54.3039 20.08 54.7834 20.808 55.2225 21.559C55.7193 22.414 56.1526 23.2922 56.5397 24.205C56.4819 24.0663 56.4241 23.9277 56.3664 23.789C56.8921 25.0485 57.308 26.3541 57.6085 27.6829C57.8107 28.5668 58.8795 29.1734 59.7403 28.8961C60.6704 28.5957 61.1672 27.7118 60.9535 26.7643C59.8731 21.9692 57.3023 17.5149 53.7377 14.1353C52.6054 13.0607 51.3633 12.0959 50.0576 11.2466C49.295 10.7498 48.1107 11.0675 47.6889 11.8706C47.221 12.7314 47.4867 13.7077 48.2956 14.2392Z" fill="white"/>
<path d="M50.543 32.3856C50.543 34.2979 50.543 36.2101 50.543 38.1224C50.543 41.1728 50.543 44.2174 50.543 47.2678C50.543 47.9668 50.543 48.6716 50.543 49.3707C51.1207 48.793 51.6984 48.2152 52.2761 47.6375C51.2247 47.6375 50.1732 47.6375 49.116 47.6375C46.5913 47.6375 44.0609 47.6375 41.5363 47.6375C38.4801 47.6375 35.4239 47.6375 32.3678 47.6375C29.7334 47.6375 27.1047 47.6375 24.4703 47.6375C23.1935 47.6375 21.9052 47.6028 20.6284 47.6375C20.6111 47.6375 20.5938 47.6375 20.5707 47.6375C21.1484 48.2152 21.7261 48.793 22.3038 49.3707C22.3038 47.262 22.3038 45.1591 22.3038 43.0504C22.3038 39.948 22.3038 36.8456 22.3038 33.7433C22.3038 32.5878 22.2923 31.4439 22.4425 30.3C22.4194 30.456 22.402 30.6062 22.3789 30.7622C22.5638 29.4161 22.9278 28.0989 23.4477 26.8452C23.3899 26.9839 23.3322 27.1225 23.2744 27.2612C23.5864 26.5275 23.9503 25.8169 24.3663 25.1409C24.5743 24.8059 24.7938 24.4708 25.0249 24.153C25.0769 24.0779 25.1289 24.0086 25.1809 23.9393C25.4235 23.6158 24.9729 24.1993 25.1405 23.9855C25.2676 23.8237 25.3946 23.6678 25.5275 23.5118C26.0417 22.9109 26.5963 22.3448 27.1914 21.8248C27.3358 21.6977 27.4802 21.5764 27.6304 21.4551C27.6998 21.3973 27.7691 21.3453 27.8384 21.2875C27.9309 21.2124 28.0926 21.1084 27.6709 21.4204C27.7229 21.38 27.7749 21.3453 27.8211 21.3049C28.1388 21.068 28.4624 20.8427 28.7974 20.6289C29.5543 20.1436 30.3573 19.7277 31.1834 19.381C31.0448 19.4388 30.9061 19.4966 30.7675 19.5544C32.05 19.0171 33.3903 18.6531 34.7711 18.4682C34.6151 18.4913 34.4649 18.5087 34.3089 18.5318C35.6955 18.3469 37.0993 18.3527 38.4859 18.5318C38.3299 18.5087 38.1797 18.4913 38.0237 18.4682C39.4333 18.6589 40.8083 19.0344 42.1197 19.589C41.9811 19.5312 41.8424 19.4735 41.7038 19.4157C42.4317 19.7277 43.1308 20.0859 43.8067 20.5018C44.1418 20.704 44.4653 20.9236 44.7831 21.1547C44.8582 21.2066 44.9275 21.2586 45.0026 21.3164C45.0488 21.3511 45.1008 21.3857 45.147 21.4262C45.1701 21.4435 44.8293 21.1778 44.9737 21.2933C45.1239 21.4146 45.2799 21.536 45.4243 21.6631C46.0194 22.1657 46.574 22.7145 47.0824 23.3038C47.2095 23.4482 47.3366 23.5984 47.4579 23.7486C47.5157 23.818 47.5677 23.8873 47.6255 23.9566C47.741 24.101 47.4752 23.7602 47.4926 23.7833C47.5388 23.8411 47.585 23.9046 47.6255 23.9624C47.8566 24.2744 48.0819 24.5979 48.2898 24.9272C48.7694 25.6782 49.1853 26.4697 49.5319 27.2959C49.4742 27.1572 49.4164 27.0185 49.3586 26.8799C49.8844 28.1336 50.2483 29.4392 50.4332 30.7853C50.4101 30.6293 50.3928 30.4791 50.3696 30.3231C50.491 30.9933 50.5372 31.6866 50.543 32.3856C50.543 33.2926 51.3402 34.1592 52.2761 34.1188C53.212 34.0783 54.0151 33.3562 54.0093 32.3856C53.9978 29.0175 52.9867 25.6551 51.1149 22.8532C49.2893 20.1205 46.7415 17.8559 43.7258 16.5098C42.0389 15.7587 40.3288 15.2792 38.5032 15.0423C36.8971 14.8344 35.3084 14.8979 33.7081 15.129C31.0043 15.5218 28.3468 16.6253 26.1457 18.2487C23.8637 19.9357 21.9341 22.1021 20.6746 24.6614C19.4845 27.0763 18.849 29.7165 18.8433 32.4087C18.8433 33.3042 18.8433 34.1997 18.8433 35.0951C18.8433 36.8803 18.8433 38.6597 18.8433 40.4448C18.8433 42.2878 18.8433 44.1365 18.8433 45.9794C18.8433 47.0598 18.8433 48.1343 18.8433 49.2147C18.8433 49.2667 18.8433 49.3187 18.8433 49.3707C18.8433 50.3066 19.6347 51.1038 20.5764 51.1038C21.6279 51.1038 22.6793 51.1038 23.7366 51.1038C26.2612 51.1038 28.7917 51.1038 31.3163 51.1038C34.3725 51.1038 37.4286 51.1038 40.4848 51.1038C43.1192 51.1038 45.7479 51.1038 48.3823 51.1038C49.6648 51.1038 50.9474 51.127 52.2241 51.1038C52.2415 51.1038 52.2588 51.1038 52.2819 51.1038C53.2178 51.1038 54.0151 50.3124 54.0151 49.3707C54.0151 47.4584 54.0151 45.5461 54.0151 43.6339C54.0151 40.5835 54.0151 37.5389 54.0151 34.4885C54.0151 33.7895 54.0151 33.0846 54.0151 32.3856C54.0151 31.4786 53.2178 30.612 52.2819 30.6524C51.3344 30.6929 50.543 31.4092 50.543 32.3856Z" fill="white"/>
<path d="M15.4635 51.0981C15.8391 51.0981 16.2146 51.0981 16.5901 51.0981C17.6011 51.0981 18.6179 51.0981 19.6289 51.0981C21.1368 51.0981 22.6389 51.0981 24.1467 51.0981C25.9781 51.0981 27.8037 51.0981 29.6351 51.0981C31.6456 51.0981 33.6618 51.0981 35.6723 51.0981C37.7059 51.0981 39.7395 51.0981 41.7673 51.0981C43.6507 51.0981 45.5398 51.0981 47.4232 51.0981C49.0235 51.0981 50.6238 51.0981 52.2299 51.0981C53.3795 51.0981 54.5234 51.0981 55.6731 51.0981C56.2219 51.0981 56.765 51.1038 57.3138 51.0981C57.337 51.0981 57.3601 51.0981 57.3832 51.0981C58.2902 51.0981 59.1568 50.3008 59.1163 49.3649C59.0759 48.4232 58.3537 47.6317 57.3832 47.6317C57.0077 47.6317 56.6321 47.6317 56.2566 47.6317C55.2456 47.6317 54.2288 47.6317 53.2178 47.6317C51.7099 47.6317 50.2078 47.6317 48.7 47.6317C46.8686 47.6317 45.043 47.6317 43.2116 47.6317C41.2011 47.6317 39.1849 47.6317 37.1744 47.6317C35.1408 47.6317 33.1072 47.6317 31.0794 47.6317C29.196 47.6317 27.3069 47.6317 25.4235 47.6317C23.8232 47.6317 22.2229 47.6317 20.6168 47.6317C19.4672 47.6317 18.3233 47.6317 17.1736 47.6317C16.6248 47.6317 16.0817 47.6259 15.5329 47.6317C15.5098 47.6317 15.4866 47.6317 15.4635 47.6317C14.5565 47.6317 13.6899 48.429 13.7304 49.3649C13.7708 50.3066 14.4872 51.0981 15.4635 51.0981Z" fill="white"/>
<path d="M40.0284 54.4027C40.0284 54.6453 40.0111 54.8822 39.9822 55.119C40.0053 54.9631 40.0227 54.8128 40.0458 54.6569C39.9764 55.119 39.8551 55.5697 39.676 55.9972C39.7338 55.8585 39.7916 55.7199 39.8493 55.5812C39.7165 55.8816 39.5605 56.1763 39.3756 56.4478C39.3352 56.5114 39.289 56.5691 39.2427 56.6327C39.0694 56.8811 39.5316 56.2918 39.3294 56.5171C39.2196 56.6385 39.1156 56.7656 39.0001 56.8811C38.8845 56.9966 38.7632 57.1006 38.6361 57.2104C38.4224 57.3953 38.9943 56.9504 38.7517 57.1237C38.6881 57.17 38.6303 57.2104 38.5668 57.2566C38.2953 57.4415 38.0006 57.5975 37.7002 57.7304C37.8389 57.6726 37.9775 57.6148 38.1162 57.557C37.6829 57.7361 37.238 57.8632 36.7759 57.9268C36.9318 57.9037 37.082 57.8863 37.238 57.8632C36.7585 57.9268 36.279 57.9268 35.7995 57.8632C35.9555 57.8863 36.1057 57.9037 36.2617 57.9268C35.7995 57.8575 35.3489 57.7361 34.9214 57.557C35.06 57.6148 35.1987 57.6726 35.3373 57.7304C35.0369 57.5975 34.7423 57.4415 34.4707 57.2566C34.4072 57.2162 34.3494 57.17 34.2859 57.1237C34.0374 56.9504 34.6267 57.4126 34.4014 57.2104C34.2801 57.1006 34.153 56.9966 34.0374 56.8811C33.9219 56.7656 33.8179 56.6442 33.7081 56.5171C33.5233 56.3034 33.9681 56.8753 33.7948 56.6327C33.7486 56.5691 33.7081 56.5114 33.6619 56.4478C33.4771 56.1763 33.3211 55.8816 33.1882 55.5812C33.246 55.7199 33.3037 55.8585 33.3615 55.9972C33.1824 55.5639 33.0553 55.119 32.9918 54.6569C33.0149 54.8128 33.0322 54.9631 33.0553 55.119C33.0264 54.8822 33.0091 54.6395 33.0091 54.4027C33.0033 53.4956 32.2176 52.6291 31.2759 52.6695C30.34 52.7099 29.537 53.4321 29.5428 54.4027C29.5543 55.7776 29.9529 57.2046 30.756 58.3254C31.6399 59.5617 32.7896 60.4514 34.2165 60.9829C36.8105 61.9593 40.0227 61.1043 41.7905 58.9725C42.8708 57.6668 43.4948 56.1069 43.5063 54.3969C43.5121 53.4899 42.7033 52.6233 41.7732 52.6637C40.8199 52.7099 40.0342 53.4321 40.0284 54.4027Z" fill="white"/>
</svg>
