<svg width="72" height="72" viewBox="0 0 72 72" fill="none" xmlns="http://www.w3.org/2000/svg">
<path d="M56.3968 47.2722C55.9061 47.1198 55.3847 47.4045 55.2413 47.9019C55.1004 48.3904 55.3786 48.9017 55.861 49.0499C59.2931 50.1047 61.1631 51.3375 61.1631 52.3891C61.1631 54.7934 51.4001 58.147 35.5 58.147C19.5999 58.147 9.83694 54.7934 9.83694 52.3891C9.83694 51.3281 11.74 50.0827 15.2308 49.0218C15.7971 48.8497 16.0516 48.1842 15.7484 47.6719L15.7383 47.6548C15.5227 47.2906 15.0869 47.1237 14.6847 47.2474C10.6129 48.4997 8 50.2191 8 52.3891C8 57.3857 21.8342 60 35.5 60C49.1658 60 63 57.3857 63 52.3891C63 50.2335 60.4223 48.5223 56.3968 47.2722Z" fill="white"/>
<path d="M35.3347 44.6969C38.3192 44.6969 41.3035 43.5509 43.5753 41.2592C47.6104 37.189 48.1088 30.6269 44.7347 25.9954C43.6243 24.4714 37.2648 15.1575 36.0966 13.4088C35.9258 13.1533 35.6404 13 35.3349 13C35.0294 13 34.744 13.1533 34.5732 13.4086C33.4036 15.1591 27.0427 24.475 25.9352 25.9954C22.5609 30.6269 23.0592 37.189 27.0944 41.2592C29.3661 43.5509 32.3504 44.6969 35.3347 44.6969ZM27.4155 27.0927C28.4172 25.7174 33.3017 18.5701 35.3349 15.5723C37.3674 18.569 42.2501 25.7143 43.2544 27.0927C46.096 30.9931 45.6756 36.5202 42.2765 39.9491C38.4487 43.8097 32.2209 43.8101 28.3931 39.9491C24.9941 36.5202 24.5736 30.9931 27.4155 27.0927Z" fill="white"/>
<path d="M37.8186 39.4277C37.9217 39.4277 38.0266 39.4102 38.1292 39.3729C41.4867 38.1551 42.1667 34.0784 42.194 33.9054C42.2738 33.4002 41.9324 32.9252 41.4314 32.8448C40.93 32.763 40.4597 33.1085 40.38 33.6141C40.375 33.6455 39.8548 36.7778 37.5078 37.6292C37.0305 37.8024 36.7826 38.3331 36.9543 38.8145C37.089 39.1925 37.442 39.4277 37.8186 39.4277Z" fill="white"/>
<path d="M18.2663 46.6536C23.5305 49.8271 29.4327 51.4139 35.3349 51.4139C40.6568 51.4139 45.9769 50.1193 50.831 47.5391L49.7814 51.175C49.6524 51.622 49.8537 52.123 50.2819 52.2969C50.7742 52.4969 51.317 52.222 51.4615 51.7211L53.146 45.8804C53.2878 45.3885 52.9858 44.8785 52.489 44.7715L46.5912 43.5007C46.1103 43.3971 45.6383 43.7101 45.5419 44.1964C45.4479 44.6704 45.7544 45.1406 46.223 45.2415L49.776 46.0063C40.1437 51.0382 28.6015 50.7258 19.2088 45.063C18.7735 44.801 18.2098 44.9437 17.9492 45.3829C17.6889 45.8223 17.831 46.391 18.2663 46.6536Z" fill="white"/>
</svg>
