<svg width="72" height="72" viewBox="0 0 72 72" fill="none" xmlns="http://www.w3.org/2000/svg">
<path d="M46.2501 14H24.7502C18.8238 14 14.0003 18.8235 14.0003 24.75V37.65C14.0003 38.4395 14.6442 39.0833 15.4336 39.0833C16.2231 39.0833 16.867 38.4395 16.867 37.65V24.75C16.867 20.3996 20.3999 16.8667 24.7502 16.8667H46.2501C50.6004 16.8667 54.1334 20.3996 54.1334 24.75V37.65C54.1334 38.4395 54.7772 39.0833 55.5667 39.0833C56.3561 39.0833 57 38.4395 57 37.65V24.75C57 18.8235 52.1765 14 46.2501 14Z" fill="#171717"/>
<path d="M55.5667 47.6833H43.3189L42.997 46.6951C41.936 43.4281 38.9266 41.2333 35.5 41.2333C32.0734 41.2333 29.064 43.4253 28.003 46.6951L27.6811 47.6833H15.4333C14.6438 47.6833 14 48.3272 14 49.1167C14 49.9061 14.6439 50.55 15.4333 50.55H27.6811L28.003 51.5382C29.064 54.8052 32.0734 57 35.5 57C38.9266 57 41.936 54.808 42.997 51.5382L43.3189 50.55H55.5667C56.3562 50.55 57 49.9061 57 49.1167C57 48.3272 56.3561 47.6833 55.5667 47.6833ZM35.5002 54.1333C32.7343 54.1333 30.4835 51.8826 30.4835 49.1167C30.4835 46.3508 32.7343 44.1 35.5002 44.1C38.266 44.1 40.5168 46.3508 40.5168 49.1167C40.5168 51.8826 38.266 54.1333 35.5002 54.1333Z" fill="#171717"/>
</svg>
