<svg width="72" height="72" viewBox="0 0 72 72" fill="none" xmlns="http://www.w3.org/2000/svg">
<path fill-rule="evenodd" clip-rule="evenodd" d="M42.9275 23.2361H28.0907C26.2607 23.2361 24.7488 21.724 24.7488 19.8937L24.7462 9.3424C24.7462 7.47899 26.2581 6 28.0882 6H42.9249C44.755 6 46.2669 7.47899 46.2669 9.3424V19.8937C46.2669 21.724 44.755 23.2361 42.9249 23.2361H42.9275ZM28.0907 7.62125C27.1388 7.62125 26.4032 8.39766 26.4032 9.34207V19.8934C26.4032 20.8047 27.1388 21.5811 28.0907 21.5811H42.9275C43.8794 21.5811 44.615 20.8047 44.615 19.8934V9.34207C44.615 8.39003 43.8794 7.62125 42.9275 7.62125H28.0907Z" fill="white"/>
<path fill-rule="evenodd" clip-rule="evenodd" d="M35.5052 27.0674C35.0089 27.0674 34.5202 26.8917 34.1689 26.5404L30.6514 22.9893C30.4045 22.7424 30.3332 22.3885 30.4426 22.078C30.5852 21.798 30.8982 21.5816 31.219 21.5816H39.8017C40.1199 21.5816 40.4329 21.7903 40.5373 22.078C40.6798 22.3962 40.6086 22.75 40.3617 22.9893L36.811 26.5404C36.4598 26.8917 36.0042 27.0674 35.5078 27.0674H35.5052ZM33.1864 23.2362L35.3296 25.3796C35.4009 25.4127 35.4721 25.4509 35.5052 25.4509C35.5383 25.4509 35.6096 25.4178 35.6808 25.3796L37.824 23.2362H33.1839H33.1864Z" fill="white"/>
<path fill-rule="evenodd" clip-rule="evenodd" d="M35.5052 19.7484C35.2965 19.7484 35.0827 19.644 34.9045 19.5014C33.9526 18.5163 32.9701 17.8849 32.0894 17.2868C30.5444 16.2634 29.0657 15.319 29.0657 13.1017C29.0657 11.0958 30.7201 9.47931 32.6876 9.47931C34.057 9.47931 34.902 10.0394 35.5027 10.8158C36.1033 10.0394 36.9433 9.47931 38.3177 9.47931C40.2852 9.47931 41.9397 11.0958 41.9397 13.1017C41.9397 15.3164 40.4609 16.2685 38.9159 17.2868C38.0352 17.8875 37.0527 18.5188 36.0677 19.5014C35.9252 19.644 35.7165 19.7484 35.5078 19.7484H35.5052ZM32.6977 11.1006C31.6083 11.1006 30.7303 12.0119 30.7303 13.1065C30.7303 14.3717 31.4327 14.8986 33.0185 15.9219C33.754 16.4183 34.6016 16.9784 35.5128 17.7854C36.3935 16.9784 37.2716 16.4158 38.0072 15.9219C39.5903 14.8986 40.2954 14.3768 40.2954 13.1065C40.2954 12.017 39.4147 11.1006 38.3279 11.1006C37.376 11.1006 36.8873 11.485 36.256 12.7552C36.1135 13.0353 35.8335 13.2109 35.5204 13.2109C35.2074 13.2109 34.9197 13.0353 34.7849 12.7552C34.1536 11.4901 33.6573 11.1006 32.713 11.1006H32.6977Z" fill="white"/>
<path fill-rule="evenodd" clip-rule="evenodd" d="M33.9935 66C33.0823 66 32.2347 65.6487 31.5704 65.0149L30.0254 63.4315C29.7072 63.1133 29.7072 62.6245 30.0254 62.2707C30.3435 61.9525 30.873 61.9525 31.186 62.2707L32.731 63.8541C33.4029 64.5261 34.5941 64.5261 35.2992 63.8541C36.0016 63.1515 36.0016 61.9907 35.2992 61.2856C34.981 60.9674 34.981 60.4378 35.2992 60.1248C35.6173 59.8117 36.1467 59.8066 36.4598 60.1248L39.2748 62.9402C39.9773 63.6428 41.1049 63.6428 41.8099 62.9402C42.5124 62.2377 42.5124 61.0768 41.8099 60.3717L40.4024 58.9639C40.2598 58.8214 40.1936 58.6127 40.1936 58.4039C40.1936 58.1952 40.2649 57.9813 40.4024 57.8031C40.7205 57.4849 41.2499 57.4849 41.563 57.8031C42.2654 58.5057 43.4592 58.4751 44.1312 57.8031C44.4824 57.4849 44.658 57.0267 44.658 56.538C44.658 56.0492 44.4824 55.5859 44.1312 55.2728L41.3161 52.4573C41.1735 52.2817 41.0692 52.073 41.0692 51.8566C41.0692 51.6427 41.1735 51.434 41.3161 51.2965C41.6342 50.9452 42.1637 50.9452 42.4767 51.2965C43.1792 51.9991 44.3399 51.9991 45.0449 51.2965C45.363 50.9452 45.5717 50.4896 45.5717 49.9932C45.5717 49.4968 45.363 49.0819 45.0449 48.728L39.8398 43.5222C39.5216 43.204 39.5216 42.7152 39.8398 42.3614C40.1579 42.0432 40.6874 42.0432 41.0004 42.3614L46.2055 47.5672C46.8367 48.1986 47.1905 49.0793 47.1905 49.9907C47.1905 50.9021 46.8393 51.7828 46.2055 52.4548C45.7092 52.9105 45.1492 53.2312 44.551 53.3661L45.2866 54.1018C45.9178 54.7331 46.3098 55.6139 46.3098 56.5253C46.3098 57.4366 45.9255 58.3174 45.2866 58.9487C44.7903 59.4451 44.1972 59.7557 43.5278 59.9008C44.3041 61.2373 44.0878 62.9632 42.9679 64.0858C41.6316 65.4223 39.4503 65.4223 38.114 64.0858L37.3785 63.3501C37.2359 63.9509 36.9229 64.5109 36.4673 65.0048C35.7954 65.6361 34.9554 65.9899 34.0035 65.9899L33.9935 66ZM19.9335 52.9208C19.6866 52.9208 19.4371 52.8164 19.3022 52.6026C17.686 50.5635 16.8079 47.9619 16.8384 45.322C16.8384 44.8664 17.1897 44.5151 17.686 44.5151C18.1416 44.5481 18.4929 44.8994 18.4929 45.3628C18.4598 47.6105 19.1954 49.8278 20.5647 51.5868C20.8447 51.9381 20.8116 52.4676 20.4604 52.7476C20.2848 52.852 20.1091 52.9232 19.9335 52.9232L19.9335 52.9208ZM34.3447 37.8989C34.1691 37.8989 33.9935 37.8276 33.8484 37.7233C32.1609 36.4912 30.0508 35.8599 27.9382 35.8599C27.5157 35.8599 27.1314 35.5086 27.1314 35.0835C27.0983 34.6278 27.4826 34.2358 27.9077 34.2358C30.402 34.2027 32.8659 34.9714 34.8335 36.4199C35.1847 36.6669 35.256 37.1963 35.0091 37.5477C34.8334 37.7946 34.5866 37.8989 34.3372 37.8989L34.3447 37.8989Z" fill="white"/>
<path fill-rule="evenodd" clip-rule="evenodd" d="M41.909 52.6738C41.7003 52.6738 41.4865 52.6025 41.3083 52.4651L36.4927 47.6106C36.1414 47.2924 36.1414 46.7629 36.4927 46.4498C36.8108 46.1316 37.2996 46.1316 37.6533 46.4498L42.469 51.3043C42.7871 51.6225 42.7871 52.1113 42.469 52.4651C42.3264 52.6076 42.1177 52.6738 41.909 52.6738Z" fill="white"/>
<path fill-rule="evenodd" clip-rule="evenodd" d="M40.9929 59.216C40.7842 59.216 40.5704 59.1447 40.3922 58.9691L33.4664 52.0424C33.1483 51.7242 33.1483 51.1947 33.4664 50.8816C33.7846 50.5685 34.314 50.5634 34.6271 50.8816L41.5528 57.8083C41.871 58.1265 41.871 58.656 41.5528 58.9691C41.4103 59.1447 41.2016 59.216 40.9929 59.216Z" fill="white"/>
<path fill-rule="evenodd" clip-rule="evenodd" d="M35.8564 61.5347C35.6477 61.5347 35.4339 61.4303 35.2964 61.2878L33.7514 59.7426C33.4002 59.4244 33.4002 58.8949 33.7514 58.5818C34.0696 58.2636 34.5583 58.2636 34.9121 58.5818L36.4571 60.127C36.7752 60.4452 36.7752 60.9747 36.4571 61.2878C36.2814 61.4303 36.0728 61.5347 35.8564 61.5347Z" fill="white"/>
<path fill-rule="evenodd" clip-rule="evenodd" d="M45.0373 58.8237C44.8286 58.8237 44.6148 58.7193 44.4366 58.5768C44.1185 58.2586 44.1185 57.7291 44.4366 57.416L50.4842 51.3676C52.1005 49.713 53.1567 47.4957 53.4036 45.1767C53.4749 44.721 53.8592 44.4003 54.3148 44.441C54.7704 44.5123 55.0911 44.8967 55.0504 45.3523C54.7322 48.0634 53.5385 50.5912 51.6372 52.5286L45.5896 58.577C45.4471 58.7195 45.2384 58.8239 45.0297 58.8239L45.0373 58.8237ZM34.3447 37.8989C34.136 37.8989 33.9222 37.8276 33.744 37.652C33.4259 37.3338 33.4259 36.8043 33.744 36.4912L34.6959 35.5799C36.5922 33.6834 39.1273 32.4513 41.838 32.1662C42.2936 32.095 42.7187 32.4132 42.7492 32.8688C42.7823 33.3245 42.4692 33.7496 42.0136 33.7801C39.6949 34.027 37.511 35.0835 35.8617 36.733L34.9098 37.6443C34.7672 37.82 34.5585 37.8912 34.3498 37.8912L34.3447 37.8989Z" fill="white"/>
<path fill-rule="evenodd" clip-rule="evenodd" d="M20.9871 57.0726C20.5315 57.0726 20.1064 56.897 19.7552 56.5762L18.2433 55.031C17.892 54.7128 17.7164 54.2954 17.7164 53.8397C17.7164 53.3841 17.892 52.9589 18.2433 52.6484L23.2728 47.6182C23.904 46.9869 25.0316 46.9869 25.6654 47.6182L27.2104 49.1634C27.8823 49.8354 27.8823 50.8842 27.2104 51.5563L22.1809 56.5865C21.8627 56.9047 21.4453 57.0829 20.9897 57.0829L20.9871 57.0726ZM23.8352 48.1707L24.4359 48.7715L19.4064 53.8017C19.3733 53.8017 19.3733 53.8729 19.4064 53.8729L20.9896 55.4563L26.0521 50.3931C26.0852 50.3931 26.0852 50.3218 26.0521 50.3218L24.5072 48.7766L23.8352 48.1759L23.8352 48.1707Z" fill="white"/>
<path fill-rule="evenodd" clip-rule="evenodd" d="M23.7635 59.8801C23.3079 59.8801 22.8828 59.7044 22.5723 59.3837L21.0273 57.8385C20.3554 57.1665 20.3554 56.0795 21.0273 55.415L26.0569 50.3848C26.6881 49.7535 27.8156 49.7535 28.4494 50.3848L29.9944 51.93C30.3126 52.2482 30.4908 52.6657 30.4908 53.1214C30.4908 53.577 30.3151 54.0022 29.9944 54.3534L24.9649 59.3836C24.6468 59.7018 24.2293 59.88 23.7737 59.88L23.7635 59.8801ZM26.6117 50.986L27.2124 51.546L22.1829 56.5762C22.1498 56.6093 22.1498 56.6475 22.1829 56.6806L23.766 58.2257H23.7991L28.8286 53.1956C28.8617 53.1625 28.8617 53.1243 28.8286 53.0912L27.2836 51.546L26.6117 50.986Z" fill="white"/>
<path fill-rule="evenodd" clip-rule="evenodd" d="M26.538 62.6627C26.0824 62.6627 25.6573 62.4871 25.3468 62.1664L23.8018 60.6212C23.4837 60.3029 23.3055 59.8855 23.3055 59.4298C23.3055 58.9742 23.4811 58.549 23.8018 58.2385L28.8313 53.2083C29.5032 52.5363 30.5901 52.5363 31.2545 53.2083L32.7995 54.7204C33.1176 55.0717 33.2958 55.4968 33.2958 55.9525C33.2958 56.4081 33.1202 56.8333 32.7995 57.1438L27.7699 62.174C27.4187 62.4922 26.9936 62.6704 26.538 62.6704L26.538 62.6627ZM29.4269 53.7608L29.9868 54.3616L24.9573 59.3918V59.463L26.5405 61.0082H26.6118L31.6413 55.9781V55.8737L30.0963 54.3616L29.4244 53.7608L29.4269 53.7608Z" fill="white"/>
<path fill-rule="evenodd" clip-rule="evenodd" d="M29.562 64.4549C29.1777 64.4549 28.8264 64.2792 28.5388 64.0323L27.0982 62.5533C26.5383 61.9933 26.5383 61.0743 27.0982 60.5143L31.4965 56.0823C32.0564 55.5554 33.0084 55.5554 33.5352 56.0823L35.014 57.5613C35.574 58.1213 35.574 59.0403 35.014 59.6003L30.6158 64.0323C30.3358 64.2792 29.9845 64.4549 29.5595 64.4549H29.562ZM28.4039 61.535L29.5646 62.7264L33.7159 58.5744L32.5247 57.3831L28.4141 61.535H28.4039Z" fill="white"/>
<path fill-rule="evenodd" clip-rule="evenodd" d="M31.8504 46.6249C30.9392 46.6249 30.0916 46.2736 29.4273 45.6398C28.796 44.9678 28.4423 44.1277 28.4423 43.2163C28.4423 42.305 28.7935 41.4573 29.4273 40.8234L34.0011 36.2871C34.3193 35.9689 34.8487 35.9689 35.1617 36.2871C35.4748 36.6053 35.4799 37.1348 35.1617 37.4479L30.5879 41.9842C30.2697 42.3024 30.0916 42.7606 30.0916 43.2162C30.0916 43.7126 30.2672 44.1275 30.5879 44.4814C31.2598 45.1127 32.4179 45.1127 33.0822 44.4814L35.0167 42.5467C35.3349 42.2285 35.8643 42.2285 36.1773 42.5467C36.4903 42.8649 36.4955 43.3944 36.1773 43.7075L34.2429 45.6422C33.6116 46.2735 32.7641 46.6273 31.8503 46.6273L31.8504 46.6249Z" fill="white"/>
<path fill-rule="evenodd" clip-rule="evenodd" d="M37.7603 44.2652C36.3197 44.2652 35.3372 43.8808 35.2965 43.8808C34.874 43.7052 34.6653 43.2495 34.8409 42.8244C34.9835 42.4018 35.4722 42.193 35.8972 42.328C36.0729 42.3992 40.1529 43.9113 43.457 39.5125C43.737 39.1281 44.2333 39.0568 44.6176 39.3369C44.9689 39.6169 45.0401 40.1133 44.7602 40.4976C42.4414 43.5931 39.6976 44.2575 37.7634 44.2575L37.7603 44.2652Z" fill="white"/>
<path fill-rule="evenodd" clip-rule="evenodd" d="M57.3791 48.417C56.6435 48.417 55.9385 48.137 55.4447 47.6101L40.2163 32.4201C39.16 31.3305 39.16 29.6046 40.2163 28.5176L45.1033 23.63C45.6301 23.1031 46.3352 22.823 47.0377 22.823C47.7733 22.823 48.4783 23.1031 49.0052 23.63L64.1931 38.8604C64.72 39.3874 65 40.0518 65 40.7951C65 41.5385 64.72 42.2029 64.1931 42.7298L59.3062 47.6174C58.7793 48.1444 58.115 48.4244 57.3718 48.4244L57.3791 48.417ZM47.0455 24.4678C46.7655 24.4678 46.4856 24.5722 46.2692 24.786L41.3823 29.6736C40.9598 30.1293 40.9598 30.8344 41.3823 31.257L56.6106 46.4874C56.995 46.8718 57.7382 46.8718 58.1556 46.4874L63.0426 41.5616C63.2513 41.3529 63.3607 41.0652 63.3607 40.7852C63.3607 40.5052 63.2564 40.2252 63.0426 40.0088L47.8546 24.7784C47.6459 24.5697 47.3583 24.4602 47.0477 24.4602L47.0455 24.4678Z" fill="white"/>
<path fill-rule="evenodd" clip-rule="evenodd" d="M13.6384 49.3998C12.9028 49.3998 12.2309 49.1197 11.704 48.5928L6.81705 43.667C5.72765 42.6106 5.72765 40.8897 6.81705 39.7951L22.005 24.5647C22.5319 24.0683 23.2369 23.7883 23.9725 23.7883C24.7081 23.7883 25.38 24.0683 25.9069 24.5647L30.7939 29.4905C31.3207 29.9869 31.6007 30.6818 31.6007 31.4252C31.6007 32.1686 31.3207 32.833 30.7939 33.3599L15.5655 48.5903C15.0692 49.1173 14.3743 49.3973 13.6311 49.3973L13.6384 49.3998ZM23.972 25.4121C23.6539 25.4121 23.3713 25.5165 23.1652 25.7303L7.97525 40.9607C7.76654 41.1694 7.624 41.4571 7.624 41.7371C7.624 42.0553 7.76654 42.3379 7.97525 42.5135L12.8622 47.4393C13.2847 47.8619 13.9898 47.8619 14.4072 47.4393L29.6355 32.2089C29.8442 32.0002 29.9537 31.7125 29.9537 31.4325C29.9537 31.1143 29.8493 30.8725 29.6355 30.6561L24.7486 25.7303C24.5399 25.5216 24.252 25.4121 23.972 25.4121Z" fill="white"/>
</svg>
