<svg width="72" height="72" viewBox="0 0 72 72" fill="none" xmlns="http://www.w3.org/2000/svg">
<path d="M14.5 64.3332H50.5072L57 57.8404V7.6665H14.5V64.3332ZM50.6958 62.3915V58.0281H55.0592L50.6958 62.3915ZM15.7396 8.90609H55.7604V56.7885H49.4554V63.0936H15.7396V8.90609Z" fill="white"/>
<path d="M50.6072 52.8062H20.9219V54.0457H50.6072V52.8062Z" fill="white"/>
<path d="M50.6072 49.498H20.9219V50.7376H50.6072V49.498Z" fill="white"/>
<path d="M50.6072 46.1899H20.9219V47.4295H50.6072V46.1899Z" fill="white"/>
<path d="M50.6072 42.8828H20.9219V44.1224H50.6072V42.8828Z" fill="white"/>
<path d="M50.6072 36.2671H20.9219V37.5067H50.6072V36.2671Z" fill="white"/>
<path d="M50.6072 39.5742H20.9219V40.8138H50.6072V39.5742Z" fill="white"/>
<path d="M50.6072 32.959H20.9219V34.1986H50.6072V32.959Z" fill="white"/>
<path d="M32.9148 29.6509H20.9219V30.8905H32.9148V29.6509Z" fill="white"/>
<path d="M32.9148 26.3438H20.9219V27.5833H32.9148V26.3438Z" fill="white"/>
<path d="M32.9148 23.0356H20.9219V24.2752H32.9148V23.0356Z" fill="white"/>
<path d="M32.9148 19.7275H20.9219V20.9671H32.9148V19.7275Z" fill="white"/>
<path d="M32.9148 16.4199H20.9219V17.6595H32.9148V16.4199Z" fill="white"/>
<path d="M36.077 30.9646H48.9111C49.7939 30.9646 50.5155 30.243 50.5155 29.3602V18.8202C50.5155 17.9374 49.7939 17.2158 48.9111 17.2158H36.077C35.1943 17.2158 34.4727 17.9374 34.4727 18.8202V29.3602C34.4735 30.243 35.1952 30.9646 36.077 30.9646ZM35.7131 18.8202C35.7131 18.6227 35.8805 18.4554 36.0779 18.4554H48.912C49.1095 18.4554 49.2768 18.6227 49.2768 18.8202V29.3602C49.2768 29.5576 49.1095 29.725 48.912 29.725H36.077C35.8796 29.725 35.7122 29.5576 35.7122 29.3602L35.7131 18.8202Z" fill="white"/>
<path d="M40.5039 21.1543V27.0264L45.5897 24.0903L40.5039 21.1543Z" fill="white"/>
</svg>
