<svg width="72" height="72" viewBox="0 0 72 72" fill="none" xmlns="http://www.w3.org/2000/svg">
<path d="M36.1398 29.2847L42.39 21.863C42.8351 21.3334 43.0511 20.6592 42.998 19.9644C42.945 19.2695 42.6289 18.6374 42.1092 18.1838C41.5889 17.7309 40.9265 17.511 40.2439 17.565C39.5612 17.619 38.9402 17.9407 38.4952 18.4697L34.0806 23.7114L32.4671 21.8825C32.0085 21.3641 31.3796 21.0582 30.695 21.0217C30.0099 20.984 29.3531 21.2221 28.8439 21.6883C28.3347 22.1551 28.0341 22.7953 27.9983 23.4921C27.9625 24.1882 28.1945 24.8573 28.6525 25.3756L32.2172 29.416C32.7048 29.9677 33.3943 30.2793 34.1214 30.2793C34.1529 30.2793 34.1849 30.2787 34.2164 30.2774C34.9732 30.2485 35.6725 29.8872 36.1398 29.2847ZM34.8287 28.2217C34.667 28.4347 34.4214 28.5622 34.1547 28.5723C33.9998 28.5773 33.7035 28.5471 33.4634 28.2751L29.8994 24.2353L29.8988 24.2347C29.7395 24.055 29.6593 23.8232 29.6716 23.5813C29.684 23.34 29.7883 23.1176 29.9648 22.9562C30.1296 22.8054 30.3389 22.7237 30.5586 22.7237C30.5747 22.7237 30.5907 22.7243 30.6068 22.725C30.8438 22.7375 31.0623 22.8437 31.2203 23.0228L33.4714 25.5742C33.6307 25.7545 33.8572 25.8575 34.0948 25.8575C34.0979 25.8575 34.101 25.8575 34.1047 25.8575C34.3461 25.8544 34.5744 25.7463 34.7312 25.5597L39.7674 19.5792C39.9217 19.3958 40.1365 19.2846 40.3729 19.2657C40.6087 19.2462 40.8383 19.3229 41.0185 19.48C41.1988 19.637 41.308 19.8557 41.3265 20.0963C41.345 20.3369 41.2704 20.57 41.1167 20.7528L34.8553 28.189C34.846 28.1997 34.8374 28.2104 34.8287 28.2217ZM60.7989 47.9946C59.7854 46.7827 58.4935 45.8579 57.0584 45.2962C58.3034 44.0579 59.0768 42.3396 59.0768 40.4422C59.0768 36.6782 56.0356 33.6167 52.2981 33.6167C48.5601 33.6167 45.5195 36.6782 45.5195 40.4422C45.5195 42.3377 46.2911 44.0541 47.5342 45.2924C45.8312 45.9553 44.3554 47.122 43.2894 48.6593C42.5703 48.1919 41.8006 47.8093 40.9957 47.5203C42.6209 46.0206 43.6418 43.8681 43.6418 41.4795C43.6418 39.7932 43.1326 38.2244 42.2623 36.9201L44.7788 35.0793C48.3607 32.4588 50.3328 28.5434 50.3328 24.0538V13.9587C50.3328 13.5403 50.0347 13.1841 49.6291 13.1168C46.8991 12.6651 44.7671 10.4951 44.3233 7.71623C44.2572 7.30345 43.9072 7 43.4962 7H27.5045C27.0934 7 26.7434 7.30345 26.6773 7.71623C26.2335 10.4951 24.1016 12.6657 21.3715 13.1168C20.9659 13.1841 20.6678 13.5403 20.6678 13.9587V24.0531C20.6678 28.5428 22.6405 32.4581 26.2218 35.0786L28.7383 36.9195C27.8674 38.2238 27.3588 39.7926 27.3588 41.4788C27.3588 43.8675 28.3797 46.0206 30.0049 47.5196C29.2007 47.8086 28.431 48.1913 27.7112 48.6587C26.6453 47.1213 25.1694 45.9546 23.4664 45.2918C24.7096 44.0541 25.4811 42.337 25.4811 40.4416C25.4811 36.6776 22.4399 33.616 18.7025 33.616C14.965 33.616 11.9239 36.6776 11.9239 40.4416C11.9239 42.3389 12.6973 44.0573 13.9423 45.2956C12.5072 45.8572 11.2146 46.7821 10.2017 47.994C8.78205 49.6922 8 51.8497 8 54.0687V58.3818C8 59.1269 8.59565 59.7332 9.3277 59.7332H22.5344V63.5342C22.5344 64.3422 23.1806 65 23.9744 65H47.0256C47.8194 65 48.4656 64.3422 48.4656 63.5342V59.7332H61.6723C62.4044 59.7332 63 59.1269 63 58.3818V54.0694C63.0006 51.8503 62.2186 49.6928 60.7989 47.9946ZM47.1953 40.4422C47.1953 37.6194 49.4841 35.3224 52.2981 35.3224C55.1116 35.3224 57.4009 37.6194 57.4009 40.4422C57.4009 43.265 55.1122 45.562 52.2981 45.562C49.4841 45.562 47.1953 43.265 47.1953 40.4422ZM22.3436 24.0531V14.6517C25.2145 13.9085 27.4551 11.6278 28.1853 8.70575H42.8153C43.5455 11.6278 45.7862 13.9085 48.657 14.6517V24.0531C48.657 27.9786 46.9324 31.402 43.8005 33.6933L41.1772 35.612C40.7099 35.154 40.1889 34.7519 39.6248 34.4164L42.7147 32.1559C45.3849 30.202 46.7966 27.4006 46.7966 24.0531V16.5554C46.7966 16.2287 46.6133 15.9302 46.3244 15.7876C44.3159 14.7962 42.6727 13.1237 41.6987 11.0787C41.5586 10.7847 41.266 10.5981 40.9444 10.5981H30.0556C29.7346 10.5981 29.4414 10.7847 29.3013 11.0787C28.3273 13.1231 26.6841 14.7956 24.6756 15.7876C24.3867 15.9302 24.2034 16.228 24.2034 16.5554V24.0531C24.2034 27.4006 25.6151 30.2026 28.2853 32.1559L31.3759 34.4171C30.8111 34.7526 30.2901 35.1547 29.8235 35.6127L27.2002 33.6939C24.0682 31.402 22.3436 27.9786 22.3436 24.0531ZM33.1683 33.628L29.2636 30.7712C27.0495 29.1515 25.8799 26.8288 25.8799 24.0531V17.0762C27.8557 15.9836 29.4939 14.3156 30.5673 12.3051H40.434C41.5074 14.3156 43.1462 15.9836 45.1214 17.0762V24.0531C45.1214 26.8282 43.9511 29.1515 41.737 30.7712L37.8323 33.628C37.0928 33.4049 36.3108 33.2837 35.5003 33.2837C34.6899 33.2837 33.9078 33.4049 33.1683 33.628ZM29.0346 41.4795C29.0346 37.9008 31.9351 34.9894 35.5003 34.9894C39.0655 34.9894 41.966 37.9008 41.966 41.4795C41.966 45.0581 39.0655 47.9689 35.5003 47.9689C31.9351 47.9689 29.0346 45.0575 29.0346 41.4795ZM13.6003 40.4422C13.6003 37.6194 15.8891 35.3224 18.7031 35.3224C21.5165 35.3224 23.8059 37.6194 23.8059 40.4422C23.8059 43.265 21.5171 45.562 18.7031 45.562C15.8891 45.562 13.6003 43.265 13.6003 40.4422ZM22.5393 58.0281H9.67583V54.0694C9.67583 50.4147 12.1825 47.2947 15.6736 46.5465C16.5859 47.007 17.6143 47.2683 18.7025 47.2683C19.7901 47.2683 20.8172 47.0076 21.7289 46.5477C23.6158 46.9529 25.2651 48.0725 26.3687 49.6859C25.9515 50.0566 25.5583 50.4581 25.1959 50.8916C23.5232 52.8914 22.5862 55.4189 22.5393 58.0281ZM46.7898 63.2949H24.2108V58.2323C24.2108 53.6227 27.3884 49.6916 31.8048 48.7781C32.9147 49.3498 34.1701 49.6746 35.5003 49.6746C36.8305 49.6746 38.086 49.3498 39.1958 48.7781C43.6116 49.6916 46.7898 53.6227 46.7898 58.2323V63.2949ZM61.3248 58.0281H48.4613C48.4144 55.4189 47.4774 52.8913 45.8047 50.8909C45.4423 50.4574 45.0485 50.056 44.6313 49.6853C45.7349 48.0719 47.3842 46.9523 49.2711 46.5471C50.1828 47.007 51.2105 47.2677 52.2975 47.2677C53.3857 47.2677 54.4141 47.007 55.3264 46.5458C58.8175 47.2941 61.3242 50.4141 61.3242 54.0687L61.3248 58.0281Z" fill="white"/>
</svg>
