<svg width="72" height="72" viewBox="0 0 72 72" fill="none" xmlns="http://www.w3.org/2000/svg">
<path d="M36 60.9999H17.0127C16.6049 60.9999 16.2743 60.6693 16.2743 60.2615V48.3327H11.7384C11.3306 48.3327 11 48.0021 11 47.5943V33.8713C11 29.9911 14.1547 26.8345 18.0324 26.8345H34.9803C38.858 26.8345 42.0127 29.9911 42.0127 33.8713V47.5943C42.0127 48.0021 41.6821 48.3327 41.2743 48.3327H36.7384V60.2615C36.7384 60.6693 36.4078 60.9999 36 60.9999ZM17.7511 59.5231H35.2616V47.5943C35.2616 47.1865 35.5922 46.8559 36 46.8559H40.5359V33.8713C40.5359 30.8055 38.0437 28.3113 34.9803 28.3113H18.0324C14.969 28.3113 12.4768 30.8055 12.4768 33.8713V46.8559H17.0127C17.4205 46.8559 17.7511 47.1865 17.7511 47.5943V59.5231Z" fill="white"/>
<path d="M26.507 25.1306C22.6099 25.1306 19.4395 21.9611 19.4395 18.0653C19.4395 14.1695 22.6099 11 26.507 11C30.404 11 33.5745 14.1695 33.5745 18.0653C33.5745 21.9611 30.404 25.1306 26.507 25.1306ZM26.507 12.4768C23.4243 12.4768 20.9162 14.9838 20.9162 18.0653C20.9162 21.1468 23.4243 23.6538 26.507 23.6538C29.5897 23.6538 32.0977 21.1468 32.0977 18.0653C32.0977 14.9838 29.5897 12.4768 26.507 12.4768Z" fill="white"/>
<path d="M26.506 60.9822C26.0982 60.9822 25.7676 60.6516 25.7676 60.2438V48.6446C25.7676 48.2368 26.0982 47.9062 26.506 47.9062C26.9138 47.9062 27.2444 48.2368 27.2444 48.6446V60.2438C27.2444 60.6516 26.9138 60.9822 26.506 60.9822Z" fill="white"/>
<path d="M60.2604 25.1264C59.8526 25.1264 59.522 24.7958 59.522 24.388V20.907H57.0958C56.688 20.907 56.3574 20.5764 56.3574 20.1686C56.3574 19.7608 56.688 19.4302 57.0958 19.4302H60.2604C60.6682 19.4302 60.9988 19.7608 60.9988 20.1686V24.388C60.9988 24.7958 60.6682 25.1264 60.2604 25.1264Z" fill="white"/>
<path d="M60.2604 35.6752H57.0958C56.688 35.6752 56.3574 35.3446 56.3574 34.9368C56.3574 34.529 56.688 34.1984 57.0958 34.1984H59.522V30.7174C59.522 30.3096 59.8526 29.979 60.2604 29.979C60.6682 29.979 60.9988 30.3096 60.9988 30.7174V34.9368C60.9988 35.3446 60.6682 35.6752 60.2604 35.6752Z" fill="white"/>
<path d="M45.4943 25.1264C45.0865 25.1264 44.7559 24.7958 44.7559 24.388V20.1686C44.7559 19.7608 45.0865 19.4302 45.4943 19.4302H48.6588C49.0666 19.4302 49.3972 19.7608 49.3972 20.1686C49.3972 20.5764 49.0666 20.907 48.6588 20.907H46.2327V24.388C46.2327 24.7958 45.9021 25.1264 45.4943 25.1264Z" fill="white"/>
<path d="M48.6588 35.6752H45.4943C45.0865 35.6752 44.7559 35.3446 44.7559 34.9368V30.7174C44.7559 30.3096 45.0865 29.979 45.4943 29.979C45.9021 29.979 46.2327 30.3096 46.2327 30.7174V34.1984H48.6588C49.0666 34.1984 49.3972 34.529 49.3972 34.9368C49.3972 35.3446 49.0666 35.6752 48.6588 35.6752Z" fill="white"/>
<path d="M52.879 31.4553C52.4712 31.4553 52.1406 31.1247 52.1406 30.7169V24.3878C52.1406 23.98 52.4712 23.6494 52.879 23.6494C53.2868 23.6494 53.6174 23.98 53.6174 24.3878V30.7169C53.6174 31.1247 53.2868 31.4553 52.879 31.4553Z" fill="white"/>
<path d="M56.0421 28.2908H49.713C49.3052 28.2908 48.9746 27.9602 48.9746 27.5524C48.9746 27.1446 49.3052 26.814 49.713 26.814H56.0421C56.4499 26.814 56.7805 27.1446 56.7805 27.5524C56.7805 27.9602 56.4499 28.2908 56.0421 28.2908Z" fill="white"/>
</svg>
