<svg width="72" height="72" viewBox="0 0 72 72" fill="none" xmlns="http://www.w3.org/2000/svg">
<path d="M39.674 40.3921C40.167 40.8892 40.8045 41.1291 41.4505 41.1291C42.0965 41.1291 42.7341 40.8806 43.227 40.3921L55.7728 27.76C57.5069 26.0117 58.4589 23.6978 58.4504 21.2298C58.4504 18.7616 57.5069 16.4477 55.7728 14.6996C52.1943 11.1002 46.3888 11.1002 42.8103 14.6996L41.4503 16.0708L40.0903 14.6996C38.3648 12.9598 36.0698 12 33.6303 12H33.5963C31.1567 12 28.8618 12.9598 27.1275 14.6996C25.3933 16.4393 24.4415 18.7617 24.4415 21.2298C24.4415 23.6978 25.3935 26.0119 27.1275 27.76L39.674 40.3921ZM28.3348 15.9073C29.7459 14.4933 31.6073 13.7134 33.6049 13.7134H33.6304C35.6194 13.7134 37.4894 14.4933 38.8919 15.9073L40.8554 17.8785C41.1869 18.2127 41.7225 18.2127 42.0539 17.8785L44.0175 15.9073C46.9245 12.9764 51.6672 12.9764 54.5744 15.9073C55.9854 17.33 56.7589 19.2153 56.7589 21.2293C56.7589 23.2347 55.9854 25.1201 54.5744 26.5427L42.0286 39.1748C41.7141 39.4919 41.1956 39.4919 40.8811 39.1748L28.3353 26.5427C26.9242 25.1201 26.1508 23.2347 26.1508 21.2293C26.1508 19.2239 26.9243 17.3299 28.3353 15.9159L28.3348 15.9073Z" fill="white"/>
<path d="M57.4303 45.1738C56.9373 45.1738 56.4528 45.2766 55.9853 45.4908L48.1908 48.9874C48.2164 48.7989 48.2504 48.6189 48.2504 48.4218C48.2504 46.2965 46.5334 44.5653 44.4254 44.5653H38.2629L31.0293 40.5888C28.8702 39.4062 26.2692 39.1148 23.9061 39.7918L20.1746 40.8717C20.0386 39.5862 18.9675 38.5749 17.65 38.5749H12.55C11.1475 38.5749 10 39.7319 10 41.1459V56.572C10 57.986 11.1475 59.143 12.55 59.143H17.65C18.9931 59.143 20.0896 58.0803 20.183 56.7434L36.0016 59.7858C36.7581 59.9229 37.5231 60 38.2626 60C39.9201 60 41.5861 59.6486 43.0821 58.9887L58.8495 52.0729C60.1585 51.5073 61 50.2218 61 48.782C61 46.7938 59.402 45.1826 57.43 45.1826L57.4303 45.1738ZM18.5003 56.5635C18.5003 57.0349 18.1178 57.4205 17.6503 57.4205H12.5503C12.0828 57.4205 11.7003 57.0349 11.7003 56.5635V41.1375C11.7003 40.6661 12.0828 40.2805 12.5503 40.2805H17.6503C18.1178 40.2805 18.5003 40.6661 18.5003 41.1375V56.5635ZM58.1789 50.4874L42.4028 57.4032C40.5412 58.226 38.4247 58.4831 36.3165 58.0888L20.2003 54.9865V42.6287L24.3739 41.4289C26.3119 40.8718 28.4539 41.1118 30.2219 42.0802L37.6427 46.1595C37.7702 46.2281 37.9062 46.2624 38.0507 46.2624H44.4259C45.5988 46.2624 46.5508 47.2222 46.5508 48.4049C46.5508 49.5875 45.5988 50.5473 44.4259 50.5473H35.5009C35.0334 50.5473 34.6509 50.933 34.6509 51.4043C34.6509 51.8757 35.0334 52.2613 35.5009 52.2613H44.4259C45.2503 52.2613 46.0068 51.9957 46.6274 51.5415L56.6746 47.0336C57.9496 46.468 59.3011 47.4535 59.3011 48.7562C59.3011 49.5018 58.8591 50.1788 58.1791 50.4702L58.1789 50.4874Z" fill="white"/>
</svg>
