<svg width="58" height="32" viewBox="0 0 58 32" fill="none" xmlns="http://www.w3.org/2000/svg">
<path d="M26.3459 13.9354C26.02 13.9354 25.6963 13.9642 25.375 14.023V8.95045C25.375 8.31393 24.8553 7.79734 24.215 7.79734H17.1854C16.8061 7.79734 16.4511 7.98184 16.2342 8.29087C16.0173 8.59991 15.9662 8.99542 16.0973 9.34828C16.2864 9.8568 16.3815 10.3826 16.3815 10.9119C16.3815 13.1812 14.7239 15.0273 12.6869 15.0273C10.65 15.0273 8.99232 13.1812 8.99232 10.9119C8.99232 10.3826 9.0886 9.85565 9.27652 9.34828C9.4076 8.99427 9.35656 8.59991 9.13964 8.29087C8.92272 7.98069 8.56776 7.79734 8.18844 7.79734H1.16C0.51968 7.79734 0 8.31393 0 8.95045V30.8457C0 31.4834 0.51968 31.9988 1.16 31.9988H24.215C24.8553 31.9988 25.375 31.4834 25.375 30.8457V25.7709C25.6952 25.8285 26.02 25.8574 26.3459 25.8574C29.5672 25.8574 32.1877 23.1845 32.1877 19.8969C32.1877 16.6094 29.5672 13.9354 26.3459 13.9354ZM26.3459 23.5512C25.8135 23.5512 25.2799 23.4116 24.759 23.1383C24.3994 22.9481 23.9668 22.9596 23.6176 23.1672C23.2684 23.377 23.055 23.7518 23.055 24.1554V29.6926H2.32V10.1036H6.7222C6.68972 10.3722 6.67348 10.6421 6.67348 10.913C6.67348 14.4543 9.37164 17.3347 12.6881 17.3347C16.0045 17.3347 18.7027 14.4531 18.7027 10.913C18.7027 10.6421 18.6864 10.3722 18.654 10.1036H23.0562V15.6385C23.0562 16.0432 23.2696 16.418 23.6188 16.6267C23.9679 16.8354 24.4006 16.8458 24.7602 16.6567C25.2822 16.3811 25.8158 16.2416 26.3471 16.2416C28.2889 16.2416 29.8688 17.8813 29.8688 19.8969C29.8677 21.9114 28.2878 23.5512 26.3459 23.5512Z" fill="white"/>
<path d="M56.84 6.77453H51.736C51.794 6.45627 51.823 6.1334 51.823 5.80938C51.823 2.60603 49.1341 0 45.8281 0C42.5198 0 39.8286 2.60603 39.8286 5.80938C39.8286 6.1334 39.8576 6.45627 39.9156 6.77453H34.8151C34.1736 6.77453 33.6551 7.29112 33.6551 7.92764V14.9143C33.6551 15.2914 33.8395 15.6443 34.1504 15.8599C34.4624 16.0755 34.8603 16.1263 35.2141 15.9971C35.7303 15.8092 36.2604 15.7135 36.7882 15.7135C39.0723 15.7135 40.9294 17.3612 40.9294 19.3873C40.9294 21.4121 39.0711 23.0599 36.7882 23.0599C36.2546 23.0599 35.7268 22.9654 35.2188 22.7774C34.8603 22.646 34.4636 22.6967 34.1527 22.9112C33.8395 23.128 33.6539 23.4808 33.6539 23.8579V30.8469C33.6539 31.4846 34.1724 32 34.8139 32H56.84C57.4815 32 58 31.4846 58 30.8469V7.92764C58 7.29112 57.4815 6.77453 56.84 6.77453ZM55.68 29.6926H35.9751V25.3166C36.2442 25.3489 36.5156 25.365 36.7882 25.365C40.3506 25.365 43.2494 22.6829 43.2494 19.3861C43.2494 16.0894 40.3506 13.4061 36.7882 13.4061C36.5168 13.4061 36.2454 13.4222 35.9751 13.4545V9.08075H41.5431C41.9514 9.08075 42.3284 8.86743 42.5372 8.52034C42.746 8.17325 42.7576 7.74084 42.565 7.38453C42.289 6.87024 42.1486 6.33981 42.1486 5.80938C42.1486 3.87791 43.7993 2.30622 45.8281 2.30622C47.8546 2.30622 49.503 3.87791 49.503 5.80938C49.503 6.33865 49.3626 6.86909 49.0866 7.38568C48.8952 7.74314 48.9068 8.17441 49.1156 8.52149C49.3244 8.86858 49.7025 9.08075 50.1097 9.08075H55.68V29.6926Z" fill="white"/>
</svg>
