<svg width="72" height="72" viewBox="0 0 72 72" fill="none" xmlns="http://www.w3.org/2000/svg">
<mask id="mask0_2244_2899" style="mask-type:alpha" maskUnits="userSpaceOnUse" x="5" y="5" width="61" height="62">
<path d="M32.7785 5.99821C26.1193 5.99821 20.2034 10.2235 18.1417 16.4634L17.3984 20.7484V34.951C17.3984 35.6613 17.7684 36.2919 18.3872 36.657L29.9736 43.246V23.729H29.9769V22.8029L41.7045 16.1182C42.8384 15.4703 44.0735 15.0277 45.3525 14.7963L44.2236 11.0167C41.311 7.80381 37.144 5.97829 32.7785 5.99821ZM32.7785 9.89819L32.7584 9.9181C35.4387 9.9181 38.015 10.8309 40.0767 12.5203C39.9926 12.5601 39.8278 12.663 39.7068 12.7228L27.5823 19.6133C26.9635 19.9585 26.5934 20.609 26.5934 21.3194V37.4935L21.3772 34.5261V21.1568C21.3737 14.9466 26.4758 9.90815 32.7785 9.89819Z" fill="#1A1A1A"/>
<path d="M60.7218 18.2485C57.3922 12.5571 50.7264 9.61352 44.2199 10.9715L40.0881 12.4787L27.6249 19.58C27.0014 19.9351 26.633 20.5666 26.6221 21.2781L26.6333 34.4751L43.76 24.7166L43.7616 24.7195L44.5744 24.2564L56.3042 30.9373C57.4398 31.5825 58.4457 32.4167 59.2883 33.3942L62.0404 30.5395C63.4037 26.4438 62.922 21.9695 60.7218 18.2485ZM57.2995 20.1985L57.2719 20.1912C58.6121 22.4821 59.0993 25.1404 58.6476 27.7471C58.5705 27.6952 58.3979 27.6058 58.2849 27.5321L46.176 20.615C45.5637 20.2587 44.808 20.2678 44.1845 20.6229L29.9913 28.71L29.9869 22.768L41.7191 16.0833C47.167 12.9754 54.1394 14.8167 57.2995 20.1985Z" fill="#1A1A1A"/>
<path d="M63.9351 48.2507C67.2646 42.5592 66.5148 35.3904 62.0699 30.5083L58.6814 27.7306L46.2182 20.6293C45.5947 20.2742 44.8564 20.2751 44.2267 20.6214L32.6514 27.2294L49.7782 36.9878L49.7765 36.9908L50.5891 37.4538L50.5914 50.8194C50.593 52.1125 50.3638 53.3894 49.9275 54.5983L53.8086 55.5231C58.0843 54.6403 61.7698 51.9916 63.9351 48.2507ZM60.5127 46.3005L60.5053 46.2734C59.1652 48.5643 57.076 50.3098 54.5626 51.2271C54.5698 51.1353 54.5618 50.943 54.5699 50.8097L54.5855 37.0021C54.592 36.3005 54.2062 35.6591 53.5829 35.304L39.3895 27.2168L44.6015 24.2422L56.3337 30.927C61.7849 34.0291 63.6554 40.9089 60.5127 46.3005Z" fill="#1A1A1A"/>
<path d="M39.2196 66.0012C45.8788 66.0012 51.7947 61.7759 53.8564 55.536L54.5995 51.251V37.0485C54.5995 36.3382 54.2296 35.7075 53.6108 35.3424L42.0244 28.7534V48.2705H42.0211V49.1965L30.2936 55.8812C29.1597 56.5291 27.9245 56.9718 26.6455 57.2032L27.7745 60.9827C30.687 64.1956 34.854 66.0212 39.2196 66.0012ZM39.2196 62.1013L39.2397 62.0814C36.5593 62.0814 33.983 61.1686 31.9213 59.4792C32.0055 59.4393 32.1702 59.3363 32.2912 59.2766L44.4157 52.3861C45.0345 52.041 45.4046 51.3904 45.4046 50.6801V34.506L50.6208 37.4733V50.8427C50.6243 57.0528 45.5222 62.0913 39.2196 62.1013Z" fill="#1A1A1A"/>
<path d="M11.2817 53.7519C14.6113 59.4434 21.2772 62.3868 27.7837 61.0289L31.9155 59.5217L44.3787 52.4204C45.002 52.0653 45.3704 51.4338 45.3815 50.7223L45.3703 37.5254L28.2436 47.2838L28.2419 47.2809L27.4292 47.744L15.6994 41.0631C14.5639 40.418 13.5579 39.5837 12.7153 38.6062L9.96314 41.4609C8.59998 45.5566 9.08154 50.0309 11.2817 53.7519ZM14.7041 51.8019L14.7317 51.8092C13.3914 49.5183 12.9043 46.8601 13.356 44.2533C13.433 44.3052 13.6057 44.3946 13.7186 44.4683L25.8275 51.3855C26.4399 51.7417 27.1956 51.7326 27.8191 51.3775L42.0123 43.2904L42.0167 49.2324L30.2845 55.9171C24.8366 59.025 17.8642 57.1836 14.7041 51.8019Z" fill="#1A1A1A"/>
<path d="M8.06411 23.75C4.73453 29.4415 5.48435 36.6102 9.92929 41.4923L13.3179 44.27L25.781 51.3713C26.4044 51.7265 27.1428 51.7256 27.7725 51.3792L39.3478 44.7712L22.221 35.0128L22.2226 35.0098L21.41 34.5469L21.4078 21.1812C21.4061 19.8882 21.6354 18.6112 22.0717 17.4024L18.1906 16.4775C13.9148 17.3604 10.2294 20.0091 8.06411 23.75ZM11.4865 25.7001L11.4939 25.7272C12.8341 23.4363 14.9232 21.6908 17.4366 20.7735C17.4295 20.8653 17.4374 21.0576 17.4293 21.191L17.4137 34.9985C17.4072 35.7001 17.7931 36.3416 18.4164 36.6966L32.6097 44.7838L27.3977 47.7585L15.6655 41.0736C10.2143 37.9716 8.34387 31.0917 11.4865 25.7001Z" fill="#1A1A1A"/>
</mask>
<g mask="url(#mask0_2244_2899)">
<path fill-rule="evenodd" clip-rule="evenodd" d="M15.2334 46.4999C17.2946 47.4315 19.5751 48.6673 21.7081 49.681L35.9537 56.7709L54.1421 47.7308C54.617 47.4921 54.9718 47.3416 55.4472 47.103C56.1557 46.747 56.5687 46.6513 56.6735 46.3163C56.0993 46.2022 40.7424 38.5009 38.5769 37.3807C38.2425 37.2076 36.1407 36.1367 35.9537 36.1367L20.3807 43.8349C19.8332 44.117 15.5088 46.1489 15.2334 46.4999Z" fill="white"/>
<path fill-rule="evenodd" clip-rule="evenodd" d="M36.8057 34.947C37.2737 35.0403 46.5838 39.7462 46.8911 39.9045C47.2767 40.1031 47.6828 40.308 48.1148 40.5098L55.655 44.248C55.8748 44.3587 56.0542 44.4607 56.2615 44.5714C56.4732 44.6847 56.7741 44.8934 56.7741 44.4846V25.3176C56.7741 24.8354 52.5862 23.0166 51.9216 22.6764L43.1731 18.3197C42.3038 17.9047 37.353 15.3388 36.8057 15.23V34.947Z" fill="white"/>
<path fill-rule="evenodd" clip-rule="evenodd" d="M15.2334 25.0427V44.7598C16.0481 44.3916 16.8746 43.9627 17.6813 43.5493C18.5388 43.11 19.34 42.7407 20.1917 42.3003L32.6874 36.1006C33.5537 35.6656 34.3376 35.2461 35.2018 34.8554V15.23C34.72 15.2644 33.1791 16.1083 32.6724 16.3704L27.7203 18.835C24.5356 20.3479 20.8186 22.3583 17.7395 23.7902L15.2334 25.0427Z" fill="white"/>
</g>
</svg>
