<svg width="72" height="72" viewBox="0 0 72 72" fill="none" xmlns="http://www.w3.org/2000/svg">
<path fill-rule="evenodd" clip-rule="evenodd" d="M50.148 34.8231H49.3265C48.9015 34.8231 48.5579 34.4795 48.5579 34.0544C48.5579 33.6294 48.9015 33.2858 49.3265 33.2858H50.9167C51.3417 33.2858 51.6853 33.6294 51.6853 34.0544V40.523H52.5068C52.9318 40.523 53.2754 40.8666 53.2754 41.2917C53.2754 41.7167 52.9318 42.0603 52.5068 42.0603H49.3265C48.9015 42.0603 48.5579 41.7168 48.5579 41.2917C48.5579 40.8666 48.9015 40.523 49.3265 40.523H50.148V34.8231ZM50.148 31.5547C50.148 31.1297 50.4916 30.7861 50.9167 30.7861C51.3417 30.7861 51.6853 31.1297 51.6853 31.5547V31.5569C51.6853 31.982 51.3417 32.3256 50.9167 32.3256C50.4916 32.3256 50.148 31.982 50.148 31.5569V31.5547ZM23.9286 16.7152L26.5164 16.713C26.6529 16.713 26.7784 16.6536 26.8731 16.5611C26.9656 16.4686 27.0229 16.343 27.0229 16.2043V13.6209L23.9286 16.7152ZM32.1856 31.513C30.0845 30.5572 27.1619 29.9669 23.9156 29.9669C23.3166 29.9669 22.7307 29.9867 22.1559 30.0264C22.1405 30.0286 22.1229 30.0286 22.1074 30.0308C19.5901 30.2048 17.3481 30.7422 15.6456 31.5152C13.7252 32.3896 12.5381 33.5282 12.5381 34.7285C12.5381 35.9266 13.7252 37.0674 15.6456 37.9417C17.7467 38.8976 20.6693 39.4878 23.9156 39.4878C27.1641 39.4878 30.0865 38.8954 32.1856 37.9417C34.106 37.0674 35.2931 35.9288 35.2931 34.7285C35.2931 33.5282 34.106 32.3896 32.1856 31.5152L32.1856 31.513ZM12.5357 51.3388V55.0807C12.5357 56.281 13.7228 57.4196 15.6432 58.294C17.7443 59.2498 20.6669 59.84 23.9132 59.84C27.1617 59.84 30.0841 59.2476 32.1832 58.294C34.1036 57.4196 35.2907 56.281 35.2907 55.0807V51.3388C34.641 51.9291 33.8063 52.4555 32.8196 52.9047C30.5248 53.9509 27.3731 54.5961 23.9109 54.5961C20.4486 54.5961 17.2991 53.9487 15.0021 52.9047C14.0176 52.4554 13.1807 51.929 12.531 51.3388H12.5357ZM12.5357 44.5556C13.1853 45.1459 14.0201 45.6723 15.0067 46.1215C17.3016 47.1677 20.4532 47.8129 23.9155 47.8129C27.3777 47.8129 30.5273 47.1655 32.8243 46.1215C33.8087 45.6722 34.6457 45.1458 35.2953 44.5556V48.2975C35.2953 49.4978 34.1082 50.6364 32.1878 51.5108C30.0867 52.4666 27.1641 53.0568 23.9178 53.0568C20.6693 53.0568 17.7469 52.4644 15.6478 51.5108C13.7274 50.6364 12.5403 49.4978 12.5403 48.2975V44.5556H12.5357ZM12.5357 37.7679C13.1853 38.3582 14.0201 38.8846 15.0067 39.3338C17.3016 40.3799 20.4532 41.0252 23.9155 41.0252C27.3777 41.0252 30.5273 40.3777 32.8243 39.3338C33.8087 38.8845 34.6457 38.3581 35.2953 37.7679V41.5142C35.2953 42.7145 34.1082 43.8531 32.1878 44.7274C30.0867 45.6833 27.1641 46.2735 23.9178 46.2735C20.6693 46.2735 17.7469 45.6811 15.6478 44.7274C13.7274 43.8531 12.5403 42.7145 12.5403 41.5142V37.7679H12.5357ZM15.8701 48.1522C15.6873 48.0773 15.5353 48.0134 15.4164 47.9584C15.282 47.8967 15.1367 47.8284 14.9847 47.7514C14.6059 47.5597 14.1456 47.7117 13.954 48.0905C13.7624 48.4693 13.9144 48.9296 14.2932 49.1212C14.4385 49.1939 14.5993 49.271 14.7777 49.3525C14.9737 49.4406 15.1455 49.5154 15.2909 49.5749C15.6829 49.7335 16.1322 49.5441 16.2907 49.1521C16.4493 48.76 16.2599 48.3107 15.8679 48.1522L15.8701 48.1522ZM15.8701 41.4479C15.6851 41.373 15.5353 41.3092 15.4164 41.2541C15.282 41.1924 15.1389 41.1242 14.9847 41.0471C14.6059 40.8555 14.1456 41.0074 13.954 41.3862C13.7624 41.7651 13.9144 42.2254 14.2932 42.417C14.4385 42.4896 14.5993 42.5667 14.7777 42.6482C14.9737 42.7363 15.1455 42.8112 15.2909 42.8728C15.6829 43.0314 16.1322 42.842 16.2907 42.45C16.4493 42.058 16.2599 41.6087 15.8679 41.4501L15.8701 41.4479ZM15.8701 54.8559C16.2621 55.0145 16.4515 55.4637 16.2929 55.8558C16.1344 56.2478 15.6851 56.4372 15.2931 56.2786C15.1455 56.2192 14.9759 56.1443 14.7799 56.054C14.6015 55.9725 14.4408 55.8954 14.2954 55.8227C13.9166 55.6311 13.7646 55.1708 13.9562 54.792C14.1478 54.4132 14.6081 54.2612 14.9869 54.4529C15.1389 54.5299 15.2821 54.6004 15.4164 54.6599C15.5353 54.7127 15.6851 54.7788 15.8701 54.8537L15.8701 54.8559ZM33.0641 18.9615C32.639 18.9615 32.2954 18.6179 32.2954 18.1928C32.2954 17.7678 32.639 17.4242 33.0641 17.4242H47.289C47.7141 17.4242 48.0576 17.7677 48.0576 18.1928C48.0576 18.6179 47.7141 18.9615 47.289 18.9615H33.0641ZM28.406 24.463C27.981 24.463 27.6374 24.1194 27.6374 23.6944C27.6374 23.2693 27.981 22.9257 28.406 22.9257H47.2892C47.7142 22.9257 48.0578 23.2693 48.0578 23.6944C48.0578 24.1194 47.7142 24.463 47.2892 24.463H28.406ZM57.484 29.8544C55.8036 28.174 53.4822 27.1345 50.9167 27.1345C48.3531 27.1345 46.0296 28.1741 44.3495 29.8544C42.669 31.5349 41.6295 33.8562 41.6295 36.4217C41.6295 38.9853 42.6691 41.3088 44.3495 42.989C46.0299 44.6694 48.3512 45.7089 50.9167 45.7089C53.4803 45.7089 55.8038 44.6694 57.484 42.989C59.1641 41.3086 60.2039 38.9872 60.2039 36.4217C60.2039 33.8581 59.1644 31.5346 57.484 29.8544ZM53.1959 25.8373V13.0416C53.1959 12.48 52.9669 11.9691 52.5969 11.599C52.2269 11.229 51.7159 11 51.1543 11H27.7911C27.5775 11 27.3837 11.0881 27.2427 11.229L21.5341 16.9376C21.3844 17.0874 21.3095 17.2834 21.3095 17.4816V28.5554C18.8869 28.7911 16.7132 29.3461 15.0084 30.1213C12.5417 31.2445 11.0111 32.8611 11 34.7067V34.7265V55.0812C11 56.9356 12.5329 58.561 15.0084 59.6886C17.3032 60.7347 20.4549 61.38 23.9171 61.38C27.3793 61.38 30.5289 60.7325 32.8259 59.6886C35.3014 58.561 36.8343 56.9356 36.8343 55.0812V52.3326H51.1584C51.72 52.3326 52.231 52.1035 52.601 51.7335C52.971 51.3635 53.2 50.8526 53.2 50.291V47.0094C55.2747 46.5645 57.1291 45.525 58.5738 44.0803C60.5318 42.1223 61.7431 39.4156 61.7431 36.4271C61.7431 33.4386 60.5318 30.7315 58.5738 28.7739C57.1269 27.327 55.2724 26.2897 53.2 25.8448L53.1959 25.8373ZM50.9164 25.5972C51.1653 25.5972 51.4142 25.606 51.6586 25.6237V13.0417C51.6586 12.9029 51.6014 12.7774 51.5089 12.6849C51.4164 12.5924 51.2908 12.5351 51.1521 12.5351H28.5579V16.2043C28.5579 16.7659 28.3289 17.2768 27.9589 17.6469C27.5911 18.0147 27.0801 18.2437 26.5163 18.2437L22.8472 18.2459V28.4475C23.1995 28.4343 23.5563 28.4277 23.9153 28.4277C27.3752 28.4277 30.5271 29.0752 32.8241 30.1191C35.2907 31.2423 36.8214 32.8589 36.8324 34.7045V34.7243V50.7929H51.1566C51.2953 50.7929 51.4209 50.7356 51.5134 50.6431C51.6059 50.5506 51.6631 50.4251 51.6631 50.2863V47.2184C51.4187 47.2338 51.172 47.2449 50.9209 47.2449C47.9323 47.2449 45.2253 46.0336 43.2678 44.0756C41.3098 42.1177 40.0985 39.411 40.0985 36.4225C40.0985 33.4338 41.3098 30.7268 43.2678 28.7693C45.2257 26.8117 47.9324 25.6001 50.9209 25.6001L50.9164 25.5972Z" fill="white"/>
</svg>
