<svg width="46" height="50" viewBox="0 0 46 50" fill="none" xmlns="http://www.w3.org/2000/svg">
<path fill-rule="evenodd" clip-rule="evenodd" d="M39.3791 28.5283H37.4069V29.5283C37.4068 29.6527 37.366 29.7737 37.2904 29.8729C37.2149 29.9722 37.1089 30.0443 36.9884 30.0783C36.8034 30.131 36.6215 30.1939 36.4435 30.2667C36.2786 30.3344 36.1174 30.4108 35.9607 30.4956C35.8496 30.5687 35.7165 30.6014 35.5839 30.5882C35.4513 30.5749 35.3274 30.5165 35.2333 30.4228L34.5217 29.7161L33.1291 31.0994L33.8402 31.8056C33.9287 31.8933 33.9859 32.0072 34.0032 32.1302C34.0204 32.2531 33.9968 32.3783 33.9359 32.4867C33.8424 32.6546 33.7585 32.8277 33.6847 33.005C33.6143 33.1738 33.5532 33.3463 33.5017 33.5217C33.4717 33.6467 33.4002 33.7581 33.2988 33.8379C33.1973 33.9177 33.0717 33.9613 32.9423 33.9617H31.9352V35.92H32.9423C33.0675 35.9202 33.1893 35.9608 33.2892 36.0358C33.3891 36.1107 33.4618 36.216 33.4961 36.3356C33.5488 36.5194 33.6122 36.7001 33.6858 36.8767C33.754 37.0403 33.8308 37.2004 33.9158 37.3561C33.9895 37.4663 34.0226 37.5986 34.0092 37.7302C33.9958 37.8619 33.9369 37.9849 33.8425 38.0783L33.1291 38.785L34.5239 40.17L35.235 39.4639C35.3233 39.3762 35.438 39.3195 35.5617 39.3023C35.6853 39.2852 35.8113 39.3085 35.9204 39.3689C36.0897 39.4617 36.2642 39.545 36.4429 39.6183C36.6129 39.6884 36.7866 39.749 36.9633 39.8C37.0892 39.8298 37.2014 39.9008 37.2817 40.0016C37.3621 40.1023 37.406 40.227 37.4064 40.3556V41.3556H39.3785V40.3556C39.3787 40.2312 39.4196 40.1103 39.4951 40.011C39.5706 39.9118 39.6766 39.8397 39.797 39.8056C39.982 39.7533 40.1637 39.6904 40.3414 39.6172C40.5064 39.5495 40.6678 39.4733 40.8248 39.3889C40.9358 39.3156 41.0689 39.2828 41.2016 39.2961C41.3342 39.3094 41.4581 39.3679 41.5521 39.4617L42.2632 40.1678L43.658 38.7828L42.9469 38.0767C42.8585 37.9891 42.8013 37.8752 42.7839 37.7524C42.7665 37.6296 42.79 37.5045 42.8507 37.3961C43.0337 37.068 43.1795 36.7206 43.2854 36.3606C43.3153 36.2355 43.3868 36.124 43.4883 36.0442C43.5898 35.9644 43.7154 35.9208 43.8449 35.9206H44.8519V33.9628H43.8449C43.7196 33.9627 43.5978 33.9221 43.4978 33.8471C43.3979 33.7721 43.3253 33.6669 43.291 33.5472C43.2381 33.3636 43.1747 33.1832 43.1013 33.0067C43.0332 32.8427 42.9562 32.6825 42.8708 32.5267C42.7972 32.4164 42.7643 32.2842 42.7777 32.1526C42.7911 32.0209 42.8499 31.8979 42.9441 31.8044L43.6552 31.0983L42.2604 29.7128L41.5493 30.4194C41.4609 30.507 41.3461 30.5637 41.2224 30.5808C41.0986 30.598 40.9726 30.5747 40.8634 30.5144C40.6943 30.4214 40.52 30.3379 40.3414 30.2644C40.1713 30.1944 39.9974 30.1338 39.8205 30.0828C39.6947 30.053 39.5826 29.9819 39.5023 29.8812C39.422 29.7804 39.3782 29.6557 39.378 29.5272V28.5272L39.3791 28.5283ZM39.7998 33.545C40.1255 33.8682 40.3283 34.2935 40.3735 34.7485C40.4188 35.2035 40.3038 35.66 40.0481 36.0402C39.7924 36.4204 39.4119 36.7008 38.9713 36.8336C38.5307 36.9665 38.0574 36.9435 37.632 36.7687C37.2066 36.5938 36.8554 36.2779 36.6382 35.8747C36.4211 35.4716 36.3514 35.0061 36.4412 34.5577C36.5309 34.1092 36.7744 33.7056 37.1303 33.4155C37.4861 33.1254 37.9323 32.9667 38.3927 32.9667C38.6541 32.9664 38.9129 33.0173 39.1543 33.1166C39.3958 33.2158 39.6152 33.3614 39.7998 33.545ZM38.3927 31.8228C39.12 31.8226 39.8247 32.0729 40.387 32.5309C40.9492 32.989 41.3341 33.6264 41.476 34.3347C41.618 35.0429 41.5082 35.7781 41.1655 36.415C40.8227 37.0519 40.2681 37.551 39.5963 37.8274C38.9244 38.1037 38.1768 38.1402 37.4809 37.9306C36.785 37.721 36.1838 37.2782 35.7798 36.6778C35.3758 36.0773 35.194 35.3564 35.2653 34.6377C35.3367 33.9191 35.6567 33.2472 36.171 32.7367C36.4625 32.4466 36.8088 32.2165 37.1901 32.0596C37.5713 31.9028 37.98 31.8223 38.3927 31.8228ZM34.6548 8.43556V28.5C34.5199 28.4805 34.3823 28.4903 34.2515 28.5286C34.1208 28.567 33.9999 28.633 33.8973 28.7222C33.8802 28.7356 33.8639 28.7501 33.8486 28.7656L32.1702 30.4322C32.0815 30.52 32.0112 30.6242 31.9632 30.739C31.9152 30.8538 31.8905 30.9768 31.8905 31.1011C31.8905 31.2254 31.9152 31.3485 31.9632 31.4632C32.0112 31.578 32.0815 31.6823 32.1702 31.77L32.7263 32.3222C32.689 32.4041 32.6517 32.4861 32.6144 32.5683C32.5771 32.6506 32.5443 32.7339 32.5159 32.8183H31.7349C31.4829 32.8189 31.2414 32.9189 31.0635 33.0961C30.885 33.2728 30.7844 33.5125 30.7838 33.7628V36.1167C30.7845 36.3678 30.8853 36.6085 31.0642 36.786C31.243 36.9636 31.4853 37.0637 31.7383 37.0644H32.5243C32.5551 37.1478 32.5881 37.2311 32.6228 37.3144C32.6575 37.3978 32.6933 37.4811 32.7347 37.56L32.1786 38.1156C32.0081 38.2849 31.9088 38.5122 31.9007 38.7515C31.8926 38.9907 31.9763 39.2241 32.1349 39.4044C32.1483 39.4216 32.1629 39.4377 32.1786 39.4528L33.857 41.1194C33.9616 41.2228 34.0888 41.3008 34.2288 41.3474C34.3687 41.3939 34.5176 41.4078 34.6638 41.3878V44.7056C34.6639 44.8188 34.6189 44.9275 34.5385 45.0078C34.4991 45.047 34.4522 45.0781 34.4007 45.0993C34.3491 45.1205 34.2938 45.1313 34.238 45.1311H1.57886C1.52305 45.1313 1.46776 45.1205 1.41619 45.0993C1.36462 45.0782 1.31779 45.047 1.27841 45.0078C1.23855 44.9681 1.20696 44.9209 1.18545 44.8691C1.16395 44.8172 1.15295 44.7616 1.15309 44.7056V1.57056C1.15295 1.51447 1.16395 1.45891 1.18545 1.40706C1.20696 1.3552 1.23855 1.30806 1.27841 1.26833C1.31779 1.22906 1.36462 1.19794 1.41619 1.17677C1.46776 1.1556 1.52305 1.1448 1.57886 1.145H27.3323V7.08944C27.334 7.44617 27.4772 7.78785 27.731 8.04031C27.9849 8.29276 28.3287 8.43559 28.688 8.43778L34.6548 8.43556ZM4.5732 46.2778H34.2291C34.6476 46.2756 35.0483 46.1093 35.344 45.8152C35.6397 45.521 35.8065 45.1228 35.8079 44.7072V40.5911C35.8728 40.6206 35.9372 40.6467 36.0021 40.675C36.0856 40.7094 36.1693 40.742 36.2533 40.7728V41.5556C36.2534 41.6795 36.2782 41.8022 36.3262 41.9166C36.3742 42.031 36.4445 42.1349 36.533 42.2222C36.621 42.3101 36.7256 42.3799 36.8408 42.4276C36.956 42.4753 37.0796 42.4999 37.2044 42.5H37.8131V48.4244C37.8124 48.5384 37.7665 48.6475 37.6853 48.7281C37.6041 48.8087 37.4943 48.8543 37.3795 48.855H5.0068C4.89203 48.8543 4.78217 48.8087 4.70101 48.7281C4.61985 48.6475 4.57393 48.5384 4.5732 48.4244V46.2778ZM37.8165 27.3833H37.2077C36.9544 27.3838 36.7115 27.4841 36.5325 27.6622C36.3536 27.8403 36.2531 28.0817 36.2533 28.3333V29.1111C36.169 29.1419 36.0851 29.1743 36.0015 29.2083C35.9372 29.235 35.8723 29.2639 35.8079 29.2922V7.86278C35.808 7.78798 35.7932 7.71391 35.7644 7.64479C35.7356 7.57568 35.6933 7.51288 35.6401 7.46L33.0379 4.86944H37.3812C37.496 4.87017 37.6058 4.91577 37.687 4.99636C37.7681 5.07694 37.8141 5.18603 37.8148 5.3V27.3833H37.8165ZM31.8871 3.72222H37.3812C37.8018 3.72296 38.2049 3.88919 38.5023 4.1845C38.7997 4.47982 38.9671 4.88014 38.9679 5.29778V27.3833H39.5766C39.8286 27.3839 40.0701 27.4839 40.248 27.6611C40.4265 27.8378 40.5271 28.0775 40.5277 28.3278V29.1111C40.6124 29.1419 40.6963 29.1743 40.7795 29.2083C40.8623 29.2422 40.9473 29.2789 41.0273 29.3194L41.5835 28.7667C41.5989 28.7513 41.6151 28.7369 41.6321 28.7233C41.8138 28.5657 42.0489 28.4825 42.29 28.4905C42.5311 28.4986 42.7601 28.5973 42.9307 28.7667L44.6091 30.4333C44.7879 30.6111 44.8883 30.8521 44.8883 31.1033C44.8883 31.3546 44.7879 31.5955 44.6091 31.7733L44.0524 32.3256C44.0897 32.4074 44.127 32.4894 44.1643 32.5717C44.2016 32.6539 44.2343 32.7372 44.2622 32.8217H45.0489C45.3009 32.8223 45.5424 32.9222 45.7203 33.0994C45.8988 33.2761 45.9994 33.5159 46 33.7661V36.12C45.9999 36.2439 45.9751 36.3666 45.9271 36.4811C45.8791 36.5955 45.8088 36.6993 45.7203 36.7867C45.5424 36.9639 45.3009 37.0638 45.0489 37.0644H44.2628C44.2318 37.1478 44.1992 37.2309 44.1649 37.3139C44.1308 37.3961 44.0938 37.4806 44.053 37.56L44.6097 38.1156C44.6982 38.2033 44.7685 38.3075 44.8164 38.4222C44.8644 38.537 44.8891 38.66 44.8891 38.7842C44.8891 38.9084 44.8644 39.0314 44.8164 39.1461C44.7685 39.2608 44.6982 39.3651 44.6097 39.4528L42.9312 41.1194C42.7522 41.2969 42.5095 41.3966 42.2565 41.3966C42.0035 41.3966 41.7608 41.2969 41.5818 41.1194L41.0257 40.5672C40.9436 40.6043 40.861 40.6413 40.7778 40.6783C40.6946 40.7154 40.6107 40.748 40.526 40.7761V41.5556C40.5254 41.8058 40.4248 42.0456 40.2463 42.2222H40.2491C40.071 42.3992 39.8297 42.499 39.5777 42.5H38.9696V48.4244C38.9688 48.8424 38.8012 49.2429 38.5034 49.5383C38.2057 49.8337 37.8021 49.9997 37.3812 50H5.0068C4.58635 49.999 4.18343 49.8326 3.88618 49.5374C3.58893 49.2421 3.42156 48.8419 3.42067 48.4244V46.2778H1.57886C1.16027 46.2757 0.759457 46.1095 0.46373 45.8153C0.168003 45.5212 0.0013233 45.1229 0 44.7072V1.57056C0.0013233 1.1549 0.168003 0.756609 0.46373 0.462437C0.759457 0.168265 1.16027 0.00204992 1.57886 1.02698e-07H27.9092C27.9923 -4.94101e-05 28.0745 0.017805 28.15 0.0523327C28.2256 0.0868604 28.2927 0.13724 28.3467 0.2L31.8871 3.72222ZM31.2717 4.72833C31.2494 4.70981 31.2288 4.68936 31.2101 4.66722L28.4854 1.955V7.08722C28.4853 7.14152 28.5068 7.19367 28.5453 7.23222C28.5837 7.26858 28.6349 7.28853 28.688 7.28778H33.8447L31.2739 4.72833H31.2717ZM14.0206 23.4761C13.8719 23.3284 13.6762 23.2365 13.4668 23.2161C13.2575 23.1956 13.0475 23.2478 12.8726 23.3639C12.6977 23.4799 12.5688 23.6526 12.5077 23.8525C12.4467 24.0524 12.4573 24.2671 12.5378 24.46C12.6183 24.653 12.7637 24.8123 12.9492 24.9107C13.1347 25.0091 13.3489 25.0407 13.5552 24.9999C13.7615 24.9592 13.9472 24.8486 14.0806 24.6872C14.214 24.5257 14.2869 24.3233 14.2869 24.1144C14.287 23.9959 14.2635 23.8785 14.2178 23.7689C14.1721 23.6594 14.1051 23.5599 14.0206 23.4761ZM20.0166 20.2439C19.8678 20.0958 19.6719 20.0035 19.4623 19.9827C19.2527 19.962 19.0424 20.0141 18.8671 20.1301C18.6918 20.2461 18.5625 20.4189 18.5012 20.6191C18.4399 20.8192 18.4503 21.0342 18.5308 21.2275C18.6113 21.4208 18.7568 21.5804 18.9425 21.6791C19.1282 21.7778 19.3427 21.8095 19.5493 21.7688C19.7559 21.728 19.9419 21.6174 20.0756 21.4557C20.2092 21.2941 20.2823 21.0914 20.2823 20.8822C20.2824 20.7637 20.259 20.6463 20.2134 20.5368C20.1678 20.4273 20.1009 20.3277 20.0166 20.2439ZM26.012 23.4761C25.8632 23.3284 25.6675 23.2365 25.4582 23.2161C25.2489 23.1956 25.0389 23.2478 24.864 23.3639C24.6891 23.4799 24.5602 23.6526 24.4991 23.8525C24.4381 24.0524 24.4487 24.2671 24.5292 24.46C24.6097 24.653 24.7551 24.8123 24.9406 24.9107C25.1261 25.0091 25.3402 25.0407 25.5465 24.9999C25.7528 24.9592 25.9385 24.8486 26.0719 24.6872C26.2054 24.5257 26.2783 24.3233 26.2783 24.1144C26.2784 23.9959 26.2549 23.8785 26.2092 23.7689C26.1635 23.6594 26.0965 23.5599 26.012 23.4761ZM8.0252 20.2439C7.87645 20.0958 7.68058 20.0035 7.47097 19.9827C7.26136 19.962 7.05099 20.0141 6.87572 20.1301C6.70046 20.2461 6.57114 20.4189 6.50982 20.6191C6.4485 20.8192 6.45898 21.0342 6.53945 21.2275C6.61993 21.4208 6.76543 21.5804 6.95115 21.6791C7.13687 21.7778 7.35132 21.8095 7.55794 21.7688C7.76455 21.728 7.95054 21.6174 8.08421 21.4557C8.21788 21.2941 8.29095 21.0914 8.29095 20.8822C8.29108 20.7637 8.26768 20.6463 8.22207 20.5368C8.17647 20.4273 8.10957 20.3277 8.0252 20.2439ZM7.38236 18.8333C7.05436 18.8332 6.73107 18.9108 6.43933 19.0597C6.1476 19.2085 5.89584 19.4244 5.70497 19.6892C5.51409 19.9541 5.38962 20.2604 5.34188 20.5826C5.29414 20.9048 5.32451 21.2337 5.43048 21.5419C5.53644 21.8502 5.71493 22.1288 5.95113 22.3548C6.18733 22.5808 6.47442 22.7476 6.78856 22.8413C7.10269 22.9349 7.4348 22.9529 7.75731 22.8935C8.07982 22.8341 8.38341 22.6992 8.64287 22.5L11.3435 23.7778C11.3253 23.888 11.3162 23.9995 11.3161 24.1111C11.3158 24.3928 11.3741 24.6716 11.4872 24.9299C11.6004 25.1882 11.766 25.4206 11.9737 25.6125C12.1815 25.8043 12.4268 25.9516 12.6945 26.045C12.9621 26.1384 13.2463 26.176 13.5292 26.1554C13.8122 26.1348 14.0878 26.0564 14.3388 25.9252C14.5899 25.794 14.811 25.6127 14.9883 25.3928C15.1656 25.1729 15.2953 24.919 15.3692 24.647C15.4432 24.3751 15.4599 24.0909 15.4182 23.8122L18.0164 22.42C18.4101 22.7618 18.9199 22.9423 19.4426 22.925C19.9653 22.9077 20.4618 22.6938 20.8317 22.3267C20.858 22.3006 20.8838 22.2711 20.9089 22.2461L23.3511 23.6906C23.322 23.8291 23.3074 23.9702 23.3074 24.1117C23.3073 24.4242 23.3793 24.7326 23.5177 25.0132C23.6562 25.2939 23.8575 25.5393 24.1063 25.7308C24.355 25.9222 24.6446 26.0546 24.9528 26.1178C25.2611 26.181 25.5798 26.1732 25.8845 26.0952C26.1893 26.0172 26.472 25.871 26.7111 25.6677C26.9501 25.4644 27.1391 25.2095 27.2637 24.9225C27.3882 24.6355 27.4449 24.324 27.4294 24.0118C27.414 23.6997 27.3268 23.3952 27.1746 23.1217L30.2321 19.3222V20.9128C30.2368 21.0615 30.2996 21.2026 30.4072 21.3062C30.5148 21.4098 30.6588 21.4677 30.8087 21.4677C30.9586 21.4677 31.1025 21.4098 31.2102 21.3062C31.3178 21.2026 31.3806 21.0615 31.3852 20.9128V18.0794C31.3852 17.9281 31.3247 17.783 31.2169 17.676C31.1092 17.569 30.963 17.5089 30.8106 17.5089H27.9573C27.8081 17.5135 27.6665 17.5756 27.5626 17.6821C27.4587 17.7885 27.4006 17.9309 27.4006 18.0792C27.4006 18.2274 27.4587 18.3698 27.5626 18.4763C27.6665 18.5827 27.8081 18.6448 27.9573 18.6494H29.3112L26.3594 22.3167C25.9684 22.1053 25.519 22.0251 25.0784 22.0882C24.6377 22.1513 24.2294 22.3542 23.9145 22.6667L23.8943 22.6872L21.408 21.2189C21.4585 20.9155 21.4396 20.6048 21.3526 20.3097C21.2656 20.0146 21.1128 19.7427 20.9055 19.5143C20.6983 19.2859 20.4418 19.1068 20.1553 18.9902C19.8687 18.8737 19.5594 18.8228 19.2503 18.8412C18.9412 18.8597 18.6403 18.947 18.3698 19.0968C18.0994 19.2465 17.8664 19.4548 17.6881 19.7063C17.5099 19.9577 17.3909 20.2458 17.3402 20.5491C17.2894 20.8524 17.3081 21.1632 17.3948 21.4583L14.937 22.7778C14.9046 22.7406 14.871 22.7044 14.8358 22.6667C14.4491 22.2828 13.9248 22.0672 13.378 22.0672C12.8313 22.0672 12.3069 22.2828 11.9203 22.6667C11.8935 22.6933 11.8677 22.7222 11.8425 22.7483L9.32879 21.5594C9.43719 21.2509 9.46964 20.921 9.42342 20.5974C9.3772 20.2739 9.25366 19.966 9.06313 19.6995C8.87259 19.433 8.62059 19.2157 8.32819 19.0657C8.03579 18.9157 7.71148 18.8373 7.38236 18.8372V18.8333ZM24.4605 34.9444H26.2783V29.0633H24.4605V34.9483V34.9444ZM18.4651 34.9444H20.2823V25.4672H18.4651V34.9483V34.9444ZM12.4692 34.9444H14.2869V29.0633H12.4692V34.9483V34.9444ZM6.47376 34.9444H8.29095V26.2083H6.47376V34.9483V34.9444ZM4.42326 36.0894H28.35C28.4273 36.0918 28.5042 36.0788 28.5762 36.0511C28.6483 36.0234 28.714 35.9816 28.7695 35.9282C28.825 35.8748 28.8691 35.8109 28.8992 35.7403C28.9293 35.6696 28.9448 35.5937 28.9448 35.5169C28.9448 35.4402 28.9293 35.3643 28.8992 35.2936C28.8691 35.223 28.825 35.1591 28.7695 35.1057C28.714 35.0523 28.6483 35.0105 28.5762 34.9828C28.5042 34.9551 28.4273 34.9421 28.35 34.9444H27.4314V28.4911C27.4314 28.3392 27.3706 28.1935 27.2624 28.0861C27.1542 27.9787 27.0075 27.9183 26.8545 27.9183H23.8843C23.7313 27.9185 23.5847 27.9789 23.4765 28.0863C23.3684 28.1936 23.3076 28.3392 23.3074 28.4911V34.9483H21.436V24.8928C21.4358 24.7409 21.375 24.5953 21.2669 24.4879C21.1587 24.3805 21.0121 24.3201 20.8591 24.32H17.8883C17.7354 24.3201 17.5888 24.3806 17.4808 24.488C17.3727 24.5954 17.312 24.741 17.312 24.8928V34.9483H15.44V28.4911C15.44 28.3392 15.3792 28.1935 15.2711 28.0861C15.1629 27.9787 15.0162 27.9183 14.8632 27.9183H11.8929C11.74 27.9185 11.5933 27.9789 11.4852 28.0863C11.377 28.1936 11.3162 28.3392 11.3161 28.4911V34.9483H9.44405V25.6356C9.44405 25.4838 9.38333 25.3382 9.27526 25.2309C9.16719 25.1236 9.02062 25.0633 8.86778 25.0633H5.89693C5.7441 25.0633 5.59752 25.1236 5.48945 25.2309C5.38138 25.3382 5.32067 25.4838 5.32067 25.6356V34.9483H4.4255C4.34827 34.9459 4.27135 34.959 4.1993 34.9867C4.12725 35.0144 4.06154 35.0562 4.00606 35.1096C3.95058 35.163 3.90648 35.2269 3.87635 35.2975C3.84623 35.3682 3.83071 35.4441 3.83071 35.5208C3.83071 35.5976 3.84623 35.6735 3.87635 35.7441C3.90648 35.8148 3.95058 35.8787 4.00606 35.9321C4.06154 35.9855 4.12725 36.0273 4.1993 36.055C4.27135 36.0827 4.34827 36.0957 4.4255 36.0933L4.42326 36.0894ZM13.8371 3.81111C12.1447 3.811 10.5046 4.39361 9.19625 5.45965C7.88792 6.5257 6.99232 8.00923 6.66205 9.65746C6.33177 11.3057 6.58726 13.0167 7.38498 14.4988C8.18269 15.981 9.47328 17.1426 11.0368 17.7858C12.6004 18.429 14.3402 18.514 15.9598 18.0262C17.5793 17.5385 18.9785 16.5082 19.9188 15.1109C20.8591 13.7136 21.2825 12.0358 21.1167 10.3634C20.9508 8.6909 20.2062 7.12727 19.0095 5.93889C18.331 5.26338 17.5248 4.72765 16.6371 4.3625C15.7495 3.99734 14.7979 3.80996 13.8371 3.81111ZM14.4134 4.98278V10.5H19.9718C19.8375 9.08124 19.2088 7.75352 18.194 6.74589C17.1792 5.73825 15.8421 5.11391 14.4134 4.98056V4.98278ZM19.9718 11.6494H13.8371C13.6842 11.6493 13.5375 11.5889 13.4294 11.4815C13.3212 11.3741 13.2604 11.2285 13.2603 11.0767V4.98278C12.0958 5.09176 10.9867 5.52751 10.0624 6.23914C9.13809 6.95077 8.43681 7.90888 8.04048 9.00155C7.64415 10.0942 7.56913 11.2763 7.82419 12.4097C8.07925 13.5432 8.65385 14.5811 9.48087 15.4023C10.3079 16.2235 11.3532 16.7941 12.4946 17.0474C13.636 17.3007 14.8265 17.2262 15.9269 16.8326C17.0273 16.4391 17.9921 15.7427 18.7088 14.8249C19.4255 13.9071 19.8643 12.8057 19.974 11.6494H19.9718Z" fill="white"/>
</svg>
