<svg width="50" height="50" viewBox="0 0 50 50" fill="none" xmlns="http://www.w3.org/2000/svg">
<path d="M42.6627 42.7012C37.8658 47.5085 31.4241 50 24.9515 50C20.2952 50 15.6213 48.7121 11.5253 46.0716C10.578 45.4668 9.67174 44.7856 8.80843 44.0476V45.3454C8.80843 45.821 8.4217 46.2086 7.94706 46.2086C7.47243 46.2086 7.0857 45.821 7.0857 45.3454V42.0902C7.0857 41.6146 7.47243 41.227 7.94706 41.227H11.1952C11.6698 41.227 12.0565 41.6146 12.0565 42.0902C12.0565 42.5659 11.6698 42.9535 11.1952 42.9535H10.1951C10.9198 43.5524 11.6678 44.1161 12.453 44.6172C21.5721 50.495 33.7638 49.176 41.4454 41.4796C49.0315 33.8751 50.4611 22.1486 44.924 12.9607C44.6779 12.5535 44.8087 12.0231 45.215 11.7765C45.6212 11.5298 46.1506 11.661 46.3967 12.0701C52.3457 21.939 50.8108 34.5348 42.6622 42.701L42.6627 42.7012ZM8.55672 8.5215C16.2343 0.823294 28.424 -0.496068 37.5472 5.38384C38.3323 5.88493 39.0823 6.44865 39.805 7.0476H38.805C38.3304 7.0476 37.9436 7.43516 37.9436 7.91082C37.9436 8.38649 38.3303 8.77405 38.805 8.77405H42.055C42.5296 8.77405 42.9164 8.38649 42.9164 7.91082V4.65571C42.9164 4.18007 42.5297 3.79249 42.055 3.79249C41.5804 3.79249 41.1937 4.18005 41.1937 4.65571V5.95343C40.3304 5.21743 39.4241 4.53435 38.4768 3.92948C28.6817 -2.38522 15.584 -0.965888 7.33786 7.3001C-0.810767 15.4663 -2.34579 28.0621 3.6034 37.9311C3.76551 38.1992 4.05067 38.348 4.34171 38.348C4.49406 38.348 4.64641 38.3088 4.78703 38.2247C5.19328 37.978 5.32414 37.4476 5.08 37.0405C-0.461081 27.8505 0.96871 16.124 8.55672 8.5215ZM32.7526 18.0948V31.9057C32.7526 32.3814 32.3659 32.769 31.8912 32.769H18.11C17.6354 32.769 17.2487 32.3814 17.2487 31.9057V21.5473C17.2487 21.3183 17.3405 21.099 17.5006 20.9365L20.946 17.4837C21.1081 17.3213 21.3268 17.2312 21.5554 17.2312H31.8915C32.3661 17.2312 32.7526 17.6191 32.7526 18.0948ZM31.0299 18.958H21.9128L18.9713 21.9058V31.0426H31.03L31.0299 18.958ZM37.3465 16.6561V19.5334H40.1258C40.6005 19.5334 40.9872 19.921 40.9872 20.3967C40.9872 20.8723 40.6005 21.2599 40.1258 21.2599H37.3465V24.1372H40.1258C40.6005 24.1372 40.9872 24.5248 40.9872 25.0005C40.9872 25.4761 40.6005 25.8637 40.1258 25.8637H37.3465V28.741H40.1258C40.6005 28.741 40.9872 29.1286 40.9872 29.6042C40.9872 30.0799 40.6005 30.4675 40.1258 30.4675H37.3465V33.3448H40.1258C40.6005 33.3448 40.9872 33.7324 40.9872 34.208C40.9872 34.6837 40.6005 35.0713 40.1258 35.0713H37.3465V35.359C37.3465 36.4688 36.4441 37.3731 35.3367 37.3731H35.0496V40.1585C35.0496 40.6341 34.6629 41.0217 34.1883 41.0217C33.7136 41.0217 33.3269 40.6341 33.3269 40.1585V37.3731H30.4557V40.1585C30.4557 40.6341 30.069 41.0217 29.5944 41.0217C29.1197 41.0217 28.733 40.6341 28.733 40.1585V37.3731H25.8619V40.1585C25.8619 40.6341 25.4751 41.0217 25.0005 41.0217C24.5259 41.0217 24.1391 40.6341 24.1391 40.1585V37.3731H21.268V40.1585C21.268 40.6341 20.8813 41.0217 20.4066 41.0217C19.932 41.0217 19.5453 40.6341 19.5453 40.1585V37.3731H16.6741V40.1585C16.6741 40.6341 16.2874 41.0217 15.8128 41.0217C15.3381 41.0217 14.9514 40.6341 14.9514 40.1585V37.3731H14.6643C13.5569 37.3731 12.6545 36.4688 12.6545 35.359V35.0713H9.87517C9.40056 35.0713 9.01381 34.6837 9.01381 34.208C9.01381 33.7324 9.40054 33.3448 9.87517 33.3448H12.6545V30.4675H9.87517C9.40056 30.4675 9.01381 30.0799 9.01381 29.6042C9.01381 29.1286 9.40054 28.741 9.87517 28.741H12.6545V25.8637H9.87517C9.40056 25.8637 9.01381 25.4761 9.01381 25.0005C9.01381 24.5248 9.40054 24.1372 9.87517 24.1372H12.6545V21.2599H9.87517C9.40056 21.2599 9.01381 20.8723 9.01381 20.3967C9.01381 19.921 9.40054 19.5334 9.87517 19.5334H12.6545V16.6561H9.87517C9.40056 16.6561 9.01381 16.2685 9.01381 15.7929C9.01381 15.3172 9.40054 14.9297 9.87517 14.9297H12.6545V14.6419C12.6545 13.5321 13.5569 12.6278 14.6643 12.6278H14.9514V9.84245C14.9514 9.36681 15.3381 8.97923 15.8128 8.97923C16.2874 8.97923 16.6741 9.36679 16.6741 9.84245V12.6278H19.5453V9.84245C19.5453 9.36681 19.932 8.97923 20.4066 8.97923C20.8813 8.97923 21.268 9.36679 21.268 9.84245V12.6278H24.1391V9.84245C24.1391 9.36681 24.5259 8.97923 25.0005 8.97923C25.4751 8.97923 25.8619 9.36679 25.8619 9.84245V12.6278H28.733V9.84245C28.733 9.36681 29.1197 8.97923 29.5944 8.97923C30.069 8.97923 30.4557 9.36679 30.4557 9.84245V12.6278H33.3269V9.84245C33.3269 9.36681 33.7136 8.97923 34.1883 8.97923C34.6629 8.97923 35.0496 9.36679 35.0496 9.84245V12.6278H35.3367C36.4441 12.6278 37.3465 13.5321 37.3465 14.6419V14.9297H40.1258C40.6005 14.9297 40.9872 15.3172 40.9872 15.7929C40.9872 16.2685 40.6005 16.6561 40.1258 16.6561H37.3465ZM35.6238 14.642C35.6238 14.4834 35.4949 14.3542 35.3367 14.3542H14.6644C14.5062 14.3542 14.3773 14.4834 14.3773 14.642V35.3589C14.3773 35.5175 14.5062 35.6467 14.6644 35.6467H35.3367C35.4949 35.6467 35.6238 35.5175 35.6238 35.3589V14.642Z" fill="white"/>
</svg>
