<svg width="32" height="32" viewBox="0 0 32 32" fill="none" xmlns="http://www.w3.org/2000/svg">
<path d="M26.2857 11.4288C26.2857 17.1202 16 30.8574 16 30.8574C16 30.8574 5.71429 17.1202 5.71429 11.4288C5.71429 8.70084 6.79796 6.08463 8.72691 4.15568C10.6559 2.22674 13.2721 1.14307 16 1.14307C18.7279 1.14307 21.3442 2.22674 23.2731 4.15568C25.2021 6.08463 26.2857 8.70084 26.2857 11.4288V11.4288Z" stroke="white" stroke-linecap="round" stroke-linejoin="round"/>
<path d="M16 14.8571C17.8936 14.8571 19.4286 13.3221 19.4286 11.4286C19.4286 9.53502 17.8936 8 16 8C14.1065 8 12.5714 9.53502 12.5714 11.4286C12.5714 13.3221 14.1065 14.8571 16 14.8571Z" stroke="white" stroke-linecap="round" stroke-linejoin="round"/>
</svg>
