<svg width="72" height="72" viewBox="0 0 72 72" fill="none" xmlns="http://www.w3.org/2000/svg">
<path fill-rule="evenodd" clip-rule="evenodd" d="M35.5002 54.4928C35.0568 54.4928 34.6539 54.3136 34.3628 54.0225C34.0717 53.7314 33.8924 53.3285 33.8924 52.8851C33.8924 52.4417 34.0717 52.0388 34.3628 51.7477C34.6539 51.4566 35.0549 51.2773 35.5002 51.2773C35.9436 51.2773 36.3465 51.4566 36.6376 51.7477C36.9287 52.0387 37.108 52.4397 37.108 52.8851C37.108 53.3284 36.9287 53.7313 36.6376 54.0225C36.3465 54.3136 35.9436 54.4928 35.5002 54.4928ZM52.825 52.8253C52.3758 53.2745 51.7859 53.5 51.196 53.5C50.6061 53.5 50.0181 53.2745 49.567 52.8253C49.1178 52.3761 48.8923 51.7862 48.8923 51.1963C48.8923 50.6064 49.1178 50.0165 49.567 49.5673C50.0162 49.1181 50.6061 48.8926 51.196 48.8926C51.7859 48.8926 52.3758 49.1181 52.825 49.5673C53.2741 50.0165 53.4997 50.6064 53.4997 51.1963C53.4997 51.7843 53.2741 52.3742 52.825 52.8253ZM51.196 52.434C51.5121 52.434 51.8302 52.3125 52.0712 52.0715C52.3121 51.8306 52.4336 51.5125 52.4336 51.1963C52.4336 50.8802 52.3121 50.5621 52.0712 50.3211C51.8302 50.0802 51.5121 49.9587 51.196 49.9587C50.8798 49.9587 50.5617 50.0802 50.3208 50.3211C50.0798 50.5621 49.9584 50.8802 49.9584 51.1963C49.9584 51.5125 50.0798 51.8306 50.3208 52.0715C50.5618 52.3125 50.8779 52.434 51.196 52.434ZM48.9309 48.9311C49.2451 48.6169 49.4012 48.2063 49.4012 47.7937C49.4012 47.3812 49.2432 46.9706 48.9309 46.6563C48.6166 46.3421 48.206 46.186 47.7935 46.186C47.3809 46.186 46.9703 46.344 46.6561 46.6563C46.3418 46.9706 46.1857 47.3812 46.1857 47.7937C46.1857 48.2063 46.3438 48.6169 46.6561 48.9311C46.9703 49.2454 47.3809 49.4015 47.7935 49.4015C48.2041 49.4015 48.6166 49.2454 48.9309 48.9311ZM47.7935 48.3355C47.6547 48.3355 47.5159 48.2834 47.4098 48.1755C47.3038 48.0694 47.2498 47.9306 47.2498 47.7918C47.2498 47.653 47.3019 47.5142 47.4098 47.4082C47.5159 47.3022 47.6547 47.2501 47.7935 47.2501C47.9323 47.2501 48.0711 47.3022 48.1771 47.4082C48.2831 47.5142 48.3352 47.653 48.3352 47.7918C48.3352 47.9306 48.2831 48.0694 48.1771 48.1755C48.0711 48.2834 47.9323 48.3355 47.7935 48.3355ZM60 35.5002C60 36.1364 59.7417 36.7127 59.3253 37.1292C58.9089 37.5456 58.3325 37.8039 57.6963 37.8039C57.0601 37.8039 56.4837 37.5456 56.0673 37.1292C55.6509 36.7128 55.3926 36.1364 55.3926 35.5002C55.3926 34.864 55.6509 34.2876 56.0673 33.8712C56.4837 33.4548 57.0601 33.1964 57.6963 33.1964C58.3325 33.1964 58.9088 33.4548 59.3253 33.8712C59.7417 34.2876 60 34.864 60 35.5002ZM58.5734 36.3754C58.7971 36.1517 58.9359 35.8414 58.9359 35.5002C58.9359 35.159 58.7971 34.8486 58.5734 34.625C58.3498 34.4014 58.0395 34.2626 57.6983 34.2626C57.357 34.2626 57.0467 34.4014 56.8231 34.625C56.5994 34.8486 56.4606 35.159 56.4606 35.5002C56.4606 35.8433 56.5994 36.1518 56.8231 36.3754C57.0467 36.599 57.357 36.7378 57.6983 36.7378C58.0395 36.7378 58.3479 36.6009 58.5734 36.3754ZM54.4923 35.5002C54.4923 35.9436 54.3131 36.3465 54.022 36.6376C53.7309 36.9287 53.3299 37.108 52.8846 37.108C52.4412 37.108 52.0383 36.9287 51.7472 36.6376C51.4561 36.3465 51.2768 35.9455 51.2768 35.5002C51.2768 35.0568 51.4561 34.6539 51.7472 34.3628C52.0383 34.0717 52.4411 33.8924 52.8846 33.8924C53.328 33.8924 53.7308 34.0717 54.022 34.3628C54.3131 34.6539 54.4923 35.0568 54.4923 35.5002ZM53.2682 35.8838C53.3665 35.7855 53.4282 35.6505 53.4282 35.5002C53.4282 35.3498 53.3665 35.2149 53.2682 35.1165C53.1699 35.0182 53.0349 34.9585 52.8846 34.9585C52.7342 34.9585 52.5993 35.0182 52.5009 35.1165C52.4026 35.2149 52.3409 35.3498 52.3409 35.5002C52.3409 35.6505 52.4026 35.7855 52.5009 35.8838C52.5993 35.9821 52.7342 36.0419 52.8846 36.0419C53.0349 36.0438 53.1699 35.9821 53.2682 35.8838ZM52.8248 18.175C53.274 18.6242 53.4995 19.2141 53.4995 19.804C53.4995 20.3939 53.274 20.9838 52.8248 21.433C52.3756 21.8822 51.7857 22.1078 51.1958 22.1078C50.6059 22.1078 50.0179 21.8822 49.5668 21.433C49.1176 20.9839 48.8921 20.3939 48.8921 19.804C48.8921 19.2141 49.1176 18.6262 49.5668 18.175C50.016 17.7259 50.6059 17.5003 51.1958 17.5003C51.7838 17.5003 52.3737 17.7259 52.8248 18.175ZM52.4335 19.804C52.4335 19.4879 52.312 19.1698 52.071 18.9288C51.8301 18.6879 51.512 18.5664 51.1958 18.5664C50.8797 18.5664 50.5616 18.6879 50.3206 18.9288C50.0797 19.1698 49.9582 19.4879 49.9582 19.804C49.9582 20.1202 50.0797 20.4383 50.3206 20.6792C50.5616 20.9202 50.8797 21.0417 51.1958 21.0417C51.512 21.0417 51.8301 20.9202 52.071 20.6792C52.312 20.4383 52.4335 20.1221 52.4335 19.804ZM48.9306 22.0692C48.6164 21.7549 48.2058 21.5988 47.7932 21.5988C47.3807 21.5988 46.9701 21.7569 46.6559 22.0692C46.3416 22.3834 46.1855 22.794 46.1855 23.2066C46.1855 23.6191 46.3436 24.0297 46.6559 24.344C46.9701 24.6582 47.3807 24.8143 47.7932 24.8143C48.2058 24.8143 48.6164 24.6563 48.9306 24.344C49.2449 24.0297 49.401 23.6191 49.401 23.2066C49.401 22.7959 49.243 22.3834 48.9306 22.0692ZM48.335 23.2066C48.335 23.3454 48.2829 23.4842 48.175 23.5902C48.0689 23.6962 47.9301 23.7483 47.7913 23.7483C47.6525 23.7483 47.5137 23.6962 47.4077 23.5883C47.3017 23.4822 47.2477 23.3434 47.2477 23.2046C47.2477 23.0658 47.2998 22.927 47.4077 22.821C47.5137 22.715 47.6525 22.6629 47.7913 22.6629C47.9301 22.6629 48.0689 22.715 48.175 22.821C48.2829 22.929 48.335 23.0678 48.335 23.2066ZM35.4997 11C36.1359 11 36.7123 11.2583 37.1287 11.6747C37.5451 12.0911 37.8034 12.6675 37.8034 13.3037C37.8034 13.9399 37.5451 14.5163 37.1287 14.9327C36.7123 15.3491 36.1359 15.6074 35.4997 15.6074C34.8635 15.6074 34.2871 15.3491 33.8707 14.9327C33.4543 14.5163 33.196 13.9399 33.196 13.3037C33.196 12.6675 33.4543 12.0912 33.8707 11.6747C34.2871 11.2564 34.8635 11 35.4997 11ZM36.3749 12.4266C36.1513 12.2029 35.8409 12.0641 35.4997 12.0641C35.1585 12.0641 34.8481 12.2029 34.6245 12.4266C34.4009 12.6502 34.2621 12.9605 34.2621 13.3017C34.2621 13.643 34.4009 13.9533 34.6245 14.1769C34.8481 14.4006 35.1585 14.5394 35.4997 14.5394C35.8409 14.5394 36.1513 14.4006 36.3749 14.1769C36.5985 13.9533 36.7373 13.643 36.7373 13.3017C36.7373 12.9605 36.6004 12.6521 36.3749 12.4266ZM25.5601 30.351C25.7316 30.5225 25.7625 30.7789 25.6526 30.9813C25.5967 31.1028 25.5427 31.2262 25.4907 31.3534C25.4405 31.4768 25.3904 31.604 25.3422 31.7332C25.2747 31.951 25.0723 32.111 24.8333 32.111H22.7744C22.5373 32.111 22.3214 32.2074 22.1652 32.3655C22.0091 32.5216 21.9108 32.7376 21.9108 32.9747V38.0233C21.9108 38.2604 22.0072 38.4764 22.1652 38.6325C22.3214 38.7887 22.5373 38.887 22.7744 38.887H24.8333C25.0743 38.887 25.2767 39.0451 25.3422 39.2648C25.3904 39.3959 25.4405 39.5232 25.4907 39.6446C25.5427 39.7718 25.5967 39.8952 25.6526 40.0167C25.7625 40.2191 25.7316 40.4774 25.5601 40.647L24.1046 42.1025C23.9369 42.2702 23.854 42.4919 23.854 42.7136C23.854 42.9353 23.9369 43.157 24.1046 43.3247L27.6749 46.895C27.8426 47.0627 28.0643 47.1456 28.286 47.1456C28.5077 47.1456 28.7294 47.0608 28.8971 46.895L30.3526 45.4395C30.5222 45.2699 30.7805 45.2371 30.9829 45.347C31.1044 45.4029 31.2277 45.4569 31.355 45.5089C31.4784 45.561 31.6056 45.6092 31.7348 45.6593C31.9526 45.7268 32.1126 45.9292 32.1126 46.1682V48.2271C32.1126 48.4642 32.209 48.6801 32.3671 48.8363C32.5232 48.9925 32.7391 49.0908 32.9763 49.0908H38.0249C38.262 49.0908 38.4779 48.9944 38.6341 48.8363C38.7902 48.6801 38.8886 48.4642 38.8886 48.2271V46.1682C38.8886 45.9272 39.0466 45.7248 39.2664 45.6593C39.3975 45.6111 39.5247 45.561 39.6481 45.5109C39.7753 45.4588 39.8987 45.4048 40.0202 45.3489C40.2226 45.2391 40.4809 45.2699 40.6505 45.4415L42.106 46.8969C42.2737 47.0647 42.4954 47.1476 42.7171 47.1476C42.9388 47.1476 43.1605 47.0627 43.3282 46.8969L46.8985 43.3267C47.0662 43.159 47.1491 42.9373 47.1491 42.7155C47.1491 42.4939 47.0643 42.2722 46.8985 42.1044L45.443 40.649C45.2734 40.4793 45.2425 40.221 45.3505 40.0186C45.4064 39.8971 45.4604 39.7738 45.5124 39.6465C45.5626 39.5232 45.6127 39.3959 45.6609 39.2668C45.7283 39.0489 45.9308 38.8889 46.1698 38.8889H48.2287C48.4658 38.8889 48.6817 38.7925 48.8379 38.6344C48.994 38.4783 49.0923 38.2624 49.0923 38.0252V32.9766C49.0923 32.7395 48.9959 32.5236 48.8379 32.3674C48.6817 32.2113 48.4658 32.1129 48.2287 32.1129H46.1698C45.9288 32.1129 45.7264 31.9549 45.6609 31.7351C45.6127 31.604 45.5626 31.4768 45.5124 31.3553C45.4604 31.23 45.4064 31.1047 45.3505 30.9833C45.2406 30.7808 45.2715 30.5244 45.443 30.3529L46.8985 28.8974C47.0662 28.7297 47.1491 28.508 47.1491 28.2863C47.1491 28.0646 47.0662 27.8429 46.8985 27.6752L43.3282 24.1068C43.1605 23.9391 42.9388 23.8562 42.7171 23.8562C42.4954 23.8562 42.2737 23.9411 42.106 24.1068L40.6505 25.5623C40.479 25.7339 40.2226 25.7647 40.0202 25.6548C39.8987 25.5989 39.7753 25.545 39.6481 25.4929C39.5247 25.4428 39.3975 25.3927 39.2664 25.3445C39.0486 25.277 38.8886 25.0746 38.8886 24.8356V22.7767C38.8886 22.5396 38.7922 22.3236 38.6341 22.1675C38.4779 22.0113 38.262 21.913 38.0249 21.913H32.9763C32.7391 21.913 32.5232 22.0094 32.3671 22.1675C32.2109 22.3236 32.1126 22.5395 32.1126 22.7767V24.8356C32.1126 25.0765 31.9545 25.279 31.7348 25.3445C31.6037 25.3927 31.4764 25.4428 31.3531 25.4929C31.2277 25.545 31.1024 25.5989 30.981 25.6548C30.7786 25.7647 30.5203 25.7339 30.3506 25.5623L28.8952 24.1068C28.7274 23.9391 28.5057 23.8562 28.284 23.8562C28.0623 23.8562 27.8407 23.9411 27.6729 24.1068L24.1027 27.6752C23.9349 27.8429 23.852 28.0646 23.852 28.2863C23.852 28.508 23.9349 28.7297 24.1027 28.8974L25.5601 30.351ZM24.5499 30.8464C24.5364 30.8792 24.521 30.912 24.5075 30.9467C24.494 30.9794 24.4786 31.0141 24.467 31.0469H22.7725C22.2404 31.0469 21.7584 31.2628 21.4095 31.6136C21.0606 31.9626 20.8428 32.4465 20.8428 32.9766V38.0252C20.8428 38.5554 21.0587 39.0393 21.4095 39.3882C21.7585 39.7371 22.2423 39.9549 22.7725 39.9549H24.467C24.4805 39.9877 24.494 40.0224 24.5075 40.0552C24.521 40.0879 24.5345 40.1207 24.5499 40.1554L23.3508 41.3506C22.9749 41.7266 22.7879 42.2201 22.7879 42.7155C22.7879 43.209 22.9749 43.7045 23.3508 44.0784L26.9211 47.6487C27.297 48.0246 27.7905 48.2116 28.2859 48.2116C28.7794 48.2116 29.2749 48.0246 29.6508 47.6487L30.8479 46.4496C30.8807 46.4631 30.9154 46.4785 30.9482 46.492C30.981 46.5055 31.0157 46.519 31.0484 46.5325V48.2271C31.0484 48.7591 31.2643 49.2411 31.6152 49.59C31.9641 49.9389 32.4461 50.1567 32.9781 50.1567H38.0268C38.5569 50.1567 39.0408 49.9408 39.3897 49.59C39.7386 49.2411 39.9564 48.7591 39.9564 48.2271V46.5325C39.9892 46.519 40.0239 46.5055 40.0567 46.492C40.0894 46.4785 40.1242 46.465 40.1569 46.4496L41.3502 47.6487C41.7262 48.0246 42.2197 48.2116 42.7151 48.2116C43.2086 48.2116 43.704 48.0246 44.08 47.6487L47.6502 44.0784C48.0261 43.7025 48.2131 43.209 48.2131 42.7155C48.2131 42.222 48.0261 41.7266 47.6502 41.3506L46.4531 40.1535C46.4666 40.1207 46.482 40.086 46.4955 40.0532C46.509 40.0205 46.5225 39.9858 46.536 39.953H48.2305C48.7606 39.953 49.2445 39.7371 49.5934 39.3862C49.9423 39.0373 50.1602 38.5534 50.1602 38.0233V32.9747C50.1602 32.4426 49.9442 31.9606 49.5934 31.6117C49.2445 31.2628 48.7606 31.045 48.2305 31.045H46.536C46.5225 31.0122 46.509 30.9775 46.4955 30.9447C46.482 30.912 46.4666 30.8792 46.4531 30.8445L47.6483 29.6492C48.0242 29.2733 48.2112 28.7798 48.2112 28.2844C48.2112 27.7909 48.0242 27.2954 47.6483 26.9195L44.078 23.3492C43.7021 22.9733 43.2086 22.7863 42.7151 22.7863C42.2216 22.7863 41.7261 22.9733 41.3502 23.3492L40.1531 24.5464C40.1203 24.5329 40.0856 24.5175 40.0528 24.504C40.0201 24.4905 39.9853 24.4751 39.9526 24.4635V22.769C39.9526 22.2389 39.7367 21.755 39.3858 21.406C39.0369 21.0571 38.553 20.8393 38.0229 20.8393H32.9743C32.4422 20.8393 31.9602 21.0552 31.6113 21.406C31.2624 21.755 31.0446 22.2389 31.0446 22.769V24.4635C31.0118 24.477 30.9771 24.4905 30.9443 24.504C30.9116 24.5175 30.8788 24.531 30.8441 24.5464L29.6489 23.3531C29.2729 22.9772 28.7794 22.7902 28.284 22.7902C27.7905 22.7902 27.295 22.9772 26.9191 23.3531L23.3489 26.9214C22.9729 27.2974 22.786 27.7909 22.786 28.2863C22.786 28.7798 22.973 29.2753 23.3489 29.6512L24.5499 30.8464ZM18.1747 18.1749C18.6239 17.7258 19.2138 17.5002 19.8037 17.5002C20.3936 17.5002 20.9835 17.7258 21.4327 18.1749C21.8818 18.6241 22.1074 19.214 22.1074 19.8039C22.1074 20.3938 21.8818 20.9837 21.4327 21.4329C20.9835 21.8821 20.3936 22.1077 19.8037 22.1077C19.2138 22.1077 18.6239 21.8821 18.1747 21.4329C17.7255 20.9838 17.5 20.3938 17.5 19.8039C17.5 19.216 17.7255 18.6261 18.1747 18.1749ZM19.8037 18.5663C20.1198 18.5663 20.4379 18.6877 20.6789 18.9287C20.9198 19.1697 21.0413 19.4878 21.0413 19.8039C21.0413 20.1201 20.9198 20.4382 20.6789 20.6791C20.4379 20.92 20.1198 21.0415 19.8037 21.0415C19.4875 21.0415 19.1694 20.9201 18.9285 20.6791C18.6875 20.4381 18.566 20.1201 18.566 19.8039C18.566 19.4878 18.6875 19.1697 18.9285 18.9287C19.1695 18.6878 19.4875 18.5663 19.8037 18.5663ZM35.4998 16.5074C35.9432 16.5074 36.3461 16.6867 36.6372 16.9778C36.9283 17.2689 37.1076 17.6698 37.1076 18.1152C37.1076 18.5586 36.9283 18.9615 36.6372 19.2526C36.3462 19.5437 35.9452 19.723 35.4998 19.723C35.0565 19.723 34.6536 19.5437 34.3624 19.2526C34.0714 18.9615 33.8921 18.5605 33.8921 18.1152C33.8921 17.6718 34.0714 17.2689 34.3624 16.9778C34.6535 16.6867 35.0564 16.5074 35.4998 16.5074ZM35.8835 17.7316C35.7852 17.6332 35.6502 17.5735 35.4998 17.5735C35.3495 17.5735 35.2145 17.6352 35.1162 17.7316C35.0179 17.8299 34.9581 17.9648 34.9581 18.1152C34.9581 18.2656 35.0179 18.4005 35.1162 18.4988C35.2145 18.5971 35.3495 18.6569 35.4998 18.6569C35.6502 18.6569 35.7852 18.5971 35.8835 18.4988C35.9818 18.4005 36.0415 18.2656 36.0415 18.1152C36.0435 17.9648 35.9818 17.8299 35.8835 17.7316ZM35.4998 29.8379C36.2825 29.8379 36.9919 30.156 37.5047 30.6688C38.0176 31.1816 38.3356 31.8911 38.3356 32.6737C38.3356 33.4352 38.0349 34.1273 37.5471 34.6362C38.0252 34.8059 38.4532 35.0796 38.8041 35.4305C39.4133 36.0397 39.7911 36.8783 39.7911 37.8036V40.1054C39.7911 40.3946 39.6716 40.6587 39.4807 40.8514L39.4788 40.8534C39.2879 41.0442 39.0238 41.1637 38.7327 41.1637H32.2667C31.9776 41.1637 31.7135 41.0462 31.5207 40.8534L31.5188 40.8514C31.3279 40.6606 31.2084 40.3965 31.2084 40.1054V37.8036C31.2084 36.8783 31.5862 36.0397 32.1954 35.4305C32.5463 35.0796 32.9762 34.804 33.4523 34.6362C32.9646 34.1273 32.6639 33.4352 32.6639 32.6737C32.6639 31.8911 32.9819 31.1816 33.4947 30.6688C34.0075 30.1541 34.7172 29.8379 35.4998 29.8379ZM36.7529 31.4206C37.0729 31.7407 37.2715 32.1841 37.2715 32.6737C37.2715 33.1634 37.0729 33.6048 36.7529 33.9268C36.4329 34.2468 35.9895 34.4454 35.4998 34.4454C35.0102 34.4454 34.5687 34.2468 34.2468 33.9268C33.9268 33.6068 33.7282 33.1634 33.7282 32.6737C33.7282 32.1841 33.9267 31.7426 34.2468 31.4206C34.5668 31.1006 35.0102 30.9021 35.4998 30.9021C35.9895 30.9021 36.431 31.1006 36.7529 31.4206ZM22.0689 22.0691C22.3832 21.7548 22.7938 21.5987 23.2063 21.5987C23.6189 21.5987 24.0295 21.7568 24.3437 22.0691C24.658 22.3833 24.8141 22.7939 24.8141 23.2065C24.8141 23.619 24.656 24.0296 24.3437 24.3439C24.0295 24.6581 23.6189 24.8142 23.2063 24.8142C22.7938 24.8142 22.3832 24.6562 22.0689 24.3439C21.7547 24.0296 21.5986 23.619 21.5986 23.2065C21.5986 22.7958 21.7566 22.3833 22.0689 22.0691ZM23.2063 22.6647C23.3451 22.6647 23.4839 22.7168 23.59 22.8228C23.696 22.9288 23.748 23.0676 23.748 23.2064C23.748 23.3452 23.696 23.484 23.588 23.5901C23.482 23.6961 23.3432 23.7481 23.2044 23.7481C23.0656 23.7481 22.9268 23.6961 22.8208 23.5901C22.7148 23.484 22.6627 23.3452 22.6627 23.2064C22.6627 23.0676 22.7148 22.9288 22.8208 22.8228C22.9287 22.7168 23.0675 22.6647 23.2063 22.6647ZM36.961 37.63V40.0976H34.0385V37.63C34.0385 37.3351 33.7995 37.098 33.5065 37.098C33.2115 37.098 32.9744 37.337 32.9744 37.63V40.0976H32.2746V37.8036C32.2746 37.1732 32.5329 36.6006 32.9493 36.1842C33.3657 35.7679 33.9383 35.5095 34.5686 35.5095H36.4309C37.0612 35.5095 37.6338 35.7678 38.0502 36.1842C38.4665 36.6006 38.7249 37.1732 38.7249 37.8036V40.0976H38.0251V37.63C38.0251 37.3351 37.7861 37.098 37.493 37.098C37.2 37.0961 36.961 37.3351 36.961 37.63ZM16.5074 35.4998C16.5074 35.0564 16.6867 34.6536 16.9778 34.3624C17.2689 34.0713 17.6698 33.8921 18.1152 33.8921C18.5586 33.8921 18.9615 34.0713 19.2526 34.3624C19.5437 34.6535 19.723 35.0545 19.723 35.4998C19.723 35.9432 19.5437 36.3461 19.2526 36.6372C18.9615 36.9283 18.5605 37.1076 18.1152 37.1076C17.6718 37.1076 17.2689 36.9283 16.9778 36.6372C16.6867 36.3461 16.5074 35.9433 16.5074 35.4998ZM17.7316 35.1162C17.6332 35.2145 17.5735 35.3495 17.5735 35.4998C17.5735 35.6502 17.6332 35.7851 17.7316 35.8835C17.8299 35.9818 17.9648 36.0415 18.1152 36.0415C18.2656 36.0415 18.4005 35.9818 18.4988 35.8835C18.5971 35.7851 18.6569 35.6502 18.6569 35.4998C18.6569 35.3495 18.5971 35.2145 18.4988 35.1162C18.4005 35.0179 18.2655 34.9581 18.1152 34.9581C17.9648 34.9562 17.8299 35.0179 17.7316 35.1162ZM18.175 52.825C17.7258 52.3758 17.5002 51.7859 17.5002 51.196C17.5002 50.6061 17.7258 50.0162 18.175 49.567C18.6241 49.1178 19.214 48.8922 19.8039 48.8922C20.3938 48.8922 20.9837 49.1178 21.4329 49.567C21.8821 50.0162 22.1077 50.6061 22.1077 51.196C22.1077 51.7859 21.8821 52.3738 21.4329 52.825C20.9837 53.2741 20.3938 53.4997 19.8039 53.4997C19.216 53.4997 18.6261 53.2741 18.175 52.825ZM18.5663 51.196C18.5663 50.8798 18.6877 50.5617 18.9287 50.3208C19.1697 50.0798 19.4878 49.9583 19.8039 49.9583C20.1201 49.9583 20.4382 50.0798 20.6791 50.3208C20.92 50.5617 21.0415 50.8798 21.0415 51.196C21.0415 51.5121 20.9201 51.8302 20.6791 52.0712C20.4381 52.3121 20.1201 52.4336 19.8039 52.4336C19.4878 52.4336 19.1697 52.3121 18.9287 52.0712C18.6858 51.8302 18.5663 51.5121 18.5663 51.196ZM22.0691 48.9308C21.7549 48.6166 21.5987 48.206 21.5987 47.7934C21.5987 47.3809 21.7568 46.9703 22.0691 46.656C22.3833 46.3418 22.794 46.1857 23.2065 46.1857C23.619 46.1857 24.0297 46.3437 24.3439 46.656C24.6581 46.9703 24.8143 47.3809 24.8143 47.7934C24.8143 48.206 24.6562 48.6166 24.3439 48.9308C24.0297 49.2451 23.619 49.4012 23.2065 49.4012C22.7959 49.4012 22.3833 49.2451 22.0691 48.9308ZM22.6648 47.7934C22.6648 47.6546 22.7168 47.5158 22.8228 47.4098C22.9289 47.3038 23.0677 47.2517 23.2065 47.2517C23.3453 47.2517 23.4841 47.3038 23.5901 47.4098C23.6961 47.5158 23.7482 47.6546 23.7482 47.7934C23.7482 47.9322 23.6961 48.071 23.5882 48.1771C23.4821 48.2831 23.3433 48.3351 23.2045 48.3351C23.0657 48.3351 22.9269 48.2831 22.8209 48.1771C22.7168 48.071 22.6648 47.9322 22.6648 47.7934ZM27.3281 35.5C27.3281 33.2445 28.2438 31.2011 29.7224 29.7205C31.201 28.2419 33.2444 27.3281 35.5019 27.3281C37.7574 27.3281 39.8009 28.2438 41.2795 29.7205C42.7581 31.1991 43.6738 33.2425 43.6738 35.5C43.6738 37.7555 42.7581 39.799 41.2795 41.2795C39.8009 42.7582 37.7574 43.6739 35.5019 43.6739C33.2464 43.6739 31.203 42.7582 29.7224 41.2795C28.2419 39.799 27.3281 37.7556 27.3281 35.5ZM30.4742 30.4741C31.7601 29.1882 33.5374 28.392 35.5001 28.392C37.4628 28.392 39.24 29.1882 40.5261 30.4741C41.8119 31.7599 42.6081 33.5373 42.6081 35.5C42.6081 37.4627 41.8119 39.2399 40.5261 40.526C39.2402 41.8118 37.4628 42.608 35.5001 42.608C33.5374 42.608 31.7603 41.8118 30.4742 40.526C29.1884 39.2401 28.3922 37.4627 28.3922 35.5C28.3941 33.5375 29.1884 31.7601 30.4742 30.4741ZM35.5001 60C34.864 60 34.2876 59.7417 33.8712 59.3253C33.4547 58.9089 33.1964 58.3325 33.1964 57.6963C33.1964 57.0601 33.4548 56.4837 33.8712 56.0673C34.2876 55.6509 34.864 55.3926 35.5001 55.3926C36.1363 55.3926 36.7127 55.6509 37.1291 56.0673C37.5456 56.4837 37.8039 57.0601 37.8039 57.6963C37.8039 58.3325 37.5455 58.9088 37.1291 59.3253C36.7127 59.7417 36.1363 60 35.5001 60ZM34.625 58.5735C34.8486 58.7971 35.1589 58.9359 35.5001 58.9359C35.8433 58.9359 36.1517 58.7971 36.3753 58.5735C36.599 58.3498 36.7378 58.0395 36.7378 57.6983C36.7378 57.357 36.599 57.0467 36.3753 56.8231C36.1517 56.5994 35.8414 56.4606 35.5001 56.4606C35.1589 56.4606 34.8486 56.5994 34.625 56.8231C34.4013 57.0467 34.2625 57.357 34.2625 57.6983C34.2625 58.0395 34.3994 58.3479 34.625 58.5735ZM11 35.4997C11 34.8635 11.2583 34.2872 11.6747 33.8707C12.0911 33.4543 12.6675 33.196 13.3037 33.196C13.9399 33.196 14.5163 33.4543 14.9327 33.8707C15.3491 34.2871 15.6074 34.8635 15.6074 35.4997C15.6074 36.1359 15.3491 36.7123 14.9327 37.1287C14.5163 37.5451 13.9399 37.8034 13.3037 37.8034C12.6675 37.8034 12.0912 37.5451 11.6747 37.1287C11.2564 36.7123 11 36.1359 11 35.4997ZM12.4265 34.6245C12.2029 34.8481 12.0641 35.1585 12.0641 35.4997C12.0641 35.8409 12.2029 36.1513 12.4265 36.3749C12.6502 36.5985 12.9605 36.7373 13.3017 36.7373C13.643 36.7373 13.9533 36.5985 14.1769 36.3749C14.4006 36.1513 14.5394 35.8409 14.5394 35.4997C14.5394 35.1585 14.4006 34.8481 14.1769 34.6245C13.9533 34.4009 13.643 34.2621 13.3017 34.2621C12.9605 34.2621 12.6521 34.399 12.4265 34.6245ZM35.1168 53.268C35.2151 53.3663 35.35 53.428 35.5004 53.428C35.6508 53.428 35.7857 53.3663 35.884 53.268C35.9824 53.1697 36.0421 53.0347 36.0421 52.8844C36.0421 52.734 35.9804 52.599 35.884 52.5007C35.7857 52.4024 35.6508 52.3407 35.5004 52.3407C35.35 52.3407 35.2151 52.4024 35.1168 52.5007C35.0185 52.599 34.9587 52.734 34.9587 52.8844C34.9568 53.0347 35.0185 53.1697 35.1168 53.268Z" fill="white"/>
</svg>
