<svg width="72" height="72" viewBox="0 0 72 72" fill="none" xmlns="http://www.w3.org/2000/svg">
<path fill-rule="evenodd" clip-rule="evenodd" d="M17 54.4644V17.3044C17 17.3333 17 17.36 17.0023 17.3889C17.0045 17.3355 17.009 17.2822 17.0135 17.2288C17.0158 17.2088 17.018 17.1888 17.0203 17.1688C17.1531 15.9284 17.9547 14.7192 19.4071 13.6833C22.4266 11.5316 28.4951 10 35.5 10C42.5048 10 48.5758 11.5316 51.5929 13.6833C53.1016 14.7592 53.9099 16.0218 53.9932 17.3111L54 17.3044V54.4644C54 55.8337 53.1871 57.1785 51.5929 58.3167C48.5734 60.4684 42.5048 62 35.5 62C28.4952 62 22.4241 60.4684 19.4071 58.3167C17.8129 57.1808 17 55.8337 17 54.4644ZM51.7435 17.3932C51.7007 16.9908 51.48 16.6107 51.1491 16.244C50.6515 15.6927 49.9197 15.1903 49.01 14.7324C45.9634 13.1964 41.0436 12.2228 35.4995 12.2228C29.958 12.2228 25.036 13.1964 21.989 14.7324C21.0793 15.1926 20.3475 15.6927 19.8499 16.244C19.4806 16.6552 19.2487 17.0798 19.2487 17.5354C19.2487 17.9911 19.4806 18.4157 19.8499 18.8269C20.3475 19.3782 21.0793 19.8806 21.989 20.3385C25.0356 21.8745 29.9553 22.8481 35.4995 22.8481C41.0409 22.8481 45.9629 21.8745 49.01 20.3385C49.9197 19.8783 50.6515 19.3782 51.1491 18.8269C51.5184 18.4157 51.7503 17.9911 51.7503 17.5354C51.7503 17.4977 51.748 17.4599 51.7458 17.4221C51.7458 17.4132 51.7435 17.4021 51.7435 17.3932ZM19.2493 21.2721V29.6902C19.2493 30.1459 19.4812 30.5704 19.8505 30.9816C20.3481 31.5329 21.0799 32.0353 21.9896 32.4932C25.0362 34.0292 29.9559 35.0028 35.5001 35.0028C41.0415 35.0028 45.9635 34.0292 49.0106 32.4932C49.9202 32.033 50.6521 31.5329 51.1497 30.9816C51.5189 30.5704 51.7509 30.1458 51.7509 29.6902V21.2721C51.6991 21.3099 51.6473 21.3477 51.5955 21.3855C48.576 23.5372 42.5074 25.0688 35.5026 25.0688C28.4977 25.0688 22.4267 23.5373 19.4097 21.3855C19.3556 21.3477 19.3038 21.3099 19.2543 21.2721H19.2493ZM51.7504 33.4289C51.6986 33.4667 51.6468 33.5045 51.5951 33.5422C48.5755 35.694 42.507 37.2256 35.5021 37.2256C28.4973 37.2256 22.4263 35.694 19.4092 33.5422C19.3552 33.5045 19.3034 33.4667 19.2538 33.4289V42.078C19.2538 42.5337 19.4858 42.9583 19.8551 43.3695C20.3527 43.9207 21.0845 44.4231 21.9942 44.881C25.0407 46.417 29.9605 47.3906 35.5046 47.3906C41.0461 47.3906 45.9681 46.417 49.0151 44.881C49.9248 44.4209 50.6567 43.9207 51.1542 43.3695C51.5235 42.9582 51.7555 42.5336 51.7555 42.078V33.4289H51.7504ZM51.7504 45.815C51.6986 45.8528 51.6468 45.8906 51.5951 45.9283C48.5755 48.0801 42.507 49.6117 35.5021 49.6117C28.4973 49.6117 22.4263 48.0801 19.4092 45.9283C19.3552 45.8906 19.3034 45.8528 19.2538 45.815V54.4641C19.2538 54.9198 19.4858 55.3444 19.8551 55.7556C20.3527 56.3068 21.0845 56.8092 21.9942 57.2671C25.0407 58.8031 29.9605 59.7767 35.5046 59.7767C41.0461 59.7767 45.9681 58.8032 49.0151 57.2671C49.9248 56.807 50.6567 56.3068 51.1542 55.7556C51.5235 55.3443 51.7555 54.9197 51.7555 54.4641V45.815H51.7504Z" fill="white"/>
</svg>
