<svg width="24" height="24" viewBox="0 0 24 24" fill="none" xmlns="http://www.w3.org/2000/svg">
<g clip-path="url(#clip0_2292_9999)">
<path d="M15.0171 22.2857C16.0728 22.9668 17.3308 23.2636 18.5796 23.1262C19.8284 22.9889 20.9918 22.4257 21.8742 21.5314L22.6457 20.7772C22.9839 20.4312 23.1732 19.9667 23.1732 19.4829C23.1732 18.9991 22.9839 18.5345 22.6457 18.1886L19.3714 14.9486C19.0284 14.6115 18.5666 14.4226 18.0857 14.4226C17.6047 14.4226 17.143 14.6115 16.8 14.9486V14.9486C16.454 15.2868 15.9895 15.4762 15.5057 15.4762C15.0219 15.4762 14.5573 15.2868 14.2114 14.9486L9.06853 9.80573C8.89697 9.63666 8.76073 9.43517 8.66774 9.21298C8.57475 8.99078 8.52686 8.75232 8.52686 8.51145C8.52686 8.27058 8.57475 8.03211 8.66774 7.80992C8.76073 7.58772 8.89697 7.38623 9.06853 7.21716V7.21716C9.40566 6.87413 9.59456 6.41241 9.59456 5.93145C9.59456 5.45049 9.40566 4.98877 9.06853 4.64573L5.81139 1.38859C5.46546 1.05039 5.00089 0.861023 4.5171 0.861023C4.03332 0.861023 3.56875 1.05039 3.22282 1.38859L2.46853 2.16002C1.57427 3.04243 1.01111 4.20585 0.873739 5.45465C0.736371 6.70344 1.03318 7.96146 1.71425 9.01716C5.2629 14.247 9.77814 18.7506 15.0171 22.2857V22.2857Z" stroke="white" stroke-width="2" stroke-linecap="round" stroke-linejoin="round"/>
</g>
<defs>
<clipPath id="clip0_2292_9999">
<rect width="24" height="24" fill="white"/>
</clipPath>
</defs>
</svg>
