<svg width="72" height="72" viewBox="0 0 72 72" fill="none" xmlns="http://www.w3.org/2000/svg">
<path fill-rule="evenodd" clip-rule="evenodd" d="M50.8499 21.1503C59.0504 29.3508 59.0504 42.6473 50.8499 50.8497C42.6494 59.0501 29.3529 59.0501 21.1506 50.8497C12.9501 42.6492 12.9501 29.3527 21.1506 21.1503C29.3529 12.9499 42.6476 12.9499 50.8499 21.1503ZM44.0073 31.836L48.6583 49.1891C52.7429 45.2686 54.6395 39.8834 54.2262 34.5739L44.0073 31.836ZM46.3485 51.0712L43.6106 40.8521L30.9068 53.5578C36.1129 55.0651 41.8026 54.202 46.3485 51.0712ZM28.1188 52.4991L35.6019 45.0161L18.2469 40.365C19.5384 45.6415 23.1597 50.1305 28.1188 52.4991ZM17.7765 37.4263L27.9937 40.1641L23.3426 22.8111C19.2599 26.7315 17.3633 32.1149 17.7765 37.4263ZM25.6525 20.9271L28.3903 31.1462L41.096 18.4405C35.888 16.9369 30.1983 17.7982 25.6525 20.9271ZM43.8821 19.501L36.3991 26.9841L53.754 31.6351C52.4626 26.3586 48.8412 21.8696 43.8821 19.501ZM42.7973 37.819L40.9764 31.0222L34.1796 29.2013L29.2021 34.1788L31.023 40.9756L37.8198 42.7965L42.7973 37.819Z" fill="currentColor"/>
</svg>
