<svg width="72" height="72" viewBox="0 0 72 72" fill="none" xmlns="http://www.w3.org/2000/svg">
<path fill-rule="evenodd" clip-rule="evenodd" d="M43.3847 59.499C44.469 61.2458 46.083 62.6561 48.0625 63.4743C49.9365 64.2506 51.5628 64.9263 51.5628 64.9263C51.8032 65.0246 52.073 65.0246 52.3134 64.9263C52.3134 64.9263 53.9396 64.2506 55.8137 63.4743C59.5593 61.9214 62 58.2631 62 54.2045V47.1286C62 46.7256 61.7596 46.367 61.3892 46.2171L52.9194 42.7553V8.98277C52.9194 8.43979 52.4804 8 51.9383 8H9.98117C9.43662 8 9 8.43979 9 8.98277V58.5167C9 59.0596 9.43662 59.4994 9.98117 59.4994L43.3847 59.499ZM60.038 47.7869V54.2043C60.038 57.4671 58.0732 60.4105 55.0634 61.6589L51.9384 62.9537L48.8133 61.6589C45.8035 60.4107 43.8388 57.4673 43.8388 54.2043V47.7869L51.938 44.475L60.038 47.7869ZM46.6055 53.9366L50.3193 57.6539C50.7019 58.0396 51.3225 58.0396 51.7076 57.6539L57.7099 51.6418C58.0926 51.2585 58.0926 50.6369 57.7099 50.2537C57.3273 49.8704 56.7066 49.8704 56.324 50.2537L51.0135 55.5704L47.9939 52.546C47.6112 52.1602 46.9882 52.1602 46.6056 52.546C46.2229 52.9292 46.2228 53.5533 46.6055 53.9366ZM50.957 42.7554V9.96528H10.9623V57.5336H42.4433C42.0753 56.4821 41.8766 55.3593 41.8766 54.2045V47.1286C41.8766 46.7256 42.117 46.367 42.4874 46.2171L50.957 42.7554ZM15.8898 42.7431L18.9657 45.8216C19.3484 46.2048 19.969 46.2048 20.3541 45.8216L25.3213 40.8438C25.7039 40.4606 25.7039 39.8365 25.3213 39.4532C24.9386 39.07 24.318 39.07 23.9354 39.4532L19.6575 43.7381L17.2781 41.3524C16.8955 40.9691 16.2724 40.9691 15.8898 41.3524C15.5071 41.7357 15.5071 42.3598 15.8898 42.7431ZM28.2529 44.3966H38.7541C39.2962 44.3966 39.7352 43.9568 39.7352 43.4138C39.7352 42.8733 39.2962 42.431 38.7541 42.431H28.2529C27.7108 42.431 27.2717 42.8733 27.2717 43.4138C27.2717 43.9568 27.7108 44.3966 28.2529 44.3966ZM15.8898 34.7161L18.9657 37.7946C19.3484 38.1779 19.969 38.1779 20.3541 37.7946L25.3213 32.8169C25.7039 32.4336 25.7039 31.8095 25.3213 31.4263C24.9386 31.043 24.318 31.043 23.9354 31.4263L19.6575 35.7087L17.2781 33.3254C16.8955 32.9422 16.2724 32.9422 15.8898 33.3254C15.5071 33.7087 15.5071 34.3329 15.8898 34.7161ZM28.2529 36.3696H44.788C45.3277 36.3696 45.7692 35.9298 45.7692 35.3868C45.7692 34.8439 45.3277 34.4041 44.788 34.4041H28.2529C27.7108 34.4041 27.2717 34.8439 27.2717 35.3868C27.2717 35.9298 27.7108 36.3696 28.2529 36.3696ZM15.8898 26.6866L18.9657 29.7676C19.3484 30.1533 19.969 30.1533 20.3541 29.7676L25.3213 24.7898C25.7039 24.4065 25.7039 23.7849 25.3213 23.4017C24.9386 23.016 24.318 23.016 23.9354 23.4017L19.6575 27.6841L17.2781 25.2984C16.8955 24.9151 16.2724 24.9151 15.8898 25.2984C15.5071 25.6841 15.5071 26.3034 15.8898 26.6866ZM28.2529 28.345H44.788C45.3277 28.345 45.7692 27.9052 45.7692 27.3622C45.7692 26.8193 45.3277 26.3795 44.788 26.3795H28.2529C27.7108 26.3795 27.2717 26.8193 27.2717 27.3622C27.2717 27.9052 27.7108 28.345 28.2529 28.345ZM15.8898 18.662L18.9657 21.743C19.3484 22.1263 19.969 22.1263 20.3541 21.743L25.3213 16.7628C25.7039 16.3795 25.7039 15.7579 25.3213 15.3747C24.9386 14.9914 24.318 14.9914 23.9354 15.3747L19.6575 19.6571L17.2781 17.2714C16.8955 16.8881 16.2724 16.8881 15.8898 17.2714C15.5071 17.6546 15.5071 18.2788 15.8898 18.662ZM28.2529 20.318H44.788C45.3277 20.318 45.7692 19.8757 45.7692 19.3352C45.7692 18.7922 45.3277 18.3524 44.788 18.3524H28.2529C27.7108 18.3524 27.2717 18.7922 27.2717 19.3352C27.2717 19.8757 27.7108 20.318 28.2529 20.318Z" fill="white"/>
</svg>
