<svg width="72" height="72" viewBox="0 0 72 72" fill="none" xmlns="http://www.w3.org/2000/svg">
<path d="M11.7071 11.0023C9.6711 11.0023 8 12.6418 8 14.6444V49.5872C8 51.5875 9.66878 53.2293 11.7071 53.2293H26.9866L24.2557 59.2782H20.7485C20.265 59.2782 19.8745 59.6618 19.8745 60.1368C19.8722 60.3652 19.9652 60.5844 20.1279 60.7465C20.2929 60.9086 20.516 61 20.7485 61H51.2538C51.4863 61.0022 51.7117 60.9109 51.8767 60.7488C52.0418 60.5867 52.1347 60.3652 52.1324 60.1368C52.1324 59.9085 52.0394 59.6893 51.8744 59.5271C51.7094 59.3673 51.4863 59.2759 51.2538 59.2782H47.7513L45.0204 53.2293H60.2998C62.3359 53.2293 64 51.5898 64 49.5872V14.6421C64 12.6418 62.3382 11 60.2998 11L11.7071 11.0023ZM11.7071 12.7263L60.2991 12.724C61.3962 12.724 62.2538 13.5643 62.2538 14.642V49.5872C62.2538 50.665 61.3962 51.5076 60.2991 51.5076H11.7071C10.6101 51.5076 9.75244 50.665 9.75244 49.5872V14.642C9.75244 13.5642 10.6101 12.724 11.7071 12.724V12.7263ZM25.0154 17.0785C19.2049 17.0785 14.4798 21.7252 14.4798 27.4338C14.4798 33.1424 19.2049 37.7845 25.0154 37.7845C30.8258 37.7845 35.5581 33.1423 35.5581 27.4338C35.5581 21.7253 30.826 17.0785 25.0154 17.0785ZM24.1438 18.8412V27.2167L20.1346 34.6125C17.7802 33.0666 16.2322 30.4339 16.2322 27.4336C16.2322 22.9444 19.6906 19.2703 24.1438 18.8412ZM25.8963 18.8412C30.0566 19.2454 33.3521 22.4833 33.7615 26.5684H25.8963V18.8412ZM39.4371 20.088C39.2024 20.088 38.9793 20.177 38.8142 20.3392C38.6492 20.5013 38.5563 20.7228 38.5563 20.9511C38.5586 21.1795 38.6516 21.3987 38.8166 21.5608C38.9816 21.7206 39.2047 21.8097 39.4371 21.8097H48.6411C48.8735 21.8097 49.0967 21.7206 49.2617 21.5608C49.4267 21.3987 49.5197 21.1795 49.5197 20.9511C49.522 20.7228 49.429 20.5013 49.264 20.3392C49.099 20.177 48.8736 20.088 48.6411 20.088H39.4371ZM39.4371 24.5292C39.2047 24.5292 38.9816 24.6183 38.8166 24.7781C38.6515 24.9402 38.5586 25.1595 38.5563 25.3878C38.5563 25.6162 38.6492 25.8376 38.8142 25.9998C38.9793 26.1619 39.2024 26.251 39.4371 26.251H48.6411C48.8735 26.251 49.099 26.1619 49.264 25.9998C49.429 25.8377 49.522 25.6162 49.5197 25.3878C49.5197 25.1595 49.4267 24.9403 49.2617 24.7781C49.0967 24.6183 48.8736 24.5292 48.6411 24.5292H39.4371ZM25.5452 28.2923H33.7615C33.3245 32.665 29.5849 36.0628 25.0157 36.0628C23.835 36.0628 22.7101 35.8367 21.6827 35.4234L25.5452 28.2923ZM49.6056 31.4L49.6033 31.3977C49.1198 31.4 48.7293 31.7859 48.7317 32.2632V45.4384H46.6608V36.5012C46.6608 36.2728 46.5679 36.0536 46.4029 35.8915C46.2379 35.7316 46.0147 35.6403 45.7823 35.6403H40.8085C40.5761 35.6403 40.3529 35.7316 40.1879 35.8915C40.0229 36.0536 39.9299 36.2728 39.9299 36.5012V45.4384H37.859V40.1843C37.8614 39.7093 37.4709 39.3234 36.9851 39.3211H32.0067C31.5232 39.3234 31.1327 39.7093 31.1351 40.1843V45.4384H29.9498C29.7174 45.4384 29.4919 45.5275 29.3269 45.6919C29.1619 45.854 29.0689 46.0732 29.0712 46.3038C29.0712 46.5322 29.1642 46.7514 29.3292 46.9112C29.4942 47.0734 29.7173 47.1624 29.9498 47.1624H56.6407C56.8731 47.1624 57.0962 47.0734 57.2612 46.9112C57.4262 46.7514 57.5192 46.5322 57.5192 46.3038C57.5192 46.0732 57.4286 45.854 57.2635 45.6919C57.0985 45.5275 56.8731 45.4384 56.6407 45.4384H55.4576L55.4553 32.2632C55.4576 31.7859 55.0672 31.4 54.5837 31.3977L49.6056 31.4ZM50.4842 33.1217H53.7125V45.4406H50.4842V33.1217ZM41.6824 37.3665H44.9107V45.4404H41.6824V37.3665ZM32.8854 41.0429H36.1068V45.4384H32.8854V41.0429ZM28.9018 53.2296H43.1025L45.8311 59.2786H26.1659L28.9018 53.2296Z" fill="white"/>
</svg>
