<svg width="72" height="72" viewBox="0 0 72 72" fill="none" xmlns="http://www.w3.org/2000/svg">
<path fill-rule="evenodd" clip-rule="evenodd" d="M35.9995 52.9915C34.0183 52.9915 32.4029 51.3893 32.4029 49.3941V36.6389H28.9588C27.5567 36.6389 26.2462 35.7925 25.6366 34.553C25.0575 33.4345 25.1489 32.1648 25.8804 31.1975L32.9189 21.707C33.7418 20.6187 34.8391 20.0142 35.9973 20.0142C37.186 20.0142 38.2832 20.6188 39.1062 21.707L46.1447 31.1975C46.8458 32.1648 46.9676 33.4345 46.3885 34.553C45.7485 35.7924 44.4379 36.6389 43.0663 36.6389H39.6222V49.3941C39.6222 51.3893 38.0068 52.9915 35.9952 52.9915H35.9995ZM35.969 58.2194C34.1098 58.2194 32.2201 57.9776 30.3324 57.4637C20.3679 54.8336 13.5728 45.4947 14.1523 35.2789C14.1827 34.8556 14.5485 34.4929 15.0057 34.5231C15.4629 34.5534 15.7981 34.9464 15.7676 35.3696C15.219 44.8296 21.526 53.4734 30.7612 55.922C39.9943 58.3706 49.8064 54.0175 54.1041 45.555C54.3175 45.162 54.8052 45.0108 55.2014 45.2224C55.5976 45.4038 55.75 45.8875 55.5671 46.2805C51.7877 53.715 44.0785 58.2195 35.9731 58.2195L35.969 58.2194ZM57.0564 38.4832L57.026 38.4529C56.5688 38.4529 56.2335 38.06 56.264 37.6065C56.7821 28.1769 50.475 19.5331 41.2704 17.0845C32.0373 14.6359 22.1945 18.989 17.8968 27.4211C17.7139 27.8141 17.2262 27.9955 16.83 27.7839C16.4338 27.5723 16.2509 27.0885 16.4643 26.6956C21.0971 17.5683 31.7018 12.8827 41.6663 15.5124C51.6615 18.1726 58.4561 27.5118 57.8771 37.6972C57.8466 38.1506 57.4809 38.4831 57.0542 38.4831L57.0564 38.4832ZM32.1894 61.998H32.0675C19.9692 60.154 10.7059 50.0291 10.0354 37.8785C9.39531 25.7584 17.501 14.6959 29.3246 11.5843C29.7513 11.4634 30.2085 11.7053 30.2999 12.1587C30.4218 12.5819 30.178 13.0354 29.7208 13.1261C18.6587 16.0584 11.0413 26.4251 11.6811 37.8198C12.2907 49.1841 20.9751 58.6746 32.3113 60.3978C32.7685 60.4583 33.0732 60.8815 33.0123 61.3047C32.9514 61.7279 32.5856 62 32.1894 62L32.1894 61.998ZM42.4894 61.4539C42.1237 61.4539 41.7884 61.2121 41.697 60.8493C41.5751 60.4261 41.8494 59.9726 42.2761 59.8517C53.3683 56.9496 60.9556 46.5826 60.346 35.1878C59.7364 23.8236 51.052 14.3032 39.6851 12.6099C39.2584 12.5192 38.9536 12.1262 39.0145 11.6728C39.0755 11.2496 39.5022 10.9473 39.9594 11.0077C52.0576 12.8215 61.3209 22.9767 61.9613 35.0968C62.6318 47.2474 54.5264 58.3093 42.7028 61.4209C42.6418 61.4511 42.5504 61.4511 42.4894 61.4511L42.4894 61.4539ZM33.1954 35.039C33.6526 35.039 34.0183 35.4018 34.0183 35.8552V49.3962C34.0183 50.5147 34.9022 51.3914 35.9995 51.3914C37.0967 51.3914 38.0111 50.5147 38.0111 49.3962V35.8552C38.0111 35.4017 38.3768 35.039 38.8035 35.039H43.0401C43.8326 35.039 44.5641 34.5553 44.9298 33.8298C45.1127 33.4972 45.326 32.8322 44.8384 32.1369L37.7999 22.6769C37.4951 22.2839 36.8855 21.6188 36.0016 21.6188C35.1482 21.6188 34.5386 22.2839 34.2339 22.6769L27.1953 32.1369C26.7077 32.802 26.921 33.4973 27.0734 33.8298C27.4392 34.5553 28.2012 35.039 28.9936 35.039H33.1997H33.1954Z" fill="white"/>
</svg>
