<svg width="72" height="72" viewBox="0 0 72 72" fill="none" xmlns="http://www.w3.org/2000/svg">
<path d="M47.6819 33.4391C47.2854 27.2084 42.1969 22.2628 36.0005 22.2628C29.8042 22.2628 24.7161 27.2084 24.3192 33.4391C22.7087 33.8414 21.5084 35.3279 21.5084 37.0965V52.724C21.5084 54.7999 23.1627 56.4904 25.1942 56.4904H32.1421L31.5187 59.2118H30.3812C29.8972 59.2118 29.5062 59.6113 29.5062 60.1059C29.5062 60.6005 29.8972 61 30.3812 61H32.2105H32.2132H32.2187H39.7848H39.7903H39.793H41.6223C42.1062 61 42.4972 60.6005 42.4972 60.1059C42.4972 59.6113 42.1062 59.2118 41.6223 59.2118H40.4848L39.8614 56.4904H46.812C48.8435 56.4904 50.4978 54.7999 50.4978 52.724L50.4951 37.0965C50.4951 35.3279 49.2951 33.8414 47.6819 33.4391ZM43.0964 33.3329C43.0308 31.8157 42.7984 30.3516 42.4156 29.0049C42.9816 28.7618 43.512 28.4852 44.0042 28.1807C45.0678 29.6476 45.7541 31.4134 45.9209 33.3329H43.0964ZM36.8759 24.1988C38.1856 24.6263 39.3505 25.9898 40.1652 27.9009C39.1399 28.1831 38.0297 28.362 36.8759 28.4206V24.1988ZM35.1259 28.4234C33.9721 28.3647 32.8619 28.1859 31.8366 27.9037C32.6514 25.9925 33.8162 24.6291 35.1259 24.2015V28.4234ZM35.1259 30.2144V33.3326H30.6581C30.7237 32.0026 30.9288 30.7369 31.2487 29.5913C32.4573 29.9378 33.7697 30.1501 35.1259 30.2144ZM35.1259 35.1208V38.2417C33.7697 38.306 32.46 38.5184 31.2487 38.8648C30.9287 37.7192 30.7237 36.4507 30.658 35.1208L35.1259 35.1208ZM35.1259 40.0355V44.2573C33.8162 43.8298 32.6513 42.4663 31.8366 40.5552C32.8592 40.2702 33.9693 40.0942 35.1259 40.0355ZM36.8759 44.2573V40.0355C38.0297 40.0942 39.1399 40.273 40.1652 40.5552C39.3504 42.4664 38.1856 43.8298 36.8759 44.2573ZM36.8759 38.2445V35.1236H41.3437C41.2781 36.4563 41.073 37.722 40.7531 38.8676C39.5445 38.5184 38.2321 38.3088 36.8759 38.2445ZM36.8759 33.3326V30.2144C38.2321 30.1501 39.5418 29.9378 40.7531 29.5913C41.0731 30.7369 41.2781 32.0026 41.3438 33.3326L36.8759 33.3326ZM41.8277 27.3141C41.6308 26.8391 41.4093 26.3865 41.1687 25.959C41.0375 25.7271 40.9008 25.5036 40.7613 25.2912C41.5105 25.7104 42.1996 26.2245 42.8175 26.8168C42.5031 26.9984 42.175 27.1632 41.8277 27.3141ZM30.8331 25.9618C30.5925 26.3893 30.3737 26.842 30.1741 27.3169C29.8268 27.166 29.4987 26.9984 29.1843 26.8196C29.8022 26.2272 30.4913 25.7131 31.2405 25.294C31.101 25.5064 30.9643 25.7271 30.8331 25.9618ZM29.5863 29.0045C29.2035 30.3485 28.971 31.8126 28.9054 33.3326H26.0837C26.2477 31.413 26.934 29.6472 28.0004 28.1803C28.4899 28.4849 29.0203 28.7615 29.5863 29.0045ZM28.9054 35.1208C28.971 36.6407 29.2035 38.1048 29.5863 39.4516C29.0203 39.6947 28.4898 39.9713 27.9977 40.2758C26.934 38.8089 26.245 37.0403 26.0809 35.1208H28.9054ZM30.1741 41.142C30.371 41.617 30.5925 42.0696 30.8331 42.4943C30.9644 42.729 31.1011 42.9497 31.2405 43.1621C30.4913 42.743 29.8023 42.2289 29.1843 41.6365C29.4988 41.4577 29.8269 41.2929 30.1741 41.142ZM41.1688 42.4943C41.4094 42.0668 41.6281 41.6142 41.8277 41.142C42.175 41.2929 42.5031 41.4605 42.8176 41.6393C42.1996 42.2317 41.5106 42.7458 40.7614 43.1649C40.9008 42.9497 41.0375 42.729 41.1688 42.4943ZM44.0015 40.2758C43.5093 39.9712 42.9789 39.6918 42.4129 39.4516C42.7957 38.1048 43.0281 36.6407 43.0965 35.1208H45.9182C45.7542 37.0403 45.0651 38.8089 44.0015 40.2758ZM24.3418 35.3247C24.8887 41.4102 29.9088 46.1934 36.0007 46.1934C42.0955 46.1934 47.1157 41.4099 47.6596 35.3247C48.3022 35.646 48.7452 36.3194 48.7452 37.0962V51.2702L23.2616 51.2729V37.0961C23.2616 36.3194 23.702 35.6489 24.3418 35.3247ZM38.6858 59.2115H33.3184L33.9418 56.4901H38.0651L38.6858 59.2115ZM46.8119 54.6991H25.1944C24.2401 54.6991 23.4499 53.9894 23.2913 53.0617H48.7146C48.556 53.9894 47.7635 54.6991 46.8119 54.6991ZM64 32.6792C64 38.8317 59.7263 44.188 53.8363 45.4147C53.7761 45.4259 53.7187 45.4343 53.6613 45.4343C53.2539 45.4343 52.8874 45.1409 52.8027 44.719C52.707 44.2356 53.0132 43.7635 53.4862 43.6628C58.5638 42.6038 62.2472 37.9881 62.2472 32.6818C62.2472 26.5014 57.3282 21.4748 51.2799 21.4748C50.6209 21.4748 49.9647 21.5363 49.3194 21.6564C49.9537 23.4139 50.3037 25.3111 50.3037 27.2893C50.3037 27.7838 49.9127 28.1834 49.4287 28.1834C48.9448 28.1834 48.5537 27.7838 48.5537 27.2893C48.5537 19.2953 42.1911 12.7934 34.3707 12.7934C28.4236 12.7934 23.0618 16.6297 21.0326 22.341C21.0216 22.3689 21.0107 22.3968 20.9997 22.4248C20.9122 22.8243 20.5623 23.1205 20.1466 23.1205H20.1275C17.3713 23.0674 14.7683 24.118 12.8022 26.0878C10.8362 28.0548 9.75611 30.6896 9.75611 33.5031C9.75611 38.2166 12.8677 42.349 17.3243 43.5478C17.7016 43.6484 18.079 43.7266 18.47 43.7853C18.9485 43.8579 19.2793 44.3106 19.211 44.7995C19.1481 45.2438 18.7735 45.5651 18.3442 45.5651C18.3032 45.5651 18.2594 45.5623 18.2157 45.5567C17.7673 45.4897 17.3161 45.3975 16.8786 45.2801C11.6505 43.8719 8 39.0298 8 33.503C8 30.2032 9.26872 27.1158 11.5738 24.8081C13.7311 22.6483 16.5365 21.4272 19.5333 21.3322C21.9175 15.135 27.8266 11 34.3694 11C40.5844 11 45.9765 14.6547 48.6042 19.9718C49.4819 19.779 50.3788 19.6812 51.2811 19.6812C58.2921 19.6812 63.9984 25.5124 63.9984 32.6793L64 32.6792Z" fill="white"/>
</svg>
